<?xml version="1.0" encoding="UTF-8" standalone="no"?>
<!-- Created with Inkscape (http://www.inkscape.org/) -->

<svg
   width="68.571953mm"
   height="46.48941mm"
   viewBox="0 0 68.571953 46.48941"
   version="1.1"
   id="svg1"
   inkscape:version="1.3.2 (091e20ef0f, 2023-11-25)"
   sodipodi:docname="central-path.svg"
   xmlns:inkscape="http://www.inkscape.org/namespaces/inkscape"
   xmlns:sodipodi="http://sodipodi.sourceforge.net/DTD/sodipodi-0.dtd"
   xmlns="http://www.w3.org/2000/svg"
   xmlns:svg="http://www.w3.org/2000/svg">
  <sodipodi:namedview
     id="namedview1"
     pagecolor="#ffffff"
     bordercolor="#666666"
     borderopacity="1.0"
     inkscape:showpageshadow="2"
     inkscape:pageopacity="0.0"
     inkscape:pagecheckerboard="0"
     inkscape:deskcolor="#d1d1d1"
     inkscape:document-units="mm"
     inkscape:zoom="1.1552056"
     inkscape:cx="94.355495"
     inkscape:cy="19.477052"
     inkscape:window-width="1080"
     inkscape:window-height="1762"
     inkscape:window-x="0"
     inkscape:window-y="158"
     inkscape:window-maximized="1"
     inkscape:current-layer="layer1" />
  <defs
     id="defs1">
    <clipPath
       clipPathUnits="userSpaceOnUse"
       id="clipPath6">
      <path
         d="M 2414.34,5347.68 H 4375.39 V 6665.49 H 2414.34 Z"
         id="path6" />
    </clipPath>
    <clipPath
       clipPathUnits="userSpaceOnUse"
       id="clipPath8">
      <path
         d="M 2414.34,5347.68 H 4375.39 V 6665.49 H 2414.34 Z"
         id="path8" />
    </clipPath>
    <clipPath
       clipPathUnits="userSpaceOnUse"
       id="clipPath10">
      <path
         d="M 2414.34,5347.68 H 4375.39 V 6665.49 H 2414.34 Z"
         id="path10" />
    </clipPath>
    <clipPath
       clipPathUnits="userSpaceOnUse"
       id="clipPath12">
      <path
         d="M 2414.34,5347.68 H 4375.39 V 6665.49 H 2414.34 Z"
         id="path12" />
    </clipPath>
    <clipPath
       clipPathUnits="userSpaceOnUse"
       id="clipPath14">
      <path
         d="M 2414.34,5347.68 H 4375.39 V 6665.49 H 2414.34 Z"
         id="path14" />
    </clipPath>
    <clipPath
       clipPathUnits="userSpaceOnUse"
       id="clipPath16">
      <path
         d="M 2414.34,5347.68 H 4375.39 V 6665.49 H 2414.34 Z"
         id="path16" />
    </clipPath>
    <clipPath
       clipPathUnits="userSpaceOnUse"
       id="clipPath18">
      <path
         d="M 2414.34,5347.68 H 4375.39 V 6665.49 H 2414.34 Z"
         id="path18" />
    </clipPath>
    <clipPath
       clipPathUnits="userSpaceOnUse"
       id="clipPath20">
      <path
         d="M 2414.34,5347.68 H 4375.39 V 6665.49 H 2414.34 Z"
         id="path20" />
    </clipPath>
    <clipPath
       clipPathUnits="userSpaceOnUse"
       id="clipPath22">
      <path
         d="M 2414.34,5347.68 H 4375.39 V 6665.49 H 2414.34 Z"
         id="path22" />
    </clipPath>
    <clipPath
       clipPathUnits="userSpaceOnUse"
       id="clipPath24">
      <path
         d="M 2414.34,5347.68 H 4375.39 V 6665.49 H 2414.34 Z"
         id="path24" />
    </clipPath>
    <clipPath
       clipPathUnits="userSpaceOnUse"
       id="clipPath26">
      <path
         d="M 2414.34,5347.68 H 4375.39 V 6665.49 H 2414.34 Z"
         id="path26" />
    </clipPath>
    <clipPath
       clipPathUnits="userSpaceOnUse"
       id="clipPath28">
      <path
         d="M 2414.34,5347.68 H 4375.39 V 6665.49 H 2414.34 Z"
         id="path28" />
    </clipPath>
    <clipPath
       clipPathUnits="userSpaceOnUse"
       id="clipPath30">
      <path
         d="M 2414.34,5347.68 H 4375.39 V 6665.49 H 2414.34 Z"
         id="path30" />
    </clipPath>
    <clipPath
       clipPathUnits="userSpaceOnUse"
       id="clipPath32">
      <path
         d="M 2414.34,5347.68 H 4375.39 V 6665.49 H 2414.34 Z"
         id="path32" />
    </clipPath>
    <clipPath
       clipPathUnits="userSpaceOnUse"
       id="clipPath34">
      <path
         d="M 2414.34,5347.68 H 4375.39 V 6665.49 H 2414.34 Z"
         id="path34" />
    </clipPath>
    <clipPath
       clipPathUnits="userSpaceOnUse"
       id="clipPath36">
      <path
         d="M 2414.34,6683.19 V 5347.68 h 1961.05 v 1335.51 z"
         id="path36" />
    </clipPath>
    <clipPath
       clipPathUnits="userSpaceOnUse"
       id="clipPath38">
      <path
         d="M 2414.34,6683.19 V 5347.68 h 1961.05 v 1335.51 z"
         id="path38" />
    </clipPath>
  </defs>
  <g
     inkscape:label="Layer 1"
     inkscape:groupmode="layer"
     id="layer1"
     transform="translate(-60.844334,-53.47085)">
    <path
       id="path5"
       d="m 4357.33,6122.15 -543.71,543.34"
       style="fill:none;stroke:#000000;stroke-width:2.21171;stroke-linecap:butt;stroke-linejoin:round;stroke-miterlimit:10;stroke-dasharray:none;stroke-opacity:1"
       transform="matrix(0.03527778,0,0,-0.03527778,-24.328221,288.61454)"
       clip-path="url(#clipPath6)" />
    <path
       id="path7"
       d="M 3814.36,6665.49 2998.61,6303.14"
       style="fill:none;stroke:#000000;stroke-width:2.21171;stroke-linecap:butt;stroke-linejoin:round;stroke-miterlimit:10;stroke-dasharray:none;stroke-opacity:1"
       transform="matrix(0.03527778,0,0,-0.03527778,-24.328221,288.61454)"
       clip-path="url(#clipPath8)" />
    <path
       id="path9"
       d="M 3081.18,6385.71 2982.39,5792.6"
       style="fill:none;stroke:#000000;stroke-width:2.21171;stroke-linecap:butt;stroke-linejoin:round;stroke-miterlimit:10;stroke-dasharray:none;stroke-opacity:1"
       transform="matrix(0.03527778,0,0,-0.03527778,-24.328221,288.61454)"
       clip-path="url(#clipPath10)" />
    <path
       id="path11"
       d="m 2932.99,5875.18 691.53,-395.54"
       style="fill:none;stroke:#000000;stroke-width:2.21171;stroke-linecap:butt;stroke-linejoin:round;stroke-miterlimit:10;stroke-dasharray:none;stroke-opacity:1"
       transform="matrix(0.03527778,0,0,-0.03527778,-24.328221,288.61454)"
       clip-path="url(#clipPath12)" />
    <path
       id="path13"
       d="m 3517.62,5496.23 592.74,197.58"
       style="fill:none;stroke:#000000;stroke-width:2.21171;stroke-linecap:butt;stroke-linejoin:round;stroke-miterlimit:10;stroke-dasharray:none;stroke-opacity:1"
       transform="matrix(0.03527778,0,0,-0.03527778,-24.328221,288.61454)"
       clip-path="url(#clipPath14)" />
    <path
       id="path15"
       d="m 4036.27,5627.83 296.37,593.11"
       style="fill:none;stroke:#000000;stroke-width:2.21171;stroke-linecap:butt;stroke-linejoin:round;stroke-miterlimit:10;stroke-dasharray:none;stroke-opacity:1"
       transform="matrix(0.03527778,0,0,-0.03527778,-24.328221,288.61454)"
       clip-path="url(#clipPath16)" />
    <path
       id="path17"
       d="m 4114.05,6138.37 -1.85,30.22 -5.53,29.49 -9.21,28.76 -12.17,27.27 -14,26.18 -16.22,24.69 -16.96,23.23 -17.69,22.11 -18.44,21.02 -19.16,19.9 -19.17,19.17 -19.91,18.06 -20.27,17.33 -21.01,16.22 -21.75,15.11 -22.85,13.27 -23.59,11.8 -24.34,9.21 -25.43,6.63 -25.8,3.69 -25.81,1.11 -25.8,-1.48 -25.43,-3.32 -24.33,-4.79 -23.6,-5.89 -23.22,-6.64 -22.12,-7.37 -21.74,-7.38 -21.01,-8.11 -20.65,-8.47 -20.64,-8.48 -20.27,-9.22 -20.28,-9.21 -19.9,-9.96 -20.28,-10.32 -20.64,-11.06 -20.64,-11.42 -21.01,-12.54 -21.01,-13.27 -21.39,-14.74 -21.38,-16.22 -21.01,-17.33 -20.64,-19.53 -19.17,-21.01 -17.69,-23.22 -16.22,-24.7 -13.64,-26.54 -11.43,-28.02 -9.21,-29.12 -7,-30.23 -4.43,-30.96 -1.84,-31.33 0.73,-31.7 4.06,-31.71 7.37,-30.96 11.06,-29.86 15.12,-28.01 18.43,-26.17 21.01,-23.96 22.85,-21.75 24.33,-19.54 25.43,-18.06 26.18,-15.85 26.17,-14.75 26.91,-12.9 26.91,-11.43 27.28,-9.95 27.64,-8.48 27.28,-7 28.01,-5.53 27.65,-3.69 27.65,-2.21 27.64,-0.37 27.65,1.11 27.28,2.21 26.91,4.06 26.54,5.16 26.17,6.63 25.8,7.74 25.44,8.85 24.69,9.95 24.7,11.06 23.96,12.53 23.59,13.64 22.86,14.75 22.11,16.22 21.39,17.69 20.64,18.43 19.54,20.28 18.43,21.38 17.69,22.11 16.22,23.59 15.11,25.07 14.01,25.8 12.17,26.91 10.68,27.65 8.11,28.75 5.16,29.86 2.22,29.86"
       style="fill:none;stroke:#000000;stroke-width:2.21171;stroke-linecap:butt;stroke-linejoin:round;stroke-miterlimit:10;stroke-dasharray:26.5405;stroke-dashoffset:0;stroke-opacity:1"
       transform="matrix(0.03527778,0,0,-0.03527778,-24.328221,288.61454)"
       clip-path="url(#clipPath18)" />
    <path
       id="path19"
       d="m 4203.99,6138.37 -2.95,35.75 -10.69,34.65 -16.22,32.81 -19.9,30.23 -21.39,28.75 -22.11,26.54 -22.12,25.06 -21.75,23.96 -21.75,22.86 -21.75,22.12 -21.38,21.38 -21.74,21.01 -21.75,20.27 -22.12,19.91 -22.85,19.53 -23.97,18.44 -24.69,17.32 -26.54,14.75 -28.75,10.32 -29.86,5.16 -30.96,-0.74 -30.97,-5.16 -29.49,-7.37 -28.38,-8.85 -27.28,-9.58 -25.81,-9.59 -24.69,-9.95 -24.33,-9.58 -23.22,-9.96 -23.22,-9.95 -22.86,-9.95 -22.48,-9.96 -22.86,-10.32 -22.86,-10.69 -23.22,-10.68 -23.59,-11.43 -24.33,-12.17 -25.07,-12.53 -25.8,-14.01 -26.91,-14.74 -27.64,-16.59 -27.65,-18.8 -27.28,-21.01 -25.06,-23.96 -21.75,-27.28 -17.33,-29.49 -14.01,-31.7 -11.05,-33.18 -8.85,-34.28 -7.37,-35.02 -5.53,-35.75 -4.06,-36.87 -1.84,-37.96 1.11,-37.97 5.52,-37.97 11.8,-36.12 18.06,-33.18 24.33,-29.86 27.65,-26.17 29.86,-23.59 30.23,-21.38 30.59,-19.9 30.59,-18.07 30.6,-17.32 30.59,-15.85 30.6,-15.12 30.96,-13.64 30.97,-12.53 31.7,-11.06 32.07,-8.84 32.81,-7.01 32.8,-4.05 33.18,-1.48 33.18,1.11 32.8,3.69 32.44,5.16 31.7,7 31.33,8.48 30.6,9.21 30.59,10.69 29.86,11.8 29.86,12.9 29.12,14.38 28.38,15.85 27.65,18.06 26.17,19.54 25.07,21.74 23.22,23.6 21.75,25.43 20.28,26.54 19.16,27.65 17.7,28.38 16.95,29.49 15.85,30.6 14.75,31.33 13.64,32.81 11.79,33.54 8.48,34.65 3.69,35.76"
       style="fill:none;stroke:#000000;stroke-width:2.21171;stroke-linecap:butt;stroke-linejoin:round;stroke-miterlimit:10;stroke-dasharray:26.5405;stroke-dashoffset:0;stroke-opacity:1"
       transform="matrix(0.03527778,0,0,-0.03527778,-24.328221,288.61454)"
       clip-path="url(#clipPath20)" />
    <path
       id="path21"
       d="m 4249.7,6138.37 -2.95,38.7 -16.22,36.86 -23.59,33.92 -25.81,31.33 -25.8,28.75 -25.06,26.91 -24.33,25.8 -23.6,24.33 -23.22,23.23 -22.48,22.85 -22.12,22.12 -22.12,21.74 -22.11,21.75 -22.49,21.38 -22.85,21.39 -23.23,21.37 -24.7,21.02 -26.17,19.53 -28.75,15.49 -32.07,6.26 -33.91,-4.05 -33.55,-9.22 -31.7,-11.43 -30.23,-11.42 -28.01,-11.43 -26.91,-11.43 -25.8,-11.06 -25.07,-10.68 -24.33,-10.33 -23.59,-10.69 -23.59,-10.32 -23.59,-10.32 -23.23,-10.69 -23.96,-10.69 -24.33,-11.06 -24.69,-11.42 -25.81,-11.8 -26.91,-12.54 -28.38,-13.63 -29.49,-14.38 -31.33,-15.85 -32.44,-18.06 -32.8,-20.65 -29.86,-24.69 -22.86,-29.49 -15.85,-32.81 -11.06,-34.28 -9.21,-35.76 -7.38,-36.12 -7,-36.86 -5.9,-37.97 -5.53,-39.08 -4.79,-40.54 -2.58,-41.66 1.11,-42.02 9.21,-40.55 21.02,-35.39 29.85,-29.85 33.55,-25.81 34.28,-22.85 33.91,-21.38 33.18,-19.91 32.44,-18.8 32.07,-18.43 31.7,-17.32 31.7,-16.96 31.7,-16.22 32.07,-15.48 32.81,-14.74 33.54,-13.27 34.28,-10.33 35.76,-6.63 35.75,-2.21 36.13,2.21 35.76,5.53 34.64,7.37 34.29,9.22 33.54,9.58 32.81,10.69 32.81,11.06 32.8,12.16 32.44,12.91 32.07,14 32.07,16.22 30.6,18.43 28.75,21.38 26.17,24.7 23.22,26.91 21.01,29.12 19.54,30.23 18.43,30.59 17.33,31.33 16.95,31.71 16.59,32.43 16.22,33.18 15.85,34.28 14.74,35.39 12.91,36.86 7.74,38.34"
       style="fill:none;stroke:#000000;stroke-width:2.21171;stroke-linecap:butt;stroke-linejoin:round;stroke-miterlimit:10;stroke-dasharray:26.5405;stroke-dashoffset:0;stroke-opacity:1"
       transform="matrix(0.03527778,0,0,-0.03527778,-24.328221,288.61454)"
       clip-path="url(#clipPath22)" />
    <path
       id="path23"
       d="M 3485.18,5347.68 2414.34,6418.89"
       style="fill:none;stroke:#000000;stroke-width:2.21171;stroke-linecap:butt;stroke-linejoin:round;stroke-miterlimit:10;stroke-dasharray:none;stroke-opacity:1"
       transform="matrix(0.03527778,0,0,-0.03527778,-24.328221,288.61454)"
       clip-path="url(#clipPath24)" />
    <path
       id="path25"
       d="m 2579.12,6253.75 222.27,222.27"
       style="fill:none;stroke:#000000;stroke-width:2.21171;stroke-linecap:butt;stroke-linejoin:round;stroke-miterlimit:10;stroke-dasharray:none;stroke-opacity:1"
       transform="matrix(0.03527778,0,0,-0.03527778,-24.328221,288.61454)"
       clip-path="url(#clipPath26)" />
    <path
       id="path27"
       d="m 2762.69,6456.48 38.7,19.54 -19.53,-39.07 -19.17,19.53"
       style="fill:#000000;fill-opacity:1;fill-rule:evenodd;stroke:#000000;stroke-width:2.21171;stroke-linecap:butt;stroke-linejoin:round;stroke-miterlimit:10;stroke-dasharray:none;stroke-opacity:1;paint-order:stroke fill markers"
       transform="matrix(0.03527778,0,0,-0.03527778,-24.328221,288.61454)"
       clip-path="url(#clipPath28)" />
    <path
       id="path29"
       d="m 2762.69,6456.48 38.7,19.54 -19.53,-39.07 -19.17,19.53 v 0"
       style="fill:none;stroke:#000000;stroke-width:2.21171;stroke-linecap:butt;stroke-linejoin:round;stroke-miterlimit:10;stroke-dasharray:none;stroke-opacity:1"
       transform="matrix(0.03527778,0,0,-0.03527778,-24.328221,288.61454)"
       clip-path="url(#clipPath30)" />
    <path
       id="path31"
       d="m 3730.68,5360.58 -987.89,988.27"
       style="fill:none;stroke:#000000;stroke-width:2.21171;stroke-linecap:butt;stroke-linejoin:round;stroke-miterlimit:10;stroke-dasharray:26.5405;stroke-dashoffset:0;stroke-opacity:1"
       transform="matrix(0.03527778,0,0,-0.03527778,-24.328221,288.61454)"
       clip-path="url(#clipPath32)" />
    <path
       id="path33"
       d="m 3638.16,6137.63 h 0.37 -0.37 l -0.37,-0.37 -0.37,-0.37 h -0.37 l -0.37,-0.37 -0.36,-0.36 -0.37,-0.37 -0.37,-0.37 -0.74,-0.37 -0.73,-0.74 -0.74,-0.36 -1.11,-0.74 -0.74,-0.74 -1.47,-1.11 -1.11,-1.1 -1.84,-1.11 -1.84,-1.47 -2.21,-1.48 -2.22,-1.84 -2.95,-2.21 -3.31,-2.21 -3.69,-2.95 -4.06,-3.32 -5.16,-3.69 -5.52,-4.05 -6.64,-5.16 -7.37,-5.53 -8.48,-6.27 -9.58,-7.37 -11.06,-8.48 -12.53,-9.21 -14.01,-10.7 -15.85,-11.79 -17.7,-13.27 -18.8,-14.38 -20.64,-15.48 -22.12,-16.59 -23.22,-16.95 -23.59,-17.33 -23.96,-17.32 -23.96,-16.59 -23.59,-15.85 -22.86,-14.38 -22.11,-12.53 -21.02,-11.06 -20.27,-9.21 -19.54,-7.37 -18.06,-5.9 -17.69,-4.06 -16.59,-2.95 -15.85,-1.84 -14.75,-0.74 -13.64,-0.37 -12.89,0.37 -11.8,0.74 -11.06,0.74 -9.59,1.1 -8.84,1.11 -7.74,0.74 -7.38,1.1 -6.26,1.11 -5.53,0.73 -4.79,0.74 -4.42,0.74 -3.69,0.74 -3.32,0.73 -2.95,0.37 -2.58,0.37 -2.21,0.74 h -1.84 l -1.85,0.37 -1.47,0.37 -1.11,0.36 h -1.1 l -1.11,0.37 h -0.74 l -0.73,0.37 h -1.48 l -0.37,0.37 h -1.47 l -0.37,0.37 h -1.11"
       style="fill:none;stroke:#000000;stroke-width:2.21171;stroke-linecap:butt;stroke-linejoin:round;stroke-miterlimit:10;stroke-dasharray:none;stroke-opacity:1"
       transform="matrix(0.03527778,0,0,-0.03527778,-24.328221,288.61454)"
       clip-path="url(#clipPath34)" />
    <path
       id="path35"
       d="m 3250,5854.9 c 0,-7.33 -5.94,-13.27 -13.27,-13.27 -7.32,0 -13.27,5.94 -13.27,13.27 0,7.33 5.95,13.27 13.27,13.27 7.33,0 13.27,-5.94 13.27,-13.27"
       style="fill:#000000;fill-opacity:1;fill-rule:nonzero;stroke:#000000;stroke-width:2.21171;stroke-linecap:butt;stroke-linejoin:round;stroke-miterlimit:10;stroke-dasharray:none;stroke-opacity:1"
       transform="matrix(0.03527778,0,0,-0.03527778,-24.328221,288.61454)"
       clip-path="url(#clipPath36)" />
    <path
       id="path37"
       d="m 3004.14,5842 c 0,-7.33 -5.95,-13.27 -13.28,-13.27 -7.32,0 -13.27,5.94 -13.27,13.27 0,7.33 5.95,13.27 13.27,13.27 7.33,0 13.28,-5.94 13.28,-13.27"
       style="fill:#000000;fill-opacity:1;fill-rule:nonzero;stroke:#000000;stroke-width:2.21171;stroke-linecap:butt;stroke-linejoin:round;stroke-miterlimit:10;stroke-dasharray:none;stroke-opacity:1"
       transform="matrix(0.03527778,0,0,-0.03527778,-24.328221,288.61454)"
       clip-path="url(#clipPath38)" />
    <path
       id="path39"
       d="m 76.287858,58.963437 c -0.05788,0 -0.107487,0 -0.157096,0.04961 -0.05375,0.05374 -0.06201,0.111622 -0.06201,0.136427 0,0.08268 0.06201,0.124023 0.128159,0.124023 0.103351,0 0.198437,-0.08682 0.198437,-0.227377 0,-0.169498 -0.165364,-0.301789 -0.413411,-0.301789 -0.475425,0 -0.942578,0.504362 -0.942578,1.000455 0,0.314193 0.20257,0.591177 0.570508,0.591177 0.500226,0 0.797882,-0.37207 0.797882,-0.413411 0,-0.02066 -0.02479,-0.04547 -0.04547,-0.04547 -0.01654,0 -0.02479,0.0083 -0.04548,0.03307 -0.276984,0.351398 -0.661458,0.351398 -0.7028,0.351398 -0.219106,0 -0.314192,-0.173632 -0.314192,-0.384471 0,-0.144695 0.07028,-0.483693 0.190169,-0.702799 0.107487,-0.198438 0.301792,-0.351401 0.496094,-0.351401 0.115755,0 0.252182,0.04548 0.301791,0.140559 z m 2.470132,25.058936 c 0.02066,-0.09095 0.103354,-0.413412 0.347266,-0.413412 0.01654,0 0.103354,0 0.177768,0.04547 -0.09922,0.01654 -0.1695,0.107487 -0.1695,0.190169 0,0.05788 0.03721,0.124024 0.132291,0.124024 0.07855,0 0.19017,-0.06615 0.19017,-0.206706 0,-0.181901 -0.206706,-0.23151 -0.326594,-0.23151 -0.202573,0 -0.326596,0.186036 -0.367938,0.268718 -0.09095,-0.23151 -0.276984,-0.268718 -0.380338,-0.268718 -0.367935,0 -0.566372,0.454752 -0.566372,0.54157 0,0.03721 0.03721,0.03721 0.04134,0.03721 0.02894,0 0.04134,-0.0083 0.04547,-0.04134 0.11989,-0.372071 0.351401,-0.458886 0.471289,-0.458886 0.06615,0 0.190169,0.03307 0.190169,0.235643 0,0.107487 -0.05788,0.343133 -0.190169,0.835092 -0.05374,0.219109 -0.177766,0.367937 -0.334862,0.367937 -0.02066,0 -0.09922,0 -0.173633,-0.04548 0.08681,-0.02066 0.165365,-0.09508 0.165365,-0.190169 0,-0.09508 -0.07855,-0.124023 -0.132292,-0.124023 -0.103354,0 -0.190169,0.09095 -0.190169,0.202573 0,0.161229 0.173632,0.231507 0.330729,0.231507 0.23151,0 0.355534,-0.243911 0.367935,-0.26458 0.04134,0.128156 0.1695,0.26458 0.380338,0.26458 0.359669,0 0.56224,-0.450617 0.56224,-0.541567 0,-0.03307 -0.03307,-0.03307 -0.04547,-0.03307 -0.02894,0 -0.03721,0.01241 -0.04548,0.03721 -0.115755,0.376203 -0.351398,0.463021 -0.467153,0.463021 -0.136428,0 -0.19017,-0.115755 -0.19017,-0.23151 0,-0.07855 0.02066,-0.157097 0.05788,-0.31006 z m 0,0"
       style="fill:#000000;fill-opacity:1;fill-rule:nonzero;stroke:none;stroke-width:0.352777" />
    <path
       id="path40"
       d="m 80.882925,83.101498 c 0.04548,-0.02066 0.04548,-0.03307 0.04548,-0.04134 0,-0.02479 -0.02066,-0.03307 -0.03307,-0.03307 -0.01241,0 -0.421679,0.07855 -0.487825,0.09095 l -0.05788,-0.454753 c -0.0041,-0.03307 -0.0083,-0.06201 -0.03721,-0.06201 -0.02479,0 -0.03721,0.02066 -0.04134,0.06201 l -0.05374,0.454753 -0.45062,-0.08682 c -0.02894,-0.0041 -0.03721,-0.0041 -0.03721,-0.0041 -0.01241,0 -0.03721,0.0083 -0.03721,0.03307 0,0.0083 0.0083,0.01654 0.01241,0.02479 0.01241,0.0083 0.40101,0.186036 0.454752,0.210841 l -0.223242,0.409276 c -0.01654,0.02894 -0.01654,0.03307 -0.01654,0.04134 0,0.01654 0.01241,0.03307 0.02894,0.03307 0.02479,0 0.07441,-0.05788 0.1695,-0.169497 0.06201,-0.06615 0.128156,-0.132292 0.194302,-0.198438 0.119891,0.119888 0.293524,0.314193 0.322461,0.34313 0.02066,0.02066 0.02479,0.02479 0.03721,0.02479 0.01654,0 0.03307,-0.01654 0.03307,-0.03307 0,-0.01241 -0.02894,-0.06615 -0.04548,-0.09922 l -0.194302,-0.347265 z m 0,0"
       style="fill:#000000;fill-opacity:1;fill-rule:nonzero;stroke:none;stroke-width:0.352777" />
    <path
       id="path41"
       d="m 92.52666,82.024559 c 0.02066,-0.09095 0.103352,-0.413411 0.347266,-0.413411 0.01654,0 0.103352,0 0.177766,0.04548 -0.09922,0.01654 -0.1695,0.107487 -0.1695,0.190169 0,0.05788 0.03721,0.124023 0.132291,0.124023 0.07855,0 0.190172,-0.06615 0.190172,-0.206705 0,-0.181901 -0.206708,-0.231511 -0.326596,-0.231511 -0.202571,0 -0.326597,0.186037 -0.367935,0.268719 -0.09095,-0.23151 -0.276987,-0.268719 -0.380339,-0.268719 -0.367937,0 -0.566375,0.454753 -0.566375,0.541568 0,0.03721 0.03721,0.03721 0.04134,0.03721 0.02894,0 0.04134,-0.0083 0.04548,-0.04134 0.119888,-0.37207 0.351398,-0.458888 0.471289,-0.458888 0.06615,0 0.190169,0.03307 0.190169,0.235646 0,0.107487 -0.05788,0.34313 -0.190169,0.835091 -0.05375,0.219107 -0.177768,0.367935 -0.334864,0.367935 -0.02066,0 -0.09922,0 -0.173633,-0.04547 0.08682,-0.02066 0.165364,-0.09508 0.165364,-0.190169 0,-0.09509 -0.07855,-0.124024 -0.132291,-0.124024 -0.103352,0 -0.19017,0.09095 -0.19017,0.202573 0,0.161229 0.173633,0.231511 0.33073,0.231511 0.23151,0 0.355533,-0.243914 0.367937,-0.264584 0.04134,0.128156 0.169497,0.264584 0.380336,0.264584 0.359669,0 0.562239,-0.45062 0.562239,-0.541571 0,-0.03307 -0.03307,-0.03307 -0.04547,-0.03307 -0.02894,0 -0.03721,0.01241 -0.04547,0.03721 -0.115756,0.376206 -0.351401,0.463021 -0.467157,0.463021 -0.136424,0 -0.190169,-0.115755 -0.190169,-0.231511 0,-0.07855 0.02066,-0.157093 0.05788,-0.310057 z m 0,0"
       style="fill:#000000;fill-opacity:1;fill-rule:nonzero;stroke:none;stroke-width:0.352777" />
    <path
       id="path42"
       d="m 94.652627,81.106789 c 0.04548,-0.02066 0.04548,-0.03307 0.04548,-0.04134 0,-0.02479 -0.02066,-0.03307 -0.03307,-0.03307 -0.01241,0 -0.42168,0.07855 -0.487826,0.09095 l -0.05788,-0.454755 c -0.0041,-0.03307 -0.0083,-0.06201 -0.03721,-0.06201 -0.02479,0 -0.03721,0.02066 -0.04134,0.06201 l -0.05374,0.454755 -0.45062,-0.08682 c -0.02894,-0.0041 -0.03721,-0.0041 -0.03721,-0.0041 -0.01241,0 -0.03721,0.0083 -0.03721,0.03307 0,0.0083 0.0083,0.01654 0.01241,0.02479 0.01241,0.0083 0.40101,0.186034 0.454753,0.210839 l -0.223243,0.409278 c -0.01654,0.02894 -0.01654,0.03307 -0.01654,0.04134 0,0.01654 0.01241,0.03307 0.02894,0.03307 0.02479,0 0.07441,-0.05788 0.169498,-0.1695 0.06201,-0.06615 0.128158,-0.132291 0.194304,-0.198437 0.119888,0.11989 0.293521,0.314192 0.322461,0.34313 0.02066,0.02066 0.02479,0.02479 0.03721,0.02479 0.01654,0 0.03307,-0.01654 0.03307,-0.03307 0,-0.01241 -0.02894,-0.06614 -0.04547,-0.09922 l -0.194305,-0.347266 z m 0,0"
       style="fill:#000000;fill-opacity:1;fill-rule:nonzero;stroke:none;stroke-width:0.352777" />
    <path
       id="path43"
       d="m 96.137807,83.930388 c 0,-0.01241 0,-0.01654 -0.05788,-0.07855 -0.438216,-0.442352 -0.553972,-1.10381 -0.553972,-1.64538 0,-0.607714 0.136428,-1.219563 0.566375,-1.661912 0.04547,-0.04134 0.04547,-0.04548 0.04547,-0.05788 0,-0.02479 -0.01241,-0.03721 -0.03307,-0.03721 -0.03721,0 -0.351398,0.239779 -0.558104,0.686263 -0.181901,0.388607 -0.223242,0.777214 -0.223242,1.070735 0,0.276987 0.04134,0.702802 0.231511,1.099677 0.210838,0.429948 0.51263,0.661458 0.549835,0.661458 0.02066,0 0.03307,-0.01241 0.03307,-0.03721 z m 1.236102,-3.092318 c 0,-0.08268 0,-0.09095 -0.08268,-0.09095 -0.214974,0.223243 -0.525034,0.223243 -0.636654,0.223243 v 0.111619 c 0.07028,0 0.276984,0 0.458885,-0.09095 v 1.819011 c 0,0.124021 -0.01241,0.169497 -0.326593,0.169497 h -0.111623 v 0.107487 c 0.124024,-0.01241 0.425815,-0.01241 0.566375,-0.01241 0.14056,0 0.446485,0 0.570508,0.01241 V 82.97954 h -0.111622 c -0.318326,0 -0.326594,-0.04134 -0.326594,-0.169497 z m 2.338874,1.124479 c 0,-0.28112 -0.01654,-0.562239 -0.14056,-0.822687 -0.161229,-0.339 -0.450617,-0.392743 -0.595312,-0.392743 -0.210839,0 -0.471289,0.09095 -0.611849,0.417545 -0.115755,0.243914 -0.132292,0.516765 -0.132292,0.797885 0,0.264583 0.01654,0.578776 0.157097,0.847495 0.152963,0.285252 0.409278,0.355531 0.582911,0.355531 0.190169,0 0.454753,-0.07441 0.611849,-0.409276 0.11162,-0.243911 0.128156,-0.516766 0.128156,-0.79375 z m -0.740005,1.124479 c -0.136427,0 -0.347266,-0.08682 -0.409279,-0.425812 -0.03721,-0.210841 -0.03721,-0.533302 -0.03721,-0.740008 0,-0.227378 0,-0.458888 0.02894,-0.649055 0.06615,-0.417547 0.326594,-0.446484 0.417544,-0.446484 0.115756,0 0.347266,0.06201 0.413412,0.409276 0.03307,0.198437 0.03307,0.463021 0.03307,0.686263 0,0.264583 0,0.500226 -0.03721,0.727604 -0.05375,0.330729 -0.252182,0.438216 -0.409279,0.438216 z m 1.896522,-0.880567 c 0,-0.272849 -0.0413,-0.698665 -0.23151,-1.09554 -0.21084,-0.429947 -0.51676,-0.661458 -0.54984,-0.661458 -0.0207,0 -0.0372,0.01654 -0.0372,0.03721 0,0.01241 0,0.01654 0.0703,0.08268 0.34314,0.347266 0.54157,0.905373 0.54157,1.63711 0,0.603583 -0.12815,1.219565 -0.56224,1.666049 -0.0496,0.04134 -0.0496,0.04548 -0.0496,0.05788 0,0.02066 0.0165,0.03721 0.0372,0.03721 0.0331,0 0.3514,-0.239781 0.55811,-0.686266 0.17777,-0.388604 0.22324,-0.777213 0.22324,-1.074869 z m 0,0"
       style="fill:#000000;fill-opacity:1;fill-rule:nonzero;stroke:none;stroke-width:0.352777" />
  </g>
</svg>
