<?xml version="1.0" encoding="UTF-8" standalone="no"?>
<!-- Created with Inkscape (http://www.inkscape.org/) -->

<svg
   width="51.635281mm"
   height="51.679729mm"
   viewBox="0 0 51.635281 51.679729"
   version="1.1"
   id="svg1"
   inkscape:version="1.3.2 (091e20ef0f, 2023-11-25)"
   sodipodi:docname="gd-stepsize-large.svg"
   xmlns:inkscape="http://www.inkscape.org/namespaces/inkscape"
   xmlns:sodipodi="http://sodipodi.sourceforge.net/DTD/sodipodi-0.dtd"
   xmlns="http://www.w3.org/2000/svg"
   xmlns:svg="http://www.w3.org/2000/svg">
  <sodipodi:namedview
     id="namedview1"
     pagecolor="#ffffff"
     bordercolor="#666666"
     borderopacity="1.0"
     inkscape:showpageshadow="2"
     inkscape:pageopacity="0.0"
     inkscape:pagecheckerboard="0"
     inkscape:deskcolor="#d1d1d1"
     inkscape:document-units="mm"
     inkscape:zoom="1.1604666"
     inkscape:cx="180.53082"
     inkscape:cy="151.23227"
     inkscape:window-width="1080"
     inkscape:window-height="1580"
     inkscape:window-x="0"
     inkscape:window-y="340"
     inkscape:window-maximized="1"
     inkscape:current-layer="layer1" />
  <defs
     id="defs1">
    <clipPath
       clipPathUnits="userSpaceOnUse"
       id="clipPath10000">
      <path
         d="M 43.2,43.2 H 309.6 V 309.6 H 43.2 Z"
         transform="translate(4.9997999e-5)"
         id="path10000" />
    </clipPath>
    <clipPath
       clipPathUnits="userSpaceOnUse"
       id="clipPath10001">
      <path
         d="M 43.2,43.2 H 309.6 V 309.6 H 43.2 Z"
         transform="translate(4.9997999e-5)"
         id="path10001" />
    </clipPath>
    <clipPath
       clipPathUnits="userSpaceOnUse"
       id="clipPath10002">
      <path
         d="M 43.2,43.2 H 309.6 V 309.6 H 43.2 Z"
         transform="translate(4.9997999e-5)"
         id="path10002" />
    </clipPath>
    <clipPath
       clipPathUnits="userSpaceOnUse"
       id="clipPath10003">
      <path
         d="M 43.2,43.2 H 309.6 V 309.6 H 43.2 Z"
         transform="translate(4.9997999e-5)"
         id="path10003" />
    </clipPath>
    <clipPath
       clipPathUnits="userSpaceOnUse"
       id="clipPath10004">
      <path
         d="M 43.2,43.2 H 309.6 V 309.6 H 43.2 Z"
         transform="translate(4.9997999e-5)"
         id="path10004" />
    </clipPath>
    <clipPath
       clipPathUnits="userSpaceOnUse"
       id="clipPath10005">
      <path
         d="M 43.2,43.2 H 309.6 V 309.6 H 43.2 Z"
         transform="translate(4.9997999e-5)"
         id="path10005" />
    </clipPath>
    <clipPath
       clipPathUnits="userSpaceOnUse"
       id="clipPath10006">
      <path
         d="M 43.2,43.2 H 309.6 V 309.6 H 43.2 Z"
         transform="translate(4.9997999e-5)"
         id="path10006" />
    </clipPath>
    <clipPath
       clipPathUnits="userSpaceOnUse"
       id="clipPath10007">
      <path
         d="M 43.2,43.2 H 309.6 V 309.6 H 43.2 Z"
         transform="translate(4.9997999e-5)"
         id="path10007" />
    </clipPath>
    <clipPath
       clipPathUnits="userSpaceOnUse"
       id="clipPath10008">
      <path
         d="M 43.2,43.2 H 309.6 V 309.6 H 43.2 Z"
         transform="translate(4.9997999e-5)"
         id="path10008" />
    </clipPath>
    <clipPath
       clipPathUnits="userSpaceOnUse"
       id="clipPath10009">
      <path
         d="M 43.2,43.2 H 309.6 V 309.6 H 43.2 Z"
         transform="translate(4.9997999e-5)"
         id="path10009" />
    </clipPath>
    <clipPath
       clipPathUnits="userSpaceOnUse"
       id="clipPath10010">
      <path
         d="M 43.2,43.2 H 309.6 V 309.6 H 43.2 Z"
         transform="translate(4.9997999e-5)"
         id="path10010" />
    </clipPath>
    <clipPath
       clipPathUnits="userSpaceOnUse"
       id="clipPath10011">
      <path
         d="M 43.2,43.2 H 309.6 V 309.6 H 43.2 Z"
         transform="translate(4.9997999e-5)"
         id="path10011" />
    </clipPath>
    <clipPath
       clipPathUnits="userSpaceOnUse"
       id="clipPath10012">
      <path
         d="M 43.2,43.2 H 309.6 V 309.6 H 43.2 Z"
         transform="translate(4.9997999e-5)"
         id="path10012" />
    </clipPath>
    <clipPath
       clipPathUnits="userSpaceOnUse"
       id="clipPath10013">
      <path
         d="M 43.2,43.2 H 309.6 V 309.6 H 43.2 Z"
         transform="translate(4.9997999e-5)"
         id="path10013" />
    </clipPath>
    <clipPath
       clipPathUnits="userSpaceOnUse"
       id="clipPath10014">
      <path
         d="M 43.2,43.2 H 309.6 V 309.6 H 43.2 Z"
         transform="translate(4.9997999e-5)"
         id="path10014" />
    </clipPath>
    <clipPath
       clipPathUnits="userSpaceOnUse"
       id="clipPath10015">
      <path
         d="M 43.2,43.2 H 309.6 V 309.6 H 43.2 Z"
         transform="translate(4.9997999e-5)"
         id="path10015" />
    </clipPath>
    <clipPath
       clipPathUnits="userSpaceOnUse"
       id="clipPath10016">
      <path
         d="M 43.2,43.2 H 309.6 V 309.6 H 43.2 Z"
         transform="translate(4.9997999e-5)"
         id="path10016" />
    </clipPath>
    <clipPath
       clipPathUnits="userSpaceOnUse"
       id="clipPath10017">
      <path
         d="M 43.2,43.2 H 309.6 V 309.6 H 43.2 Z"
         transform="translate(4.9997999e-5)"
         id="path10017" />
    </clipPath>
    <clipPath
       clipPathUnits="userSpaceOnUse"
       id="clipPath10018">
      <path
         d="M 43.2,43.2 H 309.6 V 309.6 H 43.2 Z"
         transform="translate(4.9997999e-5)"
         id="path10018" />
    </clipPath>
    <clipPath
       clipPathUnits="userSpaceOnUse"
       id="clipPath10019">
      <path
         d="M 43.2,43.2 H 309.6 V 309.6 H 43.2 Z"
         transform="translate(4.9997999e-5)"
         id="path10019" />
    </clipPath>
    <clipPath
       clipPathUnits="userSpaceOnUse"
       id="clipPath10020">
      <path
         d="M 43.2,43.2 H 309.6 V 309.6 H 43.2 Z"
         transform="translate(4.9997999e-5)"
         id="path10020" />
    </clipPath>
    <clipPath
       clipPathUnits="userSpaceOnUse"
       id="clipPath10021">
      <path
         d="M 43.2,43.2 H 309.6 V 309.6 H 43.2 Z"
         transform="translate(4.9997999e-5)"
         id="path10021" />
    </clipPath>
    <clipPath
       clipPathUnits="userSpaceOnUse"
       id="clipPath10022">
      <path
         d="M 43.2,43.2 H 309.6 V 309.6 H 43.2 Z"
         transform="translate(4.9997999e-5)"
         id="path10022" />
    </clipPath>
    <clipPath
       clipPathUnits="userSpaceOnUse"
       id="clipPath10023">
      <path
         d="M 0,0 H 324 V 324 H 0 Z"
         transform="translate(4.9997999e-5)"
         id="path10023" />
    </clipPath>
    <clipPath
       clipPathUnits="userSpaceOnUse"
       id="clipPath10024">
      <path
         d="M 0,0 H 324 V 324 H 0 Z"
         transform="translate(4.9997999e-5)"
         id="path10024" />
    </clipPath>
    <clipPath
       clipPathUnits="userSpaceOnUse"
       id="clipPath10025">
      <path
         d="M 0,0 H 324 V 324 H 0 Z"
         transform="translate(4.9997999e-5)"
         id="path10025" />
    </clipPath>
    <clipPath
       clipPathUnits="userSpaceOnUse"
       id="clipPath10026">
      <path
         d="M 0,0 H 324 V 324 H 0 Z"
         transform="translate(4.9997999e-5)"
         id="path10026" />
    </clipPath>
    <clipPath
       clipPathUnits="userSpaceOnUse"
       id="clipPath10027">
      <path
         d="M 0,0 H 324 V 324 H 0 Z"
         transform="translate(4.9997999e-5)"
         id="path10027" />
    </clipPath>
    <clipPath
       clipPathUnits="userSpaceOnUse"
       id="clipPath10028">
      <path
         d="M 0,0 H 324 V 324 H 0 Z"
         transform="translate(4.9997999e-5)"
         id="path10028" />
    </clipPath>
    <clipPath
       clipPathUnits="userSpaceOnUse"
       id="clipPath10029">
      <path
         d="M 0,0 H 324 V 324 H 0 Z"
         transform="matrix(1,0,0,-1,-42.889985,17.280004)"
         id="path10029" />
    </clipPath>
    <clipPath
       clipPathUnits="userSpaceOnUse"
       id="clipPath10030">
      <path
         d="M 0,0 H 324 V 324 H 0 Z"
         transform="matrix(1,0,0,-1,-104.56002,17.280004)"
         id="path10030" />
    </clipPath>
    <clipPath
       clipPathUnits="userSpaceOnUse"
       id="clipPath10031">
      <path
         d="M 0,0 H 324 V 324 H 0 Z"
         transform="matrix(1,0,0,-1,-173.06003,17.280004)"
         id="path10031" />
    </clipPath>
    <clipPath
       clipPathUnits="userSpaceOnUse"
       id="clipPath10032">
      <path
         d="M 0,0 H 324 V 324 H 0 Z"
         transform="matrix(1,0,0,-1,-231.39,17.280004)"
         id="path10032" />
    </clipPath>
    <clipPath
       clipPathUnits="userSpaceOnUse"
       id="clipPath10033">
      <path
         d="M 0,0 H 324 V 324 H 0 Z"
         transform="matrix(1,0,0,-1,-293.06003,17.280004)"
         id="path10033" />
    </clipPath>
    <clipPath
       clipPathUnits="userSpaceOnUse"
       id="clipPath10034">
      <path
         d="M 0,0 H 324 V 324 H 0 Z"
         transform="translate(4.9997999e-5)"
         id="path10034" />
    </clipPath>
    <clipPath
       clipPathUnits="userSpaceOnUse"
       id="clipPath10035">
      <path
         d="M 0,0 H 324 V 324 H 0 Z"
         transform="translate(4.9997999e-5)"
         id="path10035" />
    </clipPath>
    <clipPath
       clipPathUnits="userSpaceOnUse"
       id="clipPath10036">
      <path
         d="M 0,0 H 324 V 324 H 0 Z"
         transform="translate(4.9997999e-5)"
         id="path10036" />
    </clipPath>
    <clipPath
       clipPathUnits="userSpaceOnUse"
       id="clipPath10037">
      <path
         d="M 0,0 H 324 V 324 H 0 Z"
         transform="translate(4.9997999e-5)"
         id="path10037" />
    </clipPath>
    <clipPath
       clipPathUnits="userSpaceOnUse"
       id="clipPath10038">
      <path
         d="M 0,0 H 324 V 324 H 0 Z"
         transform="translate(4.9997999e-5)"
         id="path10038" />
    </clipPath>
    <clipPath
       clipPathUnits="userSpaceOnUse"
       id="clipPath10039">
      <path
         d="M 0,0 H 324 V 324 H 0 Z"
         transform="translate(4.9997999e-5)"
         id="path10039" />
    </clipPath>
    <clipPath
       clipPathUnits="userSpaceOnUse"
       id="clipPath10040">
      <path
         d="M 0,0 H 324 V 324 H 0 Z"
         transform="matrix(0,1,1,0,-42.889995,-25.919963)"
         id="path10040" />
    </clipPath>
    <clipPath
       clipPathUnits="userSpaceOnUse"
       id="clipPath10041">
      <path
         d="M 0,0 H 324 V 324 H 0 Z"
         transform="matrix(0,1,1,0,-104.56,-25.919963)"
         id="path10041" />
    </clipPath>
    <clipPath
       clipPathUnits="userSpaceOnUse"
       id="clipPath10042">
      <path
         d="M 0,0 H 324 V 324 H 0 Z"
         transform="matrix(0,1,1,0,-173.05999,-25.919963)"
         id="path10042" />
    </clipPath>
    <clipPath
       clipPathUnits="userSpaceOnUse"
       id="clipPath10043">
      <path
         d="M 0,0 H 324 V 324 H 0 Z"
         transform="matrix(0,1,1,0,-231.39001,-25.919963)"
         id="path10043" />
    </clipPath>
    <clipPath
       clipPathUnits="userSpaceOnUse"
       id="clipPath10044">
      <path
         d="M 0,0 H 324 V 324 H 0 Z"
         transform="matrix(0,1,1,0,-293.05999,-25.919963)"
         id="path10044" />
    </clipPath>
    <clipPath
       clipPathUnits="userSpaceOnUse"
       id="clipPath10045">
      <path
         d="M 0,0 H 324 V 324 H 0 Z"
         transform="translate(4.9997999e-5)"
         id="path10045" />
    </clipPath>
    <clipPath
       clipPathUnits="userSpaceOnUse"
       id="clipPath10046">
      <path
         d="M 43.2,43.2 H 309.6 V 309.6 H 43.2 Z"
         transform="matrix(1,0,0,-1,-185.77007,297.14)"
         id="path10046" />
    </clipPath>
    <clipPath
       clipPathUnits="userSpaceOnUse"
       id="clipPath10047">
      <path
         d="M 43.2,43.2 H 309.6 V 309.6 H 43.2 Z"
         transform="matrix(1,0,0,-1,-142.6,253.97)"
         id="path10047" />
    </clipPath>
    <clipPath
       clipPathUnits="userSpaceOnUse"
       id="clipPath10048">
      <path
         d="M 43.2,43.2 H 309.6 V 309.6 H 43.2 Z"
         transform="matrix(1,0,0,-1,-250.51993,225.91)"
         id="path10048" />
    </clipPath>
    <clipPath
       clipPathUnits="userSpaceOnUse"
       id="clipPath10049">
      <path
         d="M 43.2,43.2 H 309.6 V 309.6 H 43.2 Z"
         transform="translate(4.9997999e-5)"
         id="path10049" />
    </clipPath>
    <clipPath
       clipPathUnits="userSpaceOnUse"
       id="clipPath10050">
      <path
         d="M 43.2,43.2 H 309.6 V 309.6 H 43.2 Z"
         transform="translate(4.9997999e-5)"
         id="path10050" />
    </clipPath>
    <clipPath
       clipPathUnits="userSpaceOnUse"
       id="clipPath10051">
      <path
         d="M 43.2,43.2 H 309.6 V 309.6 H 43.2 Z"
         transform="translate(4.9997999e-5)"
         id="path10051" />
    </clipPath>
    <clipPath
       clipPathUnits="userSpaceOnUse"
       id="clipPath10052">
      <path
         d="M 43.2,43.2 H 309.6 V 309.6 H 43.2 Z"
         transform="translate(4.9997999e-5)"
         id="path10052" />
    </clipPath>
    <clipPath
       clipPathUnits="userSpaceOnUse"
       id="clipPath10053">
      <path
         d="M 43.2,43.2 H 309.6 V 309.6 H 43.2 Z"
         transform="translate(4.9997999e-5)"
         id="path10053" />
    </clipPath>
    <clipPath
       clipPathUnits="userSpaceOnUse"
       id="clipPath10054">
      <path
         d="M 43.2,43.2 H 309.6 V 309.6 H 43.2 Z"
         transform="matrix(1,0,0,-1,-170.56998,159.16999)"
         id="path10054" />
    </clipPath>
  </defs>
  <g
     inkscape:label="Layer 1"
     inkscape:groupmode="layer"
     id="layer1"
     transform="translate(-65.352049,-99.483328)">
    <path
       d="m 137.78,159.23 -0.04,0.97 -0.1,2.5 -0.07,2.49 -0.07,2.49 -0.04,2.49 -0.03,2.49 -0.02,2.49 v 2.5 l 0.02,2.49 0.03,2.49 0.04,2.49 0.07,2.49 0.07,2.49 0.1,2.5 0.04,0.97 0.07,1.52 0.13,2.49 0.15,2.49 0.17,2.49 0.18,2.49 0.2,2.49 0.22,2.5 0.23,2.49 0.25,2.49 0.27,2.49 0.28,2.49 0.3,2.49 0.04,0.36 0.29,2.14 0.36,2.49 0.37,2.49 0.39,2.49 0.41,2.49 0.43,2.49 0.24,1.37 0.22,1.13 0.5,2.49 0.52,2.49 0.53,2.49 0.56,2.49 0.17,0.73 0.44,1.76 0.64,2.49 0.66,2.5 0.69,2.49 0.06,0.2 0.7,2.29 0.8,2.49 0.81,2.49 0.18,0.52 0.73,1.97 0.94,2.5 0.82,2.09 0.17,0.4 1.11,2.49 1.14,2.49 0.07,0.16 1.22,2.33 1.27,2.36 0.08,0.13 1.57,2.5 0.84,1.31 0.89,1.18 1.61,2.1 0.36,0.39 2.13,2.26 0.26,0.23 2.23,1.86 1.02,0.63 1.47,0.9 2.49,1.02 2.49,0.51 h 2.5 l 2.49,-0.51 2.49,-1.02 1.47,-0.9 1.02,-0.63 2.23,-1.86 0.26,-0.23 2.13,-2.26 0.36,-0.39 1.61,-2.1 0.89,-1.18 0.84,-1.31 1.57,-2.5 0.08,-0.13 1.27,-2.36 1.22,-2.33 0.07,-0.16 1.14,-2.49 1.11,-2.49 0.17,-0.4 0.82,-2.09 0.94,-2.5 0.73,-1.97 0.18,-0.52 0.81,-2.49 0.8,-2.49 0.7,-2.29 0.06,-0.2 0.69,-2.49 0.66,-2.5 0.64,-2.49 0.44,-1.76 0.17,-0.73 0.56,-2.49 0.53,-2.49 0.52,-2.49 0.5,-2.49 0.22,-1.13 0.24,-1.37 0.43,-2.49 0.41,-2.49 0.39,-2.49 0.37,-2.49 0.36,-2.49 0.29,-2.14 0.04,-0.36 0.3,-2.49 0.28,-2.49 0.27,-2.49 0.25,-2.49 0.23,-2.49 0.22,-2.5 0.2,-2.49 0.18,-2.49 0.17,-2.49 0.15,-2.49 0.13,-2.49 0.07,-1.52 0.04,-0.97 0.1,-2.5 0.07,-2.49 0.07,-2.49 0.04,-2.49 0.03,-2.49 0.02,-2.49 v -2.5 l -0.02,-2.49 -0.03,-2.49 -0.04,-2.49 -0.07,-2.49 -0.07,-2.49 -0.1,-2.5 -0.04,-0.97 -0.07,-1.52 -0.13,-2.49 -0.15,-2.49 -0.17,-2.49 -0.18,-2.49 -0.2,-2.49 -0.22,-2.5 -0.23,-2.49 -0.25,-2.49 -0.27,-2.49 -0.28,-2.49 -0.3,-2.49 -0.04,-0.36 -0.29,-2.14 -0.36,-2.49 -0.37,-2.49 -0.39,-2.49 -0.41,-2.49 -0.43,-2.49 -0.24,-1.37 -0.22,-1.13 -0.5,-2.49 -0.52,-2.49 -0.53,-2.49 -0.56,-2.49 -0.17,-0.73 -0.44,-1.76 -0.64,-2.49 -0.66,-2.5 -0.69,-2.49 -0.06,-0.2 -0.7,-2.29 -0.8,-2.49 -0.81,-2.49 -0.18,-0.52 -0.73,-1.97 -0.94,-2.5 -0.82,-2.09 -0.17,-0.4 -1.11,-2.49 -1.14,-2.49 -0.07,-0.16 -1.22,-2.33 -1.27,-2.36 -0.08,-0.13 -1.57,-2.5 -0.84,-1.31 -0.89,-1.18 -1.61,-2.1 -0.36,-0.39 -2.13,-2.26 -0.26,-0.23 -2.23,-1.86 -1.02,-0.63 -1.47,-0.9 -2.49,-1.02 -2.49,-0.51 h -2.5 l -2.49,0.51 -2.49,1.02 -1.47,0.9 -1.02,0.63 -2.23,1.86 -0.26,0.23 -2.13,2.26 -0.36,0.39 -1.61,2.1 -0.89,1.18 -0.84,1.31 -1.57,2.5 -0.08,0.13 -1.27,2.36 -1.22,2.33 -0.07,0.16 -1.14,2.49 -1.11,2.49 -0.17,0.4 -0.82,2.09 -0.94,2.5 -0.73,1.97 -0.18,0.52 -0.81,2.49 -0.8,2.49 -0.7,2.29 -0.06,0.2 -0.69,2.49 -0.66,2.5 -0.64,2.49 -0.44,1.76 -0.17,0.73 -0.56,2.49 -0.53,2.49 -0.52,2.49 -0.5,2.49 -0.22,1.13 -0.24,1.37 -0.43,2.49 -0.41,2.49 -0.39,2.49 -0.37,2.49 -0.36,2.49 -0.29,2.14 -0.04,0.36 -0.3,2.49 -0.28,2.49 -0.27,2.49 -0.25,2.49 -0.23,2.49 -0.22,2.5 -0.2,2.49 -0.18,2.49 -0.17,2.49 -0.15,2.49 -0.13,2.49 -0.07,1.52"
       style="fill:none;stroke:#000000 icc-color(sRGB-IEC61966-2, 0.1, 0, 0, 0);stroke-width:0.75;stroke-linecap:round;stroke-linejoin:round;stroke-miterlimit:10;stroke-dasharray:none;stroke-opacity:1"
       transform="matrix(0.17639594,0,0,-0.17639594,62.308997,154.16166)"
       clip-path="url(#clipPath10000)"
       id="path10055" />
    <path
       d="m 137.41,53.07 -0.76,2.49 -0.75,2.49 -0.61,2.07 -0.12,0.42 -0.67,2.49 -0.66,2.49 -0.65,2.5 -0.39,1.57 -0.22,0.92 -0.58,2.49 -0.57,2.49 -0.56,2.49 -0.53,2.49 -0.03,0.14 -0.47,2.36 -0.49,2.49 -0.47,2.49 -0.46,2.49 -0.45,2.49 -0.16,0.92 -0.26,1.57 -0.39,2.5 -0.39,2.49 -0.37,2.49 -0.37,2.49 -0.34,2.49 -0.34,2.49 -0.03,0.21 -0.28,2.28 -0.3,2.5 -0.28,2.49 -0.27,2.49 -0.27,2.49 -0.25,2.49 -0.23,2.49 -0.23,2.5 -0.21,2.49 -0.17,2.07 -0.03,0.42 -0.18,2.49 -0.17,2.49 -0.16,2.49 -0.15,2.5 -0.13,2.49 -0.13,2.49 -0.11,2.49 -0.1,2.49 -0.09,2.49 -0.08,2.49 -0.07,2.5 -0.06,2.49 -0.04,2.49 -0.04,2.49 -0.02,2.49 -0.01,2.49 v 2.5 l 0.01,2.49 0.02,2.49 0.04,2.49 0.04,2.49 0.06,2.49 0.07,2.5 0.08,2.49 0.09,2.49 0.1,2.49 0.11,2.49 0.13,2.49 0.13,2.49 0.15,2.5 0.16,2.49 0.17,2.49 0.18,2.49 0.03,0.42 0.17,2.07 0.21,2.49 0.23,2.5 0.23,2.49 0.25,2.49 0.27,2.49 0.27,2.49 0.28,2.49 0.3,2.5 0.28,2.28 0.03,0.21 0.34,2.49 0.34,2.49 0.37,2.49 0.37,2.49 0.39,2.49 0.39,2.5 0.26,1.57 0.16,0.92 0.45,2.49 0.46,2.49 0.47,2.49 0.49,2.49 0.47,2.36 0.03,0.14 0.53,2.49 0.56,2.49 0.57,2.49 0.58,2.49 0.22,0.92 0.39,1.57 0.65,2.5 0.66,2.49 0.67,2.49 0.12,0.42 0.61,2.07 0.75,2.49 0.76,2.49"
       style="fill:none;stroke:#000000 icc-color(sRGB-IEC61966-2, 0.1, 0, 0, 0);stroke-width:0.75;stroke-linecap:round;stroke-linejoin:round;stroke-miterlimit:10;stroke-dasharray:none;stroke-opacity:1"
       transform="matrix(0.17639594,0,0,-0.17639594,62.308997,154.16166)"
       clip-path="url(#clipPath10001)"
       id="path10056" />
    <path
       d="m 215.39,53.07 0.76,2.49 0.75,2.49 0.61,2.07 0.12,0.42 0.67,2.49 0.66,2.49 0.65,2.5 0.39,1.57 0.22,0.92 0.58,2.49 0.57,2.49 0.56,2.49 0.53,2.49 0.03,0.14 0.47,2.36 0.49,2.49 0.47,2.49 0.46,2.49 0.45,2.49 0.16,0.92 0.26,1.57 0.39,2.5 0.39,2.49 0.37,2.49 0.37,2.49 0.34,2.49 0.34,2.49 0.03,0.21 0.28,2.28 0.3,2.5 0.28,2.49 0.27,2.49 0.27,2.49 0.25,2.49 0.23,2.49 0.23,2.5 0.21,2.49 0.17,2.07 0.03,0.42 0.18,2.49 0.17,2.49 0.16,2.49 0.15,2.5 0.13,2.49 0.13,2.49 0.11,2.49 0.1,2.49 0.09,2.49 0.08,2.49 0.07,2.5 0.06,2.49 0.04,2.49 0.04,2.49 0.02,2.49 0.01,2.49 v 2.5 l -0.01,2.49 -0.02,2.49 -0.04,2.49 -0.04,2.49 -0.06,2.49 -0.07,2.5 -0.08,2.49 -0.09,2.49 -0.1,2.49 -0.11,2.49 -0.13,2.49 -0.13,2.49 -0.15,2.5 -0.16,2.49 -0.17,2.49 -0.18,2.49 -0.03,0.42 -0.17,2.07 -0.21,2.49 -0.23,2.5 -0.23,2.49 -0.25,2.49 -0.27,2.49 -0.27,2.49 -0.28,2.49 -0.3,2.5 -0.28,2.28 -0.03,0.21 -0.34,2.49 -0.34,2.49 -0.37,2.49 -0.37,2.49 -0.39,2.49 -0.39,2.5 -0.26,1.57 -0.16,0.92 -0.45,2.49 -0.46,2.49 -0.47,2.49 -0.49,2.49 -0.47,2.36 -0.03,0.14 -0.53,2.49 -0.56,2.49 -0.57,2.49 -0.58,2.49 -0.22,0.92 -0.39,1.57 -0.65,2.5 -0.66,2.49 -0.67,2.49 -0.12,0.42 -0.61,2.07 -0.75,2.49 -0.76,2.49"
       style="fill:none;stroke:#000000 icc-color(sRGB-IEC61966-2, 0.1, 0, 0, 0);stroke-width:0.75;stroke-linecap:round;stroke-linejoin:round;stroke-miterlimit:10;stroke-dasharray:none;stroke-opacity:1"
       transform="matrix(0.17639594,0,0,-0.17639594,62.308997,154.16166)"
       clip-path="url(#clipPath10002)"
       id="path10057" />
    <path
       d="m 121.26,53.07 -0.56,2.49 -0.36,1.66 -0.17,0.83 -0.51,2.49 -0.5,2.49 -0.49,2.49 -0.48,2.5 -0.34,1.85 -0.12,0.64 -0.43,2.49 -0.43,2.49 -0.41,2.49 -0.41,2.49 -0.39,2.5 -0.3,1.95 -0.08,0.54 -0.36,2.49 -0.35,2.49 -0.34,2.49 -0.33,2.49 -0.32,2.5 -0.31,2.49 -0.3,2.49 -0.11,0.94 -0.17,1.55 -0.27,2.49 -0.25,2.49 -0.25,2.49 -0.24,2.5 -0.23,2.49 -0.22,2.49 -0.21,2.49 -0.21,2.49 -0.19,2.49 -0.18,2.5 -0.07,0.96 -0.1,1.53 -0.16,2.49 -0.14,2.49 -0.14,2.49 -0.13,2.49 -0.12,2.5 -0.11,2.49 -0.1,2.49 -0.1,2.49 -0.08,2.49 -0.07,2.49 -0.07,2.49 -0.05,2.5 -0.05,2.49 -0.03,2.49 -0.03,2.49 -0.02,2.49 -0.01,2.49 v 2.5 l 0.01,2.49 0.02,2.49 0.03,2.49 0.03,2.49 0.05,2.49 0.05,2.5 0.07,2.49 0.07,2.49 0.08,2.49 0.1,2.49 0.1,2.49 0.11,2.49 0.12,2.5 0.13,2.49 0.14,2.49 0.14,2.49 0.16,2.49 0.1,1.53 0.07,0.96 0.18,2.5 0.19,2.49 0.21,2.49 0.21,2.49 0.22,2.49 0.23,2.49 0.24,2.5 0.25,2.49 0.25,2.49 0.27,2.49 0.17,1.55 0.11,0.94 0.3,2.49 0.31,2.49 0.32,2.5 0.33,2.49 0.34,2.49 0.35,2.49 0.36,2.49 0.08,0.54 0.3,1.95 0.39,2.5 0.41,2.49 0.41,2.49 0.43,2.49 0.43,2.49 0.12,0.64 0.34,1.85 0.48,2.5 0.49,2.49 0.5,2.49 0.51,2.49 0.17,0.83 0.36,1.66 0.56,2.49"
       style="fill:none;stroke:#000000 icc-color(sRGB-IEC61966-2, 0.1, 0, 0, 0);stroke-width:0.75;stroke-linecap:round;stroke-linejoin:round;stroke-miterlimit:10;stroke-dasharray:none;stroke-opacity:1"
       transform="matrix(0.17639594,0,0,-0.17639594,62.308997,154.16166)"
       clip-path="url(#clipPath10003)"
       id="path10058" />
    <path
       d="m 231.54,53.07 0.56,2.49 0.36,1.66 0.17,0.83 0.51,2.49 0.5,2.49 0.49,2.49 0.48,2.5 0.34,1.85 0.12,0.64 0.43,2.49 0.43,2.49 0.41,2.49 0.41,2.49 0.39,2.5 0.3,1.95 0.08,0.54 0.36,2.49 0.35,2.49 0.34,2.49 0.33,2.49 0.32,2.5 0.31,2.49 0.3,2.49 0.11,0.94 0.17,1.55 0.27,2.49 0.25,2.49 0.25,2.49 0.24,2.5 0.23,2.49 0.22,2.49 0.21,2.49 0.21,2.49 0.19,2.49 0.18,2.5 0.07,0.96 0.1,1.53 0.16,2.49 0.14,2.49 0.14,2.49 0.13,2.49 0.12,2.5 0.11,2.49 0.1,2.49 0.1,2.49 0.08,2.49 0.07,2.49 0.07,2.49 0.05,2.5 0.05,2.49 0.03,2.49 0.03,2.49 0.02,2.49 0.01,2.49 v 2.5 l -0.01,2.49 -0.02,2.49 -0.03,2.49 -0.03,2.49 -0.05,2.49 -0.05,2.5 -0.07,2.49 -0.07,2.49 -0.08,2.49 -0.1,2.49 -0.1,2.49 -0.11,2.49 -0.12,2.5 -0.13,2.49 -0.14,2.49 -0.14,2.49 -0.16,2.49 -0.1,1.53 -0.07,0.96 -0.18,2.5 -0.19,2.49 -0.21,2.49 -0.21,2.49 -0.22,2.49 -0.23,2.49 -0.24,2.5 -0.25,2.49 -0.25,2.49 -0.27,2.49 -0.17,1.55 -0.11,0.94 -0.3,2.49 -0.31,2.49 -0.32,2.5 -0.33,2.49 -0.34,2.49 -0.35,2.49 -0.36,2.49 -0.08,0.54 -0.3,1.95 -0.39,2.5 -0.41,2.49 -0.41,2.49 -0.43,2.49 -0.43,2.49 -0.12,0.64 -0.34,1.85 -0.48,2.5 -0.49,2.49 -0.5,2.49 -0.51,2.49 -0.17,0.83 -0.36,1.66 -0.56,2.49"
       style="fill:none;stroke:#000000 icc-color(sRGB-IEC61966-2, 0.1, 0, 0, 0);stroke-width:0.75;stroke-linecap:round;stroke-linejoin:round;stroke-miterlimit:10;stroke-dasharray:none;stroke-opacity:1"
       transform="matrix(0.17639594,0,0,-0.17639594,62.308997,154.16166)"
       clip-path="url(#clipPath10004)"
       id="path10059" />
    <path
       d="m 108.86,53.07 -0.45,2.49 -0.45,2.49 -0.08,0.47 -0.34,2.02 -0.41,2.49 -0.4,2.49 -0.39,2.5 -0.38,2.49 -0.38,2.49 -0.19,1.33 -0.16,1.16 -0.35,2.49 -0.33,2.49 -0.33,2.5 -0.32,2.49 -0.31,2.49 -0.3,2.49 -0.29,2.49 -0.1,0.9 -0.18,1.59 -0.26,2.5 -0.26,2.49 -0.25,2.49 -0.24,2.49 -0.23,2.49 -0.23,2.49 -0.21,2.49 -0.21,2.5 -0.2,2.49 -0.19,2.49 -0.03,0.44 -0.15,2.05 -0.17,2.49 -0.16,2.49 -0.15,2.5 -0.15,2.49 -0.13,2.49 -0.13,2.49 -0.12,2.49 -0.11,2.49 -0.11,2.5 -0.1,2.49 -0.08,2.49 -0.08,2.49 -0.08,2.49 -0.06,2.49 -0.06,2.49 -0.05,2.5 -0.04,2.49 -0.03,2.49 -0.02,2.49 -0.02,2.49 -0.01,2.49 v 2.5 l 0.01,2.49 0.02,2.49 0.02,2.49 0.03,2.49 0.04,2.49 0.05,2.5 0.06,2.49 0.06,2.49 0.08,2.49 0.08,2.49 0.08,2.49 0.1,2.49 0.11,2.5 0.11,2.49 0.12,2.49 0.13,2.49 0.13,2.49 0.15,2.49 0.15,2.5 0.16,2.49 0.17,2.49 0.15,2.05 0.03,0.44 0.19,2.49 0.2,2.49 0.21,2.5 0.21,2.49 0.23,2.49 0.23,2.49 0.24,2.49 0.25,2.49 0.26,2.49 0.26,2.5 0.18,1.59 0.1,0.9 0.29,2.49 0.3,2.49 0.31,2.49 0.32,2.49 0.33,2.5 0.33,2.49 0.35,2.49 0.16,1.16 0.19,1.33 0.38,2.49 0.38,2.49 0.39,2.5 0.4,2.49 0.41,2.49 0.34,2.02 0.08,0.47 0.45,2.49 0.45,2.49"
       style="fill:none;stroke:#000000 icc-color(sRGB-IEC61966-2, 0.1, 0, 0, 0);stroke-width:0.75;stroke-linecap:round;stroke-linejoin:round;stroke-miterlimit:10;stroke-dasharray:none;stroke-opacity:1"
       transform="matrix(0.17639594,0,0,-0.17639594,62.308997,154.16166)"
       clip-path="url(#clipPath10005)"
       id="path10060" />
    <path
       d="m 243.94,53.07 0.45,2.49 0.45,2.49 0.08,0.47 0.34,2.02 0.41,2.49 0.4,2.49 0.39,2.5 0.38,2.49 0.38,2.49 0.19,1.33 0.16,1.16 0.35,2.49 0.33,2.49 0.33,2.5 0.32,2.49 0.31,2.49 0.3,2.49 0.29,2.49 0.1,0.9 0.18,1.59 0.26,2.5 0.26,2.49 0.25,2.49 0.24,2.49 0.23,2.49 0.23,2.49 0.21,2.49 0.21,2.5 0.2,2.49 0.19,2.49 0.03,0.44 0.15,2.05 0.17,2.49 0.16,2.49 0.15,2.5 0.15,2.49 0.13,2.49 0.13,2.49 0.12,2.49 0.11,2.49 0.11,2.5 0.1,2.49 0.08,2.49 0.08,2.49 0.08,2.49 0.06,2.49 0.06,2.49 0.05,2.5 0.04,2.49 0.03,2.49 0.02,2.49 0.02,2.49 0.01,2.49 v 2.5 l -0.01,2.49 -0.02,2.49 -0.02,2.49 -0.03,2.49 -0.04,2.49 -0.05,2.5 -0.06,2.49 -0.06,2.49 -0.08,2.49 -0.08,2.49 -0.08,2.49 -0.1,2.49 -0.11,2.5 -0.11,2.49 -0.12,2.49 -0.13,2.49 -0.13,2.49 -0.15,2.49 -0.15,2.5 -0.16,2.49 -0.17,2.49 -0.15,2.05 -0.03,0.44 -0.19,2.49 -0.2,2.49 -0.21,2.5 -0.21,2.49 -0.23,2.49 -0.23,2.49 -0.24,2.49 -0.25,2.49 -0.26,2.49 -0.26,2.5 -0.18,1.59 -0.1,0.9 -0.29,2.49 -0.3,2.49 -0.31,2.49 -0.32,2.49 -0.33,2.5 -0.33,2.49 -0.35,2.49 -0.16,1.16 -0.19,1.33 -0.38,2.49 -0.38,2.49 -0.39,2.5 -0.4,2.49 -0.41,2.49 -0.34,2.02 -0.08,0.47 -0.45,2.49 -0.45,2.49"
       style="fill:none;stroke:#000000 icc-color(sRGB-IEC61966-2, 0.1, 0, 0, 0);stroke-width:0.75;stroke-linecap:round;stroke-linejoin:round;stroke-miterlimit:10;stroke-dasharray:none;stroke-opacity:1"
       transform="matrix(0.17639594,0,0,-0.17639594,62.308997,154.16166)"
       clip-path="url(#clipPath10006)"
       id="path10061" />
    <path
       d="m 98.4,53.07 -0.39,2.49 -0.09,0.61 -0.29,1.88 -0.36,2.49 -0.36,2.49 -0.35,2.49 -0.34,2.5 -0.34,2.49 -0.33,2.49 -0.13,1.02 -0.18,1.47 -0.3,2.49 -0.3,2.49 -0.28,2.5 -0.28,2.49 -0.27,2.49 -0.27,2.49 -0.26,2.49 -0.24,2.49 -0.11,1.07 -0.13,1.43 -0.23,2.49 -0.22,2.49 -0.21,2.49 -0.21,2.49 -0.19,2.49 -0.19,2.49 -0.19,2.5 -0.17,2.49 -0.17,2.49 -0.16,2.49 -0.16,2.49 -0.14,2.49 -0.12,2.07 -0.02,0.43 -0.13,2.49 -0.12,2.49 -0.12,2.49 -0.1,2.49 -0.1,2.49 -0.09,2.5 -0.09,2.49 -0.08,2.49 -0.07,2.49 -0.06,2.49 -0.06,2.49 -0.05,2.49 -0.04,2.5 -0.04,2.49 -0.03,2.49 -0.02,2.49 -0.01,2.49 -0.01,2.49 v 2.5 l 0.01,2.49 0.01,2.49 0.02,2.49 0.03,2.49 0.04,2.49 0.04,2.5 0.05,2.49 0.06,2.49 0.06,2.49 0.07,2.49 0.08,2.49 0.09,2.49 0.09,2.5 0.1,2.49 0.1,2.49 0.12,2.49 0.12,2.49 0.13,2.49 0.02,0.43 0.12,2.07 0.14,2.49 0.16,2.49 0.16,2.49 0.17,2.49 0.17,2.49 0.19,2.5 0.19,2.49 0.19,2.49 0.21,2.49 0.21,2.49 0.22,2.49 0.23,2.49 0.13,1.43 0.11,1.07 0.24,2.49 0.26,2.49 0.27,2.49 0.27,2.49 0.28,2.49 0.28,2.5 0.3,2.49 0.3,2.49 0.18,1.47 0.13,1.02 0.33,2.49 0.34,2.49 0.34,2.5 0.35,2.49 0.36,2.49 0.36,2.49 0.29,1.88 0.09,0.61 0.39,2.49"
       style="fill:none;stroke:#000000 icc-color(sRGB-IEC61966-2, 0.1, 0, 0, 0);stroke-width:0.75;stroke-linecap:round;stroke-linejoin:round;stroke-miterlimit:10;stroke-dasharray:none;stroke-opacity:1"
       transform="matrix(0.17639594,0,0,-0.17639594,62.308997,154.16166)"
       clip-path="url(#clipPath10007)"
       id="path10062" />
    <path
       d="m 254.4,53.07 0.39,2.49 0.09,0.61 0.29,1.88 0.36,2.49 0.36,2.49 0.35,2.49 0.34,2.5 0.34,2.49 0.33,2.49 0.13,1.02 0.18,1.47 0.3,2.49 0.3,2.49 0.28,2.5 0.28,2.49 0.27,2.49 0.27,2.49 0.26,2.49 0.24,2.49 0.11,1.07 0.13,1.43 0.23,2.49 0.22,2.49 0.21,2.49 0.21,2.49 0.19,2.49 0.19,2.49 0.19,2.5 0.17,2.49 0.17,2.49 0.16,2.49 0.16,2.49 0.14,2.49 0.12,2.07 0.02,0.43 0.13,2.49 0.12,2.49 0.12,2.49 0.1,2.49 0.1,2.49 0.09,2.5 0.09,2.49 0.08,2.49 0.07,2.49 0.06,2.49 0.06,2.49 0.05,2.49 0.04,2.5 0.04,2.49 0.03,2.49 0.02,2.49 0.01,2.49 0.01,2.49 v 2.5 l -0.01,2.49 -0.01,2.49 -0.02,2.49 -0.03,2.49 -0.04,2.49 -0.04,2.5 -0.05,2.49 -0.06,2.49 -0.06,2.49 -0.07,2.49 -0.08,2.49 -0.09,2.49 -0.09,2.5 -0.1,2.49 -0.1,2.49 -0.12,2.49 -0.12,2.49 -0.13,2.49 -0.02,0.43 -0.12,2.07 -0.14,2.49 -0.16,2.49 -0.16,2.49 -0.17,2.49 -0.17,2.49 -0.19,2.5 -0.19,2.49 -0.19,2.49 -0.21,2.49 -0.21,2.49 -0.22,2.49 -0.23,2.49 -0.13,1.43 -0.11,1.07 -0.24,2.49 -0.26,2.49 -0.27,2.49 -0.27,2.49 -0.28,2.49 -0.28,2.5 -0.3,2.49 -0.3,2.49 -0.18,1.47 -0.13,1.02 -0.33,2.49 -0.34,2.49 -0.34,2.5 -0.35,2.49 -0.36,2.49 -0.36,2.49 -0.29,1.88 -0.09,0.61 -0.39,2.49"
       style="fill:none;stroke:#000000 icc-color(sRGB-IEC61966-2, 0.1, 0, 0, 0);stroke-width:0.75;stroke-linecap:round;stroke-linejoin:round;stroke-miterlimit:10;stroke-dasharray:none;stroke-opacity:1"
       transform="matrix(0.17639594,0,0,-0.17639594,62.308997,154.16166)"
       clip-path="url(#clipPath10008)"
       id="path10063" />
    <path
       d="m 89.2,53.07 -0.35,2.49 -0.34,2.49 -0.34,2.49 -0.22,1.71 -0.1,0.78 -0.31,2.49 -0.31,2.5 -0.29,2.49 -0.29,2.49 -0.29,2.49 -0.28,2.49 -0.27,2.49 -0.26,2.5 -0.09,0.91 -0.16,1.58 -0.24,2.49 -0.24,2.49 -0.23,2.49 -0.22,2.49 -0.21,2.5 -0.21,2.49 -0.21,2.49 -0.19,2.49 -0.19,2.49 -0.18,2.49 -0.18,2.49 -0.03,0.57 -0.13,1.93 -0.16,2.49 -0.15,2.49 -0.14,2.49 -0.14,2.49 -0.13,2.49 -0.13,2.5 -0.12,2.49 -0.11,2.49 -0.1,2.49 -0.1,2.49 -0.09,2.49 -0.09,2.5 -0.08,2.49 -0.07,2.49 -0.06,2.49 -0.06,2.49 -0.05,2.49 -0.05,2.49 -0.04,2.5 -0.03,2.49 -0.03,2.49 -0.02,2.49 -0.01,2.49 -0.01,2.49 v 2.5 l 0.01,2.49 0.01,2.49 0.02,2.49 0.03,2.49 0.03,2.49 0.04,2.5 0.05,2.49 0.05,2.49 0.06,2.49 0.06,2.49 0.07,2.49 0.08,2.49 0.09,2.5 0.09,2.49 0.1,2.49 0.1,2.49 0.11,2.49 0.12,2.49 0.13,2.5 0.13,2.49 0.14,2.49 0.14,2.49 0.15,2.49 0.16,2.49 0.13,1.93 0.03,0.57 0.18,2.49 0.18,2.49 0.19,2.49 0.19,2.49 0.21,2.49 0.21,2.49 0.21,2.5 0.22,2.49 0.23,2.49 0.24,2.49 0.24,2.49 0.16,1.58 0.09,0.91 0.26,2.5 0.27,2.49 0.28,2.49 0.29,2.49 0.29,2.49 0.29,2.49 0.31,2.5 0.31,2.49 0.1,0.78 0.22,1.71 0.34,2.49 0.34,2.49 0.35,2.49"
       style="fill:none;stroke:#000000 icc-color(sRGB-IEC61966-2, 0.1, 0, 0, 0);stroke-width:0.75;stroke-linecap:round;stroke-linejoin:round;stroke-miterlimit:10;stroke-dasharray:none;stroke-opacity:1"
       transform="matrix(0.17639594,0,0,-0.17639594,62.308997,154.16166)"
       clip-path="url(#clipPath10009)"
       id="path10064" />
    <path
       d="m 263.6,53.07 0.35,2.49 0.34,2.49 0.34,2.49 0.22,1.71 0.1,0.78 0.31,2.49 0.31,2.5 0.29,2.49 0.29,2.49 0.29,2.49 0.28,2.49 0.27,2.49 0.26,2.5 0.09,0.91 0.16,1.58 0.24,2.49 0.24,2.49 0.23,2.49 0.22,2.49 0.21,2.5 0.21,2.49 0.21,2.49 0.19,2.49 0.19,2.49 0.18,2.49 0.18,2.49 0.03,0.57 0.13,1.93 0.16,2.49 0.15,2.49 0.14,2.49 0.14,2.49 0.13,2.49 0.13,2.5 0.12,2.49 0.11,2.49 0.1,2.49 0.1,2.49 0.09,2.49 0.09,2.5 0.08,2.49 0.07,2.49 0.06,2.49 0.06,2.49 0.05,2.49 0.05,2.49 0.04,2.5 0.03,2.49 0.03,2.49 0.02,2.49 0.01,2.49 0.01,2.49 v 2.5 l -0.01,2.49 -0.01,2.49 -0.02,2.49 -0.03,2.49 -0.03,2.49 -0.04,2.5 -0.05,2.49 -0.05,2.49 -0.06,2.49 -0.06,2.49 -0.07,2.49 -0.08,2.49 -0.09,2.5 -0.09,2.49 -0.1,2.49 -0.1,2.49 -0.11,2.49 -0.12,2.49 -0.13,2.5 -0.13,2.49 -0.14,2.49 -0.14,2.49 -0.15,2.49 -0.16,2.49 -0.13,1.93 -0.03,0.57 -0.18,2.49 -0.18,2.49 -0.19,2.49 -0.19,2.49 -0.21,2.49 -0.21,2.49 -0.21,2.5 -0.22,2.49 -0.23,2.49 -0.24,2.49 -0.24,2.49 -0.16,1.58 -0.09,0.91 -0.26,2.5 -0.27,2.49 -0.28,2.49 -0.29,2.49 -0.29,2.49 -0.29,2.49 -0.31,2.5 -0.31,2.49 -0.1,0.78 -0.22,1.71 -0.34,2.49 -0.34,2.49 -0.35,2.49"
       style="fill:none;stroke:#000000 icc-color(sRGB-IEC61966-2, 0.1, 0, 0, 0);stroke-width:0.75;stroke-linecap:round;stroke-linejoin:round;stroke-miterlimit:10;stroke-dasharray:none;stroke-opacity:1"
       transform="matrix(0.17639594,0,0,-0.17639594,62.308997,154.16166)"
       clip-path="url(#clipPath10010)"
       id="path10065" />
    <path
       d="m 80.87,53.07 -0.32,2.49 -0.08,0.6 -0.23,1.89 -0.3,2.49 -0.29,2.49 -0.29,2.49 -0.28,2.5 -0.28,2.49 -0.26,2.49 -0.27,2.49 -0.25,2.49 -0.04,0.35 -0.21,2.14 -0.23,2.5 -0.23,2.49 -0.23,2.49 -0.22,2.49 -0.21,2.49 -0.2,2.49 -0.2,2.5 -0.2,2.49 -0.18,2.49 -0.18,2.49 -0.18,2.49 -0.02,0.32 -0.14,2.17 -0.16,2.49 -0.15,2.5 -0.15,2.49 -0.14,2.49 -0.13,2.49 -0.13,2.49 -0.12,2.49 -0.12,2.5 -0.11,2.49 -0.1,2.49 -0.1,2.49 -0.09,2.49 -0.08,2.49 -0.08,2.5 -0.07,2.49 -0.07,2.49 -0.06,2.49 -0.06,2.49 -0.04,2.49 -0.05,2.49 -0.03,2.5 -0.03,2.49 -0.03,2.49 -0.02,2.49 -0.01,2.49 v 2.49 2.5 2.49 l 0.01,2.49 0.02,2.49 0.03,2.49 0.03,2.49 0.03,2.5 0.05,2.49 0.04,2.49 0.06,2.49 0.06,2.49 0.07,2.49 0.07,2.49 0.08,2.5 0.08,2.49 0.09,2.49 0.1,2.49 0.1,2.49 0.11,2.49 0.12,2.5 0.12,2.49 0.13,2.49 0.13,2.49 0.14,2.49 0.15,2.49 0.15,2.5 0.16,2.49 0.14,2.17 0.02,0.32 0.18,2.49 0.18,2.49 0.18,2.49 0.2,2.49 0.2,2.5 0.2,2.49 0.21,2.49 0.22,2.49 0.23,2.49 0.23,2.49 0.23,2.5 0.21,2.14 0.04,0.35 0.25,2.49 0.27,2.49 0.26,2.49 0.28,2.49 0.28,2.5 0.29,2.49 0.29,2.49 0.3,2.49 0.23,1.89 0.08,0.6 0.32,2.49"
       style="fill:none;stroke:#000000 icc-color(sRGB-IEC61966-2, 0.1, 0, 0, 0);stroke-width:0.75;stroke-linecap:round;stroke-linejoin:round;stroke-miterlimit:10;stroke-dasharray:none;stroke-opacity:1"
       transform="matrix(0.17639594,0,0,-0.17639594,62.308997,154.16166)"
       clip-path="url(#clipPath10011)"
       id="path10066" />
    <path
       d="m 271.93,53.07 0.32,2.49 0.08,0.6 0.23,1.89 0.3,2.49 0.29,2.49 0.29,2.49 0.28,2.5 0.28,2.49 0.26,2.49 0.27,2.49 0.25,2.49 0.04,0.35 0.21,2.14 0.23,2.5 0.23,2.49 0.23,2.49 0.22,2.49 0.21,2.49 0.2,2.49 0.2,2.5 0.2,2.49 0.18,2.49 0.18,2.49 0.18,2.49 0.02,0.32 0.14,2.17 0.16,2.49 0.15,2.5 0.15,2.49 0.14,2.49 0.13,2.49 0.13,2.49 0.12,2.49 0.12,2.5 0.11,2.49 0.1,2.49 0.1,2.49 0.09,2.49 0.08,2.49 0.08,2.5 0.07,2.49 0.07,2.49 0.06,2.49 0.06,2.49 0.04,2.49 0.05,2.49 0.03,2.5 0.03,2.49 0.03,2.49 0.02,2.49 0.01,2.49 v 2.49 2.5 2.49 l -0.01,2.49 -0.02,2.49 -0.03,2.49 -0.03,2.49 -0.03,2.5 -0.05,2.49 -0.04,2.49 -0.06,2.49 -0.06,2.49 -0.07,2.49 -0.07,2.49 -0.08,2.5 -0.08,2.49 -0.09,2.49 -0.1,2.49 -0.1,2.49 -0.11,2.49 -0.12,2.5 -0.12,2.49 -0.13,2.49 -0.13,2.49 -0.14,2.49 -0.15,2.49 -0.15,2.5 -0.16,2.49 -0.14,2.17 -0.02,0.32 -0.18,2.49 -0.18,2.49 -0.18,2.49 -0.2,2.49 -0.2,2.5 -0.2,2.49 -0.21,2.49 -0.22,2.49 -0.23,2.49 -0.23,2.49 -0.23,2.5 -0.21,2.14 -0.04,0.35 -0.25,2.49 -0.27,2.49 -0.26,2.49 -0.28,2.49 -0.28,2.5 -0.29,2.49 -0.29,2.49 -0.3,2.49 -0.23,1.89 -0.08,0.6 -0.32,2.49"
       style="fill:none;stroke:#000000 icc-color(sRGB-IEC61966-2, 0.1, 0, 0, 0);stroke-width:0.75;stroke-linecap:round;stroke-linejoin:round;stroke-miterlimit:10;stroke-dasharray:none;stroke-opacity:1"
       transform="matrix(0.17639594,0,0,-0.17639594,62.308997,154.16166)"
       clip-path="url(#clipPath10012)"
       id="path10067" />
    <path
       d="m 73.21,53.07 -0.21,1.8 -0.08,0.69 -0.29,2.49 -0.28,2.49 -0.27,2.49 -0.26,2.49 -0.27,2.5 -0.25,2.49 -0.25,2.49 -0.24,2.49 -0.24,2.49 -0.06,0.67 -0.17,1.82 -0.22,2.5 -0.21,2.49 -0.21,2.49 -0.2,2.49 -0.2,2.49 -0.19,2.49 -0.19,2.5 -0.18,2.49 -0.17,2.49 -0.17,2.49 -0.16,2.49 -0.16,2.49 -0.06,1.09 -0.09,1.4 -0.14,2.5 -0.13,2.49 -0.13,2.49 -0.13,2.49 -0.12,2.49 -0.11,2.49 -0.11,2.5 -0.1,2.49 -0.1,2.49 -0.09,2.49 -0.08,2.49 -0.08,2.49 -0.08,2.5 -0.06,2.49 -0.07,2.49 -0.05,2.49 -0.05,2.49 -0.05,2.49 -0.04,2.49 -0.03,2.5 -0.03,2.49 -0.02,2.49 -0.02,2.49 -0.01,2.49 -0.01,2.49 v 2.5 l 0.01,2.49 0.01,2.49 0.02,2.49 0.02,2.49 0.03,2.49 0.03,2.5 0.04,2.49 0.05,2.49 0.05,2.49 0.05,2.49 0.07,2.49 0.06,2.49 0.08,2.5 0.08,2.49 0.08,2.49 0.09,2.49 0.1,2.49 0.1,2.49 0.11,2.5 0.11,2.49 0.12,2.49 0.13,2.49 0.13,2.49 0.13,2.49 0.14,2.5 0.09,1.4 0.06,1.09 0.16,2.49 0.16,2.49 0.17,2.49 0.17,2.49 0.18,2.49 0.19,2.5 0.19,2.49 0.2,2.49 0.2,2.49 0.21,2.49 0.21,2.49 0.22,2.5 0.17,1.82 0.06,0.67 0.24,2.49 0.24,2.49 0.25,2.49 0.25,2.49 0.27,2.5 0.26,2.49 0.27,2.49 0.28,2.49 0.29,2.49 0.08,0.69 0.21,1.8"
       style="fill:none;stroke:#000000 icc-color(sRGB-IEC61966-2, 0.1, 0, 0, 0);stroke-width:0.75;stroke-linecap:round;stroke-linejoin:round;stroke-miterlimit:10;stroke-dasharray:none;stroke-opacity:1"
       transform="matrix(0.17639594,0,0,-0.17639594,62.308997,154.16166)"
       clip-path="url(#clipPath10013)"
       id="path10068" />
    <path
       d="m 279.59,53.07 0.21,1.8 0.08,0.69 0.29,2.49 0.28,2.49 0.27,2.49 0.26,2.49 0.27,2.5 0.25,2.49 0.25,2.49 0.24,2.49 0.24,2.49 0.06,0.67 0.17,1.82 0.22,2.5 0.21,2.49 0.21,2.49 0.2,2.49 0.2,2.49 0.19,2.49 0.19,2.5 0.18,2.49 0.17,2.49 0.17,2.49 0.16,2.49 0.16,2.49 0.06,1.09 0.09,1.4 0.14,2.5 0.13,2.49 0.13,2.49 0.13,2.49 0.12,2.49 0.11,2.49 0.11,2.5 0.1,2.49 0.1,2.49 0.09,2.49 0.08,2.49 0.08,2.49 0.08,2.5 0.06,2.49 0.07,2.49 0.05,2.49 0.05,2.49 0.05,2.49 0.04,2.49 0.03,2.5 0.03,2.49 0.02,2.49 0.02,2.49 0.01,2.49 0.01,2.49 v 2.5 l -0.01,2.49 -0.01,2.49 -0.02,2.49 -0.02,2.49 -0.03,2.49 -0.03,2.5 -0.04,2.49 -0.05,2.49 -0.05,2.49 -0.05,2.49 -0.07,2.49 -0.06,2.49 -0.08,2.5 -0.08,2.49 -0.08,2.49 -0.09,2.49 -0.1,2.49 -0.1,2.49 -0.11,2.5 -0.11,2.49 -0.12,2.49 -0.13,2.49 -0.13,2.49 -0.13,2.49 -0.14,2.5 -0.09,1.4 -0.06,1.09 -0.16,2.49 -0.16,2.49 -0.17,2.49 -0.17,2.49 -0.18,2.49 -0.19,2.5 -0.19,2.49 -0.2,2.49 -0.2,2.49 -0.21,2.49 -0.21,2.49 -0.22,2.5 -0.17,1.82 -0.06,0.67 -0.24,2.49 -0.24,2.49 -0.25,2.49 -0.25,2.49 -0.27,2.5 -0.26,2.49 -0.27,2.49 -0.28,2.49 -0.29,2.49 -0.08,0.69 -0.21,1.8"
       style="fill:none;stroke:#000000 icc-color(sRGB-IEC61966-2, 0.1, 0, 0, 0);stroke-width:0.75;stroke-linecap:round;stroke-linejoin:round;stroke-miterlimit:10;stroke-dasharray:none;stroke-opacity:1"
       transform="matrix(0.17639594,0,0,-0.17639594,62.308997,154.16166)"
       clip-path="url(#clipPath10014)"
       id="path10069" />
    <path
       d="m 66.09,53.07 -0.28,2.49 -0.27,2.49 -0.02,0.17 -0.24,2.32 -0.25,2.49 -0.25,2.49 -0.25,2.5 -0.23,2.49 -0.24,2.49 -0.22,2.49 -0.22,2.49 -0.22,2.49 -0.21,2.5 -0.16,1.9 -0.04,0.59 -0.2,2.49 -0.19,2.49 -0.18,2.49 -0.18,2.49 -0.18,2.5 -0.16,2.49 -0.17,2.49 -0.15,2.49 -0.15,2.49 -0.15,2.49 -0.14,2.49 -0.14,2.5 -0.13,2.49 -0.12,2.49 -0.12,2.49 -0.09,1.93 -0.02,0.56 -0.11,2.49 -0.1,2.5 -0.1,2.49 -0.09,2.49 -0.08,2.49 -0.08,2.49 -0.07,2.49 -0.07,2.5 -0.07,2.49 -0.06,2.49 -0.05,2.49 -0.05,2.49 -0.04,2.49 -0.04,2.49 -0.03,2.5 -0.02,2.49 -0.03,2.49 -0.01,2.49 -0.01,2.49 -0.01,2.49 v 2.5 l 0.01,2.49 0.01,2.49 0.01,2.49 0.03,2.49 0.02,2.49 0.03,2.5 0.04,2.49 0.04,2.49 0.05,2.49 0.05,2.49 0.06,2.49 0.07,2.49 0.07,2.5 0.07,2.49 0.08,2.49 0.08,2.49 0.09,2.49 0.1,2.49 0.1,2.5 0.11,2.49 0.02,0.56 0.09,1.93 0.12,2.49 0.12,2.49 0.13,2.49 0.14,2.5 0.14,2.49 0.15,2.49 0.15,2.49 0.15,2.49 0.17,2.49 0.16,2.49 0.18,2.5 0.18,2.49 0.18,2.49 0.19,2.49 0.2,2.49 0.04,0.59 0.16,1.9 0.21,2.5 0.22,2.49 0.22,2.49 0.22,2.49 0.24,2.49 0.23,2.49 0.25,2.5 0.25,2.49 0.25,2.49 0.24,2.32 0.02,0.17 0.27,2.49 0.28,2.49"
       style="fill:none;stroke:#000000 icc-color(sRGB-IEC61966-2, 0.1, 0, 0, 0);stroke-width:0.75;stroke-linecap:round;stroke-linejoin:round;stroke-miterlimit:10;stroke-dasharray:none;stroke-opacity:1"
       transform="matrix(0.17639594,0,0,-0.17639594,62.308997,154.16166)"
       clip-path="url(#clipPath10015)"
       id="path10070" />
    <path
       d="m 286.71,53.07 0.28,2.49 0.27,2.49 0.02,0.17 0.24,2.32 0.25,2.49 0.25,2.49 0.25,2.5 0.23,2.49 0.24,2.49 0.22,2.49 0.22,2.49 0.22,2.49 0.21,2.5 0.16,1.9 0.04,0.59 0.2,2.49 0.19,2.49 0.18,2.49 0.18,2.49 0.18,2.5 0.16,2.49 0.17,2.49 0.15,2.49 0.15,2.49 0.15,2.49 0.14,2.49 0.14,2.5 0.13,2.49 0.12,2.49 0.12,2.49 0.09,1.93 0.02,0.56 0.11,2.49 0.1,2.5 0.1,2.49 0.09,2.49 0.08,2.49 0.08,2.49 0.07,2.49 0.07,2.5 0.07,2.49 0.06,2.49 0.05,2.49 0.05,2.49 0.04,2.49 0.04,2.49 0.03,2.5 0.02,2.49 0.03,2.49 0.01,2.49 0.01,2.49 0.01,2.49 v 2.5 l -0.01,2.49 -0.01,2.49 -0.01,2.49 -0.03,2.49 -0.02,2.49 -0.03,2.5 -0.04,2.49 -0.04,2.49 -0.05,2.49 -0.05,2.49 -0.06,2.49 -0.07,2.49 -0.07,2.5 -0.07,2.49 -0.08,2.49 -0.08,2.49 -0.09,2.49 -0.1,2.49 -0.1,2.5 -0.11,2.49 -0.02,0.56 -0.09,1.93 -0.12,2.49 -0.12,2.49 -0.13,2.49 -0.14,2.5 -0.14,2.49 -0.15,2.49 -0.15,2.49 -0.15,2.49 -0.17,2.49 -0.16,2.49 -0.18,2.5 -0.18,2.49 -0.18,2.49 -0.19,2.49 -0.2,2.49 -0.04,0.59 -0.16,1.9 -0.21,2.5 -0.22,2.49 -0.22,2.49 -0.22,2.49 -0.24,2.49 -0.23,2.49 -0.25,2.5 -0.25,2.49 -0.25,2.49 -0.24,2.32 -0.02,0.17 -0.27,2.49 -0.28,2.49"
       style="fill:none;stroke:#000000 icc-color(sRGB-IEC61966-2, 0.1, 0, 0, 0);stroke-width:0.75;stroke-linecap:round;stroke-linejoin:round;stroke-miterlimit:10;stroke-dasharray:none;stroke-opacity:1"
       transform="matrix(0.17639594,0,0,-0.17639594,62.308997,154.16166)"
       clip-path="url(#clipPath10016)"
       id="path10071" />
    <path
       d="m 59.4,53.07 -0.26,2.49 -0.25,2.49 -0.25,2.49 -0.24,2.49 -0.24,2.49 -0.11,1.14 -0.12,1.36 -0.23,2.49 -0.22,2.49 -0.21,2.49 -0.21,2.49 -0.2,2.49 -0.2,2.5 -0.19,2.49 -0.18,2.49 -0.19,2.49 -0.17,2.49 -0.17,2.49 -0.17,2.5 -0.03,0.49 -0.13,2 -0.15,2.49 -0.15,2.49 -0.14,2.49 -0.14,2.49 -0.13,2.49 -0.13,2.5 -0.12,2.49 -0.12,2.49 -0.11,2.49 -0.1,2.49 -0.11,2.49 -0.09,2.5 -0.09,2.49 -0.09,2.49 -0.08,2.49 -0.08,2.49 -0.07,2.49 -0.07,2.5 -0.06,2.49 -0.05,2.49 -0.05,2.49 -0.05,2.49 -0.04,2.49 -0.04,2.49 -0.03,2.5 -0.02,2.49 -0.02,2.49 -0.02,2.49 -0.01,2.49 v 2.49 2.5 2.49 l 0.01,2.49 0.02,2.49 0.02,2.49 0.02,2.49 0.03,2.5 0.04,2.49 0.04,2.49 0.05,2.49 0.05,2.49 0.05,2.49 0.06,2.49 0.07,2.5 0.07,2.49 0.08,2.49 0.08,2.49 0.09,2.49 0.09,2.49 0.09,2.5 0.11,2.49 0.1,2.49 0.11,2.49 0.12,2.49 0.12,2.49 0.13,2.5 0.13,2.49 0.14,2.49 0.14,2.49 0.15,2.49 0.15,2.49 0.13,2 0.03,0.49 0.17,2.5 0.17,2.49 0.17,2.49 0.19,2.49 0.18,2.49 0.19,2.49 0.2,2.5 0.2,2.49 0.21,2.49 0.21,2.49 0.22,2.49 0.23,2.49 0.12,1.36 0.11,1.14 0.24,2.49 0.24,2.49 0.25,2.49 0.25,2.49 0.26,2.49"
       style="fill:none;stroke:#000000 icc-color(sRGB-IEC61966-2, 0.1, 0, 0, 0);stroke-width:0.75;stroke-linecap:round;stroke-linejoin:round;stroke-miterlimit:10;stroke-dasharray:none;stroke-opacity:1"
       transform="matrix(0.17639594,0,0,-0.17639594,62.308997,154.16166)"
       clip-path="url(#clipPath10017)"
       id="path10072" />
    <path
       d="m 293.4,53.07 0.26,2.49 0.25,2.49 0.25,2.49 0.24,2.49 0.24,2.49 0.11,1.14 0.12,1.36 0.23,2.49 0.22,2.49 0.21,2.49 0.21,2.49 0.2,2.49 0.2,2.5 0.19,2.49 0.18,2.49 0.19,2.49 0.17,2.49 0.17,2.49 0.17,2.5 0.03,0.49 0.13,2 0.15,2.49 0.15,2.49 0.14,2.49 0.14,2.49 0.13,2.49 0.13,2.5 0.12,2.49 0.12,2.49 0.11,2.49 0.1,2.49 0.11,2.49 0.09,2.5 0.09,2.49 0.09,2.49 0.08,2.49 0.08,2.49 0.07,2.49 0.07,2.5 0.06,2.49 0.05,2.49 0.05,2.49 0.05,2.49 0.04,2.49 0.04,2.49 0.03,2.5 0.02,2.49 0.02,2.49 0.02,2.49 0.01,2.49 v 2.49 2.5 2.49 l -0.01,2.49 -0.02,2.49 -0.02,2.49 -0.02,2.49 -0.03,2.5 -0.04,2.49 -0.04,2.49 -0.05,2.49 -0.05,2.49 -0.05,2.49 -0.06,2.49 -0.07,2.5 -0.07,2.49 -0.08,2.49 -0.08,2.49 -0.09,2.49 -0.09,2.49 -0.09,2.5 -0.11,2.49 -0.1,2.49 -0.11,2.49 -0.12,2.49 -0.12,2.49 -0.13,2.5 -0.13,2.49 -0.14,2.49 -0.14,2.49 -0.15,2.49 -0.15,2.49 -0.13,2 -0.03,0.49 -0.17,2.5 -0.17,2.49 -0.17,2.49 -0.19,2.49 -0.18,2.49 -0.19,2.49 -0.2,2.5 -0.2,2.49 -0.21,2.49 -0.21,2.49 -0.22,2.49 -0.23,2.49 -0.12,1.36 -0.11,1.14 -0.24,2.49 -0.24,2.49 -0.25,2.49 -0.25,2.49 -0.26,2.49"
       style="fill:none;stroke:#000000 icc-color(sRGB-IEC61966-2, 0.1, 0, 0, 0);stroke-width:0.75;stroke-linecap:round;stroke-linejoin:round;stroke-miterlimit:10;stroke-dasharray:none;stroke-opacity:1"
       transform="matrix(0.17639594,0,0,-0.17639594,62.308997,154.16166)"
       clip-path="url(#clipPath10018)"
       id="path10073" />
    <path
       d="M 53.13,53.07 53.07,53.6"
       style="fill:none;stroke:#000000 icc-color(sRGB-IEC61966-2, 0.1, 0, 0, 0);stroke-width:0.75;stroke-linecap:round;stroke-linejoin:round;stroke-miterlimit:10;stroke-dasharray:none;stroke-opacity:1"
       transform="matrix(0.17639594,0,0,-0.17639594,62.308997,154.16166)"
       clip-path="url(#clipPath10019)"
       id="path10074" />
    <path
       d="m 53.07,299.2 0.06,0.53"
       style="fill:none;stroke:#000000 icc-color(sRGB-IEC61966-2, 0.1, 0, 0, 0);stroke-width:0.75;stroke-linecap:round;stroke-linejoin:round;stroke-miterlimit:10;stroke-dasharray:none;stroke-opacity:1"
       transform="matrix(0.17639594,0,0,-0.17639594,62.308997,154.16166)"
       clip-path="url(#clipPath10020)"
       id="path10075" />
    <path
       d="m 299.67,53.07 0.06,0.53"
       style="fill:none;stroke:#000000 icc-color(sRGB-IEC61966-2, 0.1, 0, 0, 0);stroke-width:0.75;stroke-linecap:round;stroke-linejoin:round;stroke-miterlimit:10;stroke-dasharray:none;stroke-opacity:1"
       transform="matrix(0.17639594,0,0,-0.17639594,62.308997,154.16166)"
       clip-path="url(#clipPath10021)"
       id="path10076" />
    <path
       d="m 299.73,299.2 -0.06,0.53"
       style="fill:none;stroke:#000000 icc-color(sRGB-IEC61966-2, 0.1, 0, 0, 0);stroke-width:0.75;stroke-linecap:round;stroke-linejoin:round;stroke-miterlimit:10;stroke-dasharray:none;stroke-opacity:1"
       transform="matrix(0.17639594,0,0,-0.17639594,62.308997,154.16166)"
       clip-path="url(#clipPath10022)"
       id="path10077" />
    <path
       d="M 53.07,43.2 H 299.73"
       style="fill:none;stroke:#000000 icc-color(sRGB-IEC61966-2, 0.1, 0, 0, 0);stroke-width:0.75;stroke-linecap:round;stroke-linejoin:round;stroke-miterlimit:10;stroke-dasharray:none;stroke-opacity:1"
       transform="matrix(0.17639594,0,0,-0.17639594,62.308997,154.16166)"
       clip-path="url(#clipPath10023)"
       id="path10078" />
    <path
       d="M 53.07,43.2 V 36"
       style="fill:none;stroke:#000000 icc-color(sRGB-IEC61966-2, 0.1, 0, 0, 0);stroke-width:0.75;stroke-linecap:round;stroke-linejoin:round;stroke-miterlimit:10;stroke-dasharray:none;stroke-opacity:1"
       transform="matrix(0.17639594,0,0,-0.17639594,62.308997,154.16166)"
       clip-path="url(#clipPath10024)"
       id="path10079" />
    <path
       d="M 114.73,43.2 V 36"
       style="fill:none;stroke:#000000 icc-color(sRGB-IEC61966-2, 0.1, 0, 0, 0);stroke-width:0.75;stroke-linecap:round;stroke-linejoin:round;stroke-miterlimit:10;stroke-dasharray:none;stroke-opacity:1"
       transform="matrix(0.17639594,0,0,-0.17639594,62.308997,154.16166)"
       clip-path="url(#clipPath10025)"
       id="path10080" />
    <path
       d="M 176.4,43.2 V 36"
       style="fill:none;stroke:#000000 icc-color(sRGB-IEC61966-2, 0.1, 0, 0, 0);stroke-width:0.75;stroke-linecap:round;stroke-linejoin:round;stroke-miterlimit:10;stroke-dasharray:none;stroke-opacity:1"
       transform="matrix(0.17639594,0,0,-0.17639594,62.308997,154.16166)"
       clip-path="url(#clipPath10026)"
       id="path10081" />
    <path
       d="M 238.07,43.2 V 36"
       style="fill:none;stroke:#000000 icc-color(sRGB-IEC61966-2, 0.1, 0, 0, 0);stroke-width:0.75;stroke-linecap:round;stroke-linejoin:round;stroke-miterlimit:10;stroke-dasharray:none;stroke-opacity:1"
       transform="matrix(0.17639594,0,0,-0.17639594,62.308997,154.16166)"
       clip-path="url(#clipPath10027)"
       id="path10082" />
    <path
       d="M 299.73,43.2 V 36"
       style="fill:none;stroke:#000000 icc-color(sRGB-IEC61966-2, 0.1, 0, 0, 0);stroke-width:0.75;stroke-linecap:round;stroke-linejoin:round;stroke-miterlimit:10;stroke-dasharray:none;stroke-opacity:1"
       transform="matrix(0.17639594,0,0,-0.17639594,62.308997,154.16166)"
       clip-path="url(#clipPath10028)"
       id="path10083" />
    <path
       d="M 6.5396478,-3.211321 H 0.46957812 v 0.8437163 H 6.5396478 Z m 6.5388012,2.1561638 H 8.6020653 c 0.1171828,-0.7030969 0.4921678,-1.1718281 1.5468127,-1.8046153 l 1.195265,-0.6796603 c 1.195265,-0.6562238 1.804615,-1.5468132 1.804615,-2.6014585 0,-0.7265334 -0.304675,-1.4061937 -0.796843,-1.8514884 C 11.836311,-8.461111 11.22696,-8.67204 10.406681,-8.67204 c -1.0780822,0 -1.8749254,0.374985 -2.3436566,1.124955 -0.3046753,0.4452946 -0.4218581,0.9843356 -0.4452947,1.874925 H 8.672375 c 0.023437,-0.5859141 0.093746,-0.9374625 0.2343656,-1.2187013 0.2812388,-0.5390409 0.8437163,-0.8671528 1.4765034,-0.8671528 0.960899,0 1.687433,0.7030969 1.687433,1.6405594 0,0.7030968 -0.398422,1.2890109 -1.171829,1.7343056 L 9.79733,-3.7503619 C 8.0395878,-2.7191532 7.5239834,-1.8988735 7.4068006,-0.02394847 H 13.078449 Z M 16.986496,-8.67204 c -0.796844,0 -1.523377,0.3515484 -1.968672,0.9374625 -0.539041,0.7734065 -0.820279,1.9217981 -0.820279,3.5389209 0,2.9295703 0.960899,4.47638345 2.788951,4.47638345 1.804615,0 2.788951,-1.54681315 2.788951,-4.40607375 0,-1.6874325 -0.281239,-2.8123875 -0.843717,-3.6092306 C 18.486436,-8.3204916 17.783339,-8.67204 16.986496,-8.67204 Z m 0,0.9374625 c 1.124955,0 1.710869,1.1483915 1.710869,3.5154843 0,2.4608391 -0.562478,3.60923067 -1.734306,3.60923067 -1.124955,0 -1.687433,-1.19526467 -1.687433,-3.58579407 0,-2.3905294 0.562478,-3.5389209 1.71087,-3.5389209 z m 0,0"
       style="fill:#000000 icc-color(sRGB-IEC61966-2, 0.1, 0, 0, 0);fill-opacity:1;fill-rule:nonzero;stroke:none"
       aria-label="−20"
       transform="matrix(0.17639594,0,0,0.17639594,69.874625,151.11354)"
       clip-path="url(#clipPath10029)"
       id="path10084" />
    <path
       d="M 6.537103,-3.211321 H 0.46703329 v 0.8437163 H 6.537103 Z m 3.585794,-2.9764434 v 6.18725249548 h 1.054645 V -8.67204 H 10.474445 C 10.09946,-7.336156 9.8650949,-7.1721 8.2245355,-6.9377344 v 0.74997 z M 16.983951,-8.67204 c -0.796843,0 -1.523377,0.3515484 -1.968672,0.9374625 -0.53904,0.7734065 -0.820279,1.9217981 -0.820279,3.5389209 0,2.9295703 0.960899,4.47638345 2.788951,4.47638345 1.804615,0 2.788951,-1.54681315 2.788951,-4.40607375 0,-1.6874325 -0.281239,-2.8123875 -0.843717,-3.6092306 C 18.483891,-8.3204916 17.780794,-8.67204 16.983951,-8.67204 Z m 0,0.9374625 c 1.124955,0 1.710869,1.1483915 1.710869,3.5154843 0,2.4608391 -0.562478,3.60923067 -1.734306,3.60923067 -1.124955,0 -1.687432,-1.19526467 -1.687432,-3.58579407 0,-2.3905294 0.562477,-3.5389209 1.710869,-3.5389209 z m 0,0"
       style="fill:#000000 icc-color(sRGB-IEC61966-2, 0.1, 0, 0, 0);fill-opacity:1;fill-rule:nonzero;stroke:none"
       aria-label="−10"
       transform="matrix(0.17639594,0,0,0.17639594,80.752968,151.11354)"
       clip-path="url(#clipPath10030)"
       id="path10085" />
    <path
       d="m 3.3020705,-8.67204 c -0.7968431,0 -1.5233765,0.3515484 -1.9686712,0.9374625 -0.53904097,0.7734065 -0.82027972,1.9217981 -0.82027972,3.5389209 0,2.9295703 0.96089902,4.47638345 2.78895092,4.47638345 1.8046153,0 2.788951,-1.54681315 2.788951,-4.40607375 0,-1.6874325 -0.2812388,-2.8123875 -0.8437163,-3.6092306 C 4.8020105,-8.3204916 4.0989136,-8.67204 3.3020705,-8.67204 Z m 0,0.9374625 c 1.124955,0 1.7108691,1.1483915 1.7108691,3.5154843 0,2.4608391 -0.5624775,3.60923067 -1.7343056,3.60923067 -1.124955,0 -1.6874325,-1.19526467 -1.6874325,-3.58579407 0,-2.3905294 0.5624775,-3.5389209 1.710869,-3.5389209 z m 0,0"
       style="fill:#000000 icc-color(sRGB-IEC61966-2, 0.1, 0, 0, 0);fill-opacity:1;fill-rule:nonzero;stroke:none"
       aria-label="0"
       transform="matrix(0.17639594,0,0,0.17639594,92.836092,151.11354)"
       clip-path="url(#clipPath10031)"
       id="path10086" />
    <path
       d="M 3.1181822,-6.1877644 V -5.1190452e-4 H 4.1728275 V -8.67204 H 3.4697306 c -0.374985,1.335884 -0.6093506,1.49994 -2.24991,1.7343056 v 0.74997 z M 9.9792359,-8.67204 c -0.7968432,0 -1.5233766,0.3515484 -1.9686713,0.9374625 -0.5390409,0.7734065 -0.8202797,1.9217981 -0.8202797,3.5389209 0,2.9295703 0.9608991,4.47638345 2.788951,4.47638345 1.8046151,0 2.7889511,-1.54681315 2.7889511,-4.40607375 0,-1.6874325 -0.281239,-2.8123875 -0.843716,-3.6092306 C 11.479176,-8.3204916 10.776079,-8.67204 9.9792359,-8.67204 Z m 0,0.9374625 c 1.1249551,0 1.7108691,1.1483915 1.7108691,3.5154843 0,2.4608391 -0.562478,3.60923067 -1.7343057,3.60923067 -1.124955,0 -1.6874325,-1.19526467 -1.6874325,-3.58579407 0,-2.3905294 0.5624775,-3.5389209 1.7108691,-3.5389209 z m 0,0"
       style="fill:#000000 icc-color(sRGB-IEC61966-2, 0.1, 0, 0, 0);fill-opacity:1;fill-rule:nonzero;stroke:none"
       aria-label="10"
       transform="matrix(0.17639594,0,0,0.17639594,103.12526,151.11354)"
       clip-path="url(#clipPath10032)"
       id="path10087" />
    <path
       d="M 6.0686442,-1.0551572 H 1.5922608 c 0.1171828,-0.7030969 0.4921678,-1.1718281 1.5468131,-1.8046153 l 1.1952647,-0.6796603 c 1.1952647,-0.6562238 1.8046153,-1.5468132 1.8046153,-2.6014585 0,-0.7265334 -0.3046753,-1.4061937 -0.7968431,-1.8514884 C 4.8265064,-8.461111 4.2171558,-8.67204 3.3968761,-8.67204 c -1.0780819,0 -1.874925,0.374985 -2.3436563,1.124955 -0.30467527,0.4452946 -0.42185808,0.9843356 -0.44529464,1.874925 H 1.6625705 c 0.023437,-0.5859141 0.093746,-0.9374625 0.2343656,-1.2187013 0.2812387,-0.5390409 0.8437162,-0.8671528 1.4765034,-0.8671528 0.9608991,0 1.6874325,0.7030969 1.6874325,1.6405594 0,0.7030968 -0.3984215,1.2890109 -1.1718281,1.7343056 L 2.7875255,-3.7503619 C 1.0297833,-2.7191532 0.51417891,-1.8988735 0.3969961,-0.02394847 H 6.0686442 Z M 9.976691,-8.67204 c -0.7968431,0 -1.5233765,0.3515484 -1.9686712,0.9374625 -0.539041,0.7734065 -0.8202797,1.9217981 -0.8202797,3.5389209 0,2.9295703 0.9608991,4.47638345 2.7889509,4.47638345 1.804615,0 2.788951,-1.54681315 2.788951,-4.40607375 0,-1.6874325 -0.281239,-2.8123875 -0.843716,-3.6092306 C 11.476631,-8.3204916 10.773534,-8.67204 9.976691,-8.67204 Z m 0,0.9374625 c 1.124955,0 1.710869,1.1483915 1.710869,3.5154843 0,2.4608391 -0.562477,3.60923067 -1.7343055,3.60923067 -1.124955,0 -1.6874325,-1.19526467 -1.6874325,-3.58579407 0,-2.3905294 0.5624775,-3.5389209 1.710869,-3.5389209 z m 0,0"
       style="fill:#000000 icc-color(sRGB-IEC61966-2, 0.1, 0, 0, 0);fill-opacity:1;fill-rule:nonzero;stroke:none"
       aria-label="20"
       transform="matrix(0.17639594,0,0,0.17639594,114.00361,151.11354)"
       clip-path="url(#clipPath10033)"
       id="path10088" />
    <path
       d="M 43.2,53.07 V 299.73"
       style="fill:none;stroke:#000000 icc-color(sRGB-IEC61966-2, 0.1, 0, 0, 0);stroke-width:0.75;stroke-linecap:round;stroke-linejoin:round;stroke-miterlimit:10;stroke-dasharray:none;stroke-opacity:1"
       transform="matrix(0.17639594,0,0,-0.17639594,62.308997,154.16166)"
       clip-path="url(#clipPath10034)"
       id="path10089" />
    <path
       d="M 43.2,53.07 H 36"
       style="fill:none;stroke:#000000 icc-color(sRGB-IEC61966-2, 0.1, 0, 0, 0);stroke-width:0.75;stroke-linecap:round;stroke-linejoin:round;stroke-miterlimit:10;stroke-dasharray:none;stroke-opacity:1"
       transform="matrix(0.17639594,0,0,-0.17639594,62.308997,154.16166)"
       clip-path="url(#clipPath10035)"
       id="path10090" />
    <path
       d="M 43.2,114.73 H 36"
       style="fill:none;stroke:#000000 icc-color(sRGB-IEC61966-2, 0.1, 0, 0, 0);stroke-width:0.75;stroke-linecap:round;stroke-linejoin:round;stroke-miterlimit:10;stroke-dasharray:none;stroke-opacity:1"
       transform="matrix(0.17639594,0,0,-0.17639594,62.308997,154.16166)"
       clip-path="url(#clipPath10036)"
       id="path10091" />
    <path
       d="M 43.2,176.4 H 36"
       style="fill:none;stroke:#000000 icc-color(sRGB-IEC61966-2, 0.1, 0, 0, 0);stroke-width:0.75;stroke-linecap:round;stroke-linejoin:round;stroke-miterlimit:10;stroke-dasharray:none;stroke-opacity:1"
       transform="matrix(0.17639594,0,0,-0.17639594,62.308997,154.16166)"
       clip-path="url(#clipPath10037)"
       id="path10092" />
    <path
       d="M 43.2,238.07 H 36"
       style="fill:none;stroke:#000000 icc-color(sRGB-IEC61966-2, 0.1, 0, 0, 0);stroke-width:0.75;stroke-linecap:round;stroke-linejoin:round;stroke-miterlimit:10;stroke-dasharray:none;stroke-opacity:1"
       transform="matrix(0.17639594,0,0,-0.17639594,62.308997,154.16166)"
       clip-path="url(#clipPath10038)"
       id="path10093" />
    <path
       d="M 43.2,299.73 H 36"
       style="fill:none;stroke:#000000 icc-color(sRGB-IEC61966-2, 0.1, 0, 0, 0);stroke-width:0.75;stroke-linecap:round;stroke-linejoin:round;stroke-miterlimit:10;stroke-dasharray:none;stroke-opacity:1"
       transform="matrix(0.17639594,0,0,-0.17639594,62.308997,154.16166)"
       clip-path="url(#clipPath10039)"
       id="path10094" />
    <path
       d="M 6.5396166,-3.2080335 H 0.46954687 v 0.8437163 H 6.5396166 Z m 6.5388014,2.1561638 H 8.6020341 C 8.7192169,-1.7549666 9.0942019,-2.2236979 10.148847,-2.856485 l 1.195265,-0.6796604 c 1.195265,-0.6562237 1.804615,-1.5468131 1.804615,-2.6014584 0,-0.7265334 -0.304675,-1.4061937 -0.796843,-1.8514884 -0.515604,-0.4687313 -1.124955,-0.6796603 -1.945235,-0.6796603 -1.0780815,0 -1.8749246,0.374985 -2.3436559,1.124955 -0.3046753,0.4452946 -0.4218581,0.9843356 -0.4452947,1.874925 h 1.0546454 c 0.023436,-0.5859141 0.093746,-0.9374625 0.2343656,-1.2187013 0.2812387,-0.5390409 0.8437162,-0.8671528 1.4765036,-0.8671528 0.960899,0 1.687432,0.7030969 1.687432,1.6405594 0,0.7030968 -0.398421,1.2890109 -1.171828,1.7343056 L 9.7972988,-3.7470744 C 8.0395566,-2.7158657 7.5239522,-1.895586 7.4067694,-0.02066097 h 5.6716486 z m 3.908046,-7.6168828 c -0.796843,0 -1.523376,0.3515484 -1.968671,0.9374625 -0.539041,0.7734065 -0.82028,1.9217981 -0.82028,3.5389209 0,2.9295703 0.960899,4.47638344 2.788951,4.47638344 1.804616,0 2.788951,-1.54681314 2.788951,-4.40607374 0,-1.6874325 -0.281238,-2.8123875 -0.843716,-3.6092306 -0.445295,-0.5859141 -1.148392,-0.9374625 -1.945235,-0.9374625 z m 0,0.9374625 c 1.124955,0 1.710869,1.1483915 1.710869,3.5154843 0,2.4608391 -0.562477,3.60923066 -1.734305,3.60923066 -1.124955,0 -1.687433,-1.19526466 -1.687433,-3.58579406 0,-2.3905294 0.562478,-3.5389209 1.710869,-3.5389209 z m 0,0"
       style="fill:#000000 icc-color(sRGB-IEC61966-2, 0.1, 0, 0, 0);fill-opacity:1;fill-rule:nonzero;stroke:none"
       aria-label="−20"
       transform="matrix(0,-0.17639594,0.17639594,0,66.881182,146.59604)"
       clip-path="url(#clipPath10040)"
       id="path10095" />
    <path
       d="M 6.5370717,-3.2080335 H 0.46700204 v 0.8437163 H 6.5370717 Z m 3.5857943,-2.9764434 v 6.18725249 h 1.054645 V -8.6687525 h -0.703097 c -0.374985,1.335884 -0.6093504,1.49994 -2.2499098,1.7343056 v 0.74997 z m 6.861053,-2.4842756 c -0.796843,0 -1.523376,0.3515484 -1.968671,0.9374625 -0.539041,0.7734065 -0.820279,1.9217981 -0.820279,3.5389209 0,2.9295703 0.960899,4.47638344 2.78895,4.47638344 1.804616,0 2.788951,-1.54681314 2.788951,-4.40607374 0,-1.6874325 -0.281238,-2.8123875 -0.843716,-3.6092306 -0.445295,-0.5859141 -1.148391,-0.9374625 -1.945235,-0.9374625 z m 0,0.9374625 c 1.124955,0 1.71087,1.1483915 1.71087,3.5154843 0,2.4608391 -0.562478,3.60923066 -1.734306,3.60923066 -1.124955,0 -1.687433,-1.19526466 -1.687433,-3.58579406 0,-2.3905294 0.562478,-3.5389209 1.710869,-3.5389209 z m 0,0"
       style="fill:#000000 icc-color(sRGB-IEC61966-2, 0.1, 0, 0, 0);fill-opacity:1;fill-rule:nonzero;stroke:none"
       aria-label="−10"
       transform="matrix(0,-0.17639594,0.17639594,0,66.881182,135.7177)"
       clip-path="url(#clipPath10041)"
       id="path10096" />
    <path
       d="m 3.3020393,-8.6687525 c -0.7968432,0 -1.5233766,0.3515484 -1.9686713,0.9374625 -0.53904092,0.7734065 -0.82027967,1.9217981 -0.82027967,3.5389209 0,2.9295703 0.96089907,4.47638344 2.78895097,4.47638344 1.8046153,0 2.7889509,-1.54681314 2.7889509,-4.40607374 0,-1.6874325 -0.2812387,-2.8123875 -0.8437162,-3.6092306 C 4.8019793,-8.3172041 4.0988824,-8.6687525 3.3020393,-8.6687525 Z m 0,0.9374625 c 1.124955,0 1.710869,1.1483915 1.710869,3.5154843 0,2.4608391 -0.5624775,3.60923066 -1.7343056,3.60923066 -1.124955,0 -1.6874325,-1.19526466 -1.6874325,-3.58579406 0,-2.3905294 0.5624775,-3.5389209 1.7108691,-3.5389209 z m 0,0"
       style="fill:#000000 icc-color(sRGB-IEC61966-2, 0.1, 0, 0, 0);fill-opacity:1;fill-rule:nonzero;stroke:none"
       aria-label="0"
       transform="matrix(0,-0.17639594,0.17639594,0,66.881182,123.63458)"
       clip-path="url(#clipPath10042)"
       id="path10097" />
    <path
       d="M 3.1181509,-6.1844769 V 0.00277559 H 4.1727962 V -8.6687525 H 3.4696994 c -0.374985,1.335884 -0.6093507,1.49994 -2.24991,1.7343056 v 0.74997 z m 6.8610537,-2.4842756 c -0.7968431,0 -1.5233766,0.3515484 -1.9686712,0.9374625 -0.539041,0.7734065 -0.8202797,1.9217981 -0.8202797,3.5389209 0,2.9295703 0.960899,4.47638344 2.7889509,4.47638344 1.8046154,0 2.7889514,-1.54681314 2.7889514,-4.40607374 0,-1.6874325 -0.281239,-2.8123875 -0.843717,-3.6092306 -0.445294,-0.5859141 -1.148391,-0.9374625 -1.9452344,-0.9374625 z m 0,0.9374625 c 1.1249554,0 1.7108694,1.1483915 1.7108694,3.5154843 0,2.4608391 -0.562478,3.60923066 -1.734306,3.60923066 -1.124955,0 -1.6874325,-1.19526466 -1.6874325,-3.58579406 0,-2.3905294 0.5624775,-3.5389209 1.7108691,-3.5389209 z m 0,0"
       style="fill:#000000 icc-color(sRGB-IEC61966-2, 0.1, 0, 0, 0);fill-opacity:1;fill-rule:nonzero;stroke:none"
       aria-label="10"
       transform="matrix(0,-0.17639594,0.17639594,0,66.881182,113.34541)"
       clip-path="url(#clipPath10043)"
       id="path10098" />
    <path
       d="M 6.068613,-1.0518697 H 1.5922295 C 1.7094123,-1.7549666 2.0843973,-2.2236979 3.1390427,-2.856485 l 1.1952647,-0.6796604 c 1.1952646,-0.6562237 1.8046153,-1.5468131 1.8046153,-2.6014584 0,-0.7265334 -0.3046753,-1.4061937 -0.7968432,-1.8514884 -0.5156043,-0.4687313 -1.124955,-0.6796603 -1.9452346,-0.6796603 -1.0780819,0 -1.8749251,0.374985 -2.3436563,1.124955 -0.30467532,0.4452946 -0.42185813,0.9843356 -0.44529469,1.874925 H 1.6625392 c 0.023437,-0.5859141 0.093746,-0.9374625 0.2343656,-1.2187013 0.2812388,-0.5390409 0.8437163,-0.8671528 1.4765035,-0.8671528 0.9608991,0 1.6874325,0.7030969 1.6874325,1.6405594 0,0.7030968 -0.3984216,1.2890109 -1.1718281,1.7343056 L 2.7874942,-3.7470744 C 1.029752,-2.7158657 0.51414766,-1.895586 0.39696485,-0.02066097 H 6.068613 Z m 3.9080468,-7.6168828 c -0.7968431,0 -1.5233766,0.3515484 -1.9686713,0.9374625 -0.5390409,0.7734065 -0.8202797,1.9217981 -0.8202797,3.5389209 0,2.9295703 0.9608991,4.47638344 2.788951,4.47638344 1.8046152,0 2.7889512,-1.54681314 2.7889512,-4.40607374 0,-1.6874325 -0.281239,-2.8123875 -0.843717,-3.6092306 C 11.4766,-8.3172041 10.773503,-8.6687525 9.9766598,-8.6687525 Z m 0,0.9374625 c 1.1249552,0 1.7108692,1.1483915 1.7108692,3.5154843 0,2.4608391 -0.562478,3.60923066 -1.7343058,3.60923066 -1.124955,0 -1.6874325,-1.19526466 -1.6874325,-3.58579406 0,-2.3905294 0.5624775,-3.5389209 1.7108691,-3.5389209 z m 0,0"
       style="fill:#000000 icc-color(sRGB-IEC61966-2, 0.1, 0, 0, 0);fill-opacity:1;fill-rule:nonzero;stroke:none"
       aria-label="20"
       transform="matrix(0,-0.17639594,0.17639594,0,66.881182,102.46707)"
       clip-path="url(#clipPath10044)"
       id="path10099" />
    <path
       d="M 43.2,43.2 H 309.6 V 309.6 H 43.2 V 43.2"
       style="fill:none;stroke:#000000 icc-color(sRGB-IEC61966-2, 0.1, 0, 0, 0);stroke-width:0.75;stroke-linecap:round;stroke-linejoin:round;stroke-miterlimit:10;stroke-dasharray:none;stroke-opacity:1"
       transform="matrix(0.17639594,0,0,-0.17639594,62.308997,154.16166)"
       clip-path="url(#clipPath10045)"
       id="path10100" />
    <path
       d="m 2.9548573,-5.2990274 c -1.4765035,0 -2.69520474,1.2187012 -2.69520474,2.6952047 0,1.49994 1.21870124,2.69520464 2.69520474,2.69520464 1.49994,0 2.6952046,-1.19526464 2.6952046,-2.69520464 0,-1.4765035 -1.1952646,-2.6952047 -2.6952046,-2.6952047 z m 0,0"
       style="fill:none;stroke:#000000 icc-color(sRGB-IEC61966-2, 0.1, 0, 0, 0);stroke-width:0.75;stroke-linecap:round;stroke-linejoin:round;stroke-miterlimit:10;stroke-dasharray:none;stroke-opacity:1"
       aria-label="●"
       transform="matrix(0.17639594,0,0,0.17639594,95.078092,101.74737)"
       clip-path="url(#clipPath10046)"
       id="path10101" />
    <path
       d="m 2.9547091,-5.2988792 c -1.4765035,0 -2.69520473,1.2187012 -2.69520473,2.6952046 0,1.49994 1.21870123,2.69520474 2.69520473,2.69520474 1.49994,0 2.6952047,-1.19526474 2.6952047,-2.69520474 0,-1.4765034 -1.1952647,-2.6952046 -2.6952047,-2.6952046 z m 0,0"
       style="fill:none;stroke:#000000 icc-color(sRGB-IEC61966-2, 0.1, 0, 0, 0);stroke-width:0.75;stroke-linecap:round;stroke-linejoin:round;stroke-miterlimit:10;stroke-dasharray:none;stroke-opacity:1"
       aria-label="●"
       transform="matrix(0.17639594,0,0,0.17639594,87.463066,109.36239)"
       clip-path="url(#clipPath10047)"
       id="path10102" />
    <path
       d="m 2.9542204,-5.2994547 c -1.4765034,0 -2.69520469,1.2187012 -2.69520469,2.6952046 0,1.49994 1.21870129,2.69520474 2.69520469,2.69520474 1.49994,0 2.6952047,-1.19526474 2.6952047,-2.69520474 0,-1.4765034 -1.1952647,-2.6952046 -2.6952047,-2.6952046 z m 0,0"
       style="fill:none;stroke:#000000 icc-color(sRGB-IEC61966-2, 0.1, 0, 0, 0);stroke-width:0.75;stroke-linecap:round;stroke-linejoin:round;stroke-miterlimit:10;stroke-dasharray:none;stroke-opacity:1"
       aria-label="●"
       transform="matrix(0.17639594,0,0,0.17639594,106.4997,114.31206)"
       clip-path="url(#clipPath10048)"
       id="path10103" />
    <path
       d="M 188.73,299.73 145.57,256.57 253.48,228.51 0,211.37"
       style="fill:none;stroke:#000000 icc-color(sRGB-IEC61966-2, 0.1, 0, 0, 0);stroke-width:0.75;stroke-linecap:round;stroke-linejoin:round;stroke-miterlimit:10;stroke-dasharray:none;stroke-opacity:1"
       transform="matrix(0.17639594,0,0,-0.17639594,62.308997,154.16166)"
       clip-path="url(#clipPath10049)"
       id="path10104" />
    <path
       d="m 0,209.98 324,-5.69"
       style="fill:none;stroke:#000000 icc-color(sRGB-IEC61966-2, 0.1, 0, 0, 0);stroke-width:0.75;stroke-linecap:round;stroke-linejoin:round;stroke-miterlimit:10;stroke-dasharray:none;stroke-opacity:1"
       transform="matrix(0.17639594,0,0,-0.17639594,62.308997,154.16166)"
       clip-path="url(#clipPath10050)"
       id="path10105" />
    <path
       d="M 324,196.89 0,195.41"
       style="fill:none;stroke:#000000 icc-color(sRGB-IEC61966-2, 0.1, 0, 0, 0);stroke-width:0.75;stroke-linecap:round;stroke-linejoin:round;stroke-miterlimit:10;stroke-dasharray:none;stroke-opacity:1"
       transform="matrix(0.17639594,0,0,-0.17639594,62.308997,154.16166)"
       clip-path="url(#clipPath10051)"
       id="path10106" />
    <path
       d="M 0,189.49 324,189.1"
       style="fill:none;stroke:#000000 icc-color(sRGB-IEC61966-2, 0.1, 0, 0, 0);stroke-width:0.75;stroke-linecap:round;stroke-linejoin:round;stroke-miterlimit:10;stroke-dasharray:none;stroke-opacity:1"
       transform="matrix(0.17639594,0,0,-0.17639594,62.308997,154.16166)"
       clip-path="url(#clipPath10052)"
       id="path10107" />
    <path
       d="M 324,184.82 0,184.72"
       style="fill:none;stroke:#000000 icc-color(sRGB-IEC61966-2, 0.1, 0, 0, 0);stroke-width:0.75;stroke-linecap:round;stroke-linejoin:round;stroke-miterlimit:10;stroke-dasharray:none;stroke-opacity:1"
       transform="matrix(0.17639594,0,0,-0.17639594,62.308997,154.16166)"
       clip-path="url(#clipPath10053)"
       id="path10108" />
    <path
       d="m 4.8018757,-21.867633 0.1406194,3.351428 -3.1639359,-1.124955 -0.5859141,1.757742 3.2342456,0.914026 -2.0624175,2.648332 1.49994,1.101518 1.8983616,-2.812387 1.8514885,2.812387 1.5233765,-1.101518 -2.085854,-2.648332 3.2342452,-0.914026 -0.5624771,-1.757742 -3.1873725,1.124955 0.1406194,-3.351428 z m 0,0"
       style="fill:#000000 icc-color(sRGB-IEC61966-2, 0.1, 0, 0, 0);fill-opacity:1;fill-rule:nonzero;stroke:none"
       aria-label="*"
       transform="matrix(0.17639594,0,0,0.17639594,92.396857,126.08472)"
       clip-path="url(#clipPath10054)"
       id="path10109" />
  </g>
</svg>
