<?xml version="1.0" encoding="UTF-8" standalone="no"?>
<!-- Created with Inkscape (http://www.inkscape.org/) -->

<svg
   width="51.635281mm"
   height="51.680244mm"
   viewBox="0 0 51.635281 51.680244"
   version="1.1"
   id="svg1"
   inkscape:version="1.3.2 (091e20ef0f, 2023-11-25)"
   sodipodi:docname="gd-stepsize-linesearch.svg"
   xmlns:inkscape="http://www.inkscape.org/namespaces/inkscape"
   xmlns:sodipodi="http://sodipodi.sourceforge.net/DTD/sodipodi-0.dtd"
   xmlns="http://www.w3.org/2000/svg"
   xmlns:svg="http://www.w3.org/2000/svg">
  <sodipodi:namedview
     id="namedview1"
     pagecolor="#ffffff"
     bordercolor="#666666"
     borderopacity="1.0"
     inkscape:showpageshadow="2"
     inkscape:pageopacity="0.0"
     inkscape:pagecheckerboard="0"
     inkscape:deskcolor="#d1d1d1"
     inkscape:document-units="mm"
     inkscape:zoom="0.5253869"
     inkscape:cx="122.76667"
     inkscape:cy="145.60698"
     inkscape:window-width="956"
     inkscape:window-height="1168"
     inkscape:window-x="2040"
     inkscape:window-y="288"
     inkscape:window-maximized="1"
     inkscape:current-layer="layer1" />
  <defs
     id="defs1">
    <clipPath
       clipPathUnits="userSpaceOnUse"
       id="clipPath10986">
      <path
         d="M 43.2,43.2 H 309.6 V 309.6 H 43.2 Z"
         transform="translate(4.9997996e-5)"
         id="path10986" />
    </clipPath>
    <clipPath
       clipPathUnits="userSpaceOnUse"
       id="clipPath10987">
      <path
         d="M 43.2,43.2 H 309.6 V 309.6 H 43.2 Z"
         transform="translate(4.9997996e-5)"
         id="path10987" />
    </clipPath>
    <clipPath
       clipPathUnits="userSpaceOnUse"
       id="clipPath10988">
      <path
         d="M 43.2,43.2 H 309.6 V 309.6 H 43.2 Z"
         transform="translate(4.9997996e-5)"
         id="path10988" />
    </clipPath>
    <clipPath
       clipPathUnits="userSpaceOnUse"
       id="clipPath10989">
      <path
         d="M 43.2,43.2 H 309.6 V 309.6 H 43.2 Z"
         transform="translate(4.9997996e-5)"
         id="path10989" />
    </clipPath>
    <clipPath
       clipPathUnits="userSpaceOnUse"
       id="clipPath10990">
      <path
         d="M 43.2,43.2 H 309.6 V 309.6 H 43.2 Z"
         transform="translate(4.9997996e-5)"
         id="path10990" />
    </clipPath>
    <clipPath
       clipPathUnits="userSpaceOnUse"
       id="clipPath10991">
      <path
         d="M 43.2,43.2 H 309.6 V 309.6 H 43.2 Z"
         transform="translate(4.9997996e-5)"
         id="path10991" />
    </clipPath>
    <clipPath
       clipPathUnits="userSpaceOnUse"
       id="clipPath10992">
      <path
         d="M 43.2,43.2 H 309.6 V 309.6 H 43.2 Z"
         transform="translate(4.9997996e-5)"
         id="path10992" />
    </clipPath>
    <clipPath
       clipPathUnits="userSpaceOnUse"
       id="clipPath10993">
      <path
         d="M 43.2,43.2 H 309.6 V 309.6 H 43.2 Z"
         transform="translate(4.9997996e-5)"
         id="path10993" />
    </clipPath>
    <clipPath
       clipPathUnits="userSpaceOnUse"
       id="clipPath10994">
      <path
         d="M 43.2,43.2 H 309.6 V 309.6 H 43.2 Z"
         transform="translate(4.9997996e-5)"
         id="path10994" />
    </clipPath>
    <clipPath
       clipPathUnits="userSpaceOnUse"
       id="clipPath10995">
      <path
         d="M 43.2,43.2 H 309.6 V 309.6 H 43.2 Z"
         transform="translate(4.9997996e-5)"
         id="path10995" />
    </clipPath>
    <clipPath
       clipPathUnits="userSpaceOnUse"
       id="clipPath10996">
      <path
         d="M 43.2,43.2 H 309.6 V 309.6 H 43.2 Z"
         transform="translate(4.9997996e-5)"
         id="path10996" />
    </clipPath>
    <clipPath
       clipPathUnits="userSpaceOnUse"
       id="clipPath10997">
      <path
         d="M 43.2,43.2 H 309.6 V 309.6 H 43.2 Z"
         transform="translate(4.9997996e-5)"
         id="path10997" />
    </clipPath>
    <clipPath
       clipPathUnits="userSpaceOnUse"
       id="clipPath10998">
      <path
         d="M 43.2,43.2 H 309.6 V 309.6 H 43.2 Z"
         transform="translate(4.9997996e-5)"
         id="path10998" />
    </clipPath>
    <clipPath
       clipPathUnits="userSpaceOnUse"
       id="clipPath10999">
      <path
         d="M 43.2,43.2 H 309.6 V 309.6 H 43.2 Z"
         transform="translate(4.9997996e-5)"
         id="path10999" />
    </clipPath>
    <clipPath
       clipPathUnits="userSpaceOnUse"
       id="clipPath11000">
      <path
         d="M 43.2,43.2 H 309.6 V 309.6 H 43.2 Z"
         transform="translate(4.9997996e-5)"
         id="path11000" />
    </clipPath>
    <clipPath
       clipPathUnits="userSpaceOnUse"
       id="clipPath11001">
      <path
         d="M 43.2,43.2 H 309.6 V 309.6 H 43.2 Z"
         transform="translate(4.9997996e-5)"
         id="path11001" />
    </clipPath>
    <clipPath
       clipPathUnits="userSpaceOnUse"
       id="clipPath11002">
      <path
         d="M 43.2,43.2 H 309.6 V 309.6 H 43.2 Z"
         transform="translate(4.9997996e-5)"
         id="path11002" />
    </clipPath>
    <clipPath
       clipPathUnits="userSpaceOnUse"
       id="clipPath11003">
      <path
         d="M 43.2,43.2 H 309.6 V 309.6 H 43.2 Z"
         transform="translate(4.9997996e-5)"
         id="path11003" />
    </clipPath>
    <clipPath
       clipPathUnits="userSpaceOnUse"
       id="clipPath11004">
      <path
         d="M 43.2,43.2 H 309.6 V 309.6 H 43.2 Z"
         transform="translate(4.9997996e-5)"
         id="path11004" />
    </clipPath>
    <clipPath
       clipPathUnits="userSpaceOnUse"
       id="clipPath11005">
      <path
         d="M 43.2,43.2 H 309.6 V 309.6 H 43.2 Z"
         transform="translate(4.9997996e-5)"
         id="path11005" />
    </clipPath>
    <clipPath
       clipPathUnits="userSpaceOnUse"
       id="clipPath11006">
      <path
         d="M 43.2,43.2 H 309.6 V 309.6 H 43.2 Z"
         transform="translate(4.9997996e-5)"
         id="path11006" />
    </clipPath>
    <clipPath
       clipPathUnits="userSpaceOnUse"
       id="clipPath11007">
      <path
         d="M 43.2,43.2 H 309.6 V 309.6 H 43.2 Z"
         transform="translate(4.9997996e-5)"
         id="path11007" />
    </clipPath>
    <clipPath
       clipPathUnits="userSpaceOnUse"
       id="clipPath11008">
      <path
         d="M 43.2,43.2 H 309.6 V 309.6 H 43.2 Z"
         transform="translate(4.9997996e-5)"
         id="path11008" />
    </clipPath>
    <clipPath
       clipPathUnits="userSpaceOnUse"
       id="clipPath11009">
      <path
         d="M 0,0 H 324 V 324 H 0 Z"
         transform="translate(4.9997996e-5)"
         id="path11009" />
    </clipPath>
    <clipPath
       clipPathUnits="userSpaceOnUse"
       id="clipPath11010">
      <path
         d="M 0,0 H 324 V 324 H 0 Z"
         transform="translate(4.9997996e-5)"
         id="path11010" />
    </clipPath>
    <clipPath
       clipPathUnits="userSpaceOnUse"
       id="clipPath11011">
      <path
         d="M 0,0 H 324 V 324 H 0 Z"
         transform="translate(4.9997996e-5)"
         id="path11011" />
    </clipPath>
    <clipPath
       clipPathUnits="userSpaceOnUse"
       id="clipPath11012">
      <path
         d="M 0,0 H 324 V 324 H 0 Z"
         transform="translate(4.9997996e-5)"
         id="path11012" />
    </clipPath>
    <clipPath
       clipPathUnits="userSpaceOnUse"
       id="clipPath11013">
      <path
         d="M 0,0 H 324 V 324 H 0 Z"
         transform="translate(4.9997996e-5)"
         id="path11013" />
    </clipPath>
    <clipPath
       clipPathUnits="userSpaceOnUse"
       id="clipPath11014">
      <path
         d="M 0,0 H 324 V 324 H 0 Z"
         transform="translate(4.9997996e-5)"
         id="path11014" />
    </clipPath>
    <clipPath
       clipPathUnits="userSpaceOnUse"
       id="clipPath11015">
      <path
         d="M 0,0 H 324 V 324 H 0 Z"
         transform="matrix(1,0,0,-1,-42.889985,17.279994)"
         id="path11015" />
    </clipPath>
    <clipPath
       clipPathUnits="userSpaceOnUse"
       id="clipPath11016">
      <path
         d="M 0,0 H 324 V 324 H 0 Z"
         transform="matrix(1,0,0,-1,-104.56002,17.279994)"
         id="path11016" />
    </clipPath>
    <clipPath
       clipPathUnits="userSpaceOnUse"
       id="clipPath11017">
      <path
         d="M 0,0 H 324 V 324 H 0 Z"
         transform="matrix(1,0,0,-1,-173.06003,17.279994)"
         id="path11017" />
    </clipPath>
    <clipPath
       clipPathUnits="userSpaceOnUse"
       id="clipPath11018">
      <path
         d="M 0,0 H 324 V 324 H 0 Z"
         transform="matrix(1,0,0,-1,-231.39,17.279994)"
         id="path11018" />
    </clipPath>
    <clipPath
       clipPathUnits="userSpaceOnUse"
       id="clipPath11019">
      <path
         d="M 0,0 H 324 V 324 H 0 Z"
         transform="matrix(1,0,0,-1,-293.06003,17.279994)"
         id="path11019" />
    </clipPath>
    <clipPath
       clipPathUnits="userSpaceOnUse"
       id="clipPath11020">
      <path
         d="M 0,0 H 324 V 324 H 0 Z"
         transform="translate(4.9997996e-5)"
         id="path11020" />
    </clipPath>
    <clipPath
       clipPathUnits="userSpaceOnUse"
       id="clipPath11021">
      <path
         d="M 0,0 H 324 V 324 H 0 Z"
         transform="translate(4.9997996e-5)"
         id="path11021" />
    </clipPath>
    <clipPath
       clipPathUnits="userSpaceOnUse"
       id="clipPath11022">
      <path
         d="M 0,0 H 324 V 324 H 0 Z"
         transform="translate(4.9997996e-5)"
         id="path11022" />
    </clipPath>
    <clipPath
       clipPathUnits="userSpaceOnUse"
       id="clipPath11023">
      <path
         d="M 0,0 H 324 V 324 H 0 Z"
         transform="translate(4.9997996e-5)"
         id="path11023" />
    </clipPath>
    <clipPath
       clipPathUnits="userSpaceOnUse"
       id="clipPath11024">
      <path
         d="M 0,0 H 324 V 324 H 0 Z"
         transform="translate(4.9997996e-5)"
         id="path11024" />
    </clipPath>
    <clipPath
       clipPathUnits="userSpaceOnUse"
       id="clipPath11025">
      <path
         d="M 0,0 H 324 V 324 H 0 Z"
         transform="translate(4.9997996e-5)"
         id="path11025" />
    </clipPath>
    <clipPath
       clipPathUnits="userSpaceOnUse"
       id="clipPath11026">
      <path
         d="M 0,0 H 324 V 324 H 0 Z"
         transform="matrix(0,1,1,0,-42.89,-25.919963)"
         id="path11026" />
    </clipPath>
    <clipPath
       clipPathUnits="userSpaceOnUse"
       id="clipPath11027">
      <path
         d="M 0,0 H 324 V 324 H 0 Z"
         transform="matrix(0,1,1,0,-104.56,-25.919963)"
         id="path11027" />
    </clipPath>
    <clipPath
       clipPathUnits="userSpaceOnUse"
       id="clipPath11028">
      <path
         d="M 0,0 H 324 V 324 H 0 Z"
         transform="matrix(0,1,1,0,-173.06,-25.919963)"
         id="path11028" />
    </clipPath>
    <clipPath
       clipPathUnits="userSpaceOnUse"
       id="clipPath11029">
      <path
         d="M 0,0 H 324 V 324 H 0 Z"
         transform="matrix(0,1,1,0,-231.39,-25.919963)"
         id="path11029" />
    </clipPath>
    <clipPath
       clipPathUnits="userSpaceOnUse"
       id="clipPath11030">
      <path
         d="M 0,0 H 324 V 324 H 0 Z"
         transform="matrix(0,1,1,0,-293.06,-25.919963)"
         id="path11030" />
    </clipPath>
    <clipPath
       clipPathUnits="userSpaceOnUse"
       id="clipPath11031">
      <path
         d="M 0,0 H 324 V 324 H 0 Z"
         transform="translate(4.9997996e-5)"
         id="path11031" />
    </clipPath>
    <clipPath
       clipPathUnits="userSpaceOnUse"
       id="clipPath11032">
      <path
         d="M 43.2,43.2 H 309.6 V 309.6 H 43.2 Z"
         transform="matrix(1,0,0,-1,-185.77007,297.14)"
         id="path11032" />
    </clipPath>
    <clipPath
       clipPathUnits="userSpaceOnUse"
       id="clipPath11033">
      <path
         d="M 43.2,43.2 H 309.6 V 309.6 H 43.2 Z"
         transform="matrix(1,0,0,-1,-170.34994,281.72)"
         id="path11033" />
    </clipPath>
    <clipPath
       clipPathUnits="userSpaceOnUse"
       id="clipPath11034">
      <path
         d="M 43.2,43.2 H 309.6 V 309.6 H 43.2 Z"
         transform="matrix(1,0,0,-1,-185.77007,227.76001)"
         id="path11034" />
    </clipPath>
    <clipPath
       clipPathUnits="userSpaceOnUse"
       id="clipPath11035">
      <path
         d="M 43.2,43.2 H 309.6 V 309.6 H 43.2 Z"
         transform="matrix(1,0,0,-1,-178.05993,224.39)"
         id="path11035" />
    </clipPath>
    <clipPath
       clipPathUnits="userSpaceOnUse"
       id="clipPath11036">
      <path
         d="M 43.2,43.2 H 309.6 V 309.6 H 43.2 Z"
         transform="matrix(1,0,0,-1,-172.28006,218.07)"
         id="path11036" />
    </clipPath>
    <clipPath
       clipPathUnits="userSpaceOnUse"
       id="clipPath11037">
      <path
         d="M 43.2,43.2 H 309.6 V 309.6 H 43.2 Z"
         transform="matrix(1,0,0,-1,-178.05993,195.94001)"
         id="path11037" />
    </clipPath>
    <clipPath
       clipPathUnits="userSpaceOnUse"
       id="clipPath11038">
      <path
         d="M 43.2,43.2 H 309.6 V 309.6 H 43.2 Z"
         transform="matrix(1,0,0,-1,-175.16999,194.55)"
         id="path11038" />
    </clipPath>
    <clipPath
       clipPathUnits="userSpaceOnUse"
       id="clipPath11039">
      <path
         d="M 43.2,43.2 H 309.6 V 309.6 H 43.2 Z"
         transform="matrix(1,0,0,-1,-173.00003,191.96001)"
         id="path11039" />
    </clipPath>
    <clipPath
       clipPathUnits="userSpaceOnUse"
       id="clipPath11040">
      <path
         d="M 43.2,43.2 H 309.6 V 309.6 H 43.2 Z"
         transform="matrix(1,0,0,-1,-175.16999,182.88)"
         id="path11040" />
    </clipPath>
    <clipPath
       clipPathUnits="userSpaceOnUse"
       id="clipPath11041">
      <path
         d="M 43.2,43.2 H 309.6 V 309.6 H 43.2 Z"
         transform="matrix(1,0,0,-1,-174.09004,182.30999)"
         id="path11041" />
    </clipPath>
    <clipPath
       clipPathUnits="userSpaceOnUse"
       id="clipPath11042">
      <path
         d="M 43.2,43.2 H 309.6 V 309.6 H 43.2 Z"
         transform="matrix(1,0,0,-1,-173.28007,181.25)"
         id="path11042" />
    </clipPath>
    <clipPath
       clipPathUnits="userSpaceOnUse"
       id="clipPath11043">
      <path
         d="M 43.2,43.2 H 309.6 V 309.6 H 43.2 Z"
         transform="matrix(1,0,0,-1,-174.09004,177.53)"
         id="path11043" />
    </clipPath>
    <clipPath
       clipPathUnits="userSpaceOnUse"
       id="clipPath11044">
      <path
         d="M 43.2,43.2 H 309.6 V 309.6 H 43.2 Z"
         transform="translate(4.9997996e-5)"
         id="path11044" />
    </clipPath>
    <clipPath
       clipPathUnits="userSpaceOnUse"
       id="clipPath11045">
      <path
         d="M 43.2,43.2 H 309.6 V 309.6 H 43.2 Z"
         transform="matrix(1,0,0,-1,-170.56998,159.17)"
         id="path11045" />
    </clipPath>
  </defs>
  <g
     inkscape:label="Layer 1"
     inkscape:groupmode="layer"
     id="layer1"
     transform="translate(-72.495799,-109.5375)">
    <g
       id="g11105"
       transform="matrix(0.26458333,0,0,0.26458333,-1698.7654,84.701485)">
      <path
         d="m 137.78,159.23 -0.04,0.97 -0.1,2.5 -0.07,2.49 -0.07,2.49 -0.04,2.49 -0.03,2.49 -0.02,2.49 v 2.5 l 0.02,2.49 0.03,2.49 0.04,2.49 0.07,2.49 0.07,2.49 0.1,2.5 0.04,0.97 0.07,1.52 0.13,2.49 0.15,2.49 0.17,2.49 0.18,2.49 0.2,2.49 0.22,2.5 0.23,2.49 0.25,2.49 0.27,2.49 0.28,2.49 0.3,2.49 0.04,0.36 0.29,2.14 0.36,2.49 0.37,2.49 0.39,2.49 0.41,2.49 0.43,2.49 0.24,1.37 0.22,1.13 0.5,2.49 0.52,2.49 0.53,2.49 0.56,2.49 0.17,0.73 0.44,1.76 0.64,2.49 0.66,2.5 0.69,2.49 0.06,0.2 0.7,2.29 0.8,2.49 0.81,2.49 0.18,0.52 0.73,1.97 0.94,2.5 0.82,2.09 0.17,0.4 1.11,2.49 1.14,2.49 0.07,0.16 1.22,2.33 1.27,2.36 0.08,0.13 1.57,2.5 0.84,1.31 0.89,1.18 1.61,2.1 0.36,0.39 2.13,2.26 0.26,0.23 2.23,1.86 1.02,0.63 1.47,0.9 2.49,1.02 2.49,0.51 h 2.5 l 2.49,-0.51 2.49,-1.02 1.47,-0.9 1.02,-0.63 2.23,-1.86 0.26,-0.23 2.13,-2.26 0.36,-0.39 1.61,-2.1 0.89,-1.18 0.84,-1.31 1.57,-2.5 0.08,-0.13 1.27,-2.36 1.22,-2.33 0.07,-0.16 1.14,-2.49 1.11,-2.49 0.17,-0.4 0.82,-2.09 0.94,-2.5 0.73,-1.97 0.18,-0.52 0.81,-2.49 0.8,-2.49 0.7,-2.29 0.06,-0.2 0.69,-2.49 0.66,-2.5 0.64,-2.49 0.44,-1.76 0.17,-0.73 0.56,-2.49 0.53,-2.49 0.52,-2.49 0.5,-2.49 0.22,-1.13 0.24,-1.37 0.43,-2.49 0.41,-2.49 0.39,-2.49 0.37,-2.49 0.36,-2.49 0.29,-2.14 0.04,-0.36 0.3,-2.49 0.28,-2.49 0.27,-2.49 0.25,-2.49 0.23,-2.49 0.22,-2.5 0.2,-2.49 0.18,-2.49 0.17,-2.49 0.15,-2.49 0.13,-2.49 0.07,-1.52 0.04,-0.97 0.1,-2.5 0.07,-2.49 0.07,-2.49 0.04,-2.49 0.03,-2.49 0.02,-2.49 v -2.5 l -0.02,-2.49 -0.03,-2.49 -0.04,-2.49 -0.07,-2.49 -0.07,-2.49 -0.1,-2.5 -0.04,-0.97 -0.07,-1.52 -0.13,-2.49 -0.15,-2.49 -0.17,-2.49 -0.18,-2.49 -0.2,-2.49 -0.22,-2.5 -0.23,-2.49 -0.25,-2.49 -0.27,-2.49 -0.28,-2.49 -0.3,-2.49 -0.04,-0.36 -0.29,-2.14 -0.36,-2.49 -0.37,-2.49 -0.39,-2.49 -0.41,-2.49 -0.43,-2.49 -0.24,-1.37 -0.22,-1.13 -0.5,-2.49 -0.52,-2.49 -0.53,-2.49 -0.56,-2.49 -0.17,-0.73 -0.44,-1.76 -0.64,-2.49 -0.66,-2.5 -0.69,-2.49 -0.06,-0.2 -0.7,-2.29 -0.8,-2.49 -0.81,-2.49 -0.18,-0.52 -0.73,-1.97 -0.94,-2.5 -0.82,-2.09 -0.17,-0.4 -1.11,-2.49 -1.14,-2.49 -0.07,-0.16 -1.22,-2.33 -1.27,-2.36 -0.08,-0.13 -1.57,-2.5 -0.84,-1.31 -0.89,-1.18 -1.61,-2.1 -0.36,-0.39 -2.13,-2.26 -0.26,-0.23 -2.23,-1.86 -1.02,-0.63 -1.47,-0.9 -2.49,-1.02 -2.49,-0.51 h -2.5 l -2.49,0.51 -2.49,1.02 -1.47,0.9 -1.02,0.63 -2.23,1.86 -0.26,0.23 -2.13,2.26 -0.36,0.39 -1.61,2.1 -0.89,1.18 -0.84,1.31 -1.57,2.5 -0.08,0.13 -1.27,2.36 -1.22,2.33 -0.07,0.16 -1.14,2.49 -1.11,2.49 -0.17,0.4 -0.82,2.09 -0.94,2.5 -0.73,1.97 -0.18,0.52 -0.81,2.49 -0.8,2.49 -0.7,2.29 -0.06,0.2 -0.69,2.49 -0.66,2.5 -0.64,2.49 -0.44,1.76 -0.17,0.73 -0.56,2.49 -0.53,2.49 -0.52,2.49 -0.5,2.49 -0.22,1.13 -0.24,1.37 -0.43,2.49 -0.41,2.49 -0.39,2.49 -0.37,2.49 -0.36,2.49 -0.29,2.14 -0.04,0.36 -0.3,2.49 -0.28,2.49 -0.27,2.49 -0.25,2.49 -0.23,2.49 -0.22,2.5 -0.2,2.49 -0.18,2.49 -0.17,2.49 -0.15,2.49 -0.13,2.49 -0.07,1.52"
         style="fill:none;stroke:#000000 icc-color(sRGB-IEC61966-2, 0.1, 0, 0, 0);stroke-width:0.75;stroke-linecap:round;stroke-linejoin:round;stroke-miterlimit:10;stroke-dasharray:none;stroke-opacity:1"
         transform="matrix(0.66669333,0,0,-0.66669333,6683.0293,300.52667)"
         clip-path="url(#clipPath10986)"
         id="path11046" />
      <path
         d="m 137.41,53.07 -0.76,2.49 -0.75,2.49 -0.61,2.07 -0.12,0.42 -0.67,2.49 -0.66,2.49 -0.65,2.5 -0.39,1.57 -0.22,0.92 -0.58,2.49 -0.57,2.49 -0.56,2.49 -0.53,2.49 -0.03,0.14 -0.47,2.36 -0.49,2.49 -0.47,2.49 -0.46,2.49 -0.45,2.49 -0.16,0.92 -0.26,1.57 -0.39,2.5 -0.39,2.49 -0.37,2.49 -0.37,2.49 -0.34,2.49 -0.34,2.49 -0.03,0.21 -0.28,2.28 -0.3,2.5 -0.28,2.49 -0.27,2.49 -0.27,2.49 -0.25,2.49 -0.23,2.49 -0.23,2.5 -0.21,2.49 -0.17,2.07 -0.03,0.42 -0.18,2.49 -0.17,2.49 -0.16,2.49 -0.15,2.5 -0.13,2.49 -0.13,2.49 -0.11,2.49 -0.1,2.49 -0.09,2.49 -0.08,2.49 -0.07,2.5 -0.06,2.49 -0.04,2.49 -0.04,2.49 -0.02,2.49 -0.01,2.49 v 2.5 l 0.01,2.49 0.02,2.49 0.04,2.49 0.04,2.49 0.06,2.49 0.07,2.5 0.08,2.49 0.09,2.49 0.1,2.49 0.11,2.49 0.13,2.49 0.13,2.49 0.15,2.5 0.16,2.49 0.17,2.49 0.18,2.49 0.03,0.42 0.17,2.07 0.21,2.49 0.23,2.5 0.23,2.49 0.25,2.49 0.27,2.49 0.27,2.49 0.28,2.49 0.3,2.5 0.28,2.28 0.03,0.21 0.34,2.49 0.34,2.49 0.37,2.49 0.37,2.49 0.39,2.49 0.39,2.5 0.26,1.57 0.16,0.92 0.45,2.49 0.46,2.49 0.47,2.49 0.49,2.49 0.47,2.36 0.03,0.14 0.53,2.49 0.56,2.49 0.57,2.49 0.58,2.49 0.22,0.92 0.39,1.57 0.65,2.5 0.66,2.49 0.67,2.49 0.12,0.42 0.61,2.07 0.75,2.49 0.76,2.49"
         style="fill:none;stroke:#000000 icc-color(sRGB-IEC61966-2, 0.1, 0, 0, 0);stroke-width:0.75;stroke-linecap:round;stroke-linejoin:round;stroke-miterlimit:10;stroke-dasharray:none;stroke-opacity:1"
         transform="matrix(0.66669333,0,0,-0.66669333,6683.0293,300.52667)"
         clip-path="url(#clipPath10987)"
         id="path11047" />
      <path
         d="m 215.39,53.07 0.76,2.49 0.75,2.49 0.61,2.07 0.12,0.42 0.67,2.49 0.66,2.49 0.65,2.5 0.39,1.57 0.22,0.92 0.58,2.49 0.57,2.49 0.56,2.49 0.53,2.49 0.03,0.14 0.47,2.36 0.49,2.49 0.47,2.49 0.46,2.49 0.45,2.49 0.16,0.92 0.26,1.57 0.39,2.5 0.39,2.49 0.37,2.49 0.37,2.49 0.34,2.49 0.34,2.49 0.03,0.21 0.28,2.28 0.3,2.5 0.28,2.49 0.27,2.49 0.27,2.49 0.25,2.49 0.23,2.49 0.23,2.5 0.21,2.49 0.17,2.07 0.03,0.42 0.18,2.49 0.17,2.49 0.16,2.49 0.15,2.5 0.13,2.49 0.13,2.49 0.11,2.49 0.1,2.49 0.09,2.49 0.08,2.49 0.07,2.5 0.06,2.49 0.04,2.49 0.04,2.49 0.02,2.49 0.01,2.49 v 2.5 l -0.01,2.49 -0.02,2.49 -0.04,2.49 -0.04,2.49 -0.06,2.49 -0.07,2.5 -0.08,2.49 -0.09,2.49 -0.1,2.49 -0.11,2.49 -0.13,2.49 -0.13,2.49 -0.15,2.5 -0.16,2.49 -0.17,2.49 -0.18,2.49 -0.03,0.42 -0.17,2.07 -0.21,2.49 -0.23,2.5 -0.23,2.49 -0.25,2.49 -0.27,2.49 -0.27,2.49 -0.28,2.49 -0.3,2.5 -0.28,2.28 -0.03,0.21 -0.34,2.49 -0.34,2.49 -0.37,2.49 -0.37,2.49 -0.39,2.49 -0.39,2.5 -0.26,1.57 -0.16,0.92 -0.45,2.49 -0.46,2.49 -0.47,2.49 -0.49,2.49 -0.47,2.36 -0.03,0.14 -0.53,2.49 -0.56,2.49 -0.57,2.49 -0.58,2.49 -0.22,0.92 -0.39,1.57 -0.65,2.5 -0.66,2.49 -0.67,2.49 -0.12,0.42 -0.61,2.07 -0.75,2.49 -0.76,2.49"
         style="fill:none;stroke:#000000 icc-color(sRGB-IEC61966-2, 0.1, 0, 0, 0);stroke-width:0.75;stroke-linecap:round;stroke-linejoin:round;stroke-miterlimit:10;stroke-dasharray:none;stroke-opacity:1"
         transform="matrix(0.66669333,0,0,-0.66669333,6683.0293,300.52667)"
         clip-path="url(#clipPath10988)"
         id="path11048" />
      <path
         d="m 121.26,53.07 -0.56,2.49 -0.36,1.66 -0.17,0.83 -0.51,2.49 -0.5,2.49 -0.49,2.49 -0.48,2.5 -0.34,1.85 -0.12,0.64 -0.43,2.49 -0.43,2.49 -0.41,2.49 -0.41,2.49 -0.39,2.5 -0.3,1.95 -0.08,0.54 -0.36,2.49 -0.35,2.49 -0.34,2.49 -0.33,2.49 -0.32,2.5 -0.31,2.49 -0.3,2.49 -0.11,0.94 -0.17,1.55 -0.27,2.49 -0.25,2.49 -0.25,2.49 -0.24,2.5 -0.23,2.49 -0.22,2.49 -0.21,2.49 -0.21,2.49 -0.19,2.49 -0.18,2.5 -0.07,0.96 -0.1,1.53 -0.16,2.49 -0.14,2.49 -0.14,2.49 -0.13,2.49 -0.12,2.5 -0.11,2.49 -0.1,2.49 -0.1,2.49 -0.08,2.49 -0.07,2.49 -0.07,2.49 -0.05,2.5 -0.05,2.49 -0.03,2.49 -0.03,2.49 -0.02,2.49 -0.01,2.49 v 2.5 l 0.01,2.49 0.02,2.49 0.03,2.49 0.03,2.49 0.05,2.49 0.05,2.5 0.07,2.49 0.07,2.49 0.08,2.49 0.1,2.49 0.1,2.49 0.11,2.49 0.12,2.5 0.13,2.49 0.14,2.49 0.14,2.49 0.16,2.49 0.1,1.53 0.07,0.96 0.18,2.5 0.19,2.49 0.21,2.49 0.21,2.49 0.22,2.49 0.23,2.49 0.24,2.5 0.25,2.49 0.25,2.49 0.27,2.49 0.17,1.55 0.11,0.94 0.3,2.49 0.31,2.49 0.32,2.5 0.33,2.49 0.34,2.49 0.35,2.49 0.36,2.49 0.08,0.54 0.3,1.95 0.39,2.5 0.41,2.49 0.41,2.49 0.43,2.49 0.43,2.49 0.12,0.64 0.34,1.85 0.48,2.5 0.49,2.49 0.5,2.49 0.51,2.49 0.17,0.83 0.36,1.66 0.56,2.49"
         style="fill:none;stroke:#000000 icc-color(sRGB-IEC61966-2, 0.1, 0, 0, 0);stroke-width:0.75;stroke-linecap:round;stroke-linejoin:round;stroke-miterlimit:10;stroke-dasharray:none;stroke-opacity:1"
         transform="matrix(0.66669333,0,0,-0.66669333,6683.0293,300.52667)"
         clip-path="url(#clipPath10989)"
         id="path11049" />
      <path
         d="m 231.54,53.07 0.56,2.49 0.36,1.66 0.17,0.83 0.51,2.49 0.5,2.49 0.49,2.49 0.48,2.5 0.34,1.85 0.12,0.64 0.43,2.49 0.43,2.49 0.41,2.49 0.41,2.49 0.39,2.5 0.3,1.95 0.08,0.54 0.36,2.49 0.35,2.49 0.34,2.49 0.33,2.49 0.32,2.5 0.31,2.49 0.3,2.49 0.11,0.94 0.17,1.55 0.27,2.49 0.25,2.49 0.25,2.49 0.24,2.5 0.23,2.49 0.22,2.49 0.21,2.49 0.21,2.49 0.19,2.49 0.18,2.5 0.07,0.96 0.1,1.53 0.16,2.49 0.14,2.49 0.14,2.49 0.13,2.49 0.12,2.5 0.11,2.49 0.1,2.49 0.1,2.49 0.08,2.49 0.07,2.49 0.07,2.49 0.05,2.5 0.05,2.49 0.03,2.49 0.03,2.49 0.02,2.49 0.01,2.49 v 2.5 l -0.01,2.49 -0.02,2.49 -0.03,2.49 -0.03,2.49 -0.05,2.49 -0.05,2.5 -0.07,2.49 -0.07,2.49 -0.08,2.49 -0.1,2.49 -0.1,2.49 -0.11,2.49 -0.12,2.5 -0.13,2.49 -0.14,2.49 -0.14,2.49 -0.16,2.49 -0.1,1.53 -0.07,0.96 -0.18,2.5 -0.19,2.49 -0.21,2.49 -0.21,2.49 -0.22,2.49 -0.23,2.49 -0.24,2.5 -0.25,2.49 -0.25,2.49 -0.27,2.49 -0.17,1.55 -0.11,0.94 -0.3,2.49 -0.31,2.49 -0.32,2.5 -0.33,2.49 -0.34,2.49 -0.35,2.49 -0.36,2.49 -0.08,0.54 -0.3,1.95 -0.39,2.5 -0.41,2.49 -0.41,2.49 -0.43,2.49 -0.43,2.49 -0.12,0.64 -0.34,1.85 -0.48,2.5 -0.49,2.49 -0.5,2.49 -0.51,2.49 -0.17,0.83 -0.36,1.66 -0.56,2.49"
         style="fill:none;stroke:#000000 icc-color(sRGB-IEC61966-2, 0.1, 0, 0, 0);stroke-width:0.75;stroke-linecap:round;stroke-linejoin:round;stroke-miterlimit:10;stroke-dasharray:none;stroke-opacity:1"
         transform="matrix(0.66669333,0,0,-0.66669333,6683.0293,300.52667)"
         clip-path="url(#clipPath10990)"
         id="path11050" />
      <path
         d="m 108.86,53.07 -0.45,2.49 -0.45,2.49 -0.08,0.47 -0.34,2.02 -0.41,2.49 -0.4,2.49 -0.39,2.5 -0.38,2.49 -0.38,2.49 -0.19,1.33 -0.16,1.16 -0.35,2.49 -0.33,2.49 -0.33,2.5 -0.32,2.49 -0.31,2.49 -0.3,2.49 -0.29,2.49 -0.1,0.9 -0.18,1.59 -0.26,2.5 -0.26,2.49 -0.25,2.49 -0.24,2.49 -0.23,2.49 -0.23,2.49 -0.21,2.49 -0.21,2.5 -0.2,2.49 -0.19,2.49 -0.03,0.44 -0.15,2.05 -0.17,2.49 -0.16,2.49 -0.15,2.5 -0.15,2.49 -0.13,2.49 -0.13,2.49 -0.12,2.49 -0.11,2.49 -0.11,2.5 -0.1,2.49 -0.08,2.49 -0.08,2.49 -0.08,2.49 -0.06,2.49 -0.06,2.49 -0.05,2.5 -0.04,2.49 -0.03,2.49 -0.02,2.49 -0.02,2.49 -0.01,2.49 v 2.5 l 0.01,2.49 0.02,2.49 0.02,2.49 0.03,2.49 0.04,2.49 0.05,2.5 0.06,2.49 0.06,2.49 0.08,2.49 0.08,2.49 0.08,2.49 0.1,2.49 0.11,2.5 0.11,2.49 0.12,2.49 0.13,2.49 0.13,2.49 0.15,2.49 0.15,2.5 0.16,2.49 0.17,2.49 0.15,2.05 0.03,0.44 0.19,2.49 0.2,2.49 0.21,2.5 0.21,2.49 0.23,2.49 0.23,2.49 0.24,2.49 0.25,2.49 0.26,2.49 0.26,2.5 0.18,1.59 0.1,0.9 0.29,2.49 0.3,2.49 0.31,2.49 0.32,2.49 0.33,2.5 0.33,2.49 0.35,2.49 0.16,1.16 0.19,1.33 0.38,2.49 0.38,2.49 0.39,2.5 0.4,2.49 0.41,2.49 0.34,2.02 0.08,0.47 0.45,2.49 0.45,2.49"
         style="fill:none;stroke:#000000 icc-color(sRGB-IEC61966-2, 0.1, 0, 0, 0);stroke-width:0.75;stroke-linecap:round;stroke-linejoin:round;stroke-miterlimit:10;stroke-dasharray:none;stroke-opacity:1"
         transform="matrix(0.66669333,0,0,-0.66669333,6683.0293,300.52667)"
         clip-path="url(#clipPath10991)"
         id="path11051" />
      <path
         d="m 243.94,53.07 0.45,2.49 0.45,2.49 0.08,0.47 0.34,2.02 0.41,2.49 0.4,2.49 0.39,2.5 0.38,2.49 0.38,2.49 0.19,1.33 0.16,1.16 0.35,2.49 0.33,2.49 0.33,2.5 0.32,2.49 0.31,2.49 0.3,2.49 0.29,2.49 0.1,0.9 0.18,1.59 0.26,2.5 0.26,2.49 0.25,2.49 0.24,2.49 0.23,2.49 0.23,2.49 0.21,2.49 0.21,2.5 0.2,2.49 0.19,2.49 0.03,0.44 0.15,2.05 0.17,2.49 0.16,2.49 0.15,2.5 0.15,2.49 0.13,2.49 0.13,2.49 0.12,2.49 0.11,2.49 0.11,2.5 0.1,2.49 0.08,2.49 0.08,2.49 0.08,2.49 0.06,2.49 0.06,2.49 0.05,2.5 0.04,2.49 0.03,2.49 0.02,2.49 0.02,2.49 0.01,2.49 v 2.5 l -0.01,2.49 -0.02,2.49 -0.02,2.49 -0.03,2.49 -0.04,2.49 -0.05,2.5 -0.06,2.49 -0.06,2.49 -0.08,2.49 -0.08,2.49 -0.08,2.49 -0.1,2.49 -0.11,2.5 -0.11,2.49 -0.12,2.49 -0.13,2.49 -0.13,2.49 -0.15,2.49 -0.15,2.5 -0.16,2.49 -0.17,2.49 -0.15,2.05 -0.03,0.44 -0.19,2.49 -0.2,2.49 -0.21,2.5 -0.21,2.49 -0.23,2.49 -0.23,2.49 -0.24,2.49 -0.25,2.49 -0.26,2.49 -0.26,2.5 -0.18,1.59 -0.1,0.9 -0.29,2.49 -0.3,2.49 -0.31,2.49 -0.32,2.49 -0.33,2.5 -0.33,2.49 -0.35,2.49 -0.16,1.16 -0.19,1.33 -0.38,2.49 -0.38,2.49 -0.39,2.5 -0.4,2.49 -0.41,2.49 -0.34,2.02 -0.08,0.47 -0.45,2.49 -0.45,2.49"
         style="fill:none;stroke:#000000 icc-color(sRGB-IEC61966-2, 0.1, 0, 0, 0);stroke-width:0.75;stroke-linecap:round;stroke-linejoin:round;stroke-miterlimit:10;stroke-dasharray:none;stroke-opacity:1"
         transform="matrix(0.66669333,0,0,-0.66669333,6683.0293,300.52667)"
         clip-path="url(#clipPath10992)"
         id="path11052" />
      <path
         d="m 98.4,53.07 -0.39,2.49 -0.09,0.61 -0.29,1.88 -0.36,2.49 -0.36,2.49 -0.35,2.49 -0.34,2.5 -0.34,2.49 -0.33,2.49 -0.13,1.02 -0.18,1.47 -0.3,2.49 -0.3,2.49 -0.28,2.5 -0.28,2.49 -0.27,2.49 -0.27,2.49 -0.26,2.49 -0.24,2.49 -0.11,1.07 -0.13,1.43 -0.23,2.49 -0.22,2.49 -0.21,2.49 -0.21,2.49 -0.19,2.49 -0.19,2.49 -0.19,2.5 -0.17,2.49 -0.17,2.49 -0.16,2.49 -0.16,2.49 -0.14,2.49 -0.12,2.07 -0.02,0.43 -0.13,2.49 -0.12,2.49 -0.12,2.49 -0.1,2.49 -0.1,2.49 -0.09,2.5 -0.09,2.49 -0.08,2.49 -0.07,2.49 -0.06,2.49 -0.06,2.49 -0.05,2.49 -0.04,2.5 -0.04,2.49 -0.03,2.49 -0.02,2.49 -0.01,2.49 -0.01,2.49 v 2.5 l 0.01,2.49 0.01,2.49 0.02,2.49 0.03,2.49 0.04,2.49 0.04,2.5 0.05,2.49 0.06,2.49 0.06,2.49 0.07,2.49 0.08,2.49 0.09,2.49 0.09,2.5 0.1,2.49 0.1,2.49 0.12,2.49 0.12,2.49 0.13,2.49 0.02,0.43 0.12,2.07 0.14,2.49 0.16,2.49 0.16,2.49 0.17,2.49 0.17,2.49 0.19,2.5 0.19,2.49 0.19,2.49 0.21,2.49 0.21,2.49 0.22,2.49 0.23,2.49 0.13,1.43 0.11,1.07 0.24,2.49 0.26,2.49 0.27,2.49 0.27,2.49 0.28,2.49 0.28,2.5 0.3,2.49 0.3,2.49 0.18,1.47 0.13,1.02 0.33,2.49 0.34,2.49 0.34,2.5 0.35,2.49 0.36,2.49 0.36,2.49 0.29,1.88 0.09,0.61 0.39,2.49"
         style="fill:none;stroke:#000000 icc-color(sRGB-IEC61966-2, 0.1, 0, 0, 0);stroke-width:0.75;stroke-linecap:round;stroke-linejoin:round;stroke-miterlimit:10;stroke-dasharray:none;stroke-opacity:1"
         transform="matrix(0.66669333,0,0,-0.66669333,6683.0293,300.52667)"
         clip-path="url(#clipPath10993)"
         id="path11053" />
      <path
         d="m 254.4,53.07 0.39,2.49 0.09,0.61 0.29,1.88 0.36,2.49 0.36,2.49 0.35,2.49 0.34,2.5 0.34,2.49 0.33,2.49 0.13,1.02 0.18,1.47 0.3,2.49 0.3,2.49 0.28,2.5 0.28,2.49 0.27,2.49 0.27,2.49 0.26,2.49 0.24,2.49 0.11,1.07 0.13,1.43 0.23,2.49 0.22,2.49 0.21,2.49 0.21,2.49 0.19,2.49 0.19,2.49 0.19,2.5 0.17,2.49 0.17,2.49 0.16,2.49 0.16,2.49 0.14,2.49 0.12,2.07 0.02,0.43 0.13,2.49 0.12,2.49 0.12,2.49 0.1,2.49 0.1,2.49 0.09,2.5 0.09,2.49 0.08,2.49 0.07,2.49 0.06,2.49 0.06,2.49 0.05,2.49 0.04,2.5 0.04,2.49 0.03,2.49 0.02,2.49 0.01,2.49 0.01,2.49 v 2.5 l -0.01,2.49 -0.01,2.49 -0.02,2.49 -0.03,2.49 -0.04,2.49 -0.04,2.5 -0.05,2.49 -0.06,2.49 -0.06,2.49 -0.07,2.49 -0.08,2.49 -0.09,2.49 -0.09,2.5 -0.1,2.49 -0.1,2.49 -0.12,2.49 -0.12,2.49 -0.13,2.49 -0.02,0.43 -0.12,2.07 -0.14,2.49 -0.16,2.49 -0.16,2.49 -0.17,2.49 -0.17,2.49 -0.19,2.5 -0.19,2.49 -0.19,2.49 -0.21,2.49 -0.21,2.49 -0.22,2.49 -0.23,2.49 -0.13,1.43 -0.11,1.07 -0.24,2.49 -0.26,2.49 -0.27,2.49 -0.27,2.49 -0.28,2.49 -0.28,2.5 -0.3,2.49 -0.3,2.49 -0.18,1.47 -0.13,1.02 -0.33,2.49 -0.34,2.49 -0.34,2.5 -0.35,2.49 -0.36,2.49 -0.36,2.49 -0.29,1.88 -0.09,0.61 -0.39,2.49"
         style="fill:none;stroke:#000000 icc-color(sRGB-IEC61966-2, 0.1, 0, 0, 0);stroke-width:0.75;stroke-linecap:round;stroke-linejoin:round;stroke-miterlimit:10;stroke-dasharray:none;stroke-opacity:1"
         transform="matrix(0.66669333,0,0,-0.66669333,6683.0293,300.52667)"
         clip-path="url(#clipPath10994)"
         id="path11054" />
      <path
         d="m 89.2,53.07 -0.35,2.49 -0.34,2.49 -0.34,2.49 -0.22,1.71 -0.1,0.78 -0.31,2.49 -0.31,2.5 -0.29,2.49 -0.29,2.49 -0.29,2.49 -0.28,2.49 -0.27,2.49 -0.26,2.5 -0.09,0.91 -0.16,1.58 -0.24,2.49 -0.24,2.49 -0.23,2.49 -0.22,2.49 -0.21,2.5 -0.21,2.49 -0.21,2.49 -0.19,2.49 -0.19,2.49 -0.18,2.49 -0.18,2.49 -0.03,0.57 -0.13,1.93 -0.16,2.49 -0.15,2.49 -0.14,2.49 -0.14,2.49 -0.13,2.49 -0.13,2.5 -0.12,2.49 -0.11,2.49 -0.1,2.49 -0.1,2.49 -0.09,2.49 -0.09,2.5 -0.08,2.49 -0.07,2.49 -0.06,2.49 -0.06,2.49 -0.05,2.49 -0.05,2.49 -0.04,2.5 -0.03,2.49 -0.03,2.49 -0.02,2.49 -0.01,2.49 -0.01,2.49 v 2.5 l 0.01,2.49 0.01,2.49 0.02,2.49 0.03,2.49 0.03,2.49 0.04,2.5 0.05,2.49 0.05,2.49 0.06,2.49 0.06,2.49 0.07,2.49 0.08,2.49 0.09,2.5 0.09,2.49 0.1,2.49 0.1,2.49 0.11,2.49 0.12,2.49 0.13,2.5 0.13,2.49 0.14,2.49 0.14,2.49 0.15,2.49 0.16,2.49 0.13,1.93 0.03,0.57 0.18,2.49 0.18,2.49 0.19,2.49 0.19,2.49 0.21,2.49 0.21,2.49 0.21,2.5 0.22,2.49 0.23,2.49 0.24,2.49 0.24,2.49 0.16,1.58 0.09,0.91 0.26,2.5 0.27,2.49 0.28,2.49 0.29,2.49 0.29,2.49 0.29,2.49 0.31,2.5 0.31,2.49 0.1,0.78 0.22,1.71 0.34,2.49 0.34,2.49 0.35,2.49"
         style="fill:none;stroke:#000000 icc-color(sRGB-IEC61966-2, 0.1, 0, 0, 0);stroke-width:0.75;stroke-linecap:round;stroke-linejoin:round;stroke-miterlimit:10;stroke-dasharray:none;stroke-opacity:1"
         transform="matrix(0.66669333,0,0,-0.66669333,6683.0293,300.52667)"
         clip-path="url(#clipPath10995)"
         id="path11055" />
      <path
         d="m 263.6,53.07 0.35,2.49 0.34,2.49 0.34,2.49 0.22,1.71 0.1,0.78 0.31,2.49 0.31,2.5 0.29,2.49 0.29,2.49 0.29,2.49 0.28,2.49 0.27,2.49 0.26,2.5 0.09,0.91 0.16,1.58 0.24,2.49 0.24,2.49 0.23,2.49 0.22,2.49 0.21,2.5 0.21,2.49 0.21,2.49 0.19,2.49 0.19,2.49 0.18,2.49 0.18,2.49 0.03,0.57 0.13,1.93 0.16,2.49 0.15,2.49 0.14,2.49 0.14,2.49 0.13,2.49 0.13,2.5 0.12,2.49 0.11,2.49 0.1,2.49 0.1,2.49 0.09,2.49 0.09,2.5 0.08,2.49 0.07,2.49 0.06,2.49 0.06,2.49 0.05,2.49 0.05,2.49 0.04,2.5 0.03,2.49 0.03,2.49 0.02,2.49 0.01,2.49 0.01,2.49 v 2.5 l -0.01,2.49 -0.01,2.49 -0.02,2.49 -0.03,2.49 -0.03,2.49 -0.04,2.5 -0.05,2.49 -0.05,2.49 -0.06,2.49 -0.06,2.49 -0.07,2.49 -0.08,2.49 -0.09,2.5 -0.09,2.49 -0.1,2.49 -0.1,2.49 -0.11,2.49 -0.12,2.49 -0.13,2.5 -0.13,2.49 -0.14,2.49 -0.14,2.49 -0.15,2.49 -0.16,2.49 -0.13,1.93 -0.03,0.57 -0.18,2.49 -0.18,2.49 -0.19,2.49 -0.19,2.49 -0.21,2.49 -0.21,2.49 -0.21,2.5 -0.22,2.49 -0.23,2.49 -0.24,2.49 -0.24,2.49 -0.16,1.58 -0.09,0.91 -0.26,2.5 -0.27,2.49 -0.28,2.49 -0.29,2.49 -0.29,2.49 -0.29,2.49 -0.31,2.5 -0.31,2.49 -0.1,0.78 -0.22,1.71 -0.34,2.49 -0.34,2.49 -0.35,2.49"
         style="fill:none;stroke:#000000 icc-color(sRGB-IEC61966-2, 0.1, 0, 0, 0);stroke-width:0.75;stroke-linecap:round;stroke-linejoin:round;stroke-miterlimit:10;stroke-dasharray:none;stroke-opacity:1"
         transform="matrix(0.66669333,0,0,-0.66669333,6683.0293,300.52667)"
         clip-path="url(#clipPath10996)"
         id="path11056" />
      <path
         d="m 80.87,53.07 -0.32,2.49 -0.08,0.6 -0.23,1.89 -0.3,2.49 -0.29,2.49 -0.29,2.49 -0.28,2.5 -0.28,2.49 -0.26,2.49 -0.27,2.49 -0.25,2.49 -0.04,0.35 -0.21,2.14 -0.23,2.5 -0.23,2.49 -0.23,2.49 -0.22,2.49 -0.21,2.49 -0.2,2.49 -0.2,2.5 -0.2,2.49 -0.18,2.49 -0.18,2.49 -0.18,2.49 -0.02,0.32 -0.14,2.17 -0.16,2.49 -0.15,2.5 -0.15,2.49 -0.14,2.49 -0.13,2.49 -0.13,2.49 -0.12,2.49 -0.12,2.5 -0.11,2.49 -0.1,2.49 -0.1,2.49 -0.09,2.49 -0.08,2.49 -0.08,2.5 -0.07,2.49 -0.07,2.49 -0.06,2.49 -0.06,2.49 -0.04,2.49 -0.05,2.49 -0.03,2.5 -0.03,2.49 -0.03,2.49 -0.02,2.49 -0.01,2.49 v 2.49 2.5 2.49 l 0.01,2.49 0.02,2.49 0.03,2.49 0.03,2.49 0.03,2.5 0.05,2.49 0.04,2.49 0.06,2.49 0.06,2.49 0.07,2.49 0.07,2.49 0.08,2.5 0.08,2.49 0.09,2.49 0.1,2.49 0.1,2.49 0.11,2.49 0.12,2.5 0.12,2.49 0.13,2.49 0.13,2.49 0.14,2.49 0.15,2.49 0.15,2.5 0.16,2.49 0.14,2.17 0.02,0.32 0.18,2.49 0.18,2.49 0.18,2.49 0.2,2.49 0.2,2.5 0.2,2.49 0.21,2.49 0.22,2.49 0.23,2.49 0.23,2.49 0.23,2.5 0.21,2.14 0.04,0.35 0.25,2.49 0.27,2.49 0.26,2.49 0.28,2.49 0.28,2.5 0.29,2.49 0.29,2.49 0.3,2.49 0.23,1.89 0.08,0.6 0.32,2.49"
         style="fill:none;stroke:#000000 icc-color(sRGB-IEC61966-2, 0.1, 0, 0, 0);stroke-width:0.75;stroke-linecap:round;stroke-linejoin:round;stroke-miterlimit:10;stroke-dasharray:none;stroke-opacity:1"
         transform="matrix(0.66669333,0,0,-0.66669333,6683.0293,300.52667)"
         clip-path="url(#clipPath10997)"
         id="path11057" />
      <path
         d="m 271.93,53.07 0.32,2.49 0.08,0.6 0.23,1.89 0.3,2.49 0.29,2.49 0.29,2.49 0.28,2.5 0.28,2.49 0.26,2.49 0.27,2.49 0.25,2.49 0.04,0.35 0.21,2.14 0.23,2.5 0.23,2.49 0.23,2.49 0.22,2.49 0.21,2.49 0.2,2.49 0.2,2.5 0.2,2.49 0.18,2.49 0.18,2.49 0.18,2.49 0.02,0.32 0.14,2.17 0.16,2.49 0.15,2.5 0.15,2.49 0.14,2.49 0.13,2.49 0.13,2.49 0.12,2.49 0.12,2.5 0.11,2.49 0.1,2.49 0.1,2.49 0.09,2.49 0.08,2.49 0.08,2.5 0.07,2.49 0.07,2.49 0.06,2.49 0.06,2.49 0.04,2.49 0.05,2.49 0.03,2.5 0.03,2.49 0.03,2.49 0.02,2.49 0.01,2.49 v 2.49 2.5 2.49 l -0.01,2.49 -0.02,2.49 -0.03,2.49 -0.03,2.49 -0.03,2.5 -0.05,2.49 -0.04,2.49 -0.06,2.49 -0.06,2.49 -0.07,2.49 -0.07,2.49 -0.08,2.5 -0.08,2.49 -0.09,2.49 -0.1,2.49 -0.1,2.49 -0.11,2.49 -0.12,2.5 -0.12,2.49 -0.13,2.49 -0.13,2.49 -0.14,2.49 -0.15,2.49 -0.15,2.5 -0.16,2.49 -0.14,2.17 -0.02,0.32 -0.18,2.49 -0.18,2.49 -0.18,2.49 -0.2,2.49 -0.2,2.5 -0.2,2.49 -0.21,2.49 -0.22,2.49 -0.23,2.49 -0.23,2.49 -0.23,2.5 -0.21,2.14 -0.04,0.35 -0.25,2.49 -0.27,2.49 -0.26,2.49 -0.28,2.49 -0.28,2.5 -0.29,2.49 -0.29,2.49 -0.3,2.49 -0.23,1.89 -0.08,0.6 -0.32,2.49"
         style="fill:none;stroke:#000000 icc-color(sRGB-IEC61966-2, 0.1, 0, 0, 0);stroke-width:0.75;stroke-linecap:round;stroke-linejoin:round;stroke-miterlimit:10;stroke-dasharray:none;stroke-opacity:1"
         transform="matrix(0.66669333,0,0,-0.66669333,6683.0293,300.52667)"
         clip-path="url(#clipPath10998)"
         id="path11058" />
      <path
         d="m 73.21,53.07 -0.21,1.8 -0.08,0.69 -0.29,2.49 -0.28,2.49 -0.27,2.49 -0.26,2.49 -0.27,2.5 -0.25,2.49 -0.25,2.49 -0.24,2.49 -0.24,2.49 -0.06,0.67 -0.17,1.82 -0.22,2.5 -0.21,2.49 -0.21,2.49 -0.2,2.49 -0.2,2.49 -0.19,2.49 -0.19,2.5 -0.18,2.49 -0.17,2.49 -0.17,2.49 -0.16,2.49 -0.16,2.49 -0.06,1.09 -0.09,1.4 -0.14,2.5 -0.13,2.49 -0.13,2.49 -0.13,2.49 -0.12,2.49 -0.11,2.49 -0.11,2.5 -0.1,2.49 -0.1,2.49 -0.09,2.49 -0.08,2.49 -0.08,2.49 -0.08,2.5 -0.06,2.49 -0.07,2.49 -0.05,2.49 -0.05,2.49 -0.05,2.49 -0.04,2.49 -0.03,2.5 -0.03,2.49 -0.02,2.49 -0.02,2.49 -0.01,2.49 -0.01,2.49 v 2.5 l 0.01,2.49 0.01,2.49 0.02,2.49 0.02,2.49 0.03,2.49 0.03,2.5 0.04,2.49 0.05,2.49 0.05,2.49 0.05,2.49 0.07,2.49 0.06,2.49 0.08,2.5 0.08,2.49 0.08,2.49 0.09,2.49 0.1,2.49 0.1,2.49 0.11,2.5 0.11,2.49 0.12,2.49 0.13,2.49 0.13,2.49 0.13,2.49 0.14,2.5 0.09,1.4 0.06,1.09 0.16,2.49 0.16,2.49 0.17,2.49 0.17,2.49 0.18,2.49 0.19,2.5 0.19,2.49 0.2,2.49 0.2,2.49 0.21,2.49 0.21,2.49 0.22,2.5 0.17,1.82 0.06,0.67 0.24,2.49 0.24,2.49 0.25,2.49 0.25,2.49 0.27,2.5 0.26,2.49 0.27,2.49 0.28,2.49 0.29,2.49 0.08,0.69 0.21,1.8"
         style="fill:none;stroke:#000000 icc-color(sRGB-IEC61966-2, 0.1, 0, 0, 0);stroke-width:0.75;stroke-linecap:round;stroke-linejoin:round;stroke-miterlimit:10;stroke-dasharray:none;stroke-opacity:1"
         transform="matrix(0.66669333,0,0,-0.66669333,6683.0293,300.52667)"
         clip-path="url(#clipPath10999)"
         id="path11059" />
      <path
         d="m 279.59,53.07 0.21,1.8 0.08,0.69 0.29,2.49 0.28,2.49 0.27,2.49 0.26,2.49 0.27,2.5 0.25,2.49 0.25,2.49 0.24,2.49 0.24,2.49 0.06,0.67 0.17,1.82 0.22,2.5 0.21,2.49 0.21,2.49 0.2,2.49 0.2,2.49 0.19,2.49 0.19,2.5 0.18,2.49 0.17,2.49 0.17,2.49 0.16,2.49 0.16,2.49 0.06,1.09 0.09,1.4 0.14,2.5 0.13,2.49 0.13,2.49 0.13,2.49 0.12,2.49 0.11,2.49 0.11,2.5 0.1,2.49 0.1,2.49 0.09,2.49 0.08,2.49 0.08,2.49 0.08,2.5 0.06,2.49 0.07,2.49 0.05,2.49 0.05,2.49 0.05,2.49 0.04,2.49 0.03,2.5 0.03,2.49 0.02,2.49 0.02,2.49 0.01,2.49 0.01,2.49 v 2.5 l -0.01,2.49 -0.01,2.49 -0.02,2.49 -0.02,2.49 -0.03,2.49 -0.03,2.5 -0.04,2.49 -0.05,2.49 -0.05,2.49 -0.05,2.49 -0.07,2.49 -0.06,2.49 -0.08,2.5 -0.08,2.49 -0.08,2.49 -0.09,2.49 -0.1,2.49 -0.1,2.49 -0.11,2.5 -0.11,2.49 -0.12,2.49 -0.13,2.49 -0.13,2.49 -0.13,2.49 -0.14,2.5 -0.09,1.4 -0.06,1.09 -0.16,2.49 -0.16,2.49 -0.17,2.49 -0.17,2.49 -0.18,2.49 -0.19,2.5 -0.19,2.49 -0.2,2.49 -0.2,2.49 -0.21,2.49 -0.21,2.49 -0.22,2.5 -0.17,1.82 -0.06,0.67 -0.24,2.49 -0.24,2.49 -0.25,2.49 -0.25,2.49 -0.27,2.5 -0.26,2.49 -0.27,2.49 -0.28,2.49 -0.29,2.49 -0.08,0.69 -0.21,1.8"
         style="fill:none;stroke:#000000 icc-color(sRGB-IEC61966-2, 0.1, 0, 0, 0);stroke-width:0.75;stroke-linecap:round;stroke-linejoin:round;stroke-miterlimit:10;stroke-dasharray:none;stroke-opacity:1"
         transform="matrix(0.66669333,0,0,-0.66669333,6683.0293,300.52667)"
         clip-path="url(#clipPath11000)"
         id="path11060" />
      <path
         d="m 66.09,53.07 -0.28,2.49 -0.27,2.49 -0.02,0.17 -0.24,2.32 -0.25,2.49 -0.25,2.49 -0.25,2.5 -0.23,2.49 -0.24,2.49 -0.22,2.49 -0.22,2.49 -0.22,2.49 -0.21,2.5 -0.16,1.9 -0.04,0.59 -0.2,2.49 -0.19,2.49 -0.18,2.49 -0.18,2.49 -0.18,2.5 -0.16,2.49 -0.17,2.49 -0.15,2.49 -0.15,2.49 -0.15,2.49 -0.14,2.49 -0.14,2.5 -0.13,2.49 -0.12,2.49 -0.12,2.49 -0.09,1.93 -0.02,0.56 -0.11,2.49 -0.1,2.5 -0.1,2.49 -0.09,2.49 -0.08,2.49 -0.08,2.49 -0.07,2.49 -0.07,2.5 -0.07,2.49 -0.06,2.49 -0.05,2.49 -0.05,2.49 -0.04,2.49 -0.04,2.49 -0.03,2.5 -0.02,2.49 -0.03,2.49 -0.01,2.49 -0.01,2.49 -0.01,2.49 v 2.5 l 0.01,2.49 0.01,2.49 0.01,2.49 0.03,2.49 0.02,2.49 0.03,2.5 0.04,2.49 0.04,2.49 0.05,2.49 0.05,2.49 0.06,2.49 0.07,2.49 0.07,2.5 0.07,2.49 0.08,2.49 0.08,2.49 0.09,2.49 0.1,2.49 0.1,2.5 0.11,2.49 0.02,0.56 0.09,1.93 0.12,2.49 0.12,2.49 0.13,2.49 0.14,2.5 0.14,2.49 0.15,2.49 0.15,2.49 0.15,2.49 0.17,2.49 0.16,2.49 0.18,2.5 0.18,2.49 0.18,2.49 0.19,2.49 0.2,2.49 0.04,0.59 0.16,1.9 0.21,2.5 0.22,2.49 0.22,2.49 0.22,2.49 0.24,2.49 0.23,2.49 0.25,2.5 0.25,2.49 0.25,2.49 0.24,2.32 0.02,0.17 0.27,2.49 0.28,2.49"
         style="fill:none;stroke:#000000 icc-color(sRGB-IEC61966-2, 0.1, 0, 0, 0);stroke-width:0.75;stroke-linecap:round;stroke-linejoin:round;stroke-miterlimit:10;stroke-dasharray:none;stroke-opacity:1"
         transform="matrix(0.66669333,0,0,-0.66669333,6683.0293,300.52667)"
         clip-path="url(#clipPath11001)"
         id="path11061" />
      <path
         d="m 286.71,53.07 0.28,2.49 0.27,2.49 0.02,0.17 0.24,2.32 0.25,2.49 0.25,2.49 0.25,2.5 0.23,2.49 0.24,2.49 0.22,2.49 0.22,2.49 0.22,2.49 0.21,2.5 0.16,1.9 0.04,0.59 0.2,2.49 0.19,2.49 0.18,2.49 0.18,2.49 0.18,2.5 0.16,2.49 0.17,2.49 0.15,2.49 0.15,2.49 0.15,2.49 0.14,2.49 0.14,2.5 0.13,2.49 0.12,2.49 0.12,2.49 0.09,1.93 0.02,0.56 0.11,2.49 0.1,2.5 0.1,2.49 0.09,2.49 0.08,2.49 0.08,2.49 0.07,2.49 0.07,2.5 0.07,2.49 0.06,2.49 0.05,2.49 0.05,2.49 0.04,2.49 0.04,2.49 0.03,2.5 0.02,2.49 0.03,2.49 0.01,2.49 0.01,2.49 0.01,2.49 v 2.5 l -0.01,2.49 -0.01,2.49 -0.01,2.49 -0.03,2.49 -0.02,2.49 -0.03,2.5 -0.04,2.49 -0.04,2.49 -0.05,2.49 -0.05,2.49 -0.06,2.49 -0.07,2.49 -0.07,2.5 -0.07,2.49 -0.08,2.49 -0.08,2.49 -0.09,2.49 -0.1,2.49 -0.1,2.5 -0.11,2.49 -0.02,0.56 -0.09,1.93 -0.12,2.49 -0.12,2.49 -0.13,2.49 -0.14,2.5 -0.14,2.49 -0.15,2.49 -0.15,2.49 -0.15,2.49 -0.17,2.49 -0.16,2.49 -0.18,2.5 -0.18,2.49 -0.18,2.49 -0.19,2.49 -0.2,2.49 -0.04,0.59 -0.16,1.9 -0.21,2.5 -0.22,2.49 -0.22,2.49 -0.22,2.49 -0.24,2.49 -0.23,2.49 -0.25,2.5 -0.25,2.49 -0.25,2.49 -0.24,2.32 -0.02,0.17 -0.27,2.49 -0.28,2.49"
         style="fill:none;stroke:#000000 icc-color(sRGB-IEC61966-2, 0.1, 0, 0, 0);stroke-width:0.75;stroke-linecap:round;stroke-linejoin:round;stroke-miterlimit:10;stroke-dasharray:none;stroke-opacity:1"
         transform="matrix(0.66669333,0,0,-0.66669333,6683.0293,300.52667)"
         clip-path="url(#clipPath11002)"
         id="path11062" />
      <path
         d="m 59.4,53.07 -0.26,2.49 -0.25,2.49 -0.25,2.49 -0.24,2.49 -0.24,2.49 -0.11,1.14 -0.12,1.36 -0.23,2.49 -0.22,2.49 -0.21,2.49 -0.21,2.49 -0.2,2.49 -0.2,2.5 -0.19,2.49 -0.18,2.49 -0.19,2.49 -0.17,2.49 -0.17,2.49 -0.17,2.5 -0.03,0.49 -0.13,2 -0.15,2.49 -0.15,2.49 -0.14,2.49 -0.14,2.49 -0.13,2.49 -0.13,2.5 -0.12,2.49 -0.12,2.49 -0.11,2.49 -0.1,2.49 -0.11,2.49 -0.09,2.5 -0.09,2.49 -0.09,2.49 -0.08,2.49 -0.08,2.49 -0.07,2.49 -0.07,2.5 -0.06,2.49 -0.05,2.49 -0.05,2.49 -0.05,2.49 -0.04,2.49 -0.04,2.49 -0.03,2.5 -0.02,2.49 -0.02,2.49 -0.02,2.49 -0.01,2.49 v 2.49 2.5 2.49 l 0.01,2.49 0.02,2.49 0.02,2.49 0.02,2.49 0.03,2.5 0.04,2.49 0.04,2.49 0.05,2.49 0.05,2.49 0.05,2.49 0.06,2.49 0.07,2.5 0.07,2.49 0.08,2.49 0.08,2.49 0.09,2.49 0.09,2.49 0.09,2.5 0.11,2.49 0.1,2.49 0.11,2.49 0.12,2.49 0.12,2.49 0.13,2.5 0.13,2.49 0.14,2.49 0.14,2.49 0.15,2.49 0.15,2.49 0.13,2 0.03,0.49 0.17,2.5 0.17,2.49 0.17,2.49 0.19,2.49 0.18,2.49 0.19,2.49 0.2,2.5 0.2,2.49 0.21,2.49 0.21,2.49 0.22,2.49 0.23,2.49 0.12,1.36 0.11,1.14 0.24,2.49 0.24,2.49 0.25,2.49 0.25,2.49 0.26,2.49"
         style="fill:none;stroke:#000000 icc-color(sRGB-IEC61966-2, 0.1, 0, 0, 0);stroke-width:0.75;stroke-linecap:round;stroke-linejoin:round;stroke-miterlimit:10;stroke-dasharray:none;stroke-opacity:1"
         transform="matrix(0.66669333,0,0,-0.66669333,6683.0293,300.52667)"
         clip-path="url(#clipPath11003)"
         id="path11063" />
      <path
         d="m 293.4,53.07 0.26,2.49 0.25,2.49 0.25,2.49 0.24,2.49 0.24,2.49 0.11,1.14 0.12,1.36 0.23,2.49 0.22,2.49 0.21,2.49 0.21,2.49 0.2,2.49 0.2,2.5 0.19,2.49 0.18,2.49 0.19,2.49 0.17,2.49 0.17,2.49 0.17,2.5 0.03,0.49 0.13,2 0.15,2.49 0.15,2.49 0.14,2.49 0.14,2.49 0.13,2.49 0.13,2.5 0.12,2.49 0.12,2.49 0.11,2.49 0.1,2.49 0.11,2.49 0.09,2.5 0.09,2.49 0.09,2.49 0.08,2.49 0.08,2.49 0.07,2.49 0.07,2.5 0.06,2.49 0.05,2.49 0.05,2.49 0.05,2.49 0.04,2.49 0.04,2.49 0.03,2.5 0.02,2.49 0.02,2.49 0.02,2.49 0.01,2.49 v 2.49 2.5 2.49 l -0.01,2.49 -0.02,2.49 -0.02,2.49 -0.02,2.49 -0.03,2.5 -0.04,2.49 -0.04,2.49 -0.05,2.49 -0.05,2.49 -0.05,2.49 -0.06,2.49 -0.07,2.5 -0.07,2.49 -0.08,2.49 -0.08,2.49 -0.09,2.49 -0.09,2.49 -0.09,2.5 -0.11,2.49 -0.1,2.49 -0.11,2.49 -0.12,2.49 -0.12,2.49 -0.13,2.5 -0.13,2.49 -0.14,2.49 -0.14,2.49 -0.15,2.49 -0.15,2.49 -0.13,2 -0.03,0.49 -0.17,2.5 -0.17,2.49 -0.17,2.49 -0.19,2.49 -0.18,2.49 -0.19,2.49 -0.2,2.5 -0.2,2.49 -0.21,2.49 -0.21,2.49 -0.22,2.49 -0.23,2.49 -0.12,1.36 -0.11,1.14 -0.24,2.49 -0.24,2.49 -0.25,2.49 -0.25,2.49 -0.26,2.49"
         style="fill:none;stroke:#000000 icc-color(sRGB-IEC61966-2, 0.1, 0, 0, 0);stroke-width:0.75;stroke-linecap:round;stroke-linejoin:round;stroke-miterlimit:10;stroke-dasharray:none;stroke-opacity:1"
         transform="matrix(0.66669333,0,0,-0.66669333,6683.0293,300.52667)"
         clip-path="url(#clipPath11004)"
         id="path11064" />
      <path
         d="M 53.13,53.07 53.07,53.6"
         style="fill:none;stroke:#000000 icc-color(sRGB-IEC61966-2, 0.1, 0, 0, 0);stroke-width:0.75;stroke-linecap:round;stroke-linejoin:round;stroke-miterlimit:10;stroke-dasharray:none;stroke-opacity:1"
         transform="matrix(0.66669333,0,0,-0.66669333,6683.0293,300.52667)"
         clip-path="url(#clipPath11005)"
         id="path11065" />
      <path
         d="m 53.07,299.2 0.06,0.53"
         style="fill:none;stroke:#000000 icc-color(sRGB-IEC61966-2, 0.1, 0, 0, 0);stroke-width:0.75;stroke-linecap:round;stroke-linejoin:round;stroke-miterlimit:10;stroke-dasharray:none;stroke-opacity:1"
         transform="matrix(0.66669333,0,0,-0.66669333,6683.0293,300.52667)"
         clip-path="url(#clipPath11006)"
         id="path11066" />
      <path
         d="m 299.67,53.07 0.06,0.53"
         style="fill:none;stroke:#000000 icc-color(sRGB-IEC61966-2, 0.1, 0, 0, 0);stroke-width:0.75;stroke-linecap:round;stroke-linejoin:round;stroke-miterlimit:10;stroke-dasharray:none;stroke-opacity:1"
         transform="matrix(0.66669333,0,0,-0.66669333,6683.0293,300.52667)"
         clip-path="url(#clipPath11007)"
         id="path11067" />
      <path
         d="m 299.73,299.2 -0.06,0.53"
         style="fill:none;stroke:#000000 icc-color(sRGB-IEC61966-2, 0.1, 0, 0, 0);stroke-width:0.75;stroke-linecap:round;stroke-linejoin:round;stroke-miterlimit:10;stroke-dasharray:none;stroke-opacity:1"
         transform="matrix(0.66669333,0,0,-0.66669333,6683.0293,300.52667)"
         clip-path="url(#clipPath11008)"
         id="path11068" />
      <path
         d="M 53.07,43.2 H 299.73"
         style="fill:none;stroke:#000000 icc-color(sRGB-IEC61966-2, 0.1, 0, 0, 0);stroke-width:0.75;stroke-linecap:round;stroke-linejoin:round;stroke-miterlimit:10;stroke-dasharray:none;stroke-opacity:1"
         transform="matrix(0.66669333,0,0,-0.66669333,6683.0293,300.52667)"
         clip-path="url(#clipPath11009)"
         id="path11069" />
      <path
         d="M 53.07,43.2 V 36"
         style="fill:none;stroke:#000000 icc-color(sRGB-IEC61966-2, 0.1, 0, 0, 0);stroke-width:0.75;stroke-linecap:round;stroke-linejoin:round;stroke-miterlimit:10;stroke-dasharray:none;stroke-opacity:1"
         transform="matrix(0.66669333,0,0,-0.66669333,6683.0293,300.52667)"
         clip-path="url(#clipPath11010)"
         id="path11070" />
      <path
         d="M 114.73,43.2 V 36"
         style="fill:none;stroke:#000000 icc-color(sRGB-IEC61966-2, 0.1, 0, 0, 0);stroke-width:0.75;stroke-linecap:round;stroke-linejoin:round;stroke-miterlimit:10;stroke-dasharray:none;stroke-opacity:1"
         transform="matrix(0.66669333,0,0,-0.66669333,6683.0293,300.52667)"
         clip-path="url(#clipPath11011)"
         id="path11071" />
      <path
         d="M 176.4,43.2 V 36"
         style="fill:none;stroke:#000000 icc-color(sRGB-IEC61966-2, 0.1, 0, 0, 0);stroke-width:0.75;stroke-linecap:round;stroke-linejoin:round;stroke-miterlimit:10;stroke-dasharray:none;stroke-opacity:1"
         transform="matrix(0.66669333,0,0,-0.66669333,6683.0293,300.52667)"
         clip-path="url(#clipPath11012)"
         id="path11072" />
      <path
         d="M 238.07,43.2 V 36"
         style="fill:none;stroke:#000000 icc-color(sRGB-IEC61966-2, 0.1, 0, 0, 0);stroke-width:0.75;stroke-linecap:round;stroke-linejoin:round;stroke-miterlimit:10;stroke-dasharray:none;stroke-opacity:1"
         transform="matrix(0.66669333,0,0,-0.66669333,6683.0293,300.52667)"
         clip-path="url(#clipPath11013)"
         id="path11073" />
      <path
         d="M 299.73,43.2 V 36"
         style="fill:none;stroke:#000000 icc-color(sRGB-IEC61966-2, 0.1, 0, 0, 0);stroke-width:0.75;stroke-linecap:round;stroke-linejoin:round;stroke-miterlimit:10;stroke-dasharray:none;stroke-opacity:1"
         transform="matrix(0.66669333,0,0,-0.66669333,6683.0293,300.52667)"
         clip-path="url(#clipPath11014)"
         id="path11074" />
      <path
         d="M 6.5396478,-3.2083992 H 0.46957812 V -2.364683 H 6.5396478 Z m 6.5388012,2.1561637 H 8.6020653 c 0.1171828,-0.7030968 0.4921678,-1.1718281 1.5468127,-1.8046153 l 1.195265,-0.6796603 c 1.195265,-0.6562237 1.804615,-1.5468131 1.804615,-2.6014584 0,-0.7265335 -0.304675,-1.4061938 -0.796843,-1.8514885 -0.515604,-0.4687312 -1.124955,-0.6796603 -1.945234,-0.6796603 -1.0780822,0 -1.8749254,0.374985 -2.3436566,1.124955 -0.3046753,0.4452947 -0.4218581,0.9843356 -0.4452947,1.874925 H 8.672375 c 0.023437,-0.585914 0.093746,-0.9374625 0.2343656,-1.2187012 0.2812388,-0.539041 0.8437163,-0.8671528 1.4765034,-0.8671528 0.960899,0 1.687433,0.7030968 1.687433,1.6405593 0,0.7030969 -0.398422,1.289011 -1.171829,1.7343057 L 9.79733,-3.7474402 c -1.7577422,1.0312088 -2.2733466,1.8514885 -2.3905294,3.72641349 h 5.6716484 z m 3.908047,-7.6168828 c -0.796844,0 -1.523377,0.3515485 -1.968672,0.9374625 -0.539041,0.7734066 -0.820279,1.9217981 -0.820279,3.538921 0,2.9295703 0.960899,4.4763834 2.788951,4.4763834 1.804615,0 2.788951,-1.5468131 2.788951,-4.4060738 0,-1.6874325 -0.281239,-2.8123875 -0.843717,-3.6092306 -0.445294,-0.585914 -1.148391,-0.9374625 -1.945234,-0.9374625 z m 0,0.9374625 c 1.124955,0 1.710869,1.1483916 1.710869,3.5154844 0,2.4608391 -0.562478,3.60923063 -1.734306,3.60923063 -1.124955,0 -1.687433,-1.19526473 -1.687433,-3.58579403 0,-2.3905294 0.562478,-3.538921 1.71087,-3.538921 z m 0,0"
         style="fill:#000000 icc-color(sRGB-IEC61966-2, 0.1, 0, 0, 0);fill-opacity:1;fill-rule:nonzero;stroke:none"
         aria-label="20"
         transform="matrix(0.66669333,0,0,0.66669333,6711.6238,289.00621)"
         clip-path="url(#clipPath11015)"
         id="path11075" />
      <path
         d="M 6.537103,-3.2083992 H 0.46703329 V -2.364683 H 6.537103 Z m 3.585794,-2.9764435 v 6.18725255 h 1.054645 V -8.6691183 h -0.703097 c -0.374985,1.3358841 -0.6093501,1.49994 -2.2499095,1.7343056 v 0.74997 z m 6.861054,-2.4842756 c -0.796843,0 -1.523377,0.3515485 -1.968672,0.9374625 -0.53904,0.7734066 -0.820279,1.9217981 -0.820279,3.538921 0,2.9295703 0.960899,4.4763834 2.788951,4.4763834 1.804615,0 2.788951,-1.5468131 2.788951,-4.4060738 0,-1.6874325 -0.281239,-2.8123875 -0.843717,-3.6092306 -0.445294,-0.585914 -1.148391,-0.9374625 -1.945234,-0.9374625 z m 0,0.9374625 c 1.124955,0 1.710869,1.1483916 1.710869,3.5154844 0,2.4608391 -0.562478,3.60923063 -1.734306,3.60923063 -1.124955,0 -1.687432,-1.19526473 -1.687432,-3.58579403 0,-2.3905294 0.562477,-3.538921 1.710869,-3.538921 z m 0,0"
         style="fill:#000000 icc-color(sRGB-IEC61966-2, 0.1, 0, 0, 0);fill-opacity:1;fill-rule:nonzero;stroke:none"
         aria-label="10"
         transform="matrix(0.66669333,0,0,0.66669333,6752.7388,289.00621)"
         clip-path="url(#clipPath11016)"
         id="path11076" />
      <path
         d="m 3.3020705,-8.6691183 c -0.7968431,0 -1.5233765,0.3515485 -1.9686712,0.9374625 -0.53904097,0.7734066 -0.82027972,1.9217981 -0.82027972,3.538921 0,2.9295703 0.96089902,4.4763834 2.78895092,4.4763834 1.8046153,0 2.788951,-1.5468131 2.788951,-4.4060738 0,-1.6874325 -0.2812388,-2.8123875 -0.8437163,-3.6092306 -0.4452947,-0.585914 -1.1483916,-0.9374625 -1.9452347,-0.9374625 z m 0,0.9374625 c 1.124955,0 1.7108691,1.1483916 1.7108691,3.5154844 0,2.4608391 -0.5624775,3.60923063 -1.7343056,3.60923063 -1.124955,0 -1.6874325,-1.19526473 -1.6874325,-3.58579403 0,-2.3905294 0.5624775,-3.538921 1.710869,-3.538921 z m 0,0"
         style="fill:#000000 icc-color(sRGB-IEC61966-2, 0.1, 0, 0, 0);fill-opacity:1;fill-rule:nonzero;stroke:none"
         aria-label="0"
         transform="matrix(0.66669333,0,0,0.66669333,6798.4073,289.00621)"
         clip-path="url(#clipPath11017)"
         id="path11077" />
      <path
         d="M 3.1181822,-6.1848427 V 0.00240985 H 4.1728275 V -8.6691183 H 3.4697306 c -0.374985,1.3358841 -0.6093506,1.49994 -2.24991,1.7343056 v 0.74997 z m 6.8610537,-2.4842756 c -0.7968432,0 -1.5233766,0.3515485 -1.9686713,0.9374625 -0.5390409,0.7734066 -0.8202797,1.9217981 -0.8202797,3.538921 0,2.9295703 0.9608991,4.4763834 2.788951,4.4763834 1.8046151,0 2.7889511,-1.5468131 2.7889511,-4.4060738 0,-1.6874325 -0.281239,-2.8123875 -0.843716,-3.6092306 -0.445295,-0.585914 -1.148392,-0.9374625 -1.9452351,-0.9374625 z m 0,0.9374625 c 1.1249551,0 1.7108691,1.1483916 1.7108691,3.5154844 0,2.4608391 -0.562478,3.60923063 -1.7343057,3.60923063 -1.124955,0 -1.6874325,-1.19526473 -1.6874325,-3.58579403 0,-2.3905294 0.5624775,-3.538921 1.7108691,-3.538921 z m 0,0"
         style="fill:#000000 icc-color(sRGB-IEC61966-2, 0.1, 0, 0, 0);fill-opacity:1;fill-rule:nonzero;stroke:none"
         aria-label="10"
         transform="matrix(0.66669333,0,0,0.66669333,6837.2955,289.00621)"
         clip-path="url(#clipPath11018)"
         id="path11078" />
      <path
         d="M 6.0686442,-1.0522355 H 1.5922608 c 0.1171828,-0.7030968 0.4921678,-1.1718281 1.5468131,-1.8046153 l 1.1952647,-0.6796603 c 1.1952647,-0.6562237 1.8046153,-1.5468131 1.8046153,-2.6014584 0,-0.7265335 -0.3046753,-1.4061938 -0.7968431,-1.8514885 -0.5156044,-0.4687312 -1.124955,-0.6796603 -1.9452347,-0.6796603 -1.0780819,0 -1.874925,0.374985 -2.3436563,1.124955 -0.30467527,0.4452947 -0.42185808,0.9843356 -0.44529464,1.874925 H 1.6625705 c 0.023437,-0.585914 0.093746,-0.9374625 0.2343656,-1.2187012 0.2812387,-0.539041 0.8437162,-0.8671528 1.4765034,-0.8671528 0.9608991,0 1.6874325,0.7030968 1.6874325,1.6405593 0,0.7030969 -0.3984215,1.289011 -1.1718281,1.7343057 L 2.7875255,-3.7474402 C 1.0297833,-2.7162314 0.51417891,-1.8959517 0.3969961,-0.02102671 H 6.0686442 Z M 9.976691,-8.6691183 c -0.7968431,0 -1.5233765,0.3515485 -1.9686712,0.9374625 -0.539041,0.7734066 -0.8202797,1.9217981 -0.8202797,3.538921 0,2.9295703 0.9608991,4.4763834 2.7889509,4.4763834 1.804615,0 2.788951,-1.5468131 2.788951,-4.4060738 0,-1.6874325 -0.281239,-2.8123875 -0.843716,-3.6092306 -0.445295,-0.585914 -1.148392,-0.9374625 -1.945235,-0.9374625 z m 0,0.9374625 c 1.124955,0 1.710869,1.1483916 1.710869,3.5154844 0,2.4608391 -0.562477,3.60923063 -1.7343055,3.60923063 -1.124955,0 -1.6874325,-1.19526473 -1.6874325,-3.58579403 0,-2.3905294 0.5624775,-3.538921 1.710869,-3.538921 z m 0,0"
         style="fill:#000000 icc-color(sRGB-IEC61966-2, 0.1, 0, 0, 0);fill-opacity:1;fill-rule:nonzero;stroke:none"
         aria-label="20"
         transform="matrix(0.66669333,0,0,0.66669333,6878.4105,289.00621)"
         clip-path="url(#clipPath11019)"
         id="path11079" />
      <path
         d="M 43.2,53.07 V 299.73"
         style="fill:none;stroke:#000000 icc-color(sRGB-IEC61966-2, 0.1, 0, 0, 0);stroke-width:0.75;stroke-linecap:round;stroke-linejoin:round;stroke-miterlimit:10;stroke-dasharray:none;stroke-opacity:1"
         transform="matrix(0.66669333,0,0,-0.66669333,6683.0293,300.52667)"
         clip-path="url(#clipPath11020)"
         id="path11080" />
      <path
         d="M 43.2,53.07 H 36"
         style="fill:none;stroke:#000000 icc-color(sRGB-IEC61966-2, 0.1, 0, 0, 0);stroke-width:0.75;stroke-linecap:round;stroke-linejoin:round;stroke-miterlimit:10;stroke-dasharray:none;stroke-opacity:1"
         transform="matrix(0.66669333,0,0,-0.66669333,6683.0293,300.52667)"
         clip-path="url(#clipPath11021)"
         id="path11081" />
      <path
         d="M 43.2,114.73 H 36"
         style="fill:none;stroke:#000000 icc-color(sRGB-IEC61966-2, 0.1, 0, 0, 0);stroke-width:0.75;stroke-linecap:round;stroke-linejoin:round;stroke-miterlimit:10;stroke-dasharray:none;stroke-opacity:1"
         transform="matrix(0.66669333,0,0,-0.66669333,6683.0293,300.52667)"
         clip-path="url(#clipPath11022)"
         id="path11082" />
      <path
         d="M 43.2,176.4 H 36"
         style="fill:none;stroke:#000000 icc-color(sRGB-IEC61966-2, 0.1, 0, 0, 0);stroke-width:0.75;stroke-linecap:round;stroke-linejoin:round;stroke-miterlimit:10;stroke-dasharray:none;stroke-opacity:1"
         transform="matrix(0.66669333,0,0,-0.66669333,6683.0293,300.52667)"
         clip-path="url(#clipPath11023)"
         id="path11083" />
      <path
         d="M 43.2,238.07 H 36"
         style="fill:none;stroke:#000000 icc-color(sRGB-IEC61966-2, 0.1, 0, 0, 0);stroke-width:0.75;stroke-linecap:round;stroke-linejoin:round;stroke-miterlimit:10;stroke-dasharray:none;stroke-opacity:1"
         transform="matrix(0.66669333,0,0,-0.66669333,6683.0293,300.52667)"
         clip-path="url(#clipPath11024)"
         id="path11084" />
      <path
         d="M 43.2,299.73 H 36"
         style="fill:none;stroke:#000000 icc-color(sRGB-IEC61966-2, 0.1, 0, 0, 0);stroke-width:0.75;stroke-linecap:round;stroke-linejoin:round;stroke-miterlimit:10;stroke-dasharray:none;stroke-opacity:1"
         transform="matrix(0.66669333,0,0,-0.66669333,6683.0293,300.52667)"
         clip-path="url(#clipPath11025)"
         id="path11085" />
      <path
         d="M 6.5366948,-3.2080335 H 0.46662511 v 0.8437163 H 6.5366948 Z m 6.5388012,2.1561638 H 8.5991123 C 8.7162951,-1.7549666 9.0912801,-2.2236979 10.145925,-2.856485 l 1.195265,-0.6796604 c 1.195265,-0.6562237 1.804615,-1.5468131 1.804615,-2.6014584 0,-0.7265334 -0.304675,-1.4061937 -0.796843,-1.8514884 -0.515604,-0.4687313 -1.124955,-0.6796603 -1.945234,-0.6796603 -1.0780823,0 -1.8749254,0.374985 -2.3436566,1.124955 -0.3046753,0.4452946 -0.4218582,0.9843356 -0.4452947,1.874925 H 8.669422 c 0.023437,-0.5859141 0.093746,-0.9374625 0.2343656,-1.2187013 0.2812388,-0.5390409 0.8437163,-0.8671528 1.4765034,-0.8671528 0.960899,0 1.687433,0.7030969 1.687433,1.6405594 0,0.7030968 -0.398422,1.2890109 -1.171829,1.7343056 L 9.794377,-3.7470744 C 8.0366348,-2.7158657 7.5210304,-1.895586 7.4038476,-0.02066097 h 5.6716484 z m 3.908047,-7.6168828 c -0.796844,0 -1.523377,0.3515484 -1.968672,0.9374625 -0.539041,0.7734065 -0.820279,1.9217981 -0.820279,3.5389209 0,2.9295703 0.960899,4.47638344 2.788951,4.47638344 1.804615,0 2.788951,-1.54681314 2.788951,-4.40607374 0,-1.6874325 -0.281239,-2.8123875 -0.843717,-3.6092306 -0.445294,-0.5859141 -1.148391,-0.9374625 -1.945234,-0.9374625 z m 0,0.9374625 c 1.124955,0 1.710869,1.1483915 1.710869,3.5154843 0,2.4608391 -0.562478,3.60923066 -1.734306,3.60923066 -1.124955,0 -1.687433,-1.19526466 -1.687433,-3.58579406 0,-2.3905294 0.562478,-3.5389209 1.71087,-3.5389209 z m 0,0"
         style="fill:#000000 icc-color(sRGB-IEC61966-2, 0.1, 0, 0, 0);fill-opacity:1;fill-rule:nonzero;stroke:none"
         aria-label="20"
         transform="matrix(0,-0.66669333,0.66669333,0,6700.31,271.93219)"
         clip-path="url(#clipPath11026)"
         id="path11086" />
      <path
         d="M 6.5400091,-3.2080335 H 0.46993943 v 0.8437163 H 6.5400091 Z m 3.5857939,-2.9764434 v 6.18725249 h 1.054646 V -8.6687525 h -0.703097 c -0.374985,1.335884 -0.609351,1.49994 -2.2499104,1.7343056 v 0.74997 z m 6.861054,-2.4842756 c -0.796843,0 -1.523377,0.3515484 -1.968671,0.9374625 -0.539041,0.7734065 -0.82028,1.9217981 -0.82028,3.5389209 0,2.9295703 0.960899,4.47638344 2.788951,4.47638344 1.804615,0 2.788951,-1.54681314 2.788951,-4.40607374 0,-1.6874325 -0.281239,-2.8123875 -0.843716,-3.6092306 -0.445295,-0.5859141 -1.148392,-0.9374625 -1.945235,-0.9374625 z m 0,0.9374625 c 1.124955,0 1.710869,1.1483915 1.710869,3.5154843 0,2.4608391 -0.562478,3.60923066 -1.734306,3.60923066 -1.124955,0 -1.687432,-1.19526466 -1.687432,-3.58579406 0,-2.3905294 0.562477,-3.5389209 1.710869,-3.5389209 z m 0,0"
         style="fill:#000000 icc-color(sRGB-IEC61966-2, 0.1, 0, 0, 0);fill-opacity:1;fill-rule:nonzero;stroke:none"
         aria-label="10"
         transform="matrix(0,-0.66669333,0.66669333,0,6700.31,230.81721)"
         clip-path="url(#clipPath11027)"
         id="path11087" />
      <path
         d="m 3.3049767,-8.6687525 c -0.7968432,0 -1.5233766,0.3515484 -1.9686713,0.9374625 -0.53904094,0.7734065 -0.82027969,1.9217981 -0.82027969,3.5389209 0,2.9295703 0.96089909,4.47638344 2.78895099,4.47638344 1.8046153,0 2.7889509,-1.54681314 2.7889509,-4.40607374 0,-1.6874325 -0.2812388,-2.8123875 -0.8437163,-3.6092306 C 4.8049167,-8.3172041 4.1018198,-8.6687525 3.3049767,-8.6687525 Z m 0,0.9374625 c 1.124955,0 1.710869,1.1483915 1.710869,3.5154843 0,2.4608391 -0.5624775,3.60923066 -1.7343056,3.60923066 -1.124955,0 -1.6874325,-1.19526466 -1.6874325,-3.58579406 0,-2.3905294 0.5624775,-3.5389209 1.7108691,-3.5389209 z m 0,0"
         style="fill:#000000 icc-color(sRGB-IEC61966-2, 0.1, 0, 0, 0);fill-opacity:1;fill-rule:nonzero;stroke:none"
         aria-label="0"
         transform="matrix(0,-0.66669333,0.66669333,0,6700.31,185.14872)"
         clip-path="url(#clipPath11028)"
         id="path11088" />
      <path
         d="M 3.1152292,-6.1844769 V 0.00277559 H 4.1698745 V -8.6687525 H 3.4667776 c -0.374985,1.335884 -0.6093506,1.49994 -2.24991,1.7343056 v 0.74997 z m 6.8610536,-2.4842756 c -0.7968431,0 -1.5233765,0.3515484 -1.9686712,0.9374625 -0.5390409,0.7734065 -0.8202797,1.9217981 -0.8202797,3.5389209 0,2.9295703 0.9608991,4.47638344 2.7889509,4.47638344 1.8046152,0 2.7889512,-1.54681314 2.7889512,-4.40607374 0,-1.6874325 -0.281239,-2.8123875 -0.843716,-3.6092306 -0.445295,-0.5859141 -1.148392,-0.9374625 -1.9452352,-0.9374625 z m 0,0.9374625 c 1.1249552,0 1.7108692,1.1483915 1.7108692,3.5154843 0,2.4608391 -0.562478,3.60923066 -1.7343057,3.60923066 -1.124955,0 -1.6874325,-1.19526466 -1.6874325,-3.58579406 0,-2.3905294 0.5624775,-3.5389209 1.710869,-3.5389209 z m 0,0"
         style="fill:#000000 icc-color(sRGB-IEC61966-2, 0.1, 0, 0, 0);fill-opacity:1;fill-rule:nonzero;stroke:none"
         aria-label="10"
         transform="matrix(0,-0.66669333,0.66669333,0,6700.31,146.2605)"
         clip-path="url(#clipPath11029)"
         id="path11089" />
      <path
         d="M 6.0715504,-1.0518697 H 1.5951669 C 1.7123497,-1.7549666 2.0873347,-2.2236979 3.14198,-2.856485 l 1.1952647,-0.6796604 c 1.1952647,-0.6562237 1.8046154,-1.5468131 1.8046154,-2.6014584 0,-0.7265334 -0.3046754,-1.4061937 -0.7968432,-1.8514884 -0.5156044,-0.4687313 -1.124955,-0.6796603 -1.9452347,-0.6796603 -1.0780818,0 -1.874925,0.374985 -2.3436562,1.124955 -0.30467533,0.4452946 -0.42185815,0.9843356 -0.44529471,1.874925 H 1.6654766 c 0.023437,-0.5859141 0.093746,-0.9374625 0.2343656,-1.2187013 0.2812388,-0.5390409 0.8437163,-0.8671528 1.4765035,-0.8671528 0.960899,0 1.6874325,0.7030969 1.6874325,1.6405594 0,0.7030968 -0.3984216,1.2890109 -1.1718282,1.7343056 L 2.7904316,-3.7470744 C 1.0326894,-2.7158657 0.51708504,-1.895586 0.39990223,-0.02066097 H 6.0715504 Z M 9.973738,-8.6687525 c -0.7968431,0 -1.5233765,0.3515484 -1.9686712,0.9374625 -0.539041,0.7734065 -0.8202797,1.9217981 -0.8202797,3.5389209 0,2.9295703 0.960899,4.47638344 2.7889509,4.47638344 1.804615,0 2.788951,-1.54681314 2.788951,-4.40607374 0,-1.6874325 -0.281239,-2.8123875 -0.843716,-3.6092306 -0.445295,-0.5859141 -1.148392,-0.9374625 -1.945235,-0.9374625 z m 0,0.9374625 c 1.124955,0 1.710869,1.1483915 1.710869,3.5154843 0,2.4608391 -0.562477,3.60923066 -1.7343055,3.60923066 -1.124955,0 -1.6874325,-1.19526466 -1.6874325,-3.58579406 0,-2.3905294 0.5624775,-3.5389209 1.710869,-3.5389209 z m 0,0"
         style="fill:#000000 icc-color(sRGB-IEC61966-2, 0.1, 0, 0, 0);fill-opacity:1;fill-rule:nonzero;stroke:none"
         aria-label="20"
         transform="matrix(0,-0.66669333,0.66669333,0,6700.31,105.14552)"
         clip-path="url(#clipPath11030)"
         id="path11090" />
      <path
         d="M 43.2,43.2 H 309.6 V 309.6 H 43.2 V 43.2"
         style="fill:none;stroke:#000000 icc-color(sRGB-IEC61966-2, 0.1, 0, 0, 0);stroke-width:0.75;stroke-linecap:round;stroke-linejoin:round;stroke-miterlimit:10;stroke-dasharray:none;stroke-opacity:1"
         transform="matrix(0.66669333,0,0,-0.66669333,6683.0293,300.52667)"
         clip-path="url(#clipPath11031)"
         id="path11091" />
      <path
         d="m 2.9548573,-5.2961057 c -1.4765035,0 -2.69520474,1.2187013 -2.69520474,2.6952047 0,1.49994 1.21870124,2.6952047 2.69520474,2.6952047 1.49994,0 2.6952046,-1.1952647 2.6952046,-2.6952047 0,-1.4765034 -1.1952646,-2.6952047 -2.6952046,-2.6952047 z m 0,0"
         style="fill:none;stroke:#000000 icc-color(sRGB-IEC61966-2, 0.1, 0, 0, 0);stroke-width:0.75;stroke-linecap:round;stroke-linejoin:round;stroke-miterlimit:10;stroke-dasharray:none;stroke-opacity:1"
         aria-label=""
         transform="matrix(0.66669333,0,0,0.66669333,6806.881,102.42541)"
         clip-path="url(#clipPath11032)"
         id="path11092" />
      <path
         d="m 2.9535991,-5.2948475 c -1.4765034,0 -2.69520469,1.2187012 -2.69520469,2.6952047 0,1.49994 1.21870129,2.69520465 2.69520469,2.69520465 1.49994,0 2.6952047,-1.19526465 2.6952047,-2.69520465 0,-1.4765035 -1.1952647,-2.6952047 -2.6952047,-2.6952047 z m 0,0"
         style="fill:none;stroke:#000000 icc-color(sRGB-IEC61966-2, 0.1, 0, 0, 0);stroke-width:0.75;stroke-linecap:round;stroke-linejoin:round;stroke-miterlimit:10;stroke-dasharray:none;stroke-opacity:1"
         aria-label=""
         transform="matrix(0.66669333,0,0,0.66669333,6796.6005,112.70582)"
         clip-path="url(#clipPath11033)"
         id="path11093" />
      <path
         d="m 2.9548573,-5.2980214 c -1.4765035,0 -2.69520474,1.2187012 -2.69520474,2.6952047 0,1.49994 1.21870124,2.69520465 2.69520474,2.69520465 1.49994,0 2.6952046,-1.19526465 2.6952046,-2.69520465 0,-1.4765035 -1.1952646,-2.6952047 -2.6952046,-2.6952047 z m 0,0"
         style="fill:none;stroke:#000000 icc-color(sRGB-IEC61966-2, 0.1, 0, 0, 0);stroke-width:0.75;stroke-linecap:round;stroke-linejoin:round;stroke-miterlimit:10;stroke-dasharray:none;stroke-opacity:1"
         aria-label=""
         transform="matrix(0.66669333,0,0,0.66669333,6806.881,148.68059)"
         clip-path="url(#clipPath11034)"
         id="path11094" />
      <path
         d="m 2.9542282,-5.2990156 c -1.4765035,0 -2.69520471,1.2187013 -2.69520471,2.6952047 0,1.49994 1.21870121,2.69520472 2.69520471,2.69520472 1.49994,0 2.6952047,-1.19526472 2.6952047,-2.69520472 0,-1.4765034 -1.1952647,-2.6952047 -2.6952047,-2.6952047 z m 0,0"
         style="fill:none;stroke:#000000 icc-color(sRGB-IEC61966-2, 0.1, 0, 0, 0);stroke-width:0.75;stroke-linecap:round;stroke-linejoin:round;stroke-miterlimit:10;stroke-dasharray:none;stroke-opacity:1"
         aria-label=""
         transform="matrix(0.66669333,0,0,0.66669333,6801.7407,150.92735)"
         clip-path="url(#clipPath11035)"
         id="path11095" />
      <path
         d="m 2.9512564,-5.2970028 c -1.4765035,0 -2.69520472,1.2187012 -2.69520472,2.6952047 0,1.49994 1.21870122,2.69520466 2.69520472,2.69520466 1.49994,0 2.6952047,-1.19526466 2.6952047,-2.69520466 0,-1.4765035 -1.1952647,-2.6952047 -2.6952047,-2.6952047 z m 0,0"
         style="fill:none;stroke:#000000 icc-color(sRGB-IEC61966-2, 0.1, 0, 0, 0);stroke-width:0.75;stroke-linecap:round;stroke-linejoin:round;stroke-miterlimit:10;stroke-dasharray:none;stroke-opacity:1"
         aria-label=""
         transform="matrix(0.66669333,0,0,0.66669333,6797.8873,155.14085)"
         clip-path="url(#clipPath11036)"
         id="path11096" />
      <path
         d="m 2.9542282,-5.2970286 c -1.4765035,0 -2.69520471,1.2187012 -2.69520471,2.6952046 0,1.4999401 1.21870121,2.69520474 2.69520471,2.69520474 1.49994,0 2.6952047,-1.19526464 2.6952047,-2.69520474 0,-1.4765034 -1.1952647,-2.6952046 -2.6952047,-2.6952046 z m 0,0"
         style="fill:none;stroke:#000000 icc-color(sRGB-IEC61966-2, 0.1, 0, 0, 0);stroke-width:0.75;stroke-linecap:round;stroke-linejoin:round;stroke-miterlimit:10;stroke-dasharray:none;stroke-opacity:1"
         aria-label=""
         transform="matrix(0.66669333,0,0,0.66669333,6801.7407,169.89477)"
         clip-path="url(#clipPath11037)"
         id="path11097" />
      <path
         d="m 2.9556718,-5.2984123 c -1.4765034,0 -2.69520464,1.2187012 -2.69520464,2.6952047 0,1.49994 1.21870124,2.69520467 2.69520464,2.69520467 1.4999401,0 2.6952047,-1.19526467 2.6952047,-2.69520467 0,-1.4765035 -1.1952646,-2.6952047 -2.6952047,-2.6952047 z m 0,0"
         style="fill:none;stroke:#000000 icc-color(sRGB-IEC61966-2, 0.1, 0, 0, 0);stroke-width:0.75;stroke-linecap:round;stroke-linejoin:round;stroke-miterlimit:10;stroke-dasharray:none;stroke-opacity:1"
         aria-label=""
         transform="matrix(0.66669333,0,0,0.66669333,6799.814,170.82148)"
         clip-path="url(#clipPath11038)"
         id="path11098" />
      <path
         d="m 2.9519307,-5.2986722 c -1.4765035,0 -2.69520472,1.2187013 -2.69520472,2.6952047 0,1.49994 1.21870122,2.69520473 2.69520472,2.69520473 1.49994,0 2.6952047,-1.19526473 2.6952047,-2.69520473 0,-1.4765034 -1.1952647,-2.6952047 -2.6952047,-2.6952047 z m 0,0"
         style="fill:none;stroke:#000000 icc-color(sRGB-IEC61966-2, 0.1, 0, 0, 0);stroke-width:0.75;stroke-linecap:round;stroke-linejoin:round;stroke-miterlimit:10;stroke-dasharray:none;stroke-opacity:1"
         aria-label=""
         transform="matrix(0.66669333,0,0,0.66669333,6798.3673,172.54821)"
         clip-path="url(#clipPath11039)"
         id="path11099" />
      <path
         d="m 2.9556718,-5.2970042 c -1.4765034,0 -2.69520464,1.2187013 -2.69520464,2.6952047 0,1.49994 1.21870124,2.69520471 2.69520464,2.69520471 1.4999401,0 2.6952047,-1.19526471 2.6952047,-2.69520471 0,-1.4765034 -1.1952646,-2.6952047 -2.6952047,-2.6952047 z m 0,0"
         style="fill:none;stroke:#000000 icc-color(sRGB-IEC61966-2, 0.1, 0, 0, 0);stroke-width:0.75;stroke-linecap:round;stroke-linejoin:round;stroke-miterlimit:10;stroke-dasharray:none;stroke-opacity:1"
         aria-label=""
         transform="matrix(0.66669333,0,0,0.66669333,6799.814,178.60179)"
         clip-path="url(#clipPath11040)"
         id="path11100" />
      <path
         d="m 2.9517308,-5.2986675 c -1.4765034,0 -2.69520466,1.2187012 -2.69520466,2.6952047 0,1.49994 1.21870126,2.69520466 2.69520466,2.69520466 1.49994,0 2.6952047,-1.19526466 2.6952047,-2.69520466 0,-1.4765035 -1.1952647,-2.6952047 -2.6952047,-2.6952047 z m 0,0"
         style="fill:none;stroke:#000000 icc-color(sRGB-IEC61966-2, 0.1, 0, 0, 0);stroke-width:0.75;stroke-linecap:round;stroke-linejoin:round;stroke-miterlimit:10;stroke-dasharray:none;stroke-opacity:1"
         aria-label=""
         transform="matrix(0.66669333,0,0,0.66669333,6799.094,178.98181)"
         clip-path="url(#clipPath11041)"
         id="path11101" />
      <path
         d="m 2.9531694,-5.2981631 c -1.4765034,0 -2.69520467,1.2187013 -2.69520467,2.6952047 0,1.49994 1.21870127,2.69520471 2.69520467,2.69520471 1.49994,0 2.6952047,-1.19526471 2.6952047,-2.69520471 0,-1.4765034 -1.1952647,-2.6952047 -2.6952047,-2.6952047 z m 0,0"
         style="fill:none;stroke:#000000 icc-color(sRGB-IEC61966-2, 0.1, 0, 0, 0);stroke-width:0.75;stroke-linecap:round;stroke-linejoin:round;stroke-miterlimit:10;stroke-dasharray:none;stroke-opacity:1"
         aria-label=""
         transform="matrix(0.66669333,0,0,0.66669333,6798.554,179.6885)"
         clip-path="url(#clipPath11042)"
         id="path11102" />
      <path
         d="m 2.9517308,-5.2976088 c -1.4765034,0 -2.69520466,1.2187013 -2.69520466,2.6952047 0,1.49994 1.21870126,2.69520471 2.69520466,2.69520471 1.49994,0 2.6952047,-1.19526471 2.6952047,-2.69520471 0,-1.4765034 -1.1952647,-2.6952047 -2.6952047,-2.6952047 z m 0,0"
         style="fill:none;stroke:#000000 icc-color(sRGB-IEC61966-2, 0.1, 0, 0, 0);stroke-width:0.75;stroke-linecap:round;stroke-linejoin:round;stroke-miterlimit:10;stroke-dasharray:none;stroke-opacity:1"
         aria-label=""
         transform="matrix(0.66669333,0,0,0.66669333,6799.094,182.1686)"
         clip-path="url(#clipPath11043)"
         id="path11103" />
      <path
         d="m 188.73,299.73 -15.41,-15.41 15.41,-53.96 -7.7,-3.37 -5.79,-6.33 5.79,-22.13 -2.9,-1.38 -2.16,-2.6 2.16,-9.07 -1.08,-0.57 -0.81,-1.06 0.81,-3.73"
         style="fill:none;stroke:#000000 icc-color(sRGB-IEC61966-2, 0.1, 0, 0, 0);stroke-width:0.75;stroke-linecap:round;stroke-linejoin:round;stroke-miterlimit:10;stroke-dasharray:none;stroke-opacity:1"
         transform="matrix(0.66669333,0,0,-0.66669333,6683.0293,300.52667)"
         clip-path="url(#clipPath11044)"
         id="path11104" />
      <path
         d="m 4.8018757,-21.864712 0.1406194,3.351429 -3.1639359,-1.124955 -0.5859141,1.757742 3.2342456,0.914026 -2.0624175,2.648331 1.49994,1.101519 1.8983616,-2.812388 1.8514885,2.812388 1.5233765,-1.101519 -2.085854,-2.648331 3.2342452,-0.914026 -0.5624771,-1.757742 -3.1873725,1.124955 0.1406194,-3.351429 z m 0,0"
         style="fill:#000000 icc-color(sRGB-IEC61966-2, 0.1, 0, 0, 0);fill-opacity:1;fill-rule:nonzero;stroke:none"
         aria-label="*"
         transform="matrix(0.66669333,0,0,0.66669333,6796.7472,194.40909)"
         clip-path="url(#clipPath11045)"
         id="path11105" />
    </g>
  </g>
</svg>
