<?xml version="1.0" encoding="UTF-8" standalone="no"?>
<!-- Created with Inkscape (http://www.inkscape.org/) -->

<svg
   width="43.422085mm"
   height="27.64065mm"
   viewBox="0 0 43.422085 27.64065"
   version="1.1"
   id="svg1"
   inkscape:version="1.3.2 (091e20ef0f, 2023-11-25)"
   sodipodi:docname="newton-onedim.svg"
   xmlns:inkscape="http://www.inkscape.org/namespaces/inkscape"
   xmlns:sodipodi="http://sodipodi.sourceforge.net/DTD/sodipodi-0.dtd"
   xmlns="http://www.w3.org/2000/svg"
   xmlns:svg="http://www.w3.org/2000/svg">
  <sodipodi:namedview
     id="namedview1"
     pagecolor="#ffffff"
     bordercolor="#666666"
     borderopacity="1.0"
     inkscape:showpageshadow="2"
     inkscape:pageopacity="0.0"
     inkscape:pagecheckerboard="0"
     inkscape:deskcolor="#d1d1d1"
     inkscape:document-units="mm"
     inkscape:zoom="1.4085967"
     inkscape:cx="96.904952"
     inkscape:cy="101.87444"
     inkscape:window-width="956"
     inkscape:window-height="1168"
     inkscape:window-x="2040"
     inkscape:window-y="288"
     inkscape:window-maximized="1"
     inkscape:current-layer="layer1" />
  <defs
     id="defs1">
    <clipPath
       clipPathUnits="userSpaceOnUse"
       id="clipPath725">
      <path
         d="M 8.32,3.577 H 185.171 V 129.074 H 8.32 Z"
         transform="matrix(9.9999996,0,0,9.9999996,2419.9994,5389.9997)"
         id="path725" />
    </clipPath>
    <clipPath
       clipPathUnits="userSpaceOnUse"
       id="clipPath726">
      <path
         d="M 8.32,3.577 H 185.171 V 129.074 H 8.32 Z"
         transform="matrix(9.9999996,0,0,9.9999996,2419.9994,5389.9997)"
         id="path726" />
    </clipPath>
    <clipPath
       clipPathUnits="userSpaceOnUse"
       id="clipPath727">
      <path
         d="M 8.32,3.577 H 185.171 V 129.074 H 8.32 Z"
         transform="matrix(9.9999996,0,0,9.9999996,2419.9994,5389.9997)"
         id="path727" />
    </clipPath>
    <clipPath
       clipPathUnits="userSpaceOnUse"
       id="clipPath730">
      <path
         d="M 41.269,43.189 V 38.34 h 4.849 v 4.849 z"
         transform="matrix(0.84258667,0,0,-0.84258667,3068.4453,294.952)"
         id="path730" />
    </clipPath>
    <clipPath
       clipPathUnits="userSpaceOnUse"
       id="clipPath728">
      <path
         d="M 0,0 H 218 V 134 H 0 Z"
         transform="translate(3.9560717e-5)"
         id="path728" />
    </clipPath>
    <clipPath
       clipPathUnits="userSpaceOnUse"
       id="clipPath729">
      <path
         d="M 0,0 H 218 V 134 H 0 Z"
         transform="matrix(9.9999996,0,0,9.9999996,2419.9994,5389.9997)"
         id="path729" />
    </clipPath>
    <clipPath
       clipPathUnits="userSpaceOnUse"
       id="clipPath733">
      <path
         d="m 91.765,74.159 v -4.848 h 4.848 v 4.848 z"
         transform="matrix(0.84258667,0,0,-0.84258667,3068.4453,294.952)"
         id="path733" />
    </clipPath>
    <clipPath
       clipPathUnits="userSpaceOnUse"
       id="clipPath731">
      <path
         d="M 0,0 H 218 V 134 H 0 Z"
         transform="translate(3.9560717e-5)"
         id="path731" />
    </clipPath>
    <clipPath
       clipPathUnits="userSpaceOnUse"
       id="clipPath732">
      <path
         d="M 0,0 H 218 V 134 H 0 Z"
         transform="matrix(9.9999996,0,0,9.9999996,2419.9994,5389.9997)"
         id="path732" />
    </clipPath>
    <clipPath
       clipPathUnits="userSpaceOnUse"
       id="clipPath736">
      <path
         d="m 91.765,64.924 v -4.849 h 4.848 v 4.849 z"
         transform="matrix(0.84258667,0,0,-0.84258667,3068.4453,294.952)"
         id="path736" />
    </clipPath>
    <clipPath
       clipPathUnits="userSpaceOnUse"
       id="clipPath734">
      <path
         d="M 0,0 H 218 V 134 H 0 Z"
         transform="translate(3.9560717e-5)"
         id="path734" />
    </clipPath>
    <clipPath
       clipPathUnits="userSpaceOnUse"
       id="clipPath735">
      <path
         d="M 0,0 H 218 V 134 H 0 Z"
         transform="matrix(9.9999996,0,0,9.9999996,2419.9994,5389.9997)"
         id="path735" />
    </clipPath>
    <clipPath
       clipPathUnits="userSpaceOnUse"
       id="clipPath737">
      <path
         d="M 0,0 H 218 V 134 H 0 Z"
         transform="matrix(1,0,0,-1,-167.37598,73.870003)"
         id="path737" />
    </clipPath>
    <clipPath
       clipPathUnits="userSpaceOnUse"
       id="clipPath738">
      <path
         d="M 0,0 H 218 V 134 H 0 Z"
         transform="matrix(1,0,0,-1,-173.3248,77.478997)"
         id="path738" />
    </clipPath>
    <clipPath
       clipPathUnits="userSpaceOnUse"
       id="clipPath739">
      <path
         d="M 0,0 H 218 V 134 H 0 Z"
         transform="matrix(1,0,0,-1,-169.23893,108.9677)"
         id="path739" />
    </clipPath>
    <clipPath
       clipPathUnits="userSpaceOnUse"
       id="clipPath740">
      <path
         d="M 0,0 H 218 V 134 H 0 Z"
         transform="matrix(1,0,0,-1,-167.37598,106.3396)"
         id="path740" />
    </clipPath>
    <clipPath
       clipPathUnits="userSpaceOnUse"
       id="clipPath741">
      <path
         d="M 0,0 H 218 V 134 H 0 Z"
         transform="matrix(1,0,0,-1,-173.3248,109.9575)"
         id="path741" />
    </clipPath>
    <clipPath
       clipPathUnits="userSpaceOnUse"
       id="clipPath742">
      <path
         d="M 0,0 H 218 V 134 H 0 Z"
         transform="matrix(1,0,0,-1,-45.547797,31.898902)"
         id="path742" />
    </clipPath>
    <clipPath
       clipPathUnits="userSpaceOnUse"
       id="clipPath743">
      <path
         d="M 0,0 H 218 V 134 H 0 Z"
         transform="matrix(1,0,0,-1,-49.417785,31.898902)"
         id="path743" />
    </clipPath>
    <clipPath
       clipPathUnits="userSpaceOnUse"
       id="clipPath744">
      <path
         d="M 0,0 H 218 V 134 H 0 Z"
         transform="matrix(1,0,0,-1,-65.482601,35.517296)"
         id="path744" />
    </clipPath>
    <clipPath
       clipPathUnits="userSpaceOnUse"
       id="clipPath745">
      <path
         d="M 0,0 H 218 V 134 H 0 Z"
         transform="matrix(1,0,0,-1,-68.290858,31.898902)"
         id="path745" />
    </clipPath>
    <clipPath
       clipPathUnits="userSpaceOnUse"
       id="clipPath746">
      <path
         d="M 0,0 H 218 V 134 H 0 Z"
         transform="matrix(1,0,0,-1,-72.160727,31.898902)"
         id="path746" />
    </clipPath>
    <clipPath
       clipPathUnits="userSpaceOnUse"
       id="clipPath747">
      <path
         d="M 0,0 H 218 V 134 H 0 Z"
         transform="matrix(1,0,0,-1,-77.857589,31.898902)"
         id="path747" />
    </clipPath>
    <clipPath
       clipPathUnits="userSpaceOnUse"
       id="clipPath748">
      <path
         d="M 0,0 H 218 V 134 H 0 Z"
         transform="matrix(1,0,0,-1,-96.099036,53.643396)"
         id="path748" />
    </clipPath>
    <clipPath
       clipPathUnits="userSpaceOnUse"
       id="clipPath749">
      <path
         d="M 0,0 H 218 V 134 H 0 Z"
         transform="matrix(1,0,0,-1,-99.968905,53.643396)"
         id="path749" />
    </clipPath>
    <clipPath
       clipPathUnits="userSpaceOnUse"
       id="clipPath750">
      <path
         d="M 0,0 H 218 V 134 H 0 Z"
         transform="matrix(1,0,0,-1,-107.8888,53.643396)"
         id="path750" />
    </clipPath>
    <clipPath
       clipPathUnits="userSpaceOnUse"
       id="clipPath751">
      <path
         d="M 0,0 H 218 V 134 H 0 Z"
         transform="matrix(1,0,0,-1,-117.85146,53.643396)"
         id="path751" />
    </clipPath>
    <clipPath
       clipPathUnits="userSpaceOnUse"
       id="clipPath752">
      <path
         d="M 0,0 H 218 V 134 H 0 Z"
         transform="matrix(1,0,0,-1,-126.14971,53.643396)"
         id="path752" />
    </clipPath>
    <clipPath
       clipPathUnits="userSpaceOnUse"
       id="clipPath753">
      <path
         d="M 0,0 H 218 V 134 H 0 Z"
         transform="matrix(1,0,0,-1,-131.84705,52.149294)"
         id="path753" />
    </clipPath>
    <clipPath
       clipPathUnits="userSpaceOnUse"
       id="clipPath754">
      <path
         d="M 0,0 H 218 V 134 H 0 Z"
         transform="matrix(1,0,0,-1,-139.64114,53.643396)"
         id="path754" />
    </clipPath>
    <clipPath
       clipPathUnits="userSpaceOnUse"
       id="clipPath755">
      <path
         d="M 0,0 H 218 V 134 H 0 Z"
         transform="matrix(1,0,0,-1,-150.0091,57.261397)"
         id="path755" />
    </clipPath>
    <clipPath
       clipPathUnits="userSpaceOnUse"
       id="clipPath756">
      <path
         d="M 0,0 H 218 V 134 H 0 Z"
         transform="matrix(1,0,0,-1,-152.81736,53.643396)"
         id="path756" />
    </clipPath>
    <clipPath
       clipPathUnits="userSpaceOnUse"
       id="clipPath757">
      <path
         d="M 0,0 H 218 V 134 H 0 Z"
         transform="matrix(1,0,0,-1,-156.68722,53.643396)"
         id="path757" />
    </clipPath>
    <clipPath
       clipPathUnits="userSpaceOnUse"
       id="clipPath758">
      <path
         d="M 0,0 H 218 V 134 H 0 Z"
         transform="matrix(1,0,0,-1,-164.59822,53.643396)"
         id="path758" />
    </clipPath>
    <clipPath
       clipPathUnits="userSpaceOnUse"
       id="clipPath759">
      <path
         d="M 0,0 H 218 V 134 H 0 Z"
         transform="matrix(1,0,0,-1,-174.56076,53.643396)"
         id="path759" />
    </clipPath>
    <clipPath
       clipPathUnits="userSpaceOnUse"
       id="clipPath760">
      <path
         d="M 0,0 H 218 V 134 H 0 Z"
         transform="matrix(1,0,0,-1,-182.85913,53.643396)"
         id="path760" />
    </clipPath>
    <clipPath
       clipPathUnits="userSpaceOnUse"
       id="clipPath761">
      <path
         d="M 0,0 H 218 V 134 H 0 Z"
         transform="matrix(1,0,0,-1,-188.55587,52.149294)"
         id="path761" />
    </clipPath>
    <clipPath
       clipPathUnits="userSpaceOnUse"
       id="clipPath762">
      <path
         d="M 0,0 H 218 V 134 H 0 Z"
         transform="matrix(1,0,0,-1,-196.35009,53.643396)"
         id="path762" />
    </clipPath>
  </defs>
  <g
     inkscape:label="Layer 1"
     inkscape:groupmode="layer"
     id="layer1"
     transform="translate(-27.516649,-80.436299)">
    <path
       d="m 2503.2,5426.1 17.81,32.98 17.81,30.01 17.81,28.04 17.81,25.73 17.81,23.74 17.81,22.43 18.14,20.78 17.81,19.46 17.81,18.47 17.81,17.48 17.81,16.49 17.81,15.83 17.81,14.84 18.14,14.19 17.82,13.52 17.8,12.86 17.81,12.53 17.82,11.88 17.8,11.54 18.14,10.89 17.82,10.88 17.81,10.22 17.81,9.9 17.81,9.89 17.81,9.24 17.81,9.24 18.14,8.9 17.81,8.58 17.81,8.24 17.81,8.25 17.81,7.91 17.81,7.92 18.14,7.58 17.81,7.26 17.81,7.25 17.81,7.26 17.81,6.93 17.81,6.92 17.81,6.6 18.14,6.93 17.81,6.26 17.81,6.6 17.81,6.27 17.82,5.93 17.8,6.27 17.82,5.94 18.14,5.93 17.81,5.94 17.81,5.61 17.81,5.61 17.81,5.6 17.81,5.61 18.14,5.61 17.81,5.27 17.81,5.28 17.81,5.61 17.81,4.95 17.81,5.27 17.81,5.28 18.14,4.95 17.81,4.95 17.81,4.94 17.81,4.95 17.81,4.95 17.81,4.94 18.14,4.95 17.81,4.62 17.82,4.61 17.8,4.95 17.82,4.62 17.81,4.62 17.81,4.62 18.14,4.61 17.81,4.29 17.81,4.62 17.81,4.62 17.81,4.28 17.81,4.62 17.81,4.29 18.14,4.29 17.81,4.29 17.81,4.28 17.81,4.29 17.81,4.29 17.81,4.28 18.14,4.29 17.81,4.29 17.81,4.29 17.81,3.95 17.81,4.29 17.81,3.96 17.81,4.29 18.14,3.96 17.82,4.29 17.8,3.95 17.82,3.96 17.81,4.29 17.81,3.96 18.14,3.95"
       style="fill:none;stroke:#000000;stroke-width:1.97894;stroke-linecap:butt;stroke-linejoin:round;stroke-miterlimit:10;stroke-dasharray:none;stroke-opacity:1"
       transform="matrix(0.02229344,0,0,-0.02229344,-28.288277,229.03602)"
       clip-path="url(#clipPath725)"
       id="path832" />
    <path
       d="m 2503.2,5581.11 17.81,10.89 17.81,10.88 17.81,10.89 17.81,10.88 17.81,11.22 17.81,10.88 18.14,10.88 17.81,10.89 17.81,10.88 17.81,11.22 17.81,10.88 17.81,10.88 17.81,10.89 18.14,10.88 17.82,11.22 17.8,10.88 17.81,10.88 17.82,10.89 17.8,10.88 18.14,10.89 17.82,11.21 17.81,10.89 17.81,10.88 17.81,10.88 17.81,10.89 17.81,11.21 18.14,10.89 17.81,10.88 17.81,10.88 17.81,10.89 17.81,11.21 17.81,10.89 18.14,10.88 17.81,10.89 17.81,10.88 17.81,11.21 17.81,10.89 17.81,10.88 17.81,10.89 18.14,10.88 17.81,11.21 17.81,10.89 17.81,10.88 17.82,10.89 17.8,10.88 17.82,10.89 18.14,11.21 17.81,10.88 17.81,10.89 17.81,10.88 17.81,10.89 17.81,11.21 18.14,10.88 17.81,10.89 17.81,10.88 17.81,10.89 17.81,11.21 17.81,10.88 17.81,10.89 18.14,10.88 17.81,10.89 17.81,11.21 17.81,10.88 17.81,10.89 17.81,10.88 18.14,10.89 17.81,11.21 17.82,10.88 17.8,10.89 17.82,10.88 17.81,10.89 17.81,11.21 18.14,10.88 17.81,10.89 17.81,10.88 17.81,10.89 17.81,10.88 17.81,11.22 17.81,10.88 18.14,10.88 17.81,10.89 17.81,10.88 17.81,11.22 17.81,10.88 17.81,10.88 18.14,10.89 17.81,10.88 17.81,11.22 17.81,10.88 17.81,10.89 17.81,10.88 17.81,10.88 18.14,11.22 17.82,10.88 17.8,10.89 17.82,10.88 17.81,10.88 17.81,11.22 18.14,10.88"
       style="fill:none;stroke:#000000;stroke-width:1.97894;stroke-linecap:butt;stroke-linejoin:round;stroke-miterlimit:10;stroke-dasharray:23.7472;stroke-dashoffset:0;stroke-opacity:1"
       transform="matrix(0.02229344,0,0,-0.02229344,-28.288277,229.03602)"
       clip-path="url(#clipPath726)"
       id="path833" />
    <path
       d="M 2503.2,6107.51 H 4271.38"
       style="fill:none;stroke:#000000;stroke-width:1.97894;stroke-linecap:butt;stroke-linejoin:round;stroke-miterlimit:10;stroke-dasharray:none;stroke-opacity:1"
       transform="matrix(0.02229344,0,0,-0.02229344,-28.288277,229.03602)"
       clip-path="url(#clipPath727)"
       id="path834" />
    <g
       clip-path="url(#clipPath730)"
       id="g836"
       transform="matrix(0.26458333,0,0,0.26458333,-786.19765,30.835002)">
      <path
         d="m 44.864,40.781 c 0,-0.656 -0.532,-1.188 -1.187,-1.188 -0.656,0 -1.188,0.532 -1.188,1.188 0,0.655 0.532,1.187 1.188,1.187 0.655,0 1.187,-0.532 1.187,-1.187"
         style="fill:#000000;fill-opacity:1;fill-rule:nonzero;stroke:none"
         transform="matrix(0.84258667,0,0,-0.84258667,3068.4453,294.952)"
         clip-path="url(#clipPath728)"
         id="path835" />
      <path
         d="m 2868.64,5797.81 c 0,-6.56 -5.32,-11.88 -11.87,-11.88 -6.56,0 -11.88,5.32 -11.88,11.88 0,6.55 5.32,11.87 11.88,11.87 6.55,0 11.87,-5.32 11.87,-11.87"
         style="fill:none;stroke:#000000;stroke-width:1.97894;stroke-linecap:butt;stroke-linejoin:round;stroke-miterlimit:10;stroke-dasharray:none;stroke-opacity:1"
         transform="matrix(0.08425867,0,0,-0.08425867,2864.5394,749.10621)"
         clip-path="url(#clipPath729)"
         id="path836" />
    </g>
    <g
       clip-path="url(#clipPath733)"
       id="g838"
       transform="matrix(0.26458333,0,0,0.26458333,-786.19765,30.835002)">
      <path
         d="m 95.36,71.751 c 0,-0.655 -0.532,-1.187 -1.187,-1.187 -0.656,0 -1.188,0.532 -1.188,1.187 0,0.656 0.532,1.188 1.188,1.188 0.655,0 1.187,-0.532 1.187,-1.188"
         style="fill:#000000;fill-opacity:1;fill-rule:nonzero;stroke:none"
         transform="matrix(0.84258667,0,0,-0.84258667,3068.4453,294.952)"
         clip-path="url(#clipPath731)"
         id="path837" />
      <path
         d="m 3373.6,6107.51 c 0,-6.55 -5.32,-11.87 -11.87,-11.87 -6.56,0 -11.88,5.32 -11.88,11.87 0,6.56 5.32,11.88 11.88,11.88 6.55,0 11.87,-5.32 11.87,-11.88"
         style="fill:none;stroke:#000000;stroke-width:1.97894;stroke-linecap:butt;stroke-linejoin:round;stroke-miterlimit:10;stroke-dasharray:none;stroke-opacity:1"
         transform="matrix(0.08425867,0,0,-0.08425867,2864.5394,749.10621)"
         clip-path="url(#clipPath732)"
         id="path838" />
    </g>
    <g
       clip-path="url(#clipPath736)"
       id="g840"
       transform="matrix(0.26458333,0,0,0.26458333,-786.19765,30.835002)">
      <path
         d="m 95.36,62.516 c 0,-0.655 -0.532,-1.187 -1.187,-1.187 -0.656,0 -1.188,0.532 -1.188,1.187 0,0.655 0.532,1.188 1.188,1.188 0.655,0 1.187,-0.533 1.187,-1.188"
         style="fill:#000000;fill-opacity:1;fill-rule:nonzero;stroke:none"
         transform="matrix(0.84258667,0,0,-0.84258667,3068.4453,294.952)"
         clip-path="url(#clipPath734)"
         id="path839" />
      <path
         d="m 3373.6,6015.16 c 0,-6.55 -5.32,-11.87 -11.87,-11.87 -6.56,0 -11.88,5.32 -11.88,11.87 0,6.55 5.32,11.88 11.88,11.88 6.55,0 11.87,-5.33 11.87,-11.88"
         style="fill:none;stroke:#000000;stroke-width:1.97894;stroke-linecap:butt;stroke-linejoin:round;stroke-miterlimit:10;stroke-dasharray:none;stroke-opacity:1"
         transform="matrix(0.08425867,0,0,-0.08425867,2864.5394,749.10621)"
         clip-path="url(#clipPath735)"
         id="path840" />
    </g>
    <path
       d="m 3.6518196,-3.9860118 h 0.853028 c 0.2039849,0 0.2967054,0 0.2967054,-0.203985 0,-0.09272 -0.092721,-0.09272 -0.2596173,-0.09272 H 3.7074519 l 0.222529,-1.1497334 c 0.037088,-0.2039849 0.1668968,-0.9086602 0.222529,-1.0384688 0.09272,-0.1854409 0.2596172,-0.3337936 0.4821463,-0.3337936 0.037088,0 0.2967054,0 0.4821462,0.1854409 -0.4450581,0.037088 -0.5377785,0.3894258 -0.5377785,0.5377785 0,0.222529 0.1854409,0.3523376 0.3708817,0.3523376 0.2596173,0 0.5377786,-0.222529 0.5377786,-0.6119548 0,-0.4450581 -0.4450581,-0.6861312 -0.853028,-0.6861312 -0.3523377,0 -0.9642925,0.1854408 -1.2609979,1.1682774 -0.074176,0.2225291 -0.09272,0.3152495 -0.3337936,1.5762474 H 2.3537335 c -0.1854408,0 -0.2967053,0 -0.2967053,0.1854408 0,0.1112646 0.074176,0.1112646 0.2781613,0.1112646 h 0.649043 L 2.242469,-0.05466551 C 2.0570282,0.90962698 1.8901314,1.8182872 1.370897,1.8182872 c -0.037088,0 -0.2781613,0 -0.48214629,-0.1668968 C 1.3523529,1.6143023 1.4450733,1.2619646 1.4450733,1.1136119 c 0,-0.24107309 -0.1854409,-0.35233761 -0.3708817,-0.35233761 -0.25961724,0 -0.55632262,0.22252904 -0.55632262,0.59341081 0,0.445058 0.44505807,0.6861312 0.85302802,0.6861312 0.5563226,0 0.9457484,-0.5934108 1.1311892,-0.9642925 0.3152495,-0.63049898 0.5377785,-1.8358646 0.5563226,-1.91004095 z m 0,0"
       style="fill:#000000;fill-opacity:1;fill-rule:nonzero;stroke:none"
       aria-label="f"
       transform="matrix(0.22293439,0,0,0.22293439,62.975695,92.40622)"
       clip-path="url(#clipPath737)"
       id="path841" />
    <path
       d="m 2.0191557,-3.2837974 c 0.055632,-0.1298086 0.055632,-0.1854409 0.055632,-0.2410731 0,-0.203985 -0.1854409,-0.3708818 -0.4079699,-0.3708818 -0.2596172,0 -0.3523377,0.203985 -0.3708818,0.3152495 l -0.92720428,3.02268611 c 0,0.0185441 -0.0370882,0.11126452 -0.0370882,0.11126452 0,0.0927204 0.22252904,0.16689678 0.27816129,0.16689678 0.0370882,0 0.0556323,-0.0185441 0.0927204,-0.12980861 z m 0,0"
       style="fill:#000000;fill-opacity:1;fill-rule:nonzero;stroke:none"
       aria-label="′"
       transform="matrix(0.22293439,0,0,0.22293439,64.301892,91.601652)"
       clip-path="url(#clipPath738)"
       id="path842" />
    <path
       d="m 2.7624841,-6.8248767 2.7074367,1.2239097 0.1112645,-0.2225291 -2.8187012,-1.5947914 -2.81870111,1.5947914 0.11126452,0.2225291 z m 0,0"
       style="fill:#000000;fill-opacity:1;fill-rule:nonzero;stroke:none"
       aria-label="!"
       transform="matrix(0.22293439,0,0,0.22293439,63.391011,84.581737)"
       clip-path="url(#clipPath739)"
       id="path843" />
    <path
       d="m 3.6518196,-3.9871072 h 0.853028 c 0.2039849,0 0.2967054,0 0.2967054,-0.203985 0,-0.09272 -0.092721,-0.09272 -0.2596173,-0.09272 H 3.7074519 l 0.222529,-1.1497334 c 0.037088,-0.2039849 0.1668968,-0.9086602 0.222529,-1.0384688 0.09272,-0.1854409 0.2596172,-0.3337936 0.4821463,-0.3337936 0.037088,0 0.2967054,0 0.4821462,0.1854409 -0.4450581,0.037088 -0.5377785,0.3894258 -0.5377785,0.5377785 0,0.222529 0.1854409,0.3523376 0.3708817,0.3523376 0.2596173,0 0.5377786,-0.222529 0.5377786,-0.6119548 0,-0.4450581 -0.4450581,-0.6861312 -0.853028,-0.6861312 -0.3523377,0 -0.9642925,0.1854408 -1.2609979,1.1682774 -0.074176,0.2225291 -0.09272,0.3152495 -0.3337936,1.5762474 H 2.3537335 c -0.1854408,0 -0.2967053,0 -0.2967053,0.1854408 0,0.1112646 0.074176,0.1112646 0.2781613,0.1112646 h 0.649043 L 2.242469,-0.05576091 C 2.0570282,0.90853158 1.8901314,1.8171918 1.370897,1.8171918 c -0.037088,0 -0.2781613,0 -0.48214629,-0.1668968 C 1.3523529,1.6132069 1.4450733,1.2608692 1.4450733,1.1125165 c 0,-0.24107309 -0.1854409,-0.35233761 -0.3708817,-0.35233761 -0.25961724,0 -0.55632262,0.22252904 -0.55632262,0.59341081 0,0.445058 0.44505807,0.6861312 0.85302802,0.6861312 0.5563226,0 0.9457484,-0.5934108 1.1311892,-0.9642925 0.3152495,-0.63049898 0.5377785,-1.8358646 0.5563226,-1.91004094 z m 0,0"
       style="fill:#000000;fill-opacity:1;fill-rule:nonzero;stroke:none"
       aria-label="f"
       transform="matrix(0.22293439,0,0,0.22293439,62.975695,85.167631)"
       clip-path="url(#clipPath740)"
       id="path844" />
    <path
       d="m 2.0191557,-3.2806288 c 0.055632,-0.1298086 0.055632,-0.1854409 0.055632,-0.2410731 0,-0.203985 -0.1854409,-0.3708818 -0.4079699,-0.3708818 -0.2596172,0 -0.3523377,0.203985 -0.3708818,0.3152495 l -0.92720428,3.02268609 c 0,0.0185441 -0.0370882,0.11126452 -0.0370882,0.11126452 0,0.0927204 0.22252904,0.16689678 0.27816129,0.16689678 0.0370882,0 0.0556323,-0.0185441 0.0927204,-0.12980861 z m 0,0"
       style="fill:#000000;fill-opacity:1;fill-rule:nonzero;stroke:none"
       aria-label="′"
       transform="matrix(0.22293439,0,0,0.22293439,64.301892,84.361077)"
       clip-path="url(#clipPath741)"
       id="path845" />
    <path
       d="m 3.3023059,2.3919576 c 0,-0.037088 0,-0.055632 -0.1668968,-0.222529 -1.2609978,-1.26099793 -1.5762473,-3.13395066 -1.5762473,-4.6545658 0,-1.7431441 0.3894258,-3.4677441 1.6133355,-4.7101979 0.1298086,-0.1298086 0.1298086,-0.1483527 0.1298086,-0.1668968 0,-0.074176 -0.037088,-0.1112645 -0.1112645,-0.1112645 -0.09272,0 -0.9828366,0.6861312 -1.5762473,1.9471291 -0.5006904,1.0941011 -0.63049898,2.2067463 -0.63049898,3.0412301 0,0.7788517 0.11126448,1.9842173 0.66758708,3.09686249 C 2.245293,1.835635 3.098321,2.484678 3.1910414,2.484678 c 0.074176,0 0.1112645,-0.018544 0.1112645,-0.09272 z m 0,0"
       style="fill:#000000;fill-opacity:1;fill-rule:nonzero;stroke:none"
       aria-label="("
       transform="matrix(0.22293439,0,0,0.22293439,35.816004,101.76302)"
       clip-path="url(#clipPath742)"
       id="path846" />
    <path
       d="m 3.317292,-3.0043716 c 0.074176,-0.2596172 0.2967054,-1.1868215 1.0013807,-1.1868215 0.037088,0 0.2781613,0 0.4821463,0.1298086 -0.2781613,0.055632 -0.4636022,0.3152495 -0.4636022,0.5377785 0,0.1668968 0.1112645,0.3523376 0.3708817,0.3523376 0.2225291,0 0.5377785,-0.1668967 0.5377785,-0.5748666 0,-0.5192345 -0.5934107,-0.6490431 -0.9272043,-0.6490431 -0.5748667,0 -0.9272043,0.5192345 -1.0384688,0.7417635 -0.2596172,-0.649043 -0.7973958,-0.7417635 -1.075557,-0.7417635 -1.0384689,0 -1.61333557,1.279542 -1.61333557,1.5206151 0,0.1112646 0.11126452,0.1112646 0.1298086,0.1112646 0.0741764,0 0.11126452,-0.018544 0.12980861,-0.1112646 0.33379356,-1.0570129 0.98283656,-1.3166301 1.33517426,-1.3166301 0.1854408,0 0.5377785,0.09272 0.5377785,0.6675871 0,0.3152495 -0.1854409,0.9828366 -0.5377785,2.3736431 -0.1668968,0.63049891 -0.5192345,1.03846882 -0.9457484,1.03846882 -0.074176,0 -0.29670543,0 -0.50069038,-0.12980861 0.24107312,-0.0556323 0.46360218,-0.25961721 0.46360218,-0.53777851 0,-0.2596172 -0.22252906,-0.3523376 -0.37088175,-0.3523376 -0.29670538,0 -0.53777851,0.25961717 -0.53777851,0.57486664 0,0.46360216 0.48214625,0.66758711 0.92720436,0.66758711 0.649043,0 1.0199247,-0.70467528 1.0384688,-0.76030754 0.1298086,0.37088173 0.4821463,0.76030754 1.075557,0.76030754 1.0384689,0 1.5947915,-1.27954195 1.5947915,-1.53915915 0,-0.09272 -0.074176,-0.09272 -0.1112646,-0.09272 -0.09272,0 -0.1112645,0.037088 -0.1298086,0.1112646 -0.3337935,1.05701289 -1.0013806,1.29808602 -1.3166301,1.29808602 -0.3894258,0 -0.5563226,-0.31524947 -0.5563226,-0.64904303 0,-0.22252904 0.055632,-0.44505809 0.1668968,-0.89011619 z m 4.3995846,2.98559795 c 0,-0.64904303 -0.2410732,-1.03846885 -0.630499,-1.03846885 -0.3337935,0 -0.5377785,0.25961722 -0.5377785,0.53777851 0,0.25961721 0.203985,0.51923442469 0.5377785,0.51923442469 0.1112645,0 0.2410731,-0.0370881747 0.3337936,-0.12980860469 0.037088,-0.0185441 0.055632,-0.0370882 0.055632,-0.0370882 0.018544,0 0.018544,0.0185441 0.018544,0.14835269 0,0.74176346 -0.3523376,1.33517428 -0.6675871,1.66896778 -0.1112645,0.1112645 -0.1112645,0.1298086 -0.1112645,0.1668968 0,0.055632 0.037088,0.1112645 0.09272,0.1112645 0.1112645,0 0.9086603,-0.7788516 0.908661,-1.94712905 z M 13.771521,-3.9872082 h 0.853028 c 0.203985,0 0.296705,0 0.296705,-0.2039849 0,-0.09272 -0.09272,-0.09272 -0.259617,-0.09272 h -0.834484 l 0.222529,-1.1497334 c 0.03709,-0.203985 0.166897,-0.9086602 0.222529,-1.0384688 0.09272,-0.1854409 0.259617,-0.3337936 0.482146,-0.3337936 0.03709,0 0.296706,0 0.482147,0.1854409 -0.445058,0.037088 -0.537779,0.3894258 -0.537779,0.5377785 0,0.222529 0.185441,0.3523376 0.370882,0.3523376 0.259617,0 0.537778,-0.222529 0.537778,-0.6119548 0,-0.4450581 -0.445058,-0.6861312 -0.853028,-0.6861312 -0.352337,0 -0.964292,0.1854408 -1.260998,1.1682774 -0.07418,0.222529 -0.09272,0.3152495 -0.333793,1.5762474 h -0.686131 c -0.185441,0 -0.296706,0 -0.296706,0.1854408 0,0.1112645 0.07418,0.1112645 0.278162,0.1112645 h 0.649043 l -0.741764,3.93134638 c -0.185441,0.96429249 -0.352337,1.87295272 -0.871572,1.87295272 -0.03709,0 -0.278161,0 -0.482146,-0.1668968 0.463602,-0.037088 0.556322,-0.3894258 0.556322,-0.5377785 0,-0.2410731 -0.18544,-0.35233762 -0.370881,-0.35233762 -0.259617,0 -0.556323,0.22252904 -0.556323,0.59341072 0,0.4450581 0.445058,0.6861312 0.853028,0.6861312 0.556323,0 0.945749,-0.5934107 1.131189,-0.9642925 0.31525,-0.63049889 0.537779,-1.83586451 0.556323,-1.91004086 z m 0,0"
       style="fill:#000000;fill-opacity:1;fill-rule:nonzero;stroke:none"
       aria-label="x,f"
       transform="matrix(0.22293439,0,0,0.22293439,36.678758,101.76302)"
       clip-path="url(#clipPath743)"
       id="path847" />
    <path
       d="m 2.0228569,-3.2802297 c 0.055632,-0.1298086 0.055632,-0.1854409 0.055632,-0.2410732 0,-0.2039849 -0.1854409,-0.3708817 -0.4079699,-0.3708817 -0.2596172,0 -0.3523377,0.203985 -0.3708818,0.3152495 l -0.92720429,3.02268608 c 0,0.0185441 -0.0370882,0.11126452 -0.0370882,0.11126452 0,0.0927204 0.22252904,0.16689678 0.2781613,0.16689678 0.0370882,0 0.0556322,-0.0185441 0.0927204,-0.12980861 z m 0,0"
       style="fill:#000000;fill-opacity:1;fill-rule:nonzero;stroke:none"
       aria-label="′"
       transform="matrix(0.22293439,0,0,0.22293439,40.260158,100.95636)"
       clip-path="url(#clipPath744)"
       id="path848" />
    <path
       d="m 3.298992,2.3919576 c 0,-0.037088 0,-0.055632 -0.1668968,-0.222529 -1.2609979,-1.26099793 -1.5762474,-3.13395066 -1.5762474,-4.6545658 0,-1.7431441 0.3894258,-3.4677441 1.6133355,-4.7101979 0.1298087,-0.1298086 0.1298087,-0.1483527 0.1298087,-0.1668968 0,-0.074176 -0.037088,-0.1112645 -0.1112646,-0.1112645 -0.09272,0 -0.9828366,0.6861312 -1.5762473,1.9471291 -0.5006904,1.0941011 -0.63049896,2.2067463 -0.63049896,3.0412301 0,0.7788517 0.11126456,1.9842173 0.66758716,3.09686249 C 2.241979,1.835635 3.095007,2.484678 3.1877274,2.484678 c 0.074176,0 0.1112646,-0.018544 0.1112646,-0.09272 z m 0,0"
       style="fill:#000000;fill-opacity:1;fill-rule:nonzero;stroke:none"
       aria-label="("
       transform="matrix(0.22293439,0,0,0.22293439,40.886215,101.76302)"
       clip-path="url(#clipPath745)"
       id="path849" />
    <path
       d="m 3.3187141,-3.0043716 c 0.074176,-0.2596172 0.2967054,-1.1868215 1.0013807,-1.1868215 0.037088,0 0.2781613,0 0.4821462,0.1298086 -0.2781613,0.055632 -0.4636022,0.3152495 -0.4636022,0.5377785 0,0.1668968 0.1112646,0.3523376 0.3708818,0.3523376 0.222529,0 0.5377785,-0.1668967 0.5377785,-0.5748666 0,-0.5192345 -0.5934108,-0.6490431 -0.9272043,-0.6490431 -0.5748667,0 -0.9272044,0.5192345 -1.0384689,0.7417635 -0.2596172,-0.649043 -0.7973957,-0.7417635 -1.075557,-0.7417635 -1.0384688,0 -1.61333552,1.279542 -1.61333552,1.5206151 0,0.1112646 0.11126451,0.1112646 0.1298086,0.1112646 0.0741764,0 0.11126452,-0.018544 0.12980861,-0.1112646 0.33379351,-1.0570129 0.98283661,-1.3166301 1.33517421,-1.3166301 0.1854409,0 0.5377785,0.09272 0.5377785,0.6675871 0,0.3152495 -0.1854408,0.9828366 -0.5377785,2.3736431 -0.1668968,0.63049891 -0.5192344,1.03846882 -0.9457484,1.03846882 -0.074176,0 -0.29670538,0 -0.50069033,-0.12980861 0.24107312,-0.0556323 0.46360213,-0.25961721 0.46360213,-0.53777851 0,-0.2596172 -0.22252901,-0.3523376 -0.3708817,-0.3523376 -0.29670538,0 -0.53777851,0.25961717 -0.53777851,0.57486664 0,0.46360216 0.48214625,0.66758711 0.92720431,0.66758711 0.649043,0 1.0199248,-0.70467528 1.0384689,-0.76030754 0.1298086,0.37088173 0.4821462,0.76030754 1.075557,0.76030754 1.0384688,0 1.5947914,-1.27954195 1.5947914,-1.53915915 0,-0.09272 -0.074176,-0.09272 -0.1112645,-0.09272 -0.09272,0 -0.1112645,0.037088 -0.1298086,0.1112646 -0.3337936,1.05701289 -1.0013807,1.29808602 -1.3166302,1.29808602 -0.3894258,0 -0.5563225,-0.31524947 -0.5563225,-0.64904303 0,-0.22252904 0.055632,-0.44505809 0.1668967,-0.89011619 z m 0,0"
       style="fill:#000000;fill-opacity:1;fill-rule:nonzero;stroke:none"
       aria-label="x"
       transform="matrix(0.22293439,0,0,0.22293439,41.748942,101.76302)"
       clip-path="url(#clipPath746)"
       id="path850" />
    <path
       d="m 2.8744266,-2.4851372 c 0,-0.7788516 -0.1112645,-1.9842172 -0.649043,-3.1154065 -0.5934108,-1.2239097 -1.46498288,-1.8729527 -1.55770331,-1.8729527 -0.0556323,0 -0.0927204,0.037088 -0.0927204,0.1112645 0,0.018544 0,0.037088 0.18544086,0.222529 0.96429245,0.9828366 1.53915915,2.5776281 1.53915915,4.6545657 0,1.706056 -0.3708817,3.44920013 -1.59479141,4.710198 -0.1298086,0.1112645 -0.1298086,0.1298086 -0.1298086,0.1668968 0,0.055632 0.0370882,0.09272 0.0927204,0.09272 0.0927204,0 1.00138071,-0.6675871 1.57624731,-1.92858497 0.5192345,-1.11264519 0.630499,-2.20674633 0.630499,-3.04122983 z m 3.871078,0 c 0,-0.7788516 -0.1112645,-1.9842172 -0.649043,-3.1154065 -0.5934108,-1.2239097 -1.4649828,-1.8729527 -1.5577033,-1.8729527 -0.055632,0 -0.09272,0.037088 -0.09272,0.1112645 0,0.018544 0,0.037088 0.1854409,0.222529 0.9642925,0.9828366 1.5391591,2.5776281 1.5391591,4.6545657 0,1.706056 -0.3708817,3.44920013 -1.5947914,4.710198 -0.1298086,0.1112645 -0.1298086,0.1298086 -0.1298086,0.1668968 0,0.055632 0.037088,0.09272 0.09272,0.09272 0.092721,0 1.0013807,-0.6675871 1.5762474,-1.92858497 0.5192344,-1.11264519 0.6304989,-2.20674633 0.6304989,-3.04122983 z m 0,0"
       style="fill:#000000;fill-opacity:1;fill-rule:nonzero;stroke:none"
       aria-label="))"
       transform="matrix(0.22293439,0,0,0.22293439,43.018968,101.76302)"
       clip-path="url(#clipPath747)"
       id="path851" />
    <path
       d="m 3.3022856,2.3935162 c 0,-0.037088 0,-0.055632 -0.1668968,-0.222529 C 1.874391,0.90998929 1.5591415,-0.96296344 1.5591415,-2.4835785 c 0,-1.7431442 0.3894258,-3.4677442 1.6133355,-4.710198 0.1298086,-0.1298086 0.1298086,-0.1483527 0.1298086,-0.1668968 0,-0.074176 -0.037088,-0.1112645 -0.1112645,-0.1112645 -0.09272,0 -0.9828366,0.6861312 -1.5762473,1.9471291 -0.5006904,1.0941011 -0.63049898,2.2067463 -0.63049898,3.0412302 0,0.7788516 0.11126448,1.98421722 0.66758708,3.09686241 0.5934108,1.22390969 1.4464388,1.87295269 1.5391592,1.87295269 0.074176,0 0.1112645,-0.018544 0.1112645,-0.09272 z m 0,0"
       style="fill:#000000;fill-opacity:1;fill-rule:nonzero;stroke:none"
       aria-label="("
       transform="matrix(0.22293439,0,0,0.22293439,47.085614,96.915427)"
       clip-path="url(#clipPath748)"
       id="path852" />
    <path
       d="m 3.3173717,-3.002813 c 0.074176,-0.2596172 0.2967054,-1.1868215 1.0013807,-1.1868215 0.037088,0 0.2781613,0 0.4821463,0.1298086 -0.2781613,0.055632 -0.4636022,0.3152495 -0.4636022,0.5377785 0,0.1668968 0.1112645,0.3523377 0.3708817,0.3523377 0.2225291,0 0.5377785,-0.1668968 0.5377785,-0.5748667 0,-0.5192344 -0.5934107,-0.649043 -0.9272043,-0.649043 -0.5748667,0 -0.9272043,0.5192344 -1.0384688,0.7417634 -0.2596172,-0.649043 -0.7973958,-0.7417634 -1.075557,-0.7417634 -1.0384689,0 -1.61333557,1.2795419 -1.61333557,1.5206151 0,0.1112645 0.11126452,0.1112645 0.1298086,0.1112645 0.0741764,0 0.11126452,-0.018544 0.12980861,-0.1112645 0.33379356,-1.057013 0.98283656,-1.3166302 1.33517426,-1.3166302 0.1854408,0 0.5377785,0.09272 0.5377785,0.6675871 0,0.3152495 -0.1854409,0.9828366 -0.5377785,2.3736431 -0.1668968,0.63049893 -0.5192345,1.03846884 -0.9457484,1.03846884 -0.074176,0 -0.29670543,0 -0.50069038,-0.12980861 0.24107312,-0.0556323 0.46360218,-0.25961721 0.46360218,-0.53777851 0,-0.25961722 -0.22252906,-0.35233762 -0.37088175,-0.35233762 -0.29670538,0 -0.53777851,0.25961719 -0.53777851,0.57486666 0,0.46360216 0.48214625,0.66758711 0.92720436,0.66758711 0.649043,0 1.0199247,-0.70467528 1.0384688,-0.76030754 0.1298086,0.37088173 0.4821463,0.76030754 1.075557,0.76030754 1.0384689,0 1.5947915,-1.27954197 1.5947915,-1.53915917 0,-0.09272 -0.074176,-0.09272 -0.1112646,-0.09272 -0.09272,0 -0.1112645,0.037088 -0.1298086,0.1112645 -0.3337935,1.05701291 -1.0013806,1.29808604 -1.3166301,1.29808604 -0.3894258,0 -0.5563226,-0.31524947 -0.5563226,-0.64904303 0,-0.22252904 0.055632,-0.44505811 0.1668968,-0.89011611 z m 0,0"
       style="fill:#000000;fill-opacity:1;fill-rule:nonzero;stroke:none"
       aria-label="x"
       transform="matrix(0.22293439,0,0,0.22293439,47.948341,96.915427)"
       clip-path="url(#clipPath749)"
       id="path853" />
    <path
       d="m 4.0807402,-2.2981377 h 2.7630689 c 0.1483527,0 0.3337936,0 0.3337936,-0.1854408 0,-0.203985 -0.1854409,-0.203985 -0.3337936,-0.203985 H 4.0807402 v -2.781613 c 0,-0.1483526 0,-0.3337935 -0.2039849,-0.3337935 -0.203985,0 -0.203985,0.1854409 -0.203985,0.3337935 v 2.781613 H 0.89115735 c -0.14835269,0 -0.33379355,0 -0.33379355,0.203985 0,0.1854408 0.18544086,0.1854408 0.33379355,0.1854408 H 3.6727703 v 2.80015709 c 0,0.12980861 0,0.33379356 0.203985,0.33379356 0.2039849,0 0.2039849,-0.20398495 0.2039849,-0.33379356 z m 0,0"
       style="fill:#000000;fill-opacity:1;fill-rule:nonzero;stroke:none"
       aria-label="+"
       transform="matrix(0.22293439,0,0,0.22293439,49.713958,96.915427)"
       clip-path="url(#clipPath750)"
       id="path854" />
    <path
       d="m 4.3962001,-6.9527034 c -0.055632,-0.1298086 -0.074176,-0.1668967 -0.2596172,-0.1668967 -0.1668967,0 -0.1854408,0.037088 -0.2596172,0.1668967 l -3.35647962,6.7500475 c -0.0556323,0.0927204 -0.0556323,0.11126452 -0.0556323,0.12980861 0,0.07417635 0.0556323,0.07417635 0.22252904,0.07417635 H 7.6043271 c 0.1483527,0 0.222529,0 0.222529,-0.07417635 0,-0.01854409 0,-0.03708817 -0.055632,-0.12980861 z M 3.8213335,-6.1367636 6.510226,-0.75897849 H 1.1324409 Z m 0,0"
       style="fill:#000000;fill-opacity:1;fill-rule:nonzero;stroke:none"
       aria-label="∆"
       transform="matrix(0.22293439,0,0,0.22293439,51.934977,96.915427)"
       clip-path="url(#clipPath751)"
       id="path855" />
    <path
       d="m 3.3208218,-3.002813 c 0.074176,-0.2596172 0.2967054,-1.1868215 1.0013807,-1.1868215 0.037088,0 0.2781613,0 0.4821462,0.1298086 -0.2781613,0.055632 -0.4636021,0.3152495 -0.4636021,0.5377785 0,0.1668968 0.1112645,0.3523377 0.3708817,0.3523377 0.222529,0 0.5377785,-0.1668968 0.5377785,-0.5748667 0,-0.5192344 -0.5934107,-0.649043 -0.9272043,-0.649043 -0.5748667,0 -0.9272043,0.5192344 -1.0384688,0.7417634 -0.2596173,-0.649043 -0.7973958,-0.7417634 -1.0755571,-0.7417634 -1.0384688,0 -1.61333548,1.2795419 -1.61333548,1.5206151 0,0.1112645 0.11126451,0.1112645 0.1298086,0.1112645 0.0741764,0 0.11126452,-0.018544 0.12980861,-0.1112645 0.33379357,-1.057013 0.98283657,-1.3166302 1.33517427,-1.3166302 0.1854408,0 0.5377785,0.09272 0.5377785,0.6675871 0,0.3152495 -0.1854409,0.9828366 -0.5377785,2.3736431 -0.1668968,0.63049893 -0.5192345,1.03846884 -0.9457485,1.03846884 -0.074176,0 -0.29670534,0 -0.50069029,-0.12980861 0.24107312,-0.0556323 0.46360219,-0.25961721 0.46360219,-0.53777851 0,-0.25961722 -0.22252907,-0.35233762 -0.37088176,-0.35233762 -0.29670538,0 -0.53777851,0.25961719 -0.53777851,0.57486666 0,0.46360216 0.48214625,0.66758711 0.92720437,0.66758711 0.649043,0 1.0199247,-0.70467528 1.0384688,-0.76030754 0.1298086,0.37088173 0.4821462,0.76030754 1.075557,0.76030754 1.0384689,0 1.5947914,-1.27954197 1.5947914,-1.53915917 0,-0.09272 -0.074176,-0.09272 -0.1112645,-0.09272 -0.09272,0 -0.1112645,0.037088 -0.1298086,0.1112645 -0.3337935,1.05701291 -1.0013806,1.29808604 -1.3166301,1.29808604 -0.3894258,0 -0.5563226,-0.31524947 -0.5563226,-0.64904303 0,-0.22252904 0.055632,-0.44505811 0.1668968,-0.89011611 z m 0,0"
       style="fill:#000000;fill-opacity:1;fill-rule:nonzero;stroke:none"
       aria-label="x"
       transform="matrix(0.22293439,0,0,0.22293439,53.784943,96.915427)"
       clip-path="url(#clipPath752)"
       id="path856" />
    <path
       d="m 3.5993537,-2.1139978 c 0,-0.6119549 -0.3152495,-0.9642925 -1.0570129,-0.9642925 -0.5748667,0 -0.9457484,0.3152494 -1.1311893,0.6861312 v -0.6861312 l -1.03846886,0.074176 v 0.2596172 c 0.46360217,0 0.53777851,0.037088 0.53777851,0.3894258 v 1.79877642 c 0,0.29670539 -0.0741763,0.29670539 -0.53777851,0.29670539 V 2.8016109e-5 c 0.0185441,0 0.50069034,-0.03708817611 0.79739576,-0.03708817611 0.2596172,0 0.7417634,0.03708817611 0.7973957,0.03708817611 V -0.25958919 c -0.4450581,0 -0.5192344,0 -0.5192344,-0.29670539 V -1.7987484 c 0,-0.7417634 0.5748666,-1.075557 1.0384688,-1.075557 0.5006903,0 0.5563226,0.3708817 0.5563226,0.7417635 v 1.57624732 c 0,0.29670539 -0.074176,0.29670539 -0.5192344,0.29670539 V 2.8016109e-5 c 0,0 0.5006903,-0.03708817611 0.7973957,-0.03708817611 0.2596172,0 0.7232194,0.03708817611 0.7973957,0.03708817611 V -0.25958919 c -0.4636022,0 -0.5192344,0 -0.5192344,-0.29670539 z M 5.592843,-2.7630409 H 6.6684 V -3.004114 H 5.592843 V -4.283656 H 5.3517699 c -0.018544,0.630499 -0.2967054,1.3166302 -0.9642925,1.3351743 v 0.1854408 h 0.649043 v 1.89149685 c 0,0.77885163 0.5748667,0.94574841 0.9828366,0.94574841 0.4636021,0 0.7788516,-0.4079699 0.7788516,-0.94574841 V -1.2609699 H 6.5571355 v 0.37088177 c 0,0.48214624 -0.2225291,0.74176345 -0.4821463,0.74176345 -0.4821462,0 -0.4821462,-0.59341076 -0.4821462,-0.72321937 z m 0,0"
       style="fill:#000000;fill-opacity:1;fill-rule:nonzero;stroke:none"
       aria-label="nt"
       transform="matrix(0.22293439,0,0,0.22293439,55.055075,97.248513)"
       clip-path="url(#clipPath753)"
       id="path857" />
    <path
       d="m 2.0221587,-0.01721503 c 0,-0.64904303 -0.2410731,-1.03846887 -0.630499,-1.03846887 -0.3337935,0 -0.53777847,0.25961724 -0.53777847,0.53777853 0,0.25961722 0.20398497,0.51923443 0.53777847,0.51923443 0.1112646,0 0.2410732,-0.03708818 0.3337936,-0.12980861 0.037088,-0.0185441 0.055632,-0.0370882 0.055632,-0.0370882 0.018544,0 0.018544,0.0185441 0.018544,0.14835269 0,0.74176346 -0.3523376,1.33517426 -0.6675871,1.66896786 C 1.020778,1.7630173 1.020778,1.7815614 1.020778,1.8186495 c 0,0.055632 0.037088,0.1112645 0.09272,0.1112645 0.1112646,0 0.9086603,-0.7788516 0.9086607,-1.94712903 z M 8.0721669,-3.9856495 h 0.853028 c 0.2039849,0 0.2967053,0 0.2967053,-0.203985 0,-0.09272 -0.09272,-0.09272 -0.2596172,-0.09272 H 8.1277991 l 0.2225291,-1.1497334 c 0.037088,-0.2039849 0.1668968,-0.9086602 0.222529,-1.0384688 0.092721,-0.1854409 0.2596172,-0.3337936 0.4821463,-0.3337936 0.037088,0 0.2967054,0 0.4821462,0.1854409 -0.4450581,0.037088 -0.5377785,0.3894258 -0.5377785,0.5377785 0,0.222529 0.1854409,0.3523376 0.3708817,0.3523376 0.2596172,0 0.5377785,-0.222529 0.5377785,-0.6119548 0,-0.4450581 -0.445058,-0.6861312 -0.8530279,-0.6861312 -0.3523377,0 -0.9642925,0.1854409 -1.2609979,1.1682774 -0.074176,0.2225291 -0.09272,0.3152495 -0.3337936,1.5762474 H 6.7740808 c -0.1854408,0 -0.2967054,0 -0.2967054,0.1854408 0,0.1112646 0.074176,0.1112646 0.2781613,0.1112646 H 7.4045798 L 6.6628163,-0.0543032 C 6.4773754,0.90998929 6.3104787,1.8186495 5.7912442,1.8186495 c -0.037088,0 -0.2781612,0 -0.4821462,-0.1668967 0.4636022,-0.037088 0.5563226,-0.3894259 0.5563226,-0.5377786 0,-0.24107308 -0.1854409,-0.3523376 -0.3708817,-0.3523376 -0.2596172,0 -0.5563226,0.22252904 -0.5563226,0.5934108 0,0.445058 0.445058,0.6861312 0.8530279,0.6861312 0.5563226,0 0.9457485,-0.5934108 1.1311893,-0.9642925 C 7.237683,0.44638713 7.460212,-0.75897849 7.4787561,-0.83315484 Z m 0,0"
       style="fill:#000000;fill-opacity:1;fill-rule:nonzero;stroke:none"
       aria-label=",f"
       transform="matrix(0.22293439,0,0,0.22293439,56.792647,96.915427)"
       clip-path="url(#clipPath754)"
       id="path858" />
    <path
       d="m 2.020303,-3.2837071 c 0.055632,-0.1298086 0.055632,-0.1854409 0.055632,-0.2410732 0,-0.2039849 -0.1854409,-0.3708817 -0.4079699,-0.3708817 -0.2596172,0 -0.3523377,0.203985 -0.3708818,0.3152495 l -0.92720429,3.02268608 c 0,0.0185441 -0.0370882,0.11126452 -0.0370882,0.11126452 0,0.0927204 0.22252904,0.16689678 0.2781613,0.16689678 0.0370882,0 0.0556323,-0.0185441 0.0927204,-0.12980861 z m 0,0"
       style="fill:#000000;fill-opacity:1;fill-rule:nonzero;stroke:none"
       aria-label="′"
       transform="matrix(0.22293439,0,0,0.22293439,59.104021,96.10885)"
       clip-path="url(#clipPath755)"
       id="path859" />
    <path
       d="m 3.3010741,2.3935162 c 0,-0.037088 0,-0.055632 -0.1668968,-0.222529 -1.2609979,-1.26099791 -1.5762474,-3.13395064 -1.5762474,-4.6545657 0,-1.7431442 0.3894259,-3.4677442 1.6133356,-4.710198 0.1298086,-0.1298086 0.1298086,-0.1483527 0.1298086,-0.1668968 0,-0.074176 -0.037088,-0.1112645 -0.1112645,-0.1112645 -0.09272,0 -0.9828366,0.6861312 -1.5762474,1.9471291 -0.5006903,1.0941011 -0.63049893,2.2067463 -0.63049893,3.0412302 0,0.7788516 0.11126453,1.98421722 0.66758713,3.09686241 0.5934107,1.22390969 1.4464387,1.87295269 1.5391592,1.87295269 0.074176,0 0.1112645,-0.018544 0.1112645,-0.09272 z m 0,0"
       style="fill:#000000;fill-opacity:1;fill-rule:nonzero;stroke:none"
       aria-label="("
       transform="matrix(0.22293439,0,0,0.22293439,59.730078,96.915427)"
       clip-path="url(#clipPath756)"
       id="path860" />
    <path
       d="m 3.3207962,-3.002813 c 0.074176,-0.2596172 0.2967054,-1.1868215 1.0013807,-1.1868215 0.037088,0 0.2781613,0 0.4821462,0.1298086 -0.2781613,0.055632 -0.4636021,0.3152495 -0.4636021,0.5377785 0,0.1668968 0.1112645,0.3523377 0.3708817,0.3523377 0.222529,0 0.5377785,-0.1668968 0.5377785,-0.5748667 0,-0.5192344 -0.5934108,-0.649043 -0.9272043,-0.649043 -0.5748667,0 -0.9272043,0.5192344 -1.0384689,0.7417634 -0.2596172,-0.649043 -0.7973957,-0.7417634 -1.075557,-0.7417634 -1.0384688,0 -1.6133355,1.2795419 -1.6133355,1.5206151 0,0.1112645 0.11126452,0.1112645 0.12980861,0.1112645 0.0741763,0 0.11126451,-0.018544 0.1298086,-0.1112645 0.33379359,-1.057013 0.98283659,-1.3166302 1.33517419,-1.3166302 0.1854409,0 0.5377785,0.09272 0.5377785,0.6675871 0,0.3152495 -0.1854408,0.9828366 -0.5377785,2.3736431 -0.1668967,0.63049893 -0.5192344,1.03846884 -0.9457484,1.03846884 -0.074176,0 -0.29670536,0 -0.50069031,-0.12980861 0.24107313,-0.0556323 0.46360221,-0.25961721 0.46360221,-0.53777851 0,-0.25961722 -0.22252908,-0.35233762 -0.37088178,-0.35233762 -0.29670538,0 -0.5377785,0.25961719 -0.5377785,0.57486666 0,0.46360216 0.48214624,0.66758711 0.92720428,0.66758711 0.6490431,0 1.0199248,-0.70467528 1.0384689,-0.76030754 0.1298086,0.37088173 0.4821462,0.76030754 1.075557,0.76030754 1.0384688,0 1.5947914,-1.27954197 1.5947914,-1.53915917 0,-0.09272 -0.074176,-0.09272 -0.1112645,-0.09272 -0.09272,0 -0.1112645,0.037088 -0.1298086,0.1112645 -0.3337935,1.05701291 -1.0013807,1.29808604 -1.3166301,1.29808604 -0.3894258,0 -0.5563226,-0.31524947 -0.5563226,-0.64904303 0,-0.22252904 0.055632,-0.44505811 0.1668968,-0.89011611 z m 0,0"
       style="fill:#000000;fill-opacity:1;fill-rule:nonzero;stroke:none"
       aria-label="x"
       transform="matrix(0.22293439,0,0,0.22293439,60.592805,96.915427)"
       clip-path="url(#clipPath757)"
       id="path861" />
    <path
       d="m 4.0791566,-2.2981377 h 2.7630689 c 0.1483527,0 0.3337936,0 0.3337936,-0.1854408 0,-0.203985 -0.1854409,-0.203985 -0.3337936,-0.203985 H 4.0791566 v -2.781613 c 0,-0.1483526 0,-0.3337935 -0.2039849,-0.3337935 -0.203985,0 -0.203985,0.1854409 -0.203985,0.3337935 v 2.781613 H 0.88957376 c -0.14835269,0 -0.33379356,0 -0.33379356,0.203985 0,0.1854408 0.18544087,0.1854408 0.33379356,0.1854408 H 3.6711867 v 2.80015709 c 0,0.12980861 0,0.33379356 0.203985,0.33379356 0.2039849,0 0.2039849,-0.20398495 0.2039849,-0.33379356 z m 0,0"
       style="fill:#000000;fill-opacity:1;fill-rule:nonzero;stroke:none"
       aria-label="+"
       transform="matrix(0.22293439,0,0,0.22293439,62.356438,96.915427)"
       clip-path="url(#clipPath758)"
       id="path862" />
    <path
       d="m 4.3946166,-6.9527034 c -0.055632,-0.1298086 -0.074176,-0.1668967 -0.2596173,-0.1668967 -0.1668967,0 -0.1854408,0.037088 -0.2596172,0.1668967 l -3.35647962,6.7500475 c -0.0556323,0.0927204 -0.0556323,0.11126452 -0.0556323,0.12980861 0,0.07417635 0.0556323,0.07417635 0.22252904,0.07417635 H 7.6027435 c 0.1483527,0 0.2225291,0 0.2225291,-0.07417635 0,-0.01854409 0,-0.03708817 -0.055632,-0.12980861 z m -0.5748667,0.8159398 2.6888925,5.37778511 H 1.1308573 Z m 0,0"
       style="fill:#000000;fill-opacity:1;fill-rule:nonzero;stroke:none"
       aria-label="∆"
       transform="matrix(0.22293439,0,0,0.22293439,64.577429,96.915427)"
       clip-path="url(#clipPath759)"
       id="path863" />
    <path
       d="m 3.3192382,-3.002813 c 0.074176,-0.2596172 0.2967054,-1.1868215 1.0013807,-1.1868215 0.037088,0 0.2781613,0 0.4821462,0.1298086 -0.2781612,0.055632 -0.4636021,0.3152495 -0.4636021,0.5377785 0,0.1668968 0.1112645,0.3523377 0.3708817,0.3523377 0.2225291,0 0.5377785,-0.1668968 0.5377785,-0.5748667 0,-0.5192344 -0.5934107,-0.649043 -0.9272043,-0.649043 -0.5748667,0 -0.9272043,0.5192344 -1.0384688,0.7417634 -0.2596173,-0.649043 -0.7973958,-0.7417634 -1.0755571,-0.7417634 -1.0384688,0 -1.61333548,1.2795419 -1.61333548,1.5206151 0,0.1112645 0.11126452,0.1112645 0.12980861,0.1112645 0.0741763,0 0.11126452,-0.018544 0.1298086,-0.1112645 0.33379357,-1.057013 0.98283657,-1.3166302 1.33517427,-1.3166302 0.1854408,0 0.5377785,0.09272 0.5377785,0.6675871 0,0.3152495 -0.1854409,0.9828366 -0.5377785,2.3736431 -0.1668968,0.63049893 -0.5192345,1.03846884 -0.9457485,1.03846884 -0.074176,0 -0.29670534,0 -0.50069029,-0.12980861 0.24107313,-0.0556323 0.46360219,-0.25961721 0.46360219,-0.53777851 0,-0.25961722 -0.22252906,-0.35233762 -0.37088175,-0.35233762 -0.29670539,0 -0.53777851,0.25961719 -0.53777851,0.57486666 0,0.46360216 0.48214625,0.66758711 0.92720436,0.66758711 0.649043,0 1.0199247,-0.70467528 1.0384688,-0.76030754 0.1298086,0.37088173 0.4821463,0.76030754 1.075557,0.76030754 1.0384689,0 1.5947915,-1.27954197 1.5947915,-1.53915917 0,-0.09272 -0.074176,-0.09272 -0.1112646,-0.09272 -0.09272,0 -0.1112645,0.037088 -0.1298086,0.1112645 -0.3337935,1.05701291 -1.0013806,1.29808604 -1.3166301,1.29808604 -0.3894258,0 -0.5563226,-0.31524947 -0.5563226,-0.64904303 0,-0.22252904 0.055632,-0.44505811 0.1668968,-0.89011611 z m 0,0"
       style="fill:#000000;fill-opacity:1;fill-rule:nonzero;stroke:none"
       aria-label="x"
       transform="matrix(0.22293439,0,0,0.22293439,66.427423,96.915427)"
       clip-path="url(#clipPath760)"
       id="path864" />
    <path
       d="m 3.5982701,-2.1139978 c 0,-0.6119549 -0.3152495,-0.9642925 -1.0570129,-0.9642925 -0.5748667,0 -0.9457484,0.3152494 -1.1311893,0.6861312 v -0.6861312 l -1.03846885,0.074176 v 0.2596172 c 0.46360216,0 0.53777851,0.037088 0.53777851,0.3894258 v 1.79877642 c 0,0.29670539 -0.0741764,0.29670539 -0.53777851,0.29670539 V 2.8016109e-5 c 0.0185441,0 0.50069034,-0.03708817611 0.79739575,-0.03708817611 0.2596172,0 0.7417634,0.03708817611 0.7973957,0.03708817611 V -0.25958919 c -0.4450581,0 -0.5192344,0 -0.5192344,-0.29670539 V -1.7987484 c 0,-0.7417634 0.5748666,-1.075557 1.0384688,-1.075557 0.5006903,0 0.5563226,0.3708817 0.5563226,0.7417635 v 1.57624732 c 0,0.29670539 -0.074176,0.29670539 -0.5192344,0.29670539 V 2.8016109e-5 c 0,0 0.5006903,-0.03708817611 0.7973957,-0.03708817611 0.2596172,0 0.7232194,0.03708817611 0.7973957,0.03708817611 V -0.25958919 c -0.4636021,0 -0.5192344,0 -0.5192344,-0.29670539 z m 1.9981253,-0.6490431 h 1.075557 V -3.004114 H 5.5963954 V -4.283656 H 5.3553223 c -0.018544,0.630499 -0.2967054,1.3166302 -0.9642925,1.3351743 v 0.1854408 h 0.649043 v 1.89149685 c 0,0.77885163 0.5748667,0.94574841 0.9828366,0.94574841 0.4636022,0 0.7788516,-0.4079699 0.7788516,-0.94574841 V -1.2609699 H 6.5606879 v 0.37088177 c 0,0.48214624 -0.222529,0.74176345 -0.4821462,0.74176345 -0.4821463,0 -0.4821463,-0.59341076 -0.4821463,-0.72321937 z m 0,0"
       style="fill:#000000;fill-opacity:1;fill-rule:nonzero;stroke:none"
       aria-label="nt"
       transform="matrix(0.22293439,0,0,0.22293439,67.697423,97.248513)"
       clip-path="url(#clipPath761)"
       id="path865" />
    <path
       d="m 2.8740031,-2.4835785 c 0,-0.7788517 -0.1112646,-1.9842173 -0.6490431,-3.1154066 -0.5934107,-1.2239097 -1.4649828,-1.8729527 -1.55770323,-1.8729527 -0.0556323,0 -0.0927204,0.037088 -0.0927204,0.1112645 0,0.018544 0,0.037088 0.18544086,0.2225291 0.96429247,0.9828365 1.53915917,2.577628 1.53915917,4.6545657 0,1.70605592 -0.3708818,3.44920005 -1.59479143,4.7101979 -0.1298086,0.1112646 -0.1298086,0.1298086 -0.1298086,0.1668968 0,0.055632 0.0370882,0.09272 0.0927204,0.09272 0.0927204,0 1.00138063,-0.6675871 1.57624733,-1.92858495 0.5192344,-1.11264519 0.630499,-2.20674625 0.630499,-3.04122975 z m 3.871078,0 c 0,-0.7788517 -0.1112645,-1.9842173 -0.649043,-3.1154066 -0.5934108,-1.2239097 -1.4649828,-1.8729527 -1.5577033,-1.8729527 -0.055632,0 -0.09272,0.037088 -0.09272,0.1112645 0,0.018544 0,0.037088 0.1854409,0.2225291 0.9642924,0.9828365 1.5391591,2.577628 1.5391591,4.6545657 0,1.70605592 -0.3708817,3.44920005 -1.5947914,4.7101979 -0.129809,0.1112646 -0.129809,0.1298086 -0.129809,0.1668968 0,0.055632 0.037088,0.09272 0.09272,0.09272 0.09272,0 1.0013807,-0.6675871 1.5762474,-1.92858495 C 6.6338162,-0.55499394 6.7450807,-1.649095 6.7450811,-2.4835785 Z m 0,0"
       style="fill:#000000;fill-opacity:1;fill-rule:nonzero;stroke:none"
       aria-label="))"
       transform="matrix(0.22293439,0,0,0.22293439,69.435021,96.915427)"
       clip-path="url(#clipPath762)"
       id="path866" />
  </g>
</svg>
