<?xml version="1.0" encoding="UTF-8" standalone="no"?>
<!-- Created with Inkscape (http://www.inkscape.org/) -->

<svg
   width="59.20956mm"
   height="59.232903mm"
   viewBox="0 0 59.20956 59.232903"
   version="1.1"
   id="svg1"
   inkscape:version="1.3.2 (091e20ef0f, 2023-11-25)"
   sodipodi:docname="newton-gd-convergence-time.svg"
   xmlns:inkscape="http://www.inkscape.org/namespaces/inkscape"
   xmlns:sodipodi="http://sodipodi.sourceforge.net/DTD/sodipodi-0.dtd"
   xmlns="http://www.w3.org/2000/svg"
   xmlns:svg="http://www.w3.org/2000/svg">
  <sodipodi:namedview
     id="namedview1"
     pagecolor="#ffffff"
     bordercolor="#666666"
     borderopacity="1.0"
     inkscape:showpageshadow="2"
     inkscape:pageopacity="0.0"
     inkscape:pagecheckerboard="0"
     inkscape:deskcolor="#d1d1d1"
     inkscape:document-units="mm"
     inkscape:zoom="0.73075397"
     inkscape:cx="124.52892"
     inkscape:cy="476.9047"
     inkscape:window-width="1080"
     inkscape:window-height="1476"
     inkscape:window-x="0"
     inkscape:window-y="444"
     inkscape:window-maximized="1"
     inkscape:current-layer="layer1" />
  <defs
     id="defs1">
    <clipPath
       clipPathUnits="userSpaceOnUse"
       id="clipPath90">
      <path
         d="m 64.8,64.8 h 288 v 288 h -288 z"
         id="path90" />
    </clipPath>
    <clipPath
       clipPathUnits="userSpaceOnUse"
       id="clipPath91">
      <path
         d="M 0,0 H 360 V 360 H 0 Z"
         id="path91" />
    </clipPath>
    <clipPath
       clipPathUnits="userSpaceOnUse"
       id="clipPath92">
      <path
         d="M 0,0 H 360 V 360 H 0 Z"
         id="path92" />
    </clipPath>
    <clipPath
       clipPathUnits="userSpaceOnUse"
       id="clipPath93">
      <path
         d="M 0,0 H 360 V 360 H 0 Z"
         id="path93" />
    </clipPath>
    <clipPath
       clipPathUnits="userSpaceOnUse"
       id="clipPath94">
      <path
         d="M 0,0 H 360 V 360 H 0 Z"
         id="path94" />
    </clipPath>
    <clipPath
       clipPathUnits="userSpaceOnUse"
       id="clipPath95">
      <path
         d="M 0,0 H 360 V 360 H 0 Z"
         id="path95" />
    </clipPath>
    <clipPath
       clipPathUnits="userSpaceOnUse"
       id="clipPath96">
      <path
         d="M 0,0 H 360 V 360 H 0 Z"
         id="path96" />
    </clipPath>
    <clipPath
       clipPathUnits="userSpaceOnUse"
       id="clipPath97">
      <path
         d="M 0,0 H 360 V 360 H 0 Z"
         id="path97" />
    </clipPath>
    <clipPath
       clipPathUnits="userSpaceOnUse"
       id="clipPath98">
      <path
         d="M 0,0 H 360 V 360 H 0 Z"
         transform="matrix(1,0,0,-1,-63.790002,38.880003)"
         id="path98" />
    </clipPath>
    <clipPath
       clipPathUnits="userSpaceOnUse"
       id="clipPath99">
      <path
         d="M 0,0 H 360 V 360 H 0 Z"
         transform="matrix(1,0,0,-1,-111.46,38.880003)"
         id="path99" />
    </clipPath>
    <clipPath
       clipPathUnits="userSpaceOnUse"
       id="clipPath100">
      <path
         d="M 0,0 H 360 V 360 H 0 Z"
         transform="matrix(1,0,0,-1,-159.12001,38.880003)"
         id="path100" />
    </clipPath>
    <clipPath
       clipPathUnits="userSpaceOnUse"
       id="clipPath101">
      <path
         d="M 0,0 H 360 V 360 H 0 Z"
         transform="matrix(1,0,0,-1,-206.79,38.880003)"
         id="path101" />
    </clipPath>
    <clipPath
       clipPathUnits="userSpaceOnUse"
       id="clipPath102">
      <path
         d="M 0,0 H 360 V 360 H 0 Z"
         transform="matrix(1,0,0,-1,-254.46,38.880003)"
         id="path102" />
    </clipPath>
    <clipPath
       clipPathUnits="userSpaceOnUse"
       id="clipPath103">
      <path
         d="M 0,0 H 360 V 360 H 0 Z"
         transform="matrix(1,0,0,-1,-302.12999,38.880003)"
         id="path103" />
    </clipPath>
    <clipPath
       clipPathUnits="userSpaceOnUse"
       id="clipPath104">
      <path
         d="M 0,0 H 360 V 360 H 0 Z"
         id="path104" />
    </clipPath>
    <clipPath
       clipPathUnits="userSpaceOnUse"
       id="clipPath105">
      <path
         d="M 0,0 H 360 V 360 H 0 Z"
         id="path105" />
    </clipPath>
    <clipPath
       clipPathUnits="userSpaceOnUse"
       id="clipPath106">
      <path
         d="M 0,0 H 360 V 360 H 0 Z"
         id="path106" />
    </clipPath>
    <clipPath
       clipPathUnits="userSpaceOnUse"
       id="clipPath107">
      <path
         d="M 0,0 H 360 V 360 H 0 Z"
         id="path107" />
    </clipPath>
    <clipPath
       clipPathUnits="userSpaceOnUse"
       id="clipPath108">
      <path
         d="M 0,0 H 360 V 360 H 0 Z"
         id="path108" />
    </clipPath>
    <clipPath
       clipPathUnits="userSpaceOnUse"
       id="clipPath109">
      <path
         d="M 0,0 H 360 V 360 H 0 Z"
         id="path109" />
    </clipPath>
    <clipPath
       clipPathUnits="userSpaceOnUse"
       id="clipPath110">
      <path
         d="M 0,0 H 360 V 360 H 0 Z"
         transform="matrix(0,1,1,0,-62.509996,-47.520001)"
         id="path110" />
    </clipPath>
    <clipPath
       clipPathUnits="userSpaceOnUse"
       id="clipPath111">
      <path
         d="M 0,0 H 360 V 360 H 0 Z"
         transform="matrix(0,1,1,0,-125.97999,-47.520001)"
         id="path111" />
    </clipPath>
    <clipPath
       clipPathUnits="userSpaceOnUse"
       id="clipPath112">
      <path
         d="M 0,0 H 360 V 360 H 0 Z"
         transform="matrix(0,1,1,0,-189.45999,-47.520001)"
         id="path112" />
    </clipPath>
    <clipPath
       clipPathUnits="userSpaceOnUse"
       id="clipPath113">
      <path
         d="M 0,0 H 360 V 360 H 0 Z"
         transform="matrix(0,1,1,0,-252.93001,-47.520001)"
         id="path113" />
    </clipPath>
    <clipPath
       clipPathUnits="userSpaceOnUse"
       id="clipPath114">
      <path
         d="M 0,0 H 360 V 360 H 0 Z"
         transform="matrix(0,1,1,0,-316.4,-47.520001)"
         id="path114" />
    </clipPath>
    <clipPath
       clipPathUnits="userSpaceOnUse"
       id="clipPath115">
      <path
         d="M 0,0 H 360 V 360 H 0 Z"
         id="path115" />
    </clipPath>
    <clipPath
       clipPathUnits="userSpaceOnUse"
       id="clipPath116">
      <path
         d="M 0,0 H 360 V 360 H 0 Z"
         transform="matrix(1,0,0,-1,-195.47,10.08)"
         id="path116" />
    </clipPath>
    <clipPath
       clipPathUnits="userSpaceOnUse"
       id="clipPath117">
      <path
         d="M 0,0 H 360 V 360 H 0 Z"
         transform="matrix(0,1,1,0,-191.95999,-18.719998)"
         id="path117" />
    </clipPath>
    <clipPath
       clipPathUnits="userSpaceOnUse"
       id="clipPath118">
      <path
         d="m 64.8,64.8 h 288 v 288 h -288 z"
         id="path118" />
    </clipPath>
    <clipPath
       clipPathUnits="userSpaceOnUse"
       id="clipPath119">
      <path
         d="m 64.8,64.8 h 288 v 288 h -288 z"
         id="path119" />
    </clipPath>
    <clipPath
       clipPathUnits="userSpaceOnUse"
       id="clipPath120">
      <path
         d="m 64.8,64.8 h 288 v 288 h -288 z"
         id="path120" />
    </clipPath>
    <clipPath
       clipPathUnits="userSpaceOnUse"
       id="clipPath121">
      <path
         d="m 64.8,64.8 h 288 v 288 h -288 z"
         id="path121" />
    </clipPath>
    <clipPath
       clipPathUnits="userSpaceOnUse"
       id="clipPath122">
      <path
         d="m 64.8,64.8 h 288 v 288 h -288 z"
         transform="matrix(1,0,0,-1,-254.94,334.09)"
         id="path122" />
    </clipPath>
    <clipPath
       clipPathUnits="userSpaceOnUse"
       id="clipPath123">
      <path
         d="m 64.8,64.8 h 288 v 288 h -288 z"
         transform="matrix(1,0,0,-1,-254.94,319.69001)"
         id="path123" />
    </clipPath>
  </defs>
  <g
     inkscape:label="Layer 1"
     inkscape:groupmode="layer"
     id="layer1"
     transform="translate(-72.231253,-22.489583)">
    <g
       id="g157"
       transform="matrix(0.26458333,0,0,0.26458333,-95.72302,1.7201363)">
      <path
         d="m 75.47,342.13 3.75,-7.09 3.76,-4.76 3.75,-4.35 3.76,-3.56 3.76,-3.17 3.75,-3.27 3.76,-3.26 3.75,-3.86 3.76,-4.03 3.76,-12.51 3.75,-9.73 3.76,-9.15 3.75,-5.46 3.76,-4.13 3.75,-3.85 3.76,-3.79 3.76,-3.83 3.75,-3.68 3.76,-3.84 3.75,-3.65 3.76,-3.84 3.76,-3.65 3.75,-3.85 3.76,-3.64 3.75,-3.85 3.76,-3.64 3.76,-3.85 3.75,-3.64 3.76,-3.85 3.75,-3.64 3.76,-3.85 3.75,-3.64 3.76,-3.85 3.76,-3.65 3.75,-3.84 3.76,-3.65 3.75,-3.84 3.76,-3.65 3.76,-3.84 3.75,-3.65 3.76,-3.84 3.75,-3.65 3.76,-3.84 3.75,-3.66 3.76,-3.83 3.76,-3.66 3.75,-3.83 3.76,-3.66 3.75,-3.83 3.76,-3.66 3.76,-3.83 3.75,-3.65 3.76,-3.83 3.75,-3.67 3.76,-3.81 3.76,-3.6 3.75,-3.84 3.76,-3.65 3.75,-3.92 3.76,-3 3.75,-4.18 3.76,-4.77 3.76,-2.8 3.75,-4.77 h 3.76 3.75 3.76 3.76 3.75 3.76"
         style="fill:none;stroke:#000000 icc-color(sRGB-IEC61966-2, 0.1, 0, 0, 0);stroke-width:0.75;stroke-linecap:round;stroke-linejoin:round;stroke-miterlimit:10;stroke-dasharray:none;stroke-opacity:1"
         transform="matrix(0.65196,0,0,-0.65196,628.316,308.75467)"
         clip-path="url(#clipPath90)"
         id="path124" />
      <path
         d="M 75.47,64.8 H 313.8"
         style="fill:none;stroke:#000000 icc-color(sRGB-IEC61966-2, 0.1, 0, 0, 0);stroke-width:0.75;stroke-linecap:round;stroke-linejoin:round;stroke-miterlimit:10;stroke-dasharray:none;stroke-opacity:1"
         transform="matrix(0.65196,0,0,-0.65196,628.316,308.75467)"
         clip-path="url(#clipPath91)"
         id="path125" />
      <path
         d="M 75.47,64.8 V 57.6"
         style="fill:none;stroke:#000000 icc-color(sRGB-IEC61966-2, 0.1, 0, 0, 0);stroke-width:0.75;stroke-linecap:round;stroke-linejoin:round;stroke-miterlimit:10;stroke-dasharray:none;stroke-opacity:1"
         transform="matrix(0.65196,0,0,-0.65196,628.316,308.75467)"
         clip-path="url(#clipPath92)"
         id="path126" />
      <path
         d="M 123.13,64.8 V 57.6"
         style="fill:none;stroke:#000000 icc-color(sRGB-IEC61966-2, 0.1, 0, 0, 0);stroke-width:0.75;stroke-linecap:round;stroke-linejoin:round;stroke-miterlimit:10;stroke-dasharray:none;stroke-opacity:1"
         transform="matrix(0.65196,0,0,-0.65196,628.316,308.75467)"
         clip-path="url(#clipPath93)"
         id="path127" />
      <path
         d="M 170.8,64.8 V 57.6"
         style="fill:none;stroke:#000000 icc-color(sRGB-IEC61966-2, 0.1, 0, 0, 0);stroke-width:0.75;stroke-linecap:round;stroke-linejoin:round;stroke-miterlimit:10;stroke-dasharray:none;stroke-opacity:1"
         transform="matrix(0.65196,0,0,-0.65196,628.316,308.75467)"
         clip-path="url(#clipPath94)"
         id="path128" />
      <path
         d="M 218.47,64.8 V 57.6"
         style="fill:none;stroke:#000000 icc-color(sRGB-IEC61966-2, 0.1, 0, 0, 0);stroke-width:0.75;stroke-linecap:round;stroke-linejoin:round;stroke-miterlimit:10;stroke-dasharray:none;stroke-opacity:1"
         transform="matrix(0.65196,0,0,-0.65196,628.316,308.75467)"
         clip-path="url(#clipPath95)"
         id="path129" />
      <path
         d="M 266.13,64.8 V 57.6"
         style="fill:none;stroke:#000000 icc-color(sRGB-IEC61966-2, 0.1, 0, 0, 0);stroke-width:0.75;stroke-linecap:round;stroke-linejoin:round;stroke-miterlimit:10;stroke-dasharray:none;stroke-opacity:1"
         transform="matrix(0.65196,0,0,-0.65196,628.316,308.75467)"
         clip-path="url(#clipPath96)"
         id="path130" />
      <path
         d="M 313.8,64.8 V 57.6"
         style="fill:none;stroke:#000000 icc-color(sRGB-IEC61966-2, 0.1, 0, 0, 0);stroke-width:0.75;stroke-linecap:round;stroke-linejoin:round;stroke-miterlimit:10;stroke-dasharray:none;stroke-opacity:1"
         transform="matrix(0.65196,0,0,-0.65196,628.316,308.75467)"
         clip-path="url(#clipPath97)"
         id="path131" />
      <path
         d="m 3.3080582,-8.6760873 c -0.7908844,0 -1.5098703,0.3594929 -1.965228,0.9346816 -0.55122243,0.7669182 -0.81485057,1.9412617 -0.81485057,3.5469967 0,2.9238757 0.95864777,4.48167836 2.78007857,4.48167836 1.7974645,0 2.7800785,-1.55780266 2.7800785,-4.40977976 0,-1.6776336 -0.2636281,-2.8280109 -0.8388168,-3.6188953 C 4.8179284,-8.3405606 4.0989426,-8.6760873 3.3080582,-8.6760873 Z m 0,0.9346816 c 1.1264111,0 1.7015998,1.1503773 1.7015998,3.5230305 0,2.4685181 -0.5512225,3.61889538 -1.725566,3.61889538 -1.1264112,0 -1.6776336,-1.19830968 -1.6776336,-3.59492918 0,-2.3966194 0.5512224,-3.5469967 1.7015998,-3.5469967 z m 5.6620134,6.4948386 H 7.7238295 v 1.24624213119 h 1.2462421 z m 4.3438724,-7.4295202 c -0.790884,0 -1.50987,0.3594929 -1.965228,0.9346816 -0.551222,0.7669182 -0.81485,1.9412617 -0.81485,3.5469967 0,2.9238757 0.958647,4.48167836 2.780078,4.48167836 1.797465,0 2.780079,-1.55780266 2.780079,-4.40977976 0,-1.6776336 -0.263628,-2.8280109 -0.838817,-3.6188953 -0.431392,-0.5991549 -1.150377,-0.9346816 -1.941262,-0.9346816 z m 0,0.9346816 c 1.126411,0 1.7016,1.1503773 1.7016,3.5230305 0,2.4685181 -0.551222,3.61889538 -1.725566,3.61889538 -1.126411,0 -1.677634,-1.19830968 -1.677634,-3.59492918 0,-2.3966194 0.551223,-3.5469967 1.7016,-3.5469967 z m 6.674585,-0.9346816 c -0.790884,0 -1.50987,0.3594929 -1.965228,0.9346816 -0.551222,0.7669182 -0.81485,1.9412617 -0.81485,3.5469967 0,2.9238757 0.958648,4.48167836 2.780078,4.48167836 1.797465,0 2.780079,-1.55780266 2.780079,-4.40977976 0,-1.6776336 -0.263628,-2.8280109 -0.838817,-3.6188953 -0.431391,-0.5991549 -1.150377,-0.9346816 -1.941262,-0.9346816 z m 0,0.9346816 c 1.126411,0 1.7016,1.1503773 1.7016,3.5230305 0,2.4685181 -0.551222,3.61889538 -1.725566,3.61889538 -1.126411,0 -1.677633,-1.19830968 -1.677633,-3.59492918 0,-2.3966194 0.551222,-3.5469967 1.701599,-3.5469967 z m 0,0"
         style="fill:#000000 icc-color(sRGB-IEC61966-2, 0.1, 0, 0, 0);fill-opacity:1;fill-rule:nonzero;stroke:none"
         aria-label="0.00"
         transform="matrix(0.65196,0,0,0.65196,669.90453,283.40646)"
         clip-path="url(#clipPath98)"
         id="path132" />
      <path
         d="m 3.3068185,-8.6760873 c -0.7908844,0 -1.5098702,0.3594929 -1.9652279,0.9346816 -0.55122248,0.7669182 -0.81485062,1.9412617 -0.81485062,3.5469967 0,2.9238757 0.95864782,4.48167836 2.78007852,4.48167836 1.7974646,0 2.7800785,-1.55780266 2.7800785,-4.40977976 0,-1.6776336 -0.2636281,-2.8280109 -0.8388167,-3.6188953 C 4.8166888,-8.3405606 4.0977029,-8.6760873 3.3068185,-8.6760873 Z m 0,0.9346816 c 1.1264111,0 1.7015998,1.1503773 1.7015998,3.5230305 0,2.4685181 -0.5512225,3.61889538 -1.725566,3.61889538 -1.1264111,0 -1.6776336,-1.19830968 -1.6776336,-3.59492918 0,-2.3966194 0.5512225,-3.5469967 1.7015998,-3.5469967 z m 5.668005,6.4948386 H 7.7285814 v 1.24624213119 h 1.2462421 z m 4.3378815,-7.4295202 c -0.790885,0 -1.509871,0.3594929 -1.965228,0.9346816 -0.551223,0.7669182 -0.814851,1.9412617 -0.814851,3.5469967 0,2.9238757 0.958648,4.48167836 2.780079,4.48167836 1.797464,0 2.780078,-1.55780266 2.780078,-4.40977976 0,-1.6776336 -0.263628,-2.8280109 -0.838817,-3.6188953 -0.431391,-0.5991549 -1.150377,-0.9346816 -1.941261,-0.9346816 z m 0,0.9346816 c 1.126411,0 1.701599,1.1503773 1.701599,3.5230305 0,2.4685181 -0.551222,3.61889538 -1.725566,3.61889538 -1.126411,0 -1.677633,-1.19830968 -1.677633,-3.59492918 0,-2.3966194 0.551222,-3.5469967 1.7016,-3.5469967 z m 9.071204,-0.7669182 h -4.385813 l -0.623121,4.6254755 h 0.958647 c 0.50329,-0.5751887 0.910716,-0.7908844 1.581769,-0.7908844 1.126411,0 1.845397,0.7908844 1.845397,2.0371265 0,1.2222759 -0.718986,1.96522789 -1.869363,1.96522789 -0.910715,0 -1.485904,-0.45535769 -1.725566,-1.41400549 h -1.054513 c 0.143798,0.6950197 0.263629,1.0305464 0.50329,1.34210691 0.479324,0.64708724 1.342107,1.03054635 2.300755,1.03054635 1.725566,0 2.923876,-1.27020829 2.923876,-3.06767286 0,-1.6776336 -1.126411,-2.8280109 -2.756113,-2.8280109 -0.599154,0 -1.078478,0.1677633 -1.557802,0.5272563 l 0.335527,-2.3966195 h 3.52303 z m 0,0"
         style="fill:#000000 icc-color(sRGB-IEC61966-2, 0.1, 0, 0, 0);fill-opacity:1;fill-rule:nonzero;stroke:none"
         aria-label="0.05"
         transform="matrix(0.65196,0,0,0.65196,700.98346,283.40646)"
         clip-path="url(#clipPath99)"
         id="path133" />
      <path
         d="m 3.3095873,-8.6760873 c -0.7908844,0 -1.5098702,0.3594929 -1.9652279,0.9346816 -0.55122247,0.7669182 -0.81485061,1.9412617 -0.81485061,3.5469967 0,2.9238757 0.95864781,4.48167836 2.78007851,4.48167836 1.7974646,0 2.7800786,-1.55780266 2.7800786,-4.40977976 0,-1.6776336 -0.2636282,-2.8280109 -0.8388168,-3.6188953 C 4.8194576,-8.3405606 4.1004717,-8.6760873 3.3095873,-8.6760873 Z m 0,0.9346816 c 1.1264112,0 1.7015998,1.1503773 1.7015998,3.5230305 0,2.4685181 -0.5512225,3.61889538 -1.725566,3.61889538 -1.1264111,0 -1.6776336,-1.19830968 -1.6776336,-3.59492918 0,-2.3966194 0.5512225,-3.5469967 1.7015998,-3.5469967 z m 5.6620134,6.4948386 H 7.7253586 v 1.24624213119 h 1.2462421 z m 4.1521433,-4.937036 v 6.18327813119 h 1.054512 V -8.6760873 h -0.695019 c -0.383459,1.3181407 -0.623121,1.5098703 -2.252822,1.725566 v 0.7669182 z m 6.866315,-2.4924842 c -0.790885,0 -1.509871,0.3594929 -1.965228,0.9346816 -0.551223,0.7669182 -0.814851,1.9412617 -0.814851,3.5469967 0,2.9238757 0.958648,4.48167836 2.780079,4.48167836 1.797464,0 2.780078,-1.55780266 2.780078,-4.40977976 0,-1.6776336 -0.263628,-2.8280109 -0.838817,-3.6188953 -0.431391,-0.5991549 -1.150377,-0.9346816 -1.941261,-0.9346816 z m 0,0.9346816 c 1.126411,0 1.701599,1.1503773 1.701599,3.5230305 0,2.4685181 -0.551222,3.61889538 -1.725566,3.61889538 -1.126411,0 -1.677633,-1.19830968 -1.677633,-3.59492918 0,-2.3966194 0.551222,-3.5469967 1.7016,-3.5469967 z m 0,0"
         style="fill:#000000 icc-color(sRGB-IEC61966-2, 0.1, 0, 0, 0);fill-opacity:1;fill-rule:nonzero;stroke:none"
         aria-label="0.10"
         transform="matrix(0.65196,0,0,0.65196,732.05588,283.40646)"
         clip-path="url(#clipPath100)"
         id="path134" />
      <path
         d="m 3.3083477,-8.6760873 c -0.7908844,0 -1.5098703,0.3594929 -1.965228,0.9346816 -0.55122242,0.7669182 -0.81485056,1.9412617 -0.81485056,3.5469967 0,2.9238757 0.95864776,4.48167836 2.78007856,4.48167836 1.7974645,0 2.7800785,-1.55780266 2.7800785,-4.40977976 0,-1.6776336 -0.2636281,-2.8280109 -0.8388168,-3.6188953 C 4.8182179,-8.3405606 4.0992321,-8.6760873 3.3083477,-8.6760873 Z m 0,0.9346816 c 1.1264111,0 1.7015998,1.1503773 1.7015998,3.5230305 0,2.4685181 -0.5512225,3.61889538 -1.725566,3.61889538 -1.1264111,0 -1.6776336,-1.19830968 -1.6776336,-3.59492918 0,-2.3966194 0.5512225,-3.5469967 1.7015998,-3.5469967 z m 5.6620134,6.4948386 H 7.724119 v 1.24624213119 h 1.2462421 z m 4.1521429,-4.937036 v 6.18327813119 h 1.054513 V -8.6760873 h -0.69502 c -0.383459,1.3181407 -0.623121,1.5098703 -2.252822,1.725566 v 0.7669182 z m 9.262934,-2.3247208 h -4.385813 l -0.623121,4.6254755 h 0.958647 c 0.503291,-0.5751887 0.910716,-0.7908844 1.581769,-0.7908844 1.126411,0 1.845397,0.7908844 1.845397,2.0371265 0,1.2222759 -0.718986,1.96522789 -1.869363,1.96522789 -0.910715,0 -1.485904,-0.45535769 -1.725566,-1.41400549 h -1.054512 c 0.143797,0.6950197 0.263628,1.0305464 0.50329,1.34210691 0.479324,0.64708724 1.342107,1.03054635 2.300754,1.03054635 1.725566,0 2.923876,-1.27020829 2.923876,-3.06767286 0,-1.6776336 -1.126411,-2.8280109 -2.756112,-2.8280109 -0.599155,0 -1.078479,0.1677633 -1.557803,0.5272563 l 0.335527,-2.3966195 h 3.52303 z m 0,0"
         style="fill:#000000 icc-color(sRGB-IEC61966-2, 0.1, 0, 0, 0);fill-opacity:1;fill-rule:nonzero;stroke:none"
         aria-label="0.15"
         transform="matrix(0.65196,0,0,0.65196,763.13481,283.40646)"
         clip-path="url(#clipPath101)"
         id="path135" />
      <path
         d="m 3.307108,-8.6760873 c -0.7908844,0 -1.5098702,0.3594929 -1.9652279,0.9346816 -0.55122247,0.7669182 -0.8148506,1.9412617 -0.8148506,3.5469967 0,2.9238757 0.9586478,4.48167836 2.7800785,4.48167836 1.7974646,0 2.7800786,-1.55780266 2.7800786,-4.40977976 0,-1.6776336 -0.2636282,-2.8280109 -0.8388168,-3.6188953 C 4.8169783,-8.3405606 4.0979924,-8.6760873 3.307108,-8.6760873 Z m 0,0.9346816 c 1.1264112,0 1.7015998,1.1503773 1.7015998,3.5230305 0,2.4685181 -0.5512224,3.61889538 -1.725566,3.61889538 -1.1264111,0 -1.6776336,-1.19830968 -1.6776336,-3.59492918 0,-2.3966194 0.5512225,-3.5469967 1.7015998,-3.5469967 z m 5.668005,6.4948386 H 7.7288709 V -3.2496881e-4 H 8.975113 Z m 7.11796,0.1917296 h -4.481679 c 0.09586,-0.7189858 0.479324,-1.1743435 1.533837,-1.7974646 l 1.198309,-0.6710534 c 1.174344,-0.6710535 1.797465,-1.5578026 1.797465,-2.6362814 0,-0.7189858 -0.287594,-1.3900393 -0.790884,-1.8453969 -0.50329,-0.4553577 -1.126411,-0.6710535 -1.941262,-0.6710535 -1.078479,0 -1.869363,0.3834591 -2.348687,1.1264111 -0.287594,0.4553577 -0.431392,0.982614 -0.455358,1.8693632 h 1.054513 c 0.04793,-0.5991549 0.119831,-0.9346816 0.263628,-1.2222759 0.263628,-0.5272563 0.81485,-0.862783 1.461938,-0.862783 0.958647,0 1.677633,0.6950196 1.677633,1.6297012 0,0.7189858 -0.407425,1.3181407 -1.150377,1.7495322 l -1.102445,0.6470872 c -1.773498,1.0065802 -2.300755,1.8214308 -2.396619,3.71476014 h 5.679988 z m 3.894506,-7.6212498 c -0.790884,0 -1.50987,0.3594929 -1.965228,0.9346816 -0.551222,0.7669182 -0.81485,1.9412617 -0.81485,3.5469967 0,2.9238757 0.958647,4.48167836 2.780078,4.48167836 1.797465,0 2.780079,-1.55780266 2.780079,-4.40977976 0,-1.6776336 -0.263628,-2.8280109 -0.838817,-3.6188953 -0.431392,-0.5991549 -1.150377,-0.9346816 -1.941262,-0.9346816 z m 0,0.9346816 c 1.126411,0 1.7016,1.1503773 1.7016,3.5230305 0,2.4685181 -0.551222,3.61889538 -1.725566,3.61889538 -1.126411,0 -1.677634,-1.19830968 -1.677634,-3.59492918 0,-2.3966194 0.551223,-3.5469967 1.7016,-3.5469967 z m 0,0"
         style="fill:#000000 icc-color(sRGB-IEC61966-2, 0.1, 0, 0, 0);fill-opacity:1;fill-rule:nonzero;stroke:none"
         aria-label="0.20"
         transform="matrix(0.65196,0,0,0.65196,794.21374,283.40646)"
         clip-path="url(#clipPath102)"
         id="path136" />
      <path
         d="m 3.3058684,-8.6760873 c -0.7908844,0 -1.5098703,0.3594929 -1.9652279,0.9346816 -0.55122251,0.7669182 -0.81485065,1.9412617 -0.81485065,3.5469967 0,2.9238757 0.95864775,4.48167836 2.78007855,4.48167836 1.7974645,0 2.7800785,-1.55780266 2.7800785,-4.40977976 0,-1.6776336 -0.2636281,-2.8280109 -0.8388168,-3.6188953 C 4.8157386,-8.3405606 4.0967528,-8.6760873 3.3058684,-8.6760873 Z m 0,0.9346816 c 1.1264111,0 1.7015998,1.1503773 1.7015998,3.5230305 0,2.4685181 -0.5512225,3.61889538 -1.725566,3.61889538 -1.1264111,0 -1.6776336,-1.19830968 -1.6776336,-3.59492918 0,-2.3966194 0.5512225,-3.5469967 1.7015998,-3.5469967 z m 5.6680049,6.4948386 H 7.7276312 v 1.24624213119 h 1.2462421 z m 7.1239517,0.1917296 h -4.481679 c 0.09586,-0.7189858 0.479324,-1.1743435 1.533837,-1.7974646 l 1.198309,-0.6710534 c 1.174344,-0.6710535 1.797465,-1.5578026 1.797465,-2.6362814 0,-0.7189858 -0.287594,-1.3900393 -0.790884,-1.8453969 -0.503291,-0.4553577 -1.126412,-0.6710535 -1.941262,-0.6710535 -1.078479,0 -1.869363,0.3834591 -2.348687,1.1264111 -0.287595,0.4553577 -0.431392,0.982614 -0.455358,1.8693632 h 1.054513 c 0.04793,-0.5991549 0.119831,-0.9346816 0.263628,-1.2222759 0.263628,-0.5272563 0.81485,-0.862783 1.461938,-0.862783 0.958647,0 1.677633,0.6950196 1.677633,1.6297012 0,0.7189858 -0.407425,1.3181407 -1.150377,1.7495322 l -1.102445,0.6470872 c -1.773498,1.0065802 -2.300755,1.8214308 -2.396619,3.71476014 h 5.679988 z m 6.285134,-7.4534864 h -4.385814 l -0.623121,4.6254755 h 0.958648 c 0.50329,-0.5751887 0.910716,-0.7908844 1.581769,-0.7908844 1.126411,0 1.845397,0.7908844 1.845397,2.0371265 0,1.2222759 -0.718986,1.96522789 -1.869363,1.96522789 -0.910716,0 -1.485904,-0.45535769 -1.725566,-1.41400549 h -1.054513 c 0.143797,0.6950197 0.263628,1.0305464 0.50329,1.34210691 0.479324,0.64708724 1.342107,1.03054635 2.300755,1.03054635 1.725566,0 2.923876,-1.27020829 2.923876,-3.06767286 0,-1.6776336 -1.126411,-2.8280109 -2.756113,-2.8280109 -0.599155,0 -1.078478,0.1677633 -1.557802,0.5272563 l 0.335526,-2.3966195 h 3.523031 z m 0,0"
         style="fill:#000000 icc-color(sRGB-IEC61966-2, 0.1, 0, 0, 0);fill-opacity:1;fill-rule:nonzero;stroke:none"
         aria-label="0.25"
         transform="matrix(0.65196,0,0,0.65196,825.29267,283.40646)"
         clip-path="url(#clipPath103)"
         id="path137" />
      <path
         d="M 64.8,79.36 V 333.25"
         style="fill:none;stroke:#000000 icc-color(sRGB-IEC61966-2, 0.1, 0, 0, 0);stroke-width:0.75;stroke-linecap:round;stroke-linejoin:round;stroke-miterlimit:10;stroke-dasharray:none;stroke-opacity:1"
         transform="matrix(0.65196,0,0,-0.65196,628.316,308.75467)"
         clip-path="url(#clipPath104)"
         id="path138" />
      <path
         d="M 64.8,79.36 H 57.6"
         style="fill:none;stroke:#000000 icc-color(sRGB-IEC61966-2, 0.1, 0, 0, 0);stroke-width:0.75;stroke-linecap:round;stroke-linejoin:round;stroke-miterlimit:10;stroke-dasharray:none;stroke-opacity:1"
         transform="matrix(0.65196,0,0,-0.65196,628.316,308.75467)"
         clip-path="url(#clipPath105)"
         id="path139" />
      <path
         d="M 64.8,142.83 H 57.6"
         style="fill:none;stroke:#000000 icc-color(sRGB-IEC61966-2, 0.1, 0, 0, 0);stroke-width:0.75;stroke-linecap:round;stroke-linejoin:round;stroke-miterlimit:10;stroke-dasharray:none;stroke-opacity:1"
         transform="matrix(0.65196,0,0,-0.65196,628.316,308.75467)"
         clip-path="url(#clipPath106)"
         id="path140" />
      <path
         d="M 64.8,206.31 H 57.6"
         style="fill:none;stroke:#000000 icc-color(sRGB-IEC61966-2, 0.1, 0, 0, 0);stroke-width:0.75;stroke-linecap:round;stroke-linejoin:round;stroke-miterlimit:10;stroke-dasharray:none;stroke-opacity:1"
         transform="matrix(0.65196,0,0,-0.65196,628.316,308.75467)"
         clip-path="url(#clipPath107)"
         id="path141" />
      <path
         d="M 64.8,269.78 H 57.6"
         style="fill:none;stroke:#000000 icc-color(sRGB-IEC61966-2, 0.1, 0, 0, 0);stroke-width:0.75;stroke-linecap:round;stroke-linejoin:round;stroke-miterlimit:10;stroke-dasharray:none;stroke-opacity:1"
         transform="matrix(0.65196,0,0,-0.65196,628.316,308.75467)"
         clip-path="url(#clipPath108)"
         id="path142" />
      <path
         d="M 64.8,333.25 H 57.6"
         style="fill:none;stroke:#000000 icc-color(sRGB-IEC61966-2, 0.1, 0, 0, 0);stroke-width:0.75;stroke-linecap:round;stroke-linejoin:round;stroke-miterlimit:10;stroke-dasharray:none;stroke-opacity:1"
         transform="matrix(0.65196,0,0,-0.65196,628.316,308.75467)"
         clip-path="url(#clipPath109)"
         id="path143" />
      <path
         d="m 3.1165977,-6.1856007 v 6.18327816 H 4.1711103 V -8.6780849 H 3.4760907 c -0.3834591,1.3181407 -0.6231211,1.5098703 -2.2528223,1.725566 v 0.7669182 z m 9.7123003,3.3792334 c 0,-0.9586477 -0.0719,-1.5338364 -0.263628,-2.0131603 -0.407425,-1.0305463 -1.366073,-1.6536674 -2.540417,-1.6536674 -1.7495319,0 -2.8759431,1.3421069 -2.8759431,3.4031996 0,2.0850589 1.0784788,3.3552672 2.8519771,3.3552672 1.437972,0 2.444552,-0.8388168 2.70818,-2.2048899 h -1.030546 c -0.263628,0.8388168 -0.838817,1.27020832 -1.629702,1.27020832 -0.6470868,0 -1.1743431,-0.28759433 -1.5098698,-0.81485062 C 8.2992873,-1.8237533 8.2034225,-2.1832462 8.2034225,-2.8063673 Z M 8.2273887,-3.6212179 c 0.071899,-1.1743435 0.7908844,-1.9172955 1.7974643,-1.9172955 1.00658,0 1.725566,0.7908844 1.725566,1.9172955 z m 11.6595533,0.4074253 h -6.063447 v 0.8388168 h 6.063447 z m 3.582946,-2.9718081 v 6.18327816 h 1.054513 V -8.6780849 h -0.69502 c -0.383459,1.3181407 -0.623121,1.5098703 -2.252822,1.725566 v 0.7669182 z m 6.213236,2.1809237 h 0.575189 c 1.150377,0 1.749532,0.5512225 1.749532,1.5817688 0,1.102445 -0.647087,1.74953223 -1.749532,1.74953223 -1.150378,0 -1.725566,-0.57518863 -1.797465,-1.84539693 h -1.054512 c 0.04793,0.6950196 0.167763,1.1503773 0.383459,1.5338364 0.431391,0.8388168 1.270208,1.2702083 2.420585,1.2702083 1.749533,0 2.89991,-1.07847875 2.89991,-2.70818 0,-1.1024449 -0.431392,-1.7015997 -1.461938,-2.0610927 0.790884,-0.3355267 1.19831,-0.9346815 1.19831,-1.8214307 0,-1.4859041 -0.982614,-2.3726533 -2.588349,-2.3726533 -1.725566,0 -2.636282,0.9586478 -2.660248,2.8040448 h 1.054513 c 0,-0.5512225 0.04793,-0.8388168 0.191729,-1.102445 0.239662,-0.50329 0.766918,-0.7908844 1.414006,-0.7908844 0.934681,0 1.50987,0.5751887 1.50987,1.5098703 0,0.623121 -0.215696,0.9826139 -0.69502,1.1983097 -0.287594,0.119831 -0.671053,0.1677633 -1.390039,0.1677633 z m 0,0"
         style="fill:#000000 icc-color(sRGB-IEC61966-2, 0.1, 0, 0, 0);fill-opacity:1;fill-rule:nonzero;stroke:none"
         aria-label="1e−13"
         transform="matrix(0,-0.65196,0.65196,0,659.29714,268.00065)"
         clip-path="url(#clipPath110)"
         id="path144" />
      <path
         d="m 3.1150717,-6.1856007 v 6.18327816 H 4.1695842 V -8.6780849 H 3.4745646 c -0.3834591,1.3181407 -0.6231211,1.5098703 -2.2528223,1.725566 v 0.7669182 z m 9.7182913,3.3792334 c 0,-0.9586477 -0.0719,-1.5338364 -0.263628,-2.0131603 -0.407425,-1.0305463 -1.366073,-1.6536674 -2.540416,-1.6536674 -1.7495325,0 -2.8759436,1.3421069 -2.8759436,3.4031996 0,2.0850589 1.0784787,3.3552672 2.8519776,3.3552672 1.437971,0 2.444551,-0.8388168 2.708179,-2.2048899 h -1.030546 c -0.263628,0.8388168 -0.838817,1.27020832 -1.629701,1.27020832 -0.6470874,0 -1.1743436,-0.28759433 -1.5098703,-0.81485062 C 8.3037527,-1.8237533 8.2078879,-2.1832462 8.2078879,-2.8063673 Z M 8.2318541,-3.6212179 c 0.071899,-1.1743435 0.7908844,-1.9172955 1.7974649,-1.9172955 1.00658,0 1.725566,0.7908844 1.725566,1.9172955 z m 11.6535619,0.4074253 h -6.063447 v 0.8388168 h 6.063447 z m 3.774676,-5.4642923 c -0.790885,0 -1.509871,0.359493 -1.965228,0.9346816 -0.551223,0.7669182 -0.814851,1.9412618 -0.814851,3.5469968 0,2.9238757 0.958648,4.4816783 2.780079,4.4816783 1.797464,0 2.780078,-1.5578026 2.780078,-4.4097797 0,-1.6776336 -0.263628,-2.828011 -0.838817,-3.6188954 -0.431391,-0.5991548 -1.150377,-0.9346816 -1.941261,-0.9346816 z m 0,0.9346816 c 1.126411,0 1.701599,1.1503773 1.701599,3.5230306 0,2.468518 -0.551222,3.61889531 -1.725566,3.61889531 -1.126411,0 -1.677633,-1.19830971 -1.677633,-3.59492911 0,-2.3966195 0.551222,-3.5469968 1.7016,-3.5469968 z m 4.008346,5.7518866 c 0.191729,1.4140055 1.102445,2.2767885 2.396619,2.2767885 0.958648,0 1.797465,-0.47932389 2.300755,-1.2462421 0.527256,-0.862783 0.766918,-1.9172955 0.766918,-3.4750982 0,-1.4619378 -0.215696,-2.3966194 -0.718986,-3.1635376 -0.479324,-0.7189858 -1.222276,-1.0784788 -2.156957,-1.0784788 -1.605735,0 -2.780079,1.1983098 -2.780079,2.8999096 0,1.5817688 1.078479,2.7081799 2.612315,2.7081799 0.814851,0 1.414006,-0.2875943 1.941262,-0.9346816 0,2.1569575 -0.671053,3.33130103 -1.893329,3.33130103 -0.742952,0 -1.246242,-0.47932393 -1.414006,-1.31814073 z m 2.588349,-5.7758528 c 0.982614,0 1.725566,0.8388168 1.725566,1.965228 0,1.0545125 -0.718986,1.7974645 -1.773499,1.7974645 -1.00658,0 -1.653667,-0.7189858 -1.653667,-1.8693631 0,-1.102445 0.718986,-1.8933294 1.7016,-1.8933294 z m 0,0"
         style="fill:#000000 icc-color(sRGB-IEC61966-2, 0.1, 0, 0, 0);fill-opacity:1;fill-rule:nonzero;stroke:none"
         aria-label="1e−09"
         transform="matrix(0,-0.65196,0.65196,0,659.29714,226.62075)"
         clip-path="url(#clipPath111)"
         id="path145" />
      <path
         d="m 3.1155287,-6.1856007 v 6.18327816 H 4.1700412 V -8.6780849 H 3.4750216 c -0.3834591,1.3181407 -0.6231211,1.5098703 -2.2528223,1.725566 v 0.7669182 z m 9.7182913,3.3792334 c 0,-0.9586477 -0.0719,-1.5338364 -0.263628,-2.0131603 -0.407425,-1.0305463 -1.366073,-1.6536674 -2.540416,-1.6536674 -1.7495325,0 -2.8759436,1.3421069 -2.8759436,3.4031996 0,2.0850589 1.0784787,3.3552672 2.8519776,3.3552672 1.437971,0 2.444551,-0.8388168 2.708179,-2.2048899 h -1.030546 c -0.263628,0.8388168 -0.838817,1.27020832 -1.629701,1.27020832 -0.6470873,0 -1.1743436,-0.28759433 -1.5098703,-0.81485062 C 8.3042097,-1.8237533 8.2083449,-2.1832462 8.2083449,-2.8063673 Z M 8.2323111,-3.6212179 c 0.071899,-1.1743435 0.7908844,-1.9172955 1.7974649,-1.9172955 1.00658,0 1.725566,0.7908844 1.725566,1.9172955 z m 11.6535619,0.4074253 h -6.063447 v 0.8388168 h 6.063447 z m 3.774676,-5.4642923 c -0.790885,0 -1.509871,0.359493 -1.965228,0.9346816 -0.551223,0.7669182 -0.814851,1.9412618 -0.814851,3.5469968 0,2.9238757 0.958648,4.4816783 2.780079,4.4816783 1.797464,0 2.780078,-1.5578026 2.780078,-4.4097797 0,-1.6776336 -0.263628,-2.828011 -0.838817,-3.6188954 -0.431391,-0.5991548 -1.150377,-0.9346816 -1.941261,-0.9346816 z m 0,0.9346816 c 1.126411,0 1.701599,1.1503773 1.701599,3.5230306 0,2.468518 -0.551222,3.61889531 -1.725566,3.61889531 -1.126411,0 -1.677633,-1.19830971 -1.677633,-3.59492911 0,-2.3966195 0.551222,-3.5469968 1.7016,-3.5469968 z m 9.065213,-0.7669182 h -4.385814 l -0.623121,4.6254755 h 0.958648 c 0.50329,-0.5751887 0.910715,-0.7908844 1.581769,-0.7908844 1.126411,0 1.845397,0.7908844 1.845397,2.0371265 0,1.2222759 -0.718986,1.96522793 -1.869364,1.96522793 -0.910715,0 -1.485904,-0.45535773 -1.725566,-1.41400543 h -1.054512 c 0.143797,0.6950196 0.263628,1.0305463 0.50329,1.34210684 0.479324,0.64708725 1.342107,1.03054636 2.300755,1.03054636 1.725566,0 2.923875,-1.2702083 2.923875,-3.0676729 0,-1.6776336 -1.126411,-2.8280109 -2.756112,-2.8280109 -0.599155,0 -1.078479,0.1677634 -1.557803,0.5272563 l 0.335527,-2.3966194 h 3.523031 z m 0,0"
         style="fill:#000000 icc-color(sRGB-IEC61966-2, 0.1, 0, 0, 0);fill-opacity:1;fill-rule:nonzero;stroke:none"
         aria-label="1e−05"
         transform="matrix(0,-0.65196,0.65196,0,659.29714,185.23433)"
         clip-path="url(#clipPath112)"
         id="path146" />
      <path
         d="m 3.1140026,-6.1856007 v 6.18327816 H 4.1685151 V -8.6780849 H 3.4734955 c -0.3834591,1.3181407 -0.6231211,1.5098703 -2.2528223,1.725566 v 0.7669182 z m 9.7182914,3.3792334 c 0,-0.9586477 -0.0719,-1.5338364 -0.263628,-2.0131603 -0.407425,-1.0305463 -1.366073,-1.6536674 -2.540416,-1.6536674 -1.7495326,0 -2.8759437,1.3421069 -2.8759437,3.4031996 0,2.0850589 1.0784787,3.3552672 2.8519767,3.3552672 1.437972,0 2.444552,-0.8388168 2.70818,-2.2048899 h -1.030546 c -0.263628,0.8388168 -0.838817,1.27020832 -1.629701,1.27020832 -0.6470874,0 -1.1743437,-0.28759433 -1.5098704,-0.81485062 C 8.3026836,-1.8237533 8.2068188,-2.1832462 8.2068188,-2.8063673 Z M 8.230785,-3.6212179 c 0.071899,-1.1743435 0.7908845,-1.9172955 1.797465,-1.9172955 1.00658,0 1.725566,0.7908844 1.725566,1.9172955 z m 11.653562,0.4074253 H 13.8209 v 0.8388168 h 6.063447 z m 3.774676,-5.4642923 c -0.790885,0 -1.509871,0.359493 -1.965228,0.9346816 -0.551223,0.7669182 -0.814851,1.9412618 -0.814851,3.5469968 0,2.9238757 0.958648,4.4816783 2.780079,4.4816783 1.797464,0 2.780078,-1.5578026 2.780078,-4.4097797 0,-1.6776336 -0.263628,-2.828011 -0.838817,-3.6188954 -0.431391,-0.5991548 -1.150377,-0.9346816 -1.941261,-0.9346816 z m 0,0.9346816 c 1.126411,0 1.701599,1.1503773 1.701599,3.5230306 0,2.468518 -0.551222,3.61889531 -1.725566,3.61889531 -1.126411,0 -1.677633,-1.19830971 -1.677633,-3.59492911 0,-2.3966195 0.551222,-3.5469968 1.7016,-3.5469968 z m 6.482855,1.5578026 v 6.18327816 h 1.054513 V -8.6780849 h -0.69502 c -0.383459,1.3181407 -0.623121,1.5098703 -2.252822,1.725566 v 0.7669182 z m 0,0"
         style="fill:#000000 icc-color(sRGB-IEC61966-2, 0.1, 0, 0, 0);fill-opacity:1;fill-rule:nonzero;stroke:none"
         aria-label="1e−01"
         transform="matrix(0,-0.65196,0.65196,0,659.29714,143.85442)"
         clip-path="url(#clipPath113)"
         id="path147" />
      <path
         d="m 3.118468,-6.1856007 v 6.18327816 H 4.1729806 V -8.6780849 H 3.4779609 c -0.3834591,1.3181407 -0.623121,1.5098703 -2.2528222,1.725566 v 0.7669182 z m 9.7123,3.3792334 c 0,-0.9586477 -0.0719,-1.5338364 -0.263628,-2.0131603 -0.407425,-1.0305463 -1.366073,-1.6536674 -2.540416,-1.6536674 -1.7495327,0 -2.8759438,1.3421069 -2.8759438,3.4031996 0,2.0850589 1.0784788,3.3552672 2.8519768,3.3552672 1.437972,0 2.444552,-0.8388168 2.70818,-2.2048899 h -1.030546 c -0.263628,0.8388168 -0.838817,1.27020832 -1.629701,1.27020832 -0.6470875,0 -1.1743438,-0.28759433 -1.5098705,-0.81485062 C 8.3011575,-1.8237533 8.2052928,-2.1832462 8.2052928,-2.8063673 Z M 8.229259,-3.6212179 c 0.071898,-1.1743435 0.7908844,-1.9172955 1.797465,-1.9172955 1.00658,0 1.725566,0.7908844 1.725566,1.9172955 z m 11.539722,0.4074253 h -2.492484 v -2.468518 H 16.43768 v 2.468518 h -2.492484 v 0.8388168 h 2.492484 v 2.49248424 h 0.838817 V -2.3749758 h 2.492484 z m 3.888515,-5.4642923 c -0.790884,0 -1.50987,0.359493 -1.965227,0.9346816 -0.551223,0.7669182 -0.814851,1.9412618 -0.814851,3.5469968 0,2.9238757 0.958648,4.4816783 2.780078,4.4816783 1.797465,0 2.780079,-1.5578026 2.780079,-4.4097797 0,-1.6776336 -0.263628,-2.828011 -0.838817,-3.6188954 -0.431391,-0.5991548 -1.150377,-0.9346816 -1.941262,-0.9346816 z m 0,0.9346816 c 1.126412,0 1.7016,1.1503773 1.7016,3.5230306 0,2.468518 -0.551222,3.61889531 -1.725566,3.61889531 -1.126411,0 -1.677633,-1.19830971 -1.677633,-3.59492911 0,-2.3966195 0.551222,-3.5469968 1.701599,-3.5469968 z m 6.027498,3.7387263 h 0.575189 c 1.150377,0 1.749532,0.5512225 1.749532,1.5817688 0,1.102445 -0.647087,1.74953223 -1.749532,1.74953223 -1.150377,0 -1.725566,-0.57518863 -1.797465,-1.84539693 h -1.054512 c 0.04793,0.6950196 0.167763,1.1503773 0.383459,1.5338364 0.431392,0.8388168 1.270208,1.2702083 2.420586,1.2702083 1.749532,0 2.899909,-1.07847875 2.899909,-2.70818 0,-1.1024449 -0.431391,-1.7015997 -1.461938,-2.0610927 0.790885,-0.3355267 1.19831,-0.9346815 1.19831,-1.8214307 0,-1.4859041 -0.982614,-2.3726533 -2.588349,-2.3726533 -1.725566,0 -2.636281,0.9586478 -2.660248,2.8040448 h 1.054513 c 0,-0.5512225 0.04793,-0.8388168 0.19173,-1.102445 0.239661,-0.50329 0.766918,-0.7908844 1.414005,-0.7908844 0.934682,0 1.50987,0.5751887 1.50987,1.5098703 0,0.623121 -0.215695,0.9826139 -0.695019,1.1983097 -0.287595,0.119831 -0.671054,0.1677633 -1.39004,0.1677633 z m 0,0"
         style="fill:#000000 icc-color(sRGB-IEC61966-2, 0.1, 0, 0, 0);fill-opacity:1;fill-rule:nonzero;stroke:none"
         aria-label="1e+03"
         transform="matrix(0,-0.65196,0.65196,0,659.29714,102.47452)"
         clip-path="url(#clipPath114)"
         id="path148" />
      <path
         d="m 64.8,64.8 h 288 v 288 h -288 v -288"
         style="fill:none;stroke:#000000 icc-color(sRGB-IEC61966-2, 0.1, 0, 0, 0);stroke-width:0.75;stroke-linecap:round;stroke-linejoin:round;stroke-miterlimit:10;stroke-dasharray:none;stroke-opacity:1"
         transform="matrix(0.65196,0,0,-0.65196,628.316,308.75467)"
         clip-path="url(#clipPath115)"
         id="path149" />
      <path
         d="M 4.244994,-7.763998 H 7.1209373 V -8.7466119 H 0.26660577 V -7.763998 H 3.1425491 V 0.00104897 H 4.244994 Z m 4.8831121,1.4619379 h -0.982614 v 6.30310907 h 0.982614 z m 0,-2.4445518 H 8.1215259 v 1.2462421 h 1.0065802 z m 1.7075909,2.4445518 v 6.30310907 h 1.006581 V -3.9533731 c 0,-0.9107154 0.671053,-1.6297012 1.485904,-1.6297012 0.742952,0 1.150377,0.4553577 1.150377,1.2462421 v 4.33788117 h 1.00658 V -3.9533731 c 0,-0.9107154 0.671054,-1.6297012 1.485904,-1.6297012 0.742952,0 1.174344,0.4553577 1.174344,1.2462421 v 4.33788117 h 1.00658 V -4.7202913 c 0,-1.1264111 -0.647087,-1.7495322 -1.821431,-1.7495322 -0.838817,0 -1.342107,0.239662 -1.941262,0.9586478 -0.383459,-0.6710535 -0.886749,-0.9586478 -1.701599,-0.9586478 -0.838817,0 -1.39004,0.3115605 -1.917296,1.0784788 v -0.9107154 z m 15.314399,3.4990643 c 0,-0.9586477 -0.0719,-1.5338364 -0.263629,-2.0131603 -0.407425,-1.0305463 -1.366073,-1.6536674 -2.540416,-1.6536674 -1.749532,0 -2.875943,1.3421069 -2.875943,3.4031996 0,2.0850589 1.078478,3.3552672 2.851977,3.3552672 1.437971,0 2.444551,-0.8388168 2.70818,-2.2048899 h -1.030547 c -0.263628,0.8388168 -0.838817,1.27020832 -1.629701,1.27020832 -0.647087,0 -1.174343,-0.28759433 -1.50987,-0.81485062 -0.239662,-0.3594929 -0.335527,-0.7189858 -0.335527,-1.3421069 z m -4.60151,-0.8148506 c 0.0719,-1.1743435 0.790885,-1.9172955 1.797465,-1.9172955 1.00658,0 1.725566,0.7908844 1.725566,1.9172955 z m 0,0"
         style="fill:#000000 icc-color(sRGB-IEC61966-2, 0.1, 0, 0, 0);fill-opacity:1;fill-rule:nonzero;stroke:none"
         aria-label="Time"
         transform="matrix(0.65196,0,0,0.65196,755.75462,302.18291)"
         clip-path="url(#clipPath116)"
         id="path150" />
      <path
         d="M 3.0900382,-6.300814 H 2.0594919 v -0.982614 c 0,-0.4074253 0.2156957,-0.623121 0.6950196,-0.623121 0.071899,0 0.119831,0 0.3355267,0 v -0.8148506 c -0.2156957,-0.047932 -0.3594929,-0.071899 -0.5512224,-0.071899 -0.9346816,0 -1.4859041,0.5272563 -1.4859041,1.4379716 v 1.054513 H 0.21409491 v 0.8388168 H 1.0529117 V 0.00229508 H 2.0594919 V -5.4619972 h 1.0305463 z m 6.7884245,3.0916391 H 3.8150156 v 0.8388167 H 9.8784627 Z M 13.437443,-6.300814 h -1.030547 v -0.982614 c 0,-0.4074253 0.215696,-0.623121 0.69502,-0.623121 0.0719,0 0.119831,0 0.335527,0 v -0.8148506 c -0.215696,-0.047932 -0.359493,-0.071899 -0.551223,-0.071899 -0.934681,0 -1.485904,0.5272563 -1.485904,1.4379716 v 1.0545126 h -0.838817 v 0.8388168 h 0.838817 v 5.46429228 h 1.00658 V -5.4619972 h 1.030547 z m 5.488258,1.7734984 c 0,-1.2462421 -0.814851,-1.9412618 -2.276788,-1.9412618 -1.461938,0 -2.39662,0.7669182 -2.39662,1.9172956 0,0.9826139 0.50329,1.4619378 1.989194,1.8214307 l 0.934682,0.2156958 c 0.69502,0.1677633 0.958648,0.4313915 0.958648,0.862783 0,0.5991548 -0.575189,1.00658013 -1.461938,1.00658013 -0.527256,0 -0.982614,-0.16776335 -1.246242,-0.43139153 C 15.28284,-1.243947 15.210941,-1.4356766 15.139042,-1.8670681 H 14.08453 c 0.04793,1.43797168 0.862783,2.15695751 2.51645,2.15695751 1.581769,0 2.588349,-0.79088441 2.588349,-2.01316031 0,-0.9346816 -0.527256,-1.4379717 -1.773498,-1.7495322 l -0.958648,-0.2156957 c -0.814851,-0.1917296 -1.174343,-0.4553577 -1.174343,-0.9107154 0,-0.5751887 0.527256,-0.9346816 1.342106,-0.9346816 0.790885,0 1.222276,0.3355267 1.246243,1.0065802 z M 22.724343,-6.300814 H 21.693797 V -8.02638 h -0.982614 v 1.725566 H 19.8484 v 0.8388168 h 0.862783 v 4.74530645 c 0,0.64708725 0.431391,1.00658016 1.198309,1.00658016 0.263628,0 0.479324,-0.0239662 0.814851,-0.0958648 v -0.8388168 c -0.143797,0.0239662 -0.263628,0.0479324 -0.479324,0.0479324 -0.431392,0 -0.551222,-0.11983097 -0.551222,-0.57518861 v -4.2899488 h 1.030546 z m 6.716526,5.70395422 c -0.09586,0.0239662 -0.143797,0.0239662 -0.215696,0.0239662 -0.359493,0 -0.551222,-0.16776336 -0.551222,-0.47932392 v -3.6907939 c 0,-1.1264111 -0.814851,-1.725566 -2.348687,-1.725566 -0.934682,0 -1.653668,0.2636282 -2.085059,0.7429521 -0.287595,0.3115605 -0.407426,0.6710534 -0.431392,1.2941744 h 1.00658 c 0.0719,-0.7669182 0.527257,-1.1024449 1.461938,-1.1024449 0.910716,0 1.414006,0.3355267 1.414006,0.9346816 v 0.2636281 c -0.02397,0.4313915 -0.239662,0.5751887 -1.054513,0.6950197 -1.414005,0.1677633 -1.629701,0.2156957 -2.01316,0.3834591 -0.718986,0.3115605 -1.102445,0.862783 -1.102445,1.6776336 0,1.12641109 0.790884,1.86936311 2.061093,1.86936311 0.790884,0 1.437971,-0.28759433 2.132991,-0.93468158 0.0719,0.64708725 0.383459,0.93468158 1.030546,0.93468158 0.215696,0 0.359493,-0.0239662 0.69502,-0.11983097 z M 27.691337,-1.986899 c 0,0.3355267 -0.09586,0.5512224 -0.407426,0.8148506 -0.407425,0.38345907 -0.886749,0.57518862 -1.485904,0.57518862 -0.766918,0 -1.222276,-0.3834591 -1.222276,-1.00658012 0,-0.6710535 0.431392,-1.0065802 1.509871,-1.1503774 1.054512,-0.1437971 1.270208,-0.1917295 1.605735,-0.3594929 z m 2.834002,-4.313915 v 6.30310908 h 1.00658 V -3.2571073 c 0,-1.5098703 0.623121,-2.1809237 2.013161,-2.1569575 v -1.0305464 c -0.167764,-0.023966 -0.263629,-0.023966 -0.38346,-0.023966 -0.647087,0 -1.150377,0.3834591 -1.725566,1.3181407 V -6.300814 Z m 0,0"
         style="fill:#000000 icc-color(sRGB-IEC61966-2, 0.1, 0, 0, 0);fill-opacity:1;fill-rule:nonzero;stroke:none"
         aria-label="f−fstar"
         transform="matrix(0,-0.65196,0.65196,0,640.52069,183.60443)"
         clip-path="url(#clipPath117)"
         id="path151" />
      <path
         d="m 75.47,342.13 22.83,-10.89 22.83,-14.98 22.83,-18.82 22.83,-27.29 22.83,-48.14 22.83,-94.85"
         style="fill:none;stroke:#0000ff icc-color(sRGB-IEC61966-2, 0.1, 0, 0, 1);stroke-width:0.75;stroke-linecap:round;stroke-linejoin:round;stroke-miterlimit:10;stroke-dasharray:none;stroke-opacity:1"
         transform="matrix(0.65196,0,0,-0.65196,628.316,308.75467)"
         clip-path="url(#clipPath118)"
         id="path152" />
      <path
         d="M 211.74,352.8 H 352.8 V 309.6 H 211.74 Z"
         style="fill:none;stroke:#000000 icc-color(sRGB-IEC61966-2, 0.1, 0, 0, 0);stroke-width:0.75;stroke-linecap:round;stroke-linejoin:round;stroke-miterlimit:10;stroke-dasharray:none;stroke-opacity:1"
         transform="matrix(0.65196,0,0,-0.65196,628.316,308.75467)"
         clip-path="url(#clipPath119)"
         id="path153" />
      <path
         d="m 222.54,338.4 h 21.6"
         style="fill:none;stroke:#000000 icc-color(sRGB-IEC61966-2, 0.1, 0, 0, 0);stroke-width:0.75;stroke-linecap:round;stroke-linejoin:round;stroke-miterlimit:10;stroke-dasharray:none;stroke-opacity:1"
         transform="matrix(0.65196,0,0,-0.65196,628.316,308.75467)"
         clip-path="url(#clipPath120)"
         id="path154" />
      <path
         d="m 222.54,324 h 21.6"
         style="fill:none;stroke:#0000ff icc-color(sRGB-IEC61966-2, 0.1, 0, 0, 1);stroke-width:0.75;stroke-linecap:round;stroke-linejoin:round;stroke-miterlimit:10;stroke-dasharray:none;stroke-opacity:1"
         transform="matrix(0.65196,0,0,-0.65196,628.316,308.75467)"
         clip-path="url(#clipPath121)"
         id="path155" />
      <path
         d="M 8.5070961,-4.6253896 H 4.8642345 v 0.9826139 h 2.6602476 v 0.239662 c 0,1.5578026 -1.1503773,2.68421374 -2.7561123,2.68421374 -0.8867492,0 -1.6776336,-0.31156054 -2.2048899,-0.88674914 -0.5751887,-0.6231211 -0.9107154,-1.6536674 -0.9107154,-2.7321462 0,-2.1569575 1.2222759,-3.5709629 3.0676729,-3.5709629 1.3421069,0 2.3007546,0.6710534 2.5404166,1.7974645 H 8.3872651 C 8.0757046,-7.884792 6.7335977,-8.8913722 4.7204374,-8.8913722 c -1.0545126,0 -1.9172956,0.2636281 -2.6123152,0.8388168 -1.0065802,0.8388168 -1.58176882,2.2048899 -1.58176882,3.7626925 0,2.6842138 1.65366742,4.5775431 4.00235442,4.5775431 1.1983097,0 2.1329913,-0.45535769 2.9957743,-1.4140055 L 7.8120764,0.04801826 H 8.5070961 Z M 10.172747,-6.3030232 V 8.5869276e-5 h 1.00658 V -3.2593165 c 0,-1.5098703 0.623121,-2.1809237 2.01316,-2.1569575 v -1.0305464 c -0.167763,-0.023966 -0.263628,-0.023966 -0.383459,-0.023966 -0.647087,0 -1.150377,0.3834591 -1.725566,1.3181407 V -6.303023 Z m 9.460655,5.70395421 c -0.09586,0.0239662 -0.143797,0.0239662 -0.215696,0.0239662 -0.359493,0 -0.551222,-0.16776336 -0.551222,-0.47932391 v -3.6907939 c 0,-1.1264111 -0.814851,-1.725566 -2.348688,-1.725566 -0.934681,0 -1.653667,0.2636282 -2.085058,0.742952 -0.287595,0.3115606 -0.407426,0.6710535 -0.431392,1.2941745 h 1.00658 c 0.0719,-0.7669182 0.527257,-1.1024449 1.461938,-1.1024449 0.910715,0 1.414006,0.3355267 1.414006,0.9346816 v 0.2636281 c -0.02397,0.4313915 -0.239662,0.5751887 -1.054513,0.6950196 -1.414005,0.1677634 -1.629701,0.2156958 -2.01316,0.3834592 -0.718986,0.3115605 -1.102445,0.8627829 -1.102445,1.6776335 0,1.12641118 0.790884,1.8693632 2.061092,1.8693632 0.790885,0 1.437972,-0.287594330724 2.132992,-0.93468158 0.0719,0.647087249276 0.383459,0.93468158 1.030546,0.93468158 0.215696,0 0.359493,-0.0239662 0.69502,-0.11983097 z M 17.88387,-1.9891083 c 0,0.3355268 -0.09587,0.5512225 -0.407426,0.8148507 -0.407425,0.38345906 -0.886749,0.57518861 -1.485904,0.57518861 -0.766918,0 -1.222276,-0.3834591 -1.222276,-1.00658011 0,-0.6710535 0.431392,-1.0065802 1.509871,-1.1503774 1.054512,-0.1437971 1.270208,-0.1917295 1.605735,-0.3594929 z m 7.944793,-6.7584667 h -1.00658 v 3.2594024 c -0.407426,-0.6470873 -1.078479,-0.982614 -1.917296,-0.982614 -1.629701,0 -2.70818,1.3181407 -2.70818,3.3073348 0,2.1329913 1.030547,3.451132 2.732146,3.451132 0.862783,0 1.461938,-0.33552672 2.013161,-1.12641113 V 8.5869276e-5 h 0.886749 z m -2.756112,3.21147 c 1.078478,0 1.749532,0.9586478 1.749532,2.468518 0,1.4379717 -0.69502,2.39661943 -1.749532,2.39661943 -1.102445,0 -1.821431,-0.95864773 -1.821431,-2.42058563 0,-1.4619378 0.718986,-2.4445518 1.821431,-2.4445518 z m 5.278554,-0.7669182 H 27.368491 V 8.5869276e-5 h 0.982614 z m 0,-2.4445518 h -1.00658 v 1.2462421 h 1.00658 z m 7.028086,5.9436161 c 0,-0.9586477 -0.0719,-1.5338364 -0.263628,-2.0131603 -0.407425,-1.0305463 -1.366073,-1.6536674 -2.540416,-1.6536674 -1.749533,0 -2.875944,1.3421069 -2.875944,3.4031996 0,2.08505891 1.078479,3.3552672 2.851977,3.3552672 1.437972,0 2.444552,-0.8388168 2.70818,-2.2048899 h -1.030546 c -0.263628,0.8388168 -0.838817,1.27020832 -1.629701,1.27020832 -0.647087,0 -1.174344,-0.28759433 -1.50987,-0.81485062 -0.239662,-0.3594929 -0.335527,-0.7189858 -0.335527,-1.3421069 z m -4.601509,-0.8148506 c 0.0719,-1.1743435 0.790884,-1.9172955 1.797465,-1.9172955 1.00658,0 1.725566,0.7908844 1.725566,1.9172955 z m 5.955599,-2.6842137 V 8.5869276e-5 h 1.00658 V -3.4750123 c 0,-1.2702083 0.671054,-2.1090251 1.7016,-2.1090251 0.790885,0 1.294175,0.4793239 1.294175,1.2222759 V 8.5869276e-5 h 1.00658 V -4.7452206 c 0,-1.0545125 -0.790884,-1.725566 -1.989194,-1.725566 -0.934682,0 -1.533837,0.3594929 -2.085059,1.2462421 v -1.0784787 z m 8.873484,0 h -1.030547 v -1.725566 h -0.982614 v 1.725566 h -0.862783 v 0.8388168 h 0.862783 v 4.74530644 c 0,0.64708725 0.431392,1.00658016 1.19831,1.00658016 0.263628,0 0.479324,-0.0239662 0.814851,-0.0958648 v -0.8388168 c -0.143797,0.0239662 -0.263628,0.0479324 -0.479324,0.0479324 -0.431392,0 -0.551223,-0.11983097 -0.551223,-0.5751886 v -4.2899488 h 1.030547 z m 9.574494,-2.4445518 h -1.00658 v 3.2594024 c -0.407425,-0.6470873 -1.078479,-0.982614 -1.917295,-0.982614 -1.629702,0 -2.70818,1.3181407 -2.70818,3.3073348 0,2.1329913 1.030546,3.451132 2.732146,3.451132 0.862783,0 1.461938,-0.33552672 2.01316,-1.12641113 V 8.5869276e-5 h 0.886749 z m -2.756112,3.21147 c 1.078479,0 1.749532,0.9586478 1.749532,2.468518 0,1.4379717 -0.695019,2.39661943 -1.749532,2.39661943 -1.102445,0 -1.821431,-0.95864773 -1.821431,-2.42058563 0,-1.4619378 0.718986,-2.4445518 1.821431,-2.4445518 z m 9.640402,2.7321461 c 0,-0.9586477 -0.0719,-1.5338364 -0.263628,-2.0131603 -0.407426,-1.0305463 -1.366074,-1.6536674 -2.540417,-1.6536674 -1.749532,0 -2.875943,1.3421069 -2.875943,3.4031996 0,2.08505891 1.078478,3.3552672 2.851977,3.3552672 1.437971,0 2.444552,-0.8388168 2.70818,-2.2048899 h -1.030547 c -0.263628,0.8388168 -0.838816,1.27020832 -1.629701,1.27020832 -0.647087,0 -1.174343,-0.28759433 -1.50987,-0.81485062 -0.239662,-0.3594929 -0.335527,-0.7189858 -0.335527,-1.3421069 z m -4.60151,-0.8148506 c 0.0719,-1.1743435 0.790885,-1.9172955 1.797465,-1.9172955 1.00658,0 1.725566,0.7908844 1.725566,1.9172955 z m 10.365379,-0.9107153 c 0,-1.2462421 -0.81485,-1.9412618 -2.276788,-1.9412618 -1.461938,0 -2.39662,0.7669182 -2.39662,1.9172956 0,0.9826139 0.503291,1.4619378 1.989195,1.8214307 l 0.934681,0.2156958 c 0.69502,0.1677633 0.958648,0.4313915 0.958648,0.862783 0,0.5991548 -0.575189,1.00658012 -1.461938,1.00658012 -0.527256,0 -0.982614,-0.16776336 -1.246242,-0.43139152 -0.143797,-0.1677633 -0.215696,-0.3594929 -0.287594,-0.7908844 h -1.054513 c 0.04793,1.43797167 0.862783,2.1569575 2.516451,2.1569575 1.581768,0 2.588349,-0.79088441 2.588349,-2.0131603 0,-0.9346816 -0.527257,-1.4379717 -1.773499,-1.7495322 L 65.3609,-3.690708 c -0.81485,-0.1917296 -1.174343,-0.4553577 -1.174343,-0.9107154 0,-0.5751887 0.527256,-0.9346816 1.342107,-0.9346816 0.790884,0 1.222276,0.3355267 1.246242,1.0065802 z m 6.404966,0.3594929 c -0.04793,-0.6231211 -0.19173,-1.0065802 -0.431392,-1.3660731 -0.431391,-0.5991549 -1.174343,-0.9346816 -2.061092,-0.9346816 -1.7016,0 -2.780079,1.3421069 -2.780079,3.4271658 0,2.0371265 1.078479,3.331301 2.780079,3.331301 1.485904,0 2.444551,-0.91071538 2.564382,-2.4445518 h -1.00658 c -0.167763,1.0065801 -0.695019,1.50987022 -1.533836,1.50987022 -1.102445,0 -1.773499,-0.91071542 -1.773499,-2.39661942 0,-1.5578026 0.647088,-2.4924842 1.749533,-2.4924842 0.838816,0 1.366073,0.4793239 1.485904,1.3660731 z m 6.506822,1.366073 c 0,-0.9586477 -0.0719,-1.5338364 -0.263629,-2.0131603 -0.407425,-1.0305463 -1.366073,-1.6536674 -2.540416,-1.6536674 -1.749532,0 -2.875944,1.3421069 -2.875944,3.4031996 0,2.08505891 1.078479,3.3552672 2.851978,3.3552672 1.437971,0 2.444551,-0.8388168 2.70818,-2.2048899 h -1.030547 c -0.263628,0.8388168 -0.838817,1.27020832 -1.629701,1.27020832 -0.647087,0 -1.174344,-0.28759433 -1.50987,-0.81485062 -0.239662,-0.3594929 -0.335527,-0.7189858 -0.335527,-1.3421069 z m -4.60151,-0.8148506 c 0.0719,-1.1743435 0.790885,-1.9172955 1.797465,-1.9172955 1.00658,0 1.725566,0.7908844 1.725566,1.9172955 z m 5.949608,-2.6842137 V 8.5869276e-5 h 1.00658 V -3.4750123 c 0,-1.2702083 0.671054,-2.1090251 1.7016,-2.1090251 0.790884,0 1.294174,0.4793239 1.294174,1.2222759 V 8.5869276e-5 h 1.006581 V -4.7452206 c 0,-1.0545125 -0.790885,-1.725566 -1.989195,-1.725566 -0.934681,0 -1.533836,0.3594929 -2.085058,1.2462421 v -1.0784787 z m 8.879475,0 h -1.030546 v -1.725566 h -0.982614 v 1.725566 h -0.862783 v 0.8388168 h 0.862783 v 4.74530644 c 0,0.64708725 0.431391,1.00658016 1.198309,1.00658016 0.263628,0 0.479324,-0.0239662 0.814851,-0.0958648 v -0.8388168 c -0.143797,0.0239662 -0.263628,0.0479324 -0.479324,0.0479324 -0.431391,0 -0.551222,-0.11983097 -0.551222,-0.5751886 v -4.2899488 h 1.030546 z m 0,0"
         style="fill:#000000 icc-color(sRGB-IEC61966-2, 0.1, 0, 0, 0);fill-opacity:1;fill-rule:nonzero;stroke:none"
         aria-label="Gradient descent"
         transform="matrix(0.65196,0,0,0.65196,794.52668,90.94135)"
         clip-path="url(#clipPath122)"
         id="path156" />
      <path
         d="M 7.764144,-8.7498838 H 6.7096315 V -1.607958 L 2.1320884,-8.7498838 H 0.90981249 v 8.74766086 H 1.964325 V -7.0962164 l 4.5296107,7.09399346 H 7.764144 Z m 7.058044,5.9436161 c 0,-0.9586477 -0.0719,-1.5338364 -0.263628,-2.0131603 -0.407425,-1.0305463 -1.366073,-1.6536674 -2.540416,-1.6536674 -1.749533,0 -2.8759438,1.3421069 -2.8759438,3.4031996 0,2.0850589 1.0784788,3.35526719 2.8519768,3.35526719 1.437972,0 2.444552,-0.8388168 2.70818,-2.20488989 h -1.030546 c -0.263628,0.8388168 -0.838817,1.27020832 -1.629701,1.27020832 -0.647088,0 -1.174344,-0.28759433 -1.509871,-0.81485062 -0.239661,-0.3594929 -0.335526,-0.7189858 -0.335526,-1.3421069 z m -4.601509,-0.8148506 c 0.0719,-1.1743435 0.790884,-1.9172955 1.797465,-1.9172955 1.00658,0 1.725566,0.7908844 1.725566,1.9172955 z m 11.539722,3.61889536 1.845397,-6.30310906 h -1.126411 l -1.246242,4.9130698 -1.246242,-4.9130698 h -1.222276 l -1.19831,4.9130698 -1.294174,-4.9130698 h -1.102445 l 1.821431,6.30310906 h 1.126411 l 1.222276,-4.93703606 1.270208,4.93703606 z M 26.805285,-6.305332 h -1.030546 v -1.725566 h -0.982614 v 1.725566 h -0.862783 v 0.8388168 h 0.862783 v 4.74530643 c 0,0.64708725 0.431392,1.00658016 1.19831,1.00658016 0.263628,0 0.479324,-0.0239662 0.81485,-0.0958648 v -0.8388168 c -0.143797,0.0239662 -0.263628,0.0479324 -0.479324,0.0479324 -0.431391,0 -0.551222,-0.11983098 -0.551222,-0.57518869 v -4.2899487 h 1.030546 z m 3.552989,-0.1677634 c -1.773499,0 -2.828011,1.2702083 -2.828011,3.3792334 0,2.1090251 1.054512,3.37923339 2.851977,3.37923339 1.773498,0 2.851977,-1.27020829 2.851977,-3.33130099 0,-2.1809237 -1.054513,-3.4271658 -2.875943,-3.4271658 z m 0.02397,0.9346816 c 1.126411,0 1.797464,0.9107154 1.797464,2.468518 0,1.485904 -0.695019,2.42058562 -1.797464,2.42058562 -1.126411,0 -1.797465,-0.93468162 -1.797465,-2.44455182 0,-1.5338364 0.671054,-2.4445518 1.797465,-2.4445518 z m 4.224042,-0.7669182 v 6.30310906 h 1.00658 V -3.4773211 c 0,-1.2702083 0.671053,-2.1090251 1.7016,-2.1090251 0.790884,0 1.294174,0.4793239 1.294174,1.2222759 v 4.36184736 h 1.00658 V -4.7475294 c 0,-1.0545125 -0.790884,-1.725566 -1.989194,-1.725566 -0.934682,0 -1.533836,0.3594929 -2.085059,1.2462421 V -6.305332 Z m 6.410957,-2.2048899 v 1.3181407 l 0.335526,1.6297012 h 0.479324 l 0.311561,-1.6297012 v -1.3181407 z m 6.962179,3.9783882 c 0,-1.2462421 -0.814851,-1.9412617 -2.276788,-1.9412617 -1.461938,0 -2.39662,0.7669182 -2.39662,1.9172956 0,0.9826139 0.50329,1.4619378 1.989194,1.8214307 l 0.934682,0.2156958 c 0.695019,0.1677633 0.958648,0.4313915 0.958648,0.862783 0,0.5991548 -0.575189,1.00658012 -1.461938,1.00658012 -0.527257,0 -0.982614,-0.16776336 -1.246242,-0.43139152 -0.143798,-0.1677633 -0.215696,-0.3594929 -0.287595,-0.7908844 h -1.054512 c 0.04793,1.43797167 0.862783,2.15695749 2.51645,2.15695749 1.581769,0 2.588349,-0.79088441 2.588349,-2.01316029 0,-0.9346816 -0.527256,-1.4379717 -1.773498,-1.7495322 L 45.5109,-3.6930169 c -0.814851,-0.1917295 -1.174344,-0.4553576 -1.174344,-0.9107153 0,-0.5751887 0.527257,-0.9346816 1.342107,-0.9346816 0.790885,0 1.222276,0.3355267 1.246242,1.0065801 z m 4.925053,-1.7734983 v 6.30310906 h 1.00658 V -3.956645 c 0,-0.9107154 0.671054,-1.6297012 1.485904,-1.6297012 0.742952,0 1.150377,0.4553577 1.150377,1.2462421 v 4.33788116 h 1.006581 V -3.956645 c 0,-0.9107154 0.671053,-1.6297012 1.485904,-1.6297012 0.742952,0 1.174343,0.4553577 1.174343,1.2462421 v 4.33788116 h 1.00658 V -4.7235632 c 0,-1.1264111 -0.647087,-1.7495322 -1.82143,-1.7495322 -0.838817,0 -1.342107,0.239662 -1.941262,0.9586478 -0.383459,-0.6710535 -0.886749,-0.9586478 -1.7016,-0.9586478 -0.838817,0 -1.390039,0.3115605 -1.917296,1.0784788 V -6.305332 Z m 15.32039,3.4990643 c 0,-0.9586477 -0.0719,-1.5338364 -0.263629,-2.0131603 -0.407425,-1.0305463 -1.366073,-1.6536674 -2.540416,-1.6536674 -1.749532,0 -2.875943,1.3421069 -2.875943,3.4031996 0,2.0850589 1.078478,3.35526719 2.851977,3.35526719 1.437971,0 2.444551,-0.8388168 2.70818,-2.20488989 h -1.030547 c -0.263628,0.8388168 -0.838817,1.27020832 -1.629701,1.27020832 -0.647087,0 -1.174343,-0.28759433 -1.50987,-0.81485062 -0.239662,-0.3594929 -0.335527,-0.7189858 -0.335527,-1.3421069 z m -4.60151,-0.8148506 c 0.0719,-1.1743435 0.790885,-1.9172955 1.797465,-1.9172955 1.00658,0 1.725566,0.7908844 1.725566,1.9172955 z m 8.154498,-2.6842137 h -1.030546 v -1.725566 h -0.982614 v 1.725566 H 68.90191 v 0.8388168 h 0.862783 v 4.74530643 c 0,0.64708725 0.431391,1.00658016 1.198309,1.00658016 0.263628,0 0.479324,-0.0239662 0.814851,-0.0958648 v -0.8388168 c -0.143797,0.0239662 -0.263628,0.0479324 -0.479324,0.0479324 -0.431392,0 -0.551222,-0.11983098 -0.551222,-0.57518869 v -4.2899487 h 1.030546 z m 1.132403,-2.4445518 v 8.74766086 h 1.00658 V -3.4773211 c 0,-1.2702083 0.671053,-2.1090251 1.701599,-2.1090251 0.335527,0 0.647088,0.095865 0.88675,0.2636281 0.287594,0.2156958 0.407425,0.5272563 0.407425,0.9586478 v 4.36184736 h 0.98261 V -4.7475294 c 0,-1.0545125 -0.742952,-1.725566 -1.965228,-1.725566 -0.886749,0 -1.437972,0.2636282 -2.01316,1.0545126 v -3.331301 z m 9.09517,2.2767884 c -1.773498,0 -2.828011,1.2702083 -2.828011,3.3792334 0,2.1090251 1.054513,3.37923339 2.851977,3.37923339 1.773499,0 2.851978,-1.27020829 2.851978,-3.33130099 0,-2.1809237 -1.054513,-3.4271658 -2.875944,-3.4271658 z m 0.02397,0.9346816 c 1.126412,0 1.797465,0.9107154 1.797465,2.468518 0,1.485904 -0.69502,2.42058562 -1.797465,2.42058562 -1.126411,0 -1.797464,-0.93468162 -1.797464,-2.44455182 0,-1.5338364 0.671053,-2.4445518 1.797464,-2.4445518 z m 9.328842,-3.21147 h -1.006581 v 3.2594024 c -0.407425,-0.6470873 -1.078478,-0.982614 -1.917295,-0.982614 -1.629701,0 -2.70818,1.3181407 -2.70818,3.3073348 0,2.1329913 1.030546,3.45113199 2.732146,3.45113199 0.862783,0 1.461938,-0.33552672 2.01316,-1.12641113 v 0.8388168 h 0.88675 z m -2.756113,3.21147 c 1.078479,0 1.749532,0.9586478 1.749532,2.468518 0,1.4379717 -0.695019,2.39661942 -1.749532,2.39661942 -1.102445,0 -1.821431,-0.95864772 -1.821431,-2.42058562 0,-1.4619378 0.718986,-2.4445518 1.821431,-2.4445518 z m 0,0"
         style="fill:#000000 icc-color(sRGB-IEC61966-2, 0.1, 0, 0, 0);fill-opacity:1;fill-rule:nonzero;stroke:none"
         aria-label="Newton's method"
         transform="matrix(0.65196,0,0,0.65196,794.52668,100.32957)"
         clip-path="url(#clipPath123)"
         id="path157" />
    </g>
  </g>
</svg>
