<?xml version="1.0" encoding="UTF-8" standalone="no"?>
<!-- Created with Inkscape (http://www.inkscape.org/) -->

<svg
   width="56.635078mm"
   height="56.609585mm"
   viewBox="0 0 56.635078 56.609585"
   version="1.1"
   id="svg1"
   inkscape:version="1.3.2 (091e20ef0f, 2023-11-25)"
   sodipodi:docname="newton-gd-convergence-iteration.svg"
   xmlns:inkscape="http://www.inkscape.org/namespaces/inkscape"
   xmlns:sodipodi="http://sodipodi.sourceforge.net/DTD/sodipodi-0.dtd"
   xmlns="http://www.w3.org/2000/svg"
   xmlns:svg="http://www.w3.org/2000/svg">
  <sodipodi:namedview
     id="namedview1"
     pagecolor="#ffffff"
     bordercolor="#666666"
     borderopacity="1.0"
     inkscape:showpageshadow="2"
     inkscape:pageopacity="0.0"
     inkscape:pagecheckerboard="0"
     inkscape:deskcolor="#d1d1d1"
     inkscape:document-units="mm"
     inkscape:zoom="0.73075397"
     inkscape:cx="260.00543"
     inkscape:cy="263.42655"
     inkscape:window-width="1080"
     inkscape:window-height="1502"
     inkscape:window-x="0"
     inkscape:window-y="418"
     inkscape:window-maximized="1"
     inkscape:current-layer="layer1" />
  <defs
     id="defs1">
    <clipPath
       clipPathUnits="userSpaceOnUse"
       id="clipPath10">
      <path
         d="m 64.8,64.8 h 288 v 288 h -288 z"
         transform="translate(5.3451926e-6)"
         id="path10" />
    </clipPath>
    <clipPath
       clipPathUnits="userSpaceOnUse"
       id="clipPath11">
      <path
         d="M 0,0 H 360 V 360 H 0 Z"
         transform="translate(5.3451926e-6)"
         id="path11" />
    </clipPath>
    <clipPath
       clipPathUnits="userSpaceOnUse"
       id="clipPath12">
      <path
         d="M 0,0 H 360 V 360 H 0 Z"
         transform="translate(5.3451926e-6)"
         id="path12" />
    </clipPath>
    <clipPath
       clipPathUnits="userSpaceOnUse"
       id="clipPath13">
      <path
         d="M 0,0 H 360 V 360 H 0 Z"
         transform="translate(5.3451926e-6)"
         id="path13" />
    </clipPath>
    <clipPath
       clipPathUnits="userSpaceOnUse"
       id="clipPath14">
      <path
         d="M 0,0 H 360 V 360 H 0 Z"
         transform="translate(5.3451926e-6)"
         id="path14" />
    </clipPath>
    <clipPath
       clipPathUnits="userSpaceOnUse"
       id="clipPath15">
      <path
         d="M 0,0 H 360 V 360 H 0 Z"
         transform="translate(5.3451926e-6)"
         id="path15" />
    </clipPath>
    <clipPath
       clipPathUnits="userSpaceOnUse"
       id="clipPath16">
      <path
         d="M 0,0 H 360 V 360 H 0 Z"
         transform="translate(5.3451926e-6)"
         id="path16" />
    </clipPath>
    <clipPath
       clipPathUnits="userSpaceOnUse"
       id="clipPath17">
      <path
         d="M 0,0 H 360 V 360 H 0 Z"
         transform="translate(5.3451926e-6)"
         id="path17" />
    </clipPath>
    <clipPath
       clipPathUnits="userSpaceOnUse"
       id="clipPath18">
      <path
         d="M 0,0 H 360 V 360 H 0 Z"
         transform="translate(5.3451926e-6)"
         id="path18" />
    </clipPath>
    <clipPath
       clipPathUnits="userSpaceOnUse"
       id="clipPath19">
      <path
         d="M 0,0 H 360 V 360 H 0 Z"
         transform="translate(5.3451926e-6)"
         id="path19" />
    </clipPath>
    <clipPath
       clipPathUnits="userSpaceOnUse"
       id="clipPath20">
      <path
         d="M 0,0 H 360 V 360 H 0 Z"
         transform="matrix(1,0,0,-1,-68.370005,38.879995)"
         id="path20" />
    </clipPath>
    <clipPath
       clipPathUnits="userSpaceOnUse"
       id="clipPath21">
      <path
         d="M 0,0 H 360 V 360 H 0 Z"
         transform="matrix(1,0,0,-1,-102.6,38.879995)"
         id="path21" />
    </clipPath>
    <clipPath
       clipPathUnits="userSpaceOnUse"
       id="clipPath22">
      <path
         d="M 0,0 H 360 V 360 H 0 Z"
         transform="matrix(1,0,0,-1,-140.16,38.879995)"
         id="path22" />
    </clipPath>
    <clipPath
       clipPathUnits="userSpaceOnUse"
       id="clipPath23">
      <path
         d="M 0,0 H 360 V 360 H 0 Z"
         transform="matrix(1,0,0,-1,-177.71,38.879995)"
         id="path23" />
    </clipPath>
    <clipPath
       clipPathUnits="userSpaceOnUse"
       id="clipPath24">
      <path
         d="M 0,0 H 360 V 360 H 0 Z"
         transform="matrix(1,0,0,-1,-215.27001,38.879995)"
         id="path24" />
    </clipPath>
    <clipPath
       clipPathUnits="userSpaceOnUse"
       id="clipPath25">
      <path
         d="M 0,0 H 360 V 360 H 0 Z"
         transform="matrix(1,0,0,-1,-252.83,38.879995)"
         id="path25" />
    </clipPath>
    <clipPath
       clipPathUnits="userSpaceOnUse"
       id="clipPath26">
      <path
         d="M 0,0 H 360 V 360 H 0 Z"
         transform="matrix(1,0,0,-1,-290.39,38.879995)"
         id="path26" />
    </clipPath>
    <clipPath
       clipPathUnits="userSpaceOnUse"
       id="clipPath27">
      <path
         d="M 0,0 H 360 V 360 H 0 Z"
         transform="matrix(1,0,0,-1,-327.95001,38.879995)"
         id="path27" />
    </clipPath>
    <clipPath
       clipPathUnits="userSpaceOnUse"
       id="clipPath28">
      <path
         d="M 0,0 H 360 V 360 H 0 Z"
         transform="translate(5.3451926e-6)"
         id="path28" />
    </clipPath>
    <clipPath
       clipPathUnits="userSpaceOnUse"
       id="clipPath29">
      <path
         d="M 0,0 H 360 V 360 H 0 Z"
         transform="translate(5.3451926e-6)"
         id="path29" />
    </clipPath>
    <clipPath
       clipPathUnits="userSpaceOnUse"
       id="clipPath30">
      <path
         d="M 0,0 H 360 V 360 H 0 Z"
         transform="translate(5.3451926e-6)"
         id="path30" />
    </clipPath>
    <clipPath
       clipPathUnits="userSpaceOnUse"
       id="clipPath31">
      <path
         d="M 0,0 H 360 V 360 H 0 Z"
         transform="translate(5.3451926e-6)"
         id="path31" />
    </clipPath>
    <clipPath
       clipPathUnits="userSpaceOnUse"
       id="clipPath32">
      <path
         d="M 0,0 H 360 V 360 H 0 Z"
         transform="translate(5.3451926e-6)"
         id="path32" />
    </clipPath>
    <clipPath
       clipPathUnits="userSpaceOnUse"
       id="clipPath33">
      <path
         d="M 0,0 H 360 V 360 H 0 Z"
         transform="translate(5.3451926e-6)"
         id="path33" />
    </clipPath>
    <clipPath
       clipPathUnits="userSpaceOnUse"
       id="clipPath34">
      <path
         d="M 0,0 H 360 V 360 H 0 Z"
         transform="matrix(0,1,1,0,-62.510007,-47.520002)"
         id="path34" />
    </clipPath>
    <clipPath
       clipPathUnits="userSpaceOnUse"
       id="clipPath35">
      <path
         d="M 0,0 H 360 V 360 H 0 Z"
         transform="matrix(0,1,1,0,-125.97999,-47.520002)"
         id="path35" />
    </clipPath>
    <clipPath
       clipPathUnits="userSpaceOnUse"
       id="clipPath36">
      <path
         d="M 0,0 H 360 V 360 H 0 Z"
         transform="matrix(0,1,1,0,-189.46,-47.520002)"
         id="path36" />
    </clipPath>
    <clipPath
       clipPathUnits="userSpaceOnUse"
       id="clipPath37">
      <path
         d="M 0,0 H 360 V 360 H 0 Z"
         transform="matrix(0,1,1,0,-252.93001,-47.520002)"
         id="path37" />
    </clipPath>
    <clipPath
       clipPathUnits="userSpaceOnUse"
       id="clipPath38">
      <path
         d="M 0,0 H 360 V 360 H 0 Z"
         transform="matrix(0,1,1,0,-316.40001,-47.520002)"
         id="path38" />
    </clipPath>
    <clipPath
       clipPathUnits="userSpaceOnUse"
       id="clipPath39">
      <path
         d="M 0,0 H 360 V 360 H 0 Z"
         transform="translate(5.3451926e-6)"
         id="path39" />
    </clipPath>
    <clipPath
       clipPathUnits="userSpaceOnUse"
       id="clipPath40">
      <path
         d="M 0,0 H 360 V 360 H 0 Z"
         transform="matrix(1,0,0,-1,-205.80001,10.080002)"
         id="path40" />
    </clipPath>
    <clipPath
       clipPathUnits="userSpaceOnUse"
       id="clipPath41">
      <path
         d="M 0,0 H 360 V 360 H 0 Z"
         transform="matrix(0,1,1,0,-191.96,-18.719992)"
         id="path41" />
    </clipPath>
    <clipPath
       clipPathUnits="userSpaceOnUse"
       id="clipPath42">
      <path
         d="m 64.8,64.8 h 288 v 288 h -288 z"
         transform="translate(5.3451926e-6)"
         id="path42" />
    </clipPath>
    <clipPath
       clipPathUnits="userSpaceOnUse"
       id="clipPath43">
      <path
         d="m 64.8,64.8 h 288 v 288 h -288 z"
         transform="translate(5.3451926e-6)"
         id="path43" />
    </clipPath>
    <clipPath
       clipPathUnits="userSpaceOnUse"
       id="clipPath44">
      <path
         d="m 64.8,64.8 h 288 v 288 h -288 z"
         transform="translate(5.3451926e-6)"
         id="path44" />
    </clipPath>
    <clipPath
       clipPathUnits="userSpaceOnUse"
       id="clipPath45">
      <path
         d="m 64.8,64.8 h 288 v 288 h -288 z"
         transform="translate(5.3451926e-6)"
         id="path45" />
    </clipPath>
    <clipPath
       clipPathUnits="userSpaceOnUse"
       id="clipPath46">
      <path
         d="m 64.8,64.8 h 288 v 288 h -288 z"
         transform="matrix(1,0,0,-1,-254.94001,334.09001)"
         id="path46" />
    </clipPath>
    <clipPath
       clipPathUnits="userSpaceOnUse"
       id="clipPath47">
      <path
         d="m 64.8,64.8 h 288 v 288 h -288 z"
         transform="matrix(1,0,0,-1,-254.94001,319.69)"
         id="path47" />
    </clipPath>
  </defs>
  <g
     inkscape:label="Layer 1"
     inkscape:groupmode="layer"
     id="layer1"
     transform="translate(-36.247916,-79.110417)">
    <g
       id="g85"
       transform="matrix(0.26458333,0,0,0.26458333,0.31005967,53.105926)">
      <path
         d="m 75.47,342.13 3.75,-7.09 3.76,-4.76 3.75,-4.35 3.76,-3.56 3.76,-3.17 3.75,-3.27 3.76,-3.26 3.75,-3.86 3.76,-4.03 3.76,-12.51 3.75,-9.73 3.76,-9.15 3.75,-5.46 3.76,-4.13 3.75,-3.85 3.76,-3.79 3.76,-3.83 3.75,-3.68 3.76,-3.84 3.75,-3.65 3.76,-3.84 3.76,-3.65 3.75,-3.85 3.76,-3.64 3.75,-3.85 3.76,-3.64 3.76,-3.85 3.75,-3.64 3.76,-3.85 3.75,-3.64 3.76,-3.85 3.75,-3.64 3.76,-3.85 3.76,-3.65 3.75,-3.84 3.76,-3.65 3.75,-3.84 3.76,-3.65 3.76,-3.84 3.75,-3.65 3.76,-3.84 3.75,-3.65 3.76,-3.84 3.75,-3.66 3.76,-3.83 3.76,-3.66 3.75,-3.83 3.76,-3.66 3.75,-3.83 3.76,-3.66 3.76,-3.83 3.75,-3.65 3.76,-3.83 3.75,-3.67 3.76,-3.81 3.76,-3.6 3.75,-3.84 3.76,-3.65 3.75,-3.92 3.76,-3 3.75,-4.18 3.76,-4.77 3.76,-2.8 3.75,-4.77 h 3.76 3.75 3.76 3.76 3.75 3.76"
         style="fill:none;stroke:#000000 icc-color(sRGB-IEC61966-2, 0.1, 0, 0, 0);stroke-width:0.75;stroke-linecap:round;stroke-linejoin:round;stroke-miterlimit:10;stroke-dasharray:none;stroke-opacity:1"
         transform="matrix(0.62361333,0,0,-0.62361333,129.63733,318.52933)"
         clip-path="url(#clipPath10)"
         id="path48" />
      <path
         d="M 71.71,64.8 H 334.62"
         style="fill:none;stroke:#000000 icc-color(sRGB-IEC61966-2, 0.1, 0, 0, 0);stroke-width:0.75;stroke-linecap:round;stroke-linejoin:round;stroke-miterlimit:10;stroke-dasharray:none;stroke-opacity:1"
         transform="matrix(0.62361333,0,0,-0.62361333,129.63733,318.52933)"
         clip-path="url(#clipPath11)"
         id="path49" />
      <path
         d="M 71.71,64.8 V 57.6"
         style="fill:none;stroke:#000000 icc-color(sRGB-IEC61966-2, 0.1, 0, 0, 0);stroke-width:0.75;stroke-linecap:round;stroke-linejoin:round;stroke-miterlimit:10;stroke-dasharray:none;stroke-opacity:1"
         transform="matrix(0.62361333,0,0,-0.62361333,129.63733,318.52933)"
         clip-path="url(#clipPath12)"
         id="path50" />
      <path
         d="M 109.27,64.8 V 57.6"
         style="fill:none;stroke:#000000 icc-color(sRGB-IEC61966-2, 0.1, 0, 0, 0);stroke-width:0.75;stroke-linecap:round;stroke-linejoin:round;stroke-miterlimit:10;stroke-dasharray:none;stroke-opacity:1"
         transform="matrix(0.62361333,0,0,-0.62361333,129.63733,318.52933)"
         clip-path="url(#clipPath13)"
         id="path51" />
      <path
         d="M 146.83,64.8 V 57.6"
         style="fill:none;stroke:#000000 icc-color(sRGB-IEC61966-2, 0.1, 0, 0, 0);stroke-width:0.75;stroke-linecap:round;stroke-linejoin:round;stroke-miterlimit:10;stroke-dasharray:none;stroke-opacity:1"
         transform="matrix(0.62361333,0,0,-0.62361333,129.63733,318.52933)"
         clip-path="url(#clipPath14)"
         id="path52" />
      <path
         d="M 184.39,64.8 V 57.6"
         style="fill:none;stroke:#000000 icc-color(sRGB-IEC61966-2, 0.1, 0, 0, 0);stroke-width:0.75;stroke-linecap:round;stroke-linejoin:round;stroke-miterlimit:10;stroke-dasharray:none;stroke-opacity:1"
         transform="matrix(0.62361333,0,0,-0.62361333,129.63733,318.52933)"
         clip-path="url(#clipPath15)"
         id="path53" />
      <path
         d="M 221.95,64.8 V 57.6"
         style="fill:none;stroke:#000000 icc-color(sRGB-IEC61966-2, 0.1, 0, 0, 0);stroke-width:0.75;stroke-linecap:round;stroke-linejoin:round;stroke-miterlimit:10;stroke-dasharray:none;stroke-opacity:1"
         transform="matrix(0.62361333,0,0,-0.62361333,129.63733,318.52933)"
         clip-path="url(#clipPath16)"
         id="path54" />
      <path
         d="M 259.5,64.8 V 57.6"
         style="fill:none;stroke:#000000 icc-color(sRGB-IEC61966-2, 0.1, 0, 0, 0);stroke-width:0.75;stroke-linecap:round;stroke-linejoin:round;stroke-miterlimit:10;stroke-dasharray:none;stroke-opacity:1"
         transform="matrix(0.62361333,0,0,-0.62361333,129.63733,318.52933)"
         clip-path="url(#clipPath17)"
         id="path55" />
      <path
         d="M 297.06,64.8 V 57.6"
         style="fill:none;stroke:#000000 icc-color(sRGB-IEC61966-2, 0.1, 0, 0, 0);stroke-width:0.75;stroke-linecap:round;stroke-linejoin:round;stroke-miterlimit:10;stroke-dasharray:none;stroke-opacity:1"
         transform="matrix(0.62361333,0,0,-0.62361333,129.63733,318.52933)"
         clip-path="url(#clipPath18)"
         id="path56" />
      <path
         d="M 334.62,64.8 V 57.6"
         style="fill:none;stroke:#000000 icc-color(sRGB-IEC61966-2, 0.1, 0, 0, 0);stroke-width:0.75;stroke-linecap:round;stroke-linejoin:round;stroke-miterlimit:10;stroke-dasharray:none;stroke-opacity:1"
         transform="matrix(0.62361333,0,0,-0.62361333,129.63733,318.52933)"
         clip-path="url(#clipPath19)"
         id="path57" />
      <path
         d="m 3.3067936,-8.6661724 c -0.8017789,0 -1.528391,0.3507782 -1.954336,0.9521124 -0.55122302,0.7516677 -0.82683451,1.9042248 -0.82683451,3.5077826 0,2.931504 0.95211241,4.48495059 2.78117051,4.48495059 1.8040025,0 2.7811705,-1.55344659 2.7811705,-4.40978389 0,-1.6787245 -0.2756115,-2.806226 -0.8268345,-3.5829493 C 4.810129,-8.3153942 4.1085725,-8.6661724 3.3067936,-8.6661724 Z m 0,0.9270568 c 1.1275015,0 1.7037801,1.1776127 1.7037801,3.5077826 0,2.4805034 -0.551223,3.63306054 -1.7288357,3.63306054 -1.1275016,0 -1.6787245,-1.20266834 -1.6787245,-3.58294934 0,-2.3802811 0.5512229,-3.5578938 1.7037801,-3.5578938 z m 0,0"
         style="fill:#000000 icc-color(sRGB-IEC61966-2, 0.1, 0, 0, 0);fill-opacity:1;fill-rule:nonzero;stroke:none"
         aria-label="0"
         transform="matrix(0.62361333,0,0,0.62361333,172.27378,294.28325)"
         clip-path="url(#clipPath20)"
         id="path58" />
      <path
         d="M 3.1085487,-6.185669 V 0.0030617 H 4.1608835 V -8.6661724 H 3.459327 C 3.1085487,-7.3382262 2.8579928,-7.162837 1.2293794,-6.9373367 v 0.7516677 z m 6.8714956,-2.4805034 c -0.8017789,0 -1.528391,0.3507782 -1.9543361,0.9521124 -0.5512229,0.7516677 -0.8268344,1.9042248 -0.8268344,3.5077826 0,2.931504 0.9521124,4.48495059 2.7811705,4.48495059 1.8040027,0 2.7811707,-1.55344659 2.7811707,-4.40978389 0,-1.6787245 -0.275612,-2.806226 -0.826835,-3.5829493 -0.451,-0.6013342 -1.152557,-0.9521124 -1.9543357,-0.9521124 z m 0,0.9270568 c 1.1275017,0 1.7037797,1.1776127 1.7037797,3.5077826 0,2.4805034 -0.551223,3.63306054 -1.7288353,3.63306054 -1.1275016,0 -1.6787246,-1.20266834 -1.6787246,-3.58294934 0,-2.3802811 0.551223,-3.5578938 1.7037802,-3.5578938 z m 0,0"
         style="fill:#000000 icc-color(sRGB-IEC61966-2, 0.1, 0, 0, 0);fill-opacity:1;fill-rule:nonzero;stroke:none"
         aria-label="10"
         transform="matrix(0.62361333,0,0,0.62361333,193.62006,294.28325)"
         clip-path="url(#clipPath21)"
         id="path59" />
      <path
         d="m 6.0634377,-1.0492731 h -4.459895 c 0.1002224,-0.7015565 0.4760562,-1.1776127 1.528391,-1.8040025 L 4.334602,-3.5297765 c 1.1776128,-0.6514453 1.8040025,-1.5534466 1.8040025,-2.6057814 0,-0.7266121 -0.3006671,-1.403113 -0.8017789,-1.8541136 -0.5011118,-0.4760562 -1.1275015,-0.6765009 -1.9292804,-0.6765009 -1.0773904,0 -1.8791693,0.3758338 -2.3552255,1.1275015 -0.30066705,0.4510006 -0.425945,0.977168 -0.45100059,1.8541137 H 1.6536539 c 0.050111,-0.5762786 0.1002224,-0.9270569 0.2505559,-1.2026684 0.2756115,-0.5512229 0.8268345,-0.85189 1.4782798,-0.85189 0.9521124,0 1.6787245,0.6765009 1.6787245,1.6286133 0,0.676501 -0.4008894,1.2778351 -1.1525571,1.7288357 L 2.806211,-3.7302212 C 1.0272641,-2.7279976 0.50109675,-1.9011631 0.40087439,0.0030617 H 6.0634377 Z m 3.914936,-7.6168993 c -0.8017789,0 -1.528391,0.3507782 -1.954336,0.9521124 -0.551223,0.7516677 -0.8268345,1.9042248 -0.8268345,3.5077826 0,2.931504 0.9521124,4.48495059 2.7811705,4.48495059 1.8040023,0 2.7811703,-1.55344659 2.7811703,-4.40978389 0,-1.6787245 -0.275611,-2.806226 -0.826834,-3.5829493 -0.451001,-0.6013342 -1.152557,-0.9521124 -1.9543363,-0.9521124 z m 0,0.9270568 c 1.1275013,0 1.7037803,1.1776127 1.7037803,3.5077826 0,2.4805034 -0.551223,3.63306054 -1.7288359,3.63306054 -1.1275016,0 -1.6787245,-1.20266834 -1.6787245,-3.58294934 0,-2.3802811 0.5512229,-3.5578938 1.7037801,-3.5578938 z m 0,0"
         style="fill:#000000 icc-color(sRGB-IEC61966-2, 0.1, 0, 0, 0);fill-opacity:1;fill-rule:nonzero;stroke:none"
         aria-label="20"
         transform="matrix(0.62361333,0,0,0.62361333,217.04298,294.28325)"
         clip-path="url(#clipPath22)"
         id="path60" />
      <path
         d="m 2.657943,-4.0058327 h 0.5762786 c 1.1525571,0 1.7538913,0.551223 1.7538913,1.6035578 0,1.0773903 -0.6514454,1.75389126 -1.7538913,1.75389126 -1.1525572,0 -1.7288357,-0.60133416 -1.8040025,-1.87916926 H 0.37788432 c 0.0501112,0.7015565 0.17538913,1.1525571 0.37583385,1.55344659 0.45100063,0.82683447 1.27783513,1.2527795 2.43039223,1.2527795 1.7538913,0 2.8813928,-1.05233478 2.8813928,-2.70600369 0,-1.102446 -0.4008894,-1.7037802 -1.4281686,-2.0545584 0.8017789,-0.3257227 1.1776127,-0.9270568 1.1776127,-1.8040025 0,-1.4782798 -0.9521124,-2.380281 -2.5807257,-2.380281 -1.7288357,0 -2.63083697,0.9521124 -2.65589256,2.7811704 H 1.6306638 c 0,-0.5261673 0.050111,-0.8268344 0.1753891,-1.0773903 0.2505559,-0.5011118 0.7767233,-0.7767233 1.4281687,-0.7767233 0.9521124,0 1.5033354,0.551223 1.5033354,1.4782798 0,0.6263897 -0.2004447,1.0022236 -0.676501,1.2026683 -0.300667,0.125278 -0.6765009,0.1753891 -1.403113,0.1753891 z m 7.3224962,-4.6603397 c -0.8017789,0 -1.528391,0.3507782 -1.954336,0.9521124 -0.551223,0.7516677 -0.8268345,1.9042248 -0.8268345,3.5077826 0,2.931504 0.9521124,4.48495059 2.7811705,4.48495059 1.8040028,0 2.7811708,-1.55344659 2.7811708,-4.40978389 0,-1.6787245 -0.275612,-2.806226 -0.826835,-3.5829493 -0.451,-0.6013342 -1.152557,-0.9521124 -1.9543358,-0.9521124 z m 0,0.9270568 c 1.1275018,0 1.7037798,1.1776127 1.7037798,3.5077826 0,2.4805034 -0.551223,3.63306054 -1.7288354,3.63306054 -1.1275016,0 -1.6787245,-1.20266834 -1.6787245,-3.58294934 0,-2.3802811 0.5512229,-3.5578938 1.7037801,-3.5578938 z m 0,0"
         style="fill:#000000 icc-color(sRGB-IEC61966-2, 0.1, 0, 0, 0);fill-opacity:1;fill-rule:nonzero;stroke:none"
         aria-label="30"
         transform="matrix(0.62361333,0,0,0.62361333,240.45966,294.28325)"
         clip-path="url(#clipPath23)"
         id="path61" />
      <path
         d="M 3.9341075,-2.1016079 V 0.0030617 H 4.9864423 V -2.1016079 H 6.2392218 V -3.0537203 H 4.9864423 V -8.6661724 H 4.209719 l -3.88361645,5.4621186 v 1.1024459 z m 0,-0.9521124 H 1.2531594 L 3.9341075,-6.86217 Z m 6.0446611,-5.6124521 c -0.8017789,0 -1.528391,0.3507782 -1.954336,0.9521124 -0.551223,0.7516677 -0.8268345,1.9042248 -0.8268345,3.5077826 0,2.931504 0.9521124,4.48495059 2.7811705,4.48495059 1.8040024,0 2.7811704,-1.55344659 2.7811704,-4.40978389 0,-1.6787245 -0.275611,-2.806226 -0.826834,-3.5829493 -0.451001,-0.6013342 -1.152558,-0.9521124 -1.9543364,-0.9521124 z m 0,0.9270568 c 1.1275014,0 1.7037804,1.1776127 1.7037804,3.5077826 0,2.4805034 -0.551223,3.63306054 -1.728836,3.63306054 -1.1275015,0 -1.6787245,-1.20266834 -1.6787245,-3.58294934 0,-2.3802811 0.551223,-3.5578938 1.7037801,-3.5578938 z m 0,0"
         style="fill:#000000 icc-color(sRGB-IEC61966-2, 0.1, 0, 0, 0);fill-opacity:1;fill-rule:nonzero;stroke:none"
         aria-label="40"
         transform="matrix(0.62361333,0,0,0.62361333,263.88258,294.28325)"
         clip-path="url(#clipPath24)"
         id="path62" />
      <path
         d="M 5.7113838,-8.5158389 H 1.3266556 L 0.67521023,-3.8805548 H 1.6523782 C 2.15349,-4.4568333 2.5543795,-4.657278 3.2308804,-4.657278 c 1.1275016,0 1.8541137,0.7767232 1.8541137,2.0295027 0,1.227724 -0.7266121,1.97939166 -1.8791693,1.97939166 -0.9270568,0 -1.4782798,-0.47605626 -1.7288357,-1.42816866 H 0.42465433 c 0.15033354,0.676501 0.2505559,1.0272792 0.5011118,1.3279463 0.50111177,0.65144534 1.35300187,1.02727919 2.30511427,1.02727919 1.7288357,0 2.931504,-1.2527795 2.931504,-3.05678199 0,-1.6787245 -1.1275015,-2.8312817 -2.7561149,-2.8312817 -0.6013341,0 -1.0773903,0.1753892 -1.5785021,0.5261674 l 0.3507782,-2.380281 H 5.7113838 Z M 9.977098,-8.6661724 c -0.8017789,0 -1.528391,0.3507782 -1.954336,0.9521124 -0.551223,0.7516677 -0.8268345,1.9042248 -0.8268345,3.5077826 0,2.931504 0.9521124,4.48495059 2.7811705,4.48495059 1.804002,0 2.781171,-1.55344659 2.781171,-4.40978389 0,-1.6787245 -0.275612,-2.806226 -0.826835,-3.5829493 -0.451001,-0.6013342 -1.152557,-0.9521124 -1.954336,-0.9521124 z m 0,0.9270568 c 1.127502,0 1.70378,1.1776127 1.70378,3.5077826 0,2.4805034 -0.551223,3.63306054 -1.7288356,3.63306054 -1.1275015,0 -1.6787245,-1.20266834 -1.6787245,-3.58294934 0,-2.3802811 0.551223,-3.5578938 1.7037801,-3.5578938 z m 0,0"
         style="fill:#000000 icc-color(sRGB-IEC61966-2, 0.1, 0, 0, 0);fill-opacity:1;fill-rule:nonzero;stroke:none"
         aria-label="50"
         transform="matrix(0.62361333,0,0,0.62361333,287.30549,294.28325)"
         clip-path="url(#clipPath25)"
         id="path63" />
      <path
         d="M 5.9853247,-6.4111693 C 5.7598244,-7.839338 4.8578232,-8.6661724 3.5549325,-8.6661724 c -0.9270568,0 -1.7789469,0.4510006 -2.2800587,1.2277239 -0.52616739,0.85189 -0.7516677,1.9042248 -0.7516677,3.482727 0,1.4532242 0.20044472,2.380281 0.7015565,3.15700432 0.4760562,0.70155652 1.2026683,1.07739037 2.1547808,1.07739037 1.6035577,0 2.7811705,-1.20266832 2.7811705,-2.90644849 0,-1.6035577 -1.0773904,-2.7310593 -2.6057814,-2.7310593 -0.8518901,0 -1.5033354,0.3257227 -1.954336,0.9521125 0,-2.1547808 0.6765009,-3.3323935 1.8791692,-3.3323935 0.7516677,0 1.2778351,0.4760562 1.4281687,1.3279463 z m -2.5556702,2.0044472 c 1.0022236,0 1.653669,0.7015565 1.653669,1.8541136 0,1.102446 -0.7266121,1.90422486 -1.7037801,1.90422486 -0.977168,0 -1.7288357,-0.82683446 -1.7288357,-1.92928046 0,-1.1024459 0.7266121,-1.829058 1.7789468,-1.829058 z m 6.5520368,-4.2594503 c -0.8017789,0 -1.528391,0.3507782 -1.954336,0.9521124 -0.551223,0.7516677 -0.8268345,1.9042248 -0.8268345,3.5077826 0,2.931504 0.9521125,4.48495059 2.7811705,4.48495059 1.8040027,0 2.7811707,-1.55344659 2.7811707,-4.40978389 0,-1.6787245 -0.275612,-2.806226 -0.826835,-3.5829493 -0.451,-0.6013342 -1.152557,-0.9521124 -1.9543357,-0.9521124 z m 0,0.9270568 c 1.1275017,0 1.7037797,1.1776127 1.7037797,3.5077826 0,2.4805034 -0.551223,3.63306054 -1.7288353,3.63306054 -1.1275015,0 -1.6787245,-1.20266834 -1.6787245,-3.58294934 0,-2.3802811 0.551223,-3.5578938 1.7037801,-3.5578938 z m 0,0"
         style="fill:#000000 icc-color(sRGB-IEC61966-2, 0.1, 0, 0, 0);fill-opacity:1;fill-rule:nonzero;stroke:none"
         aria-label="60"
         transform="matrix(0.62361333,0,0,0.62361333,310.72841,294.28325)"
         clip-path="url(#clipPath26)"
         id="path64" />
      <path
         d="M 6.2404739,-8.5158389 H 0.552855 v 1.0523348 H 5.138028 C 3.1335808,-4.5821113 2.2816907,-2.8031644 1.655301,0.0030617 h 1.1275015 c 0.4760562,-2.7310593 1.528391,-5.0612292 3.4576714,-7.6168994 z m 3.7395468,-0.1503335 c -0.8017788,0 -1.528391,0.3507782 -1.954336,0.9521124 -0.551223,0.7516677 -0.8268345,1.9042248 -0.8268345,3.5077826 0,2.931504 0.9521125,4.48495059 2.7811705,4.48495059 1.8040023,0 2.7811703,-1.55344659 2.7811703,-4.40978389 0,-1.6787245 -0.275611,-2.806226 -0.826834,-3.5829493 C 11.483356,-8.3153942 10.7818,-8.6661724 9.9800207,-8.6661724 Z m 0,0.9270568 c 1.1275013,0 1.7037803,1.1776127 1.7037803,3.5077826 0,2.4805034 -0.551223,3.63306054 -1.7288359,3.63306054 -1.1275015,0 -1.6787245,-1.20266834 -1.6787245,-3.58294934 0,-2.3802811 0.551223,-3.5578938 1.7037801,-3.5578938 z m 0,0"
         style="fill:#000000 icc-color(sRGB-IEC61966-2, 0.1, 0, 0, 0);fill-opacity:1;fill-rule:nonzero;stroke:none"
         aria-label="70"
         transform="matrix(0.62361333,0,0,0.62361333,334.15133,294.28325)"
         clip-path="url(#clipPath27)"
         id="path65" />
      <path
         d="M 64.8,79.36 V 333.25"
         style="fill:none;stroke:#000000 icc-color(sRGB-IEC61966-2, 0.1, 0, 0, 0);stroke-width:0.75;stroke-linecap:round;stroke-linejoin:round;stroke-miterlimit:10;stroke-dasharray:none;stroke-opacity:1"
         transform="matrix(0.62361333,0,0,-0.62361333,129.63733,318.52933)"
         clip-path="url(#clipPath28)"
         id="path66" />
      <path
         d="M 64.8,79.36 H 57.6"
         style="fill:none;stroke:#000000 icc-color(sRGB-IEC61966-2, 0.1, 0, 0, 0);stroke-width:0.75;stroke-linecap:round;stroke-linejoin:round;stroke-miterlimit:10;stroke-dasharray:none;stroke-opacity:1"
         transform="matrix(0.62361333,0,0,-0.62361333,129.63733,318.52933)"
         clip-path="url(#clipPath29)"
         id="path67" />
      <path
         d="M 64.8,142.83 H 57.6"
         style="fill:none;stroke:#000000 icc-color(sRGB-IEC61966-2, 0.1, 0, 0, 0);stroke-width:0.75;stroke-linecap:round;stroke-linejoin:round;stroke-miterlimit:10;stroke-dasharray:none;stroke-opacity:1"
         transform="matrix(0.62361333,0,0,-0.62361333,129.63733,318.52933)"
         clip-path="url(#clipPath30)"
         id="path68" />
      <path
         d="M 64.8,206.31 H 57.6"
         style="fill:none;stroke:#000000 icc-color(sRGB-IEC61966-2, 0.1, 0, 0, 0);stroke-width:0.75;stroke-linecap:round;stroke-linejoin:round;stroke-miterlimit:10;stroke-dasharray:none;stroke-opacity:1"
         transform="matrix(0.62361333,0,0,-0.62361333,129.63733,318.52933)"
         clip-path="url(#clipPath31)"
         id="path69" />
      <path
         d="M 64.8,269.78 H 57.6"
         style="fill:none;stroke:#000000 icc-color(sRGB-IEC61966-2, 0.1, 0, 0, 0);stroke-width:0.75;stroke-linecap:round;stroke-linejoin:round;stroke-miterlimit:10;stroke-dasharray:none;stroke-opacity:1"
         transform="matrix(0.62361333,0,0,-0.62361333,129.63733,318.52933)"
         clip-path="url(#clipPath32)"
         id="path70" />
      <path
         d="M 64.8,333.25 H 57.6"
         style="fill:none;stroke:#000000 icc-color(sRGB-IEC61966-2, 0.1, 0, 0, 0);stroke-width:0.75;stroke-linecap:round;stroke-linejoin:round;stroke-miterlimit:10;stroke-dasharray:none;stroke-opacity:1"
         transform="matrix(0.62361333,0,0,-0.62361333,129.63733,318.52933)"
         clip-path="url(#clipPath33)"
         id="path71" />
      <path
         d="m 3.1075167,-6.1917898 v 6.18873072 H 4.1598515 V -8.6722932 H 3.458295 C 3.1075167,-7.344347 2.8569608,-7.1689578 1.2283475,-6.9434575 v 0.7516677 z m 9.7278333,3.3825046 c 0,-0.9521124 -0.07517,-1.528391 -0.250556,-2.0044472 -0.425945,-1.0272792 -1.378058,-1.6536689 -2.555671,-1.6536689 -1.7538908,0 -2.8813924,1.3279463 -2.8813924,3.4075602 0,2.07961401 1.0773904,3.33239351 2.8563374,3.33239351 1.453224,0 2.430392,-0.82683447 2.680948,-2.17983631 h -1.002224 c -0.275611,0.8268344 -0.826834,1.25277948 -1.628613,1.25277948 -0.6514453,0 -1.1776127,-0.27561149 -1.5283909,-0.80177888 C 8.3002878,-1.8321172 8.2000654,-2.1828954 8.2000654,-2.8092852 Z M 8.225121,-3.6361196 c 0.075167,-1.1525572 0.7767233,-1.9042249 1.804002,-1.9042249 1.002224,0 1.728836,0.7767233 1.728836,1.9042249 z m 11.657113,0.425945 h -6.063453 v 0.8518901 h 6.063453 z m 3.576686,-2.9816152 v 6.18873072 h 1.052334 V -8.6722932 h -0.701556 c -0.350778,1.3279462 -0.601334,1.5033354 -2.229948,1.7288357 v 0.7516677 z m 6.22005,2.1798363 h 0.576278 c 1.152558,0 1.753892,0.551223 1.753892,1.6035578 0,1.0773903 -0.651446,1.75389128 -1.753892,1.75389128 -1.152557,0 -1.728835,-0.60133418 -1.804002,-1.87916928 h -1.052335 c 0.05011,0.7015565 0.175389,1.1525572 0.375834,1.55344661 0.451001,0.82683447 1.277835,1.2527795 2.430392,1.2527795 1.753892,0 2.881393,-1.05233478 2.881393,-2.70600371 0,-1.102446 -0.400889,-1.7037801 -1.428168,-2.0545584 0.801778,-0.3257227 1.177612,-0.9270568 1.177612,-1.8040025 0,-1.4782798 -0.952112,-2.380281 -2.580726,-2.380281 -1.728835,0 -2.630836,0.9521124 -2.655892,2.7811705 h 1.052335 c 0,-0.5261674 0.05011,-0.8268345 0.175389,-1.0773904 0.250556,-0.5011118 0.776723,-0.7767233 1.428168,-0.7767233 0.952113,0 1.503336,0.551223 1.503336,1.4782798 0,0.6263898 -0.200445,1.0022236 -0.676501,1.2026683 -0.300667,0.125278 -0.676501,0.1753892 -1.403113,0.1753892 z m 0,0"
         style="fill:#000000 icc-color(sRGB-IEC61966-2, 0.1, 0, 0, 0);fill-opacity:1;fill-rule:nonzero;stroke:none"
         aria-label="1e−13"
         transform="matrix(0,-0.62361333,0.62361333,0,159.27144,279.54726)"
         clip-path="url(#clipPath34)"
         id="path72" />
      <path
         d="m 3.1095901,-6.1917898 v 6.18873072 H 4.1619249 V -8.6722932 H 3.4603684 C 3.1095901,-7.344347 2.8590342,-7.1689578 1.2304209,-6.9434575 v 0.7516677 z m 9.7278329,3.3825046 c 0,-0.9521124 -0.07517,-1.528391 -0.250556,-2.0044472 -0.425945,-1.0272792 -1.378057,-1.6536689 -2.55567,-1.6536689 -1.7538915,0 -2.881393,1.3279463 -2.881393,3.4075602 0,2.07961401 1.0773904,3.33239351 2.856337,3.33239351 1.453224,0 2.430392,-0.82683447 2.680948,-2.17983631 h -1.002223 c -0.275612,0.8268344 -0.826835,1.25277948 -1.628614,1.25277948 -0.6514449,0 -1.1776123,-0.27561149 -1.5283906,-0.80177888 C 8.3023611,-1.8321172 8.2021388,-2.1828954 8.2021388,-2.8092852 Z M 8.2271944,-3.6361196 c 0.075167,-1.1525572 0.7767233,-1.9042249 1.8040026,-1.9042249 1.002223,0 1.728836,0.7767233 1.728836,1.9042249 z m 11.6571136,0.425945 h -6.063453 v 0.8518901 h 6.063453 z m 3.77713,-5.4621186 c -0.801779,0 -1.528391,0.3507782 -1.954336,0.9521124 -0.551223,0.7516677 -0.826835,1.9042248 -0.826835,3.5077826 0,2.931504 0.952113,4.48495061 2.781171,4.48495061 1.804002,0 2.78117,-1.55344661 2.78117,-4.40978381 0,-1.6787246 -0.275611,-2.8062261 -0.826834,-3.5829494 -0.451001,-0.6013342 -1.152557,-0.9521124 -1.954336,-0.9521124 z m 0,0.9270568 c 1.127501,0 1.70378,1.1776127 1.70378,3.5077826 0,2.4805034 -0.551223,3.63306056 -1.728836,3.63306056 -1.127501,0 -1.678724,-1.20266836 -1.678724,-3.58294936 0,-2.3802811 0.551223,-3.5578938 1.70378,-3.5578938 z m 3.990103,5.7627857 c 0.2255,1.40311305 1.127501,2.25500311 2.430392,2.25500311 0.952112,0 1.778947,-0.45100062 2.280058,-1.22772391 0.526168,-0.8518901 0.776724,-1.9042248 0.776724,-3.482727 0,-1.4782798 -0.225501,-2.4053367 -0.726612,-3.1570044 -0.476057,-0.7015565 -1.202669,-1.0773903 -2.154781,-1.0773903 -1.603558,0 -2.781171,1.2026683 -2.781171,2.8813928 0,1.6035578 1.077391,2.7310593 2.630837,2.7310593 0.801779,0 1.403113,-0.300667 1.929281,-0.9521124 0,2.1547808 -0.676501,3.35744908 -1.879169,3.35744908 -0.751668,0 -1.277836,-0.50111178 -1.428169,-1.32794628 z m 2.605781,-5.7627857 c 0.977168,0 1.728836,0.8268345 1.728836,1.9292804 0,1.0773904 -0.726613,1.8040025 -1.778947,1.8040025 -1.002224,0 -1.653669,-0.7015565 -1.653669,-1.8541136 0,-1.102446 0.726612,-1.8791693 1.70378,-1.8791693 z m 0,0"
         style="fill:#000000 icc-color(sRGB-IEC61966-2, 0.1, 0, 0, 0);fill-opacity:1;fill-rule:nonzero;stroke:none"
         aria-label="1e−09"
         transform="matrix(0,-0.62361333,0.62361333,0,159.27144,239.96653)"
         clip-path="url(#clipPath35)"
         id="path73" />
      <path
         d="m 3.1079274,-6.1917898 v 6.18873072 H 4.1602622 V -8.6722932 H 3.4587056 C 3.1079274,-7.344347 2.8573715,-7.1689578 1.2287581,-6.9434575 v 0.7516677 z m 9.7278326,3.3825046 c 0,-0.9521124 -0.07517,-1.528391 -0.250556,-2.0044472 -0.425945,-1.0272792 -1.378057,-1.6536689 -2.55567,-1.6536689 -1.7538912,0 -2.8813927,1.3279463 -2.8813927,3.4075602 0,2.07961401 1.0773903,3.33239351 2.8563377,3.33239351 1.453224,0 2.430392,-0.82683447 2.680948,-2.17983631 h -1.002224 c -0.275611,0.8268344 -0.826834,1.25277948 -1.628613,1.25277948 -0.6514456,0 -1.177613,-0.27561149 -1.5283913,-0.80177888 C 8.3006984,-1.8321172 8.200476,-2.1828954 8.200476,-2.8092852 Z M 8.2255316,-3.6361196 c 0.075167,-1.1525572 0.7767233,-1.9042249 1.8040024,-1.9042249 1.002224,0 1.728836,0.7767233 1.728836,1.9042249 z m 11.6571134,0.425945 h -6.063453 v 0.8518901 h 6.063453 z m 3.77713,-5.4621186 c -0.801779,0 -1.528391,0.3507782 -1.954336,0.9521124 -0.551223,0.7516677 -0.826834,1.9042248 -0.826834,3.5077826 0,2.931504 0.952112,4.48495061 2.78117,4.48495061 1.804003,0 2.781171,-1.55344661 2.781171,-4.40978381 0,-1.6787246 -0.275612,-2.8062261 -0.826835,-3.5829494 -0.451001,-0.6013342 -1.152557,-0.9521124 -1.954336,-0.9521124 z m 0,0.9270568 c 1.127502,0 1.70378,1.1776127 1.70378,3.5077826 0,2.4805034 -0.551223,3.63306056 -1.728836,3.63306056 -1.127501,0 -1.678724,-1.20266836 -1.678724,-3.58294936 0,-2.3802811 0.551223,-3.5578938 1.70378,-3.5578938 z m 9.076388,-0.7767233 h -4.384729 l -0.651445,4.6352842 h 0.977168 c 0.501112,-0.5762786 0.902001,-0.7767233 1.578502,-0.7767233 1.127502,0 1.854114,0.7767233 1.854114,2.0295028 0,1.2277239 -0.726612,1.97939158 -1.879169,1.97939158 -0.927057,0 -1.47828,-0.47605618 -1.728836,-1.42816868 h -1.052335 c 0.150334,0.676501 0.250556,1.0272792 0.501112,1.32794632 0.501112,0.65144534 1.353002,1.02727919 2.305114,1.02727919 1.728836,0 2.931504,-1.2527795 2.931504,-3.05678201 0,-1.6787245 -1.127501,-2.8312816 -2.756115,-2.8312816 -0.601334,0 -1.07739,0.1753891 -1.578502,0.5261673 l 0.350778,-2.380281 h 3.532839 z m 0,0"
         style="fill:#000000 icc-color(sRGB-IEC61966-2, 0.1, 0, 0, 0);fill-opacity:1;fill-rule:nonzero;stroke:none"
         aria-label="1e−05"
         transform="matrix(0,-0.62361333,0.62361333,0,159.27144,200.37955)"
         clip-path="url(#clipPath36)"
         id="path74" />
      <path
         d="m 3.1100007,-6.1917898 v 6.18873072 H 4.1623355 V -8.6722932 H 3.460779 C 3.1100007,-7.344347 2.8594448,-7.1689578 1.2308315,-6.9434575 v 0.7516677 z m 9.7278333,3.3825046 c 0,-0.9521124 -0.07517,-1.528391 -0.250556,-2.0044472 -0.425945,-1.0272792 -1.378058,-1.6536689 -2.555671,-1.6536689 -1.7538908,0 -2.8813924,1.3279463 -2.8813924,3.4075602 0,2.07961401 1.0773904,3.33239351 2.8563374,3.33239351 1.453224,0 2.430392,-0.82683447 2.680948,-2.17983631 h -1.002224 c -0.275611,0.8268344 -0.826834,1.25277948 -1.628613,1.25277948 -0.6514453,0 -1.1776127,-0.27561149 -1.5283909,-0.80177888 C 8.3027718,-1.8321172 8.2025494,-2.1828954 8.2025494,-2.8092852 Z M 8.227605,-3.6361196 c 0.075167,-1.1525572 0.7767233,-1.9042249 1.804002,-1.9042249 1.002224,0 1.728836,0.7767233 1.728836,1.9042249 z m 11.657113,0.425945 h -6.063453 v 0.8518901 h 6.063453 z m 3.77713,-5.4621186 c -0.801778,0 -1.528391,0.3507782 -1.954336,0.9521124 -0.551223,0.7516677 -0.826834,1.9042248 -0.826834,3.5077826 0,2.931504 0.952112,4.48495061 2.78117,4.48495061 1.804003,0 2.781171,-1.55344661 2.781171,-4.40978381 0,-1.6787246 -0.275612,-2.8062261 -0.826835,-3.5829494 -0.451,-0.6013342 -1.152557,-0.9521124 -1.954336,-0.9521124 z m 0,0.9270568 c 1.127502,0 1.703781,1.1776127 1.703781,3.5077826 0,2.4805034 -0.551223,3.63306056 -1.728836,3.63306056 -1.127502,0 -1.678725,-1.20266836 -1.678725,-3.58294936 0,-2.3802811 0.551223,-3.5578938 1.70378,-3.5578938 z m 6.470607,1.5534466 v 6.18873072 h 1.052334 V -8.6722932 h -0.701556 c -0.350778,1.3279462 -0.601334,1.5033354 -2.229948,1.7288357 v 0.7516677 z m 0,0"
         style="fill:#000000 icc-color(sRGB-IEC61966-2, 0.1, 0, 0, 0);fill-opacity:1;fill-rule:nonzero;stroke:none"
         aria-label="1e−01"
         transform="matrix(0,-0.62361333,0.62361333,0,159.27144,160.79881)"
         clip-path="url(#clipPath37)"
         id="path75" />
      <path
         d="m 3.1058102,-6.1917898 v 6.18873072 H 4.158145 V -8.6722932 H 3.4565885 C 3.1058102,-7.344347 2.8552543,-7.1689578 1.226641,-6.9434575 v 0.7516677 z m 9.7278328,3.3825046 c 0,-0.9521124 -0.07517,-1.528391 -0.250556,-2.0044472 -0.425945,-1.0272792 -1.378057,-1.6536689 -2.55567,-1.6536689 -1.7538913,0 -2.8813929,1.3279463 -2.8813929,3.4075602 0,2.07961401 1.0773904,3.33239351 2.8563369,3.33239351 1.453225,0 2.430393,-0.82683447 2.680949,-2.17983631 h -1.002224 c -0.275612,0.8268344 -0.826835,1.25277948 -1.628613,1.25277948 -0.6514458,0 -1.1776132,-0.27561149 -1.5283914,-0.80177888 C 8.2985813,-1.8321172 8.1983589,-2.1828954 8.1983589,-2.8092852 Z M 8.2234145,-3.6361196 c 0.075167,-1.1525572 0.7767233,-1.9042249 1.8040025,-1.9042249 1.002224,0 1.728836,0.7767233 1.728836,1.9042249 z M 19.75525,-3.2101746 H 17.274746 V -5.690678 h -0.85189 v 2.4805034 h -2.480503 v 0.8518901 h 2.480503 v 2.48050337 h 0.85189 V -2.3582845 h 2.480504 z m 3.902408,-5.4621186 c -0.801779,0 -1.528391,0.3507782 -1.954336,0.9521124 -0.551223,0.7516677 -0.826835,1.9042248 -0.826835,3.5077826 0,2.931504 0.952113,4.48495061 2.781171,4.48495061 1.804002,0 2.78117,-1.55344661 2.78117,-4.40978381 0,-1.6787246 -0.275611,-2.8062261 -0.826834,-3.5829494 -0.451001,-0.6013342 -1.152557,-0.9521124 -1.954336,-0.9521124 z m 0,0.9270568 c 1.127501,0 1.70378,1.1776127 1.70378,3.5077826 0,2.4805034 -0.551223,3.63306056 -1.728836,3.63306056 -1.127501,0 -1.678724,-1.20266836 -1.678724,-3.58294936 0,-2.3802811 0.551223,-3.5578938 1.70378,-3.5578938 z m 6.019605,3.7332829 h 0.576279 c 1.152557,0 1.753891,0.551223 1.753891,1.6035578 0,1.0773903 -0.651445,1.75389128 -1.753891,1.75389128 -1.152557,0 -1.728836,-0.60133418 -1.804002,-1.87916928 h -1.052335 c 0.05011,0.7015565 0.175389,1.1525572 0.375834,1.55344661 0.451,0.82683447 1.277835,1.2527795 2.430392,1.2527795 1.753891,0 2.881393,-1.05233478 2.881393,-2.70600371 0,-1.102446 -0.40089,-1.7037801 -1.428169,-2.0545584 0.801779,-0.3257227 1.177613,-0.9270568 1.177613,-1.8040025 0,-1.4782798 -0.952113,-2.380281 -2.580726,-2.380281 -1.728836,0 -2.630837,0.9521124 -2.655893,2.7811705 h 1.052335 c 0,-0.5261674 0.05011,-0.8268345 0.175389,-1.0773904 0.250556,-0.5011118 0.776724,-0.7767233 1.428169,-0.7767233 0.952112,0 1.503335,0.551223 1.503335,1.4782798 0,0.6263898 -0.200444,1.0022236 -0.676501,1.2026683 -0.300667,0.125278 -0.6765,0.1753892 -1.403113,0.1753892 z m 0,0"
         style="fill:#000000 icc-color(sRGB-IEC61966-2, 0.1, 0, 0, 0);fill-opacity:1;fill-rule:nonzero;stroke:none"
         aria-label="1e+03"
         transform="matrix(0,-0.62361333,0.62361333,0,159.27144,121.21807)"
         clip-path="url(#clipPath38)"
         id="path76" />
      <path
         d="m 64.8,64.8 h 288 v 288 h -288 v -288"
         style="fill:none;stroke:#000000 icc-color(sRGB-IEC61966-2, 0.1, 0, 0, 0);stroke-width:0.75;stroke-linecap:round;stroke-linejoin:round;stroke-miterlimit:10;stroke-dasharray:none;stroke-opacity:1"
         transform="matrix(0.62361333,0,0,-0.62361333,129.63733,318.52933)"
         clip-path="url(#clipPath39)"
         id="path77" />
      <path
         d="M 1.703147,-8.7462024 H 0.70092338 v 8.74440091 H 1.703147 V -2.4572493 l 0.9521124,-0.9521124 2.1297252,3.40756021 H 6.0127085 L 3.4570383,-4.1109183 5.6368746,-6.2907546 H 4.3590395 L 1.703147,-3.634862 Z m 0,0"
         style="fill:#000000 icc-color(sRGB-IEC61966-2, 0.1, 0, 0, 0);fill-opacity:1;fill-rule:nonzero;stroke:none"
         aria-label="k"
         transform="matrix(0.62361333,0,0,0.62361333,257.97696,312.24331)"
         clip-path="url(#clipPath40)"
         id="path78" />
      <path
         d="M 3.1072225,-6.287149 H 2.0548877 v -0.977168 c 0,-0.425945 0.2255003,-0.6514453 0.7015565,-0.6514453 0.075167,0 0.1002224,0 0.3507783,0.025056 v -0.8268345 c -0.2505559,-0.050111 -0.3758339,-0.075167 -0.5762786,-0.075167 -0.9270568,0 -1.4782798,0.5261674 -1.4782798,1.4281686 V -6.287149 H 0.22582963 v 0.8268345 H 1.0526641 V 0.00180411 H 2.0548877 V -5.4603145 h 1.0523348 z m 6.7712732,3.0818376 H 3.8150429 v 0.85189 H 9.8784957 Z M 13.448917,-6.287149 h -1.052335 v -0.977168 c 0,-0.425945 0.225501,-0.6514453 0.701557,-0.6514453 0.07517,0 0.100222,0 0.350778,0.025056 v -0.8268345 c -0.250556,-0.050111 -0.375834,-0.075167 -0.576278,-0.075167 -0.927057,0 -1.47828,0.5261674 -1.47828,1.4281686 v 1.0773904 h -0.826835 v 0.8268345 h 0.826835 v 5.46211861 h 1.002223 V -5.4603145 h 1.052335 z m 5.493438,1.7538913 c -0.02505,-1.2277239 -0.826834,-1.9292804 -2.280058,-1.9292804 -1.47828,0 -2.405337,0.7516677 -2.405337,1.9042248 0,1.0022236 0.501112,1.4532242 1.979392,1.8290581 l 0.927056,0.2255003 c 0.701557,0.1753891 0.977168,0.425945 0.977168,0.8518901 0,0.6013341 -0.576278,1.00222357 -1.453224,1.00222357 -0.551223,0 -1.002223,-0.15033354 -1.252779,-0.42594507 -0.150334,-0.1753891 -0.225501,-0.3507782 -0.300667,-0.8017788 h -1.052335 c 0.05011,1.45322418 0.876946,2.1547807 2.505559,2.1547807 1.603558,0 2.605781,-0.77672329 2.605781,-1.9793916 0,-0.9521124 -0.526167,-1.4532242 -1.778947,-1.7538913 l -0.952112,-0.2505559 c -0.826835,-0.1753891 -1.177613,-0.4510006 -1.177613,-0.8769457 0,-0.6013341 0.526168,-0.9521124 1.327946,-0.9521124 0.801779,0 1.25278,0.3507783 1.277836,1.0022236 z m 3.795922,-1.7538913 h -1.052335 v -1.7288357 h -0.977168 v 1.7288357 h -0.85189 v 0.8268345 h 0.85189 v 4.7355065 c 0,0.65144534 0.425945,1.0022236 1.202669,1.0022236 0.275611,0 0.476056,-0.0250556 0.826834,-0.0751668 v -0.85189006 c -0.150333,0.0501112 -0.275611,0.0501112 -0.476056,0.0501112 -0.451001,0 -0.576279,-0.12527795 -0.576279,-0.55122294 v -4.3095615 h 1.052335 z m 6.689843,5.71267454 c -0.100223,0 -0.150334,0 -0.200445,0 -0.350778,0 -0.551223,-0.17538913 -0.551223,-0.47605624 V -4.758758 c 0,-1.102446 -0.801779,-1.7037801 -2.355225,-1.7037801 -0.927057,0 -1.653669,0.2505559 -2.10467,0.7266121 -0.275611,0.3257227 -0.400889,0.6765009 -0.425945,1.3028907 h 1.002224 c 0.100222,-0.7516677 0.551223,-1.102446 1.478279,-1.102446 0.927057,0 1.403113,0.3257227 1.403113,0.9270568 v 0.2756115 c 0,0.4259451 -0.2255,0.5762786 -1.027279,0.676501 -1.428168,0.2004447 -1.628613,0.2255003 -2.029503,0.4008894 -0.726612,0.3006671 -1.102445,0.8518901 -1.102445,1.6787245 0,1.12750159 0.801778,1.8541137 2.079614,1.8541137 0.776723,0 1.428168,-0.27561149 2.129725,-0.92705683 0.07517,0.65144534 0.375834,0.92705683 1.027279,0.92705683 0.2255,0 0.350778,-0.0250556 0.676501,-0.10022236 z M 27.674228,-1.9775875 c 0,0.3257227 -0.07517,0.551223 -0.375833,0.8268345 -0.425945,0.35077823 -0.902002,0.55122295 -1.503336,0.55122295 -0.776723,0 -1.227724,-0.37583385 -1.227724,-1.00222365 0,-0.6765009 0.425945,-1.0022236 1.503336,-1.1525571 1.07739,-0.1503335 1.277835,-0.2004447 1.603557,-0.3507783 z m 2.837546,-4.3095615 v 6.28895311 h 1.002224 V -3.2554226 c 0.02505,-1.528391 0.651445,-2.1798363 2.029502,-2.1547807 v -1.0272792 c -0.175389,-0.025056 -0.275611,-0.025056 -0.400889,-0.025056 -0.62639,0 -1.127502,0.3758338 -1.70378,1.3279463 V -6.287149 Z m 0,0"
         style="fill:#000000 icc-color(sRGB-IEC61966-2, 0.1, 0, 0, 0);fill-opacity:1;fill-rule:nonzero;stroke:none"
         aria-label="f−fstar"
         transform="matrix(0,-0.62361333,0.62361333,0,141.31137,198.82052)"
         clip-path="url(#clipPath41)"
         id="path79" />
      <path
         d="m 75.47,342.13 3.75,-10.89 3.76,-14.98 3.75,-18.82 3.76,-27.29 3.76,-48.14 3.75,-94.85"
         style="fill:none;stroke:#0000ff icc-color(sRGB-IEC61966-2, 0.1, 0, 0, 1);stroke-width:0.75;stroke-linecap:round;stroke-linejoin:round;stroke-miterlimit:10;stroke-dasharray:none;stroke-opacity:1"
         transform="matrix(0.62361333,0,0,-0.62361333,129.63733,318.52933)"
         clip-path="url(#clipPath42)"
         id="path80" />
      <path
         d="M 211.74,352.8 H 352.8 V 309.6 H 211.74 Z"
         style="fill:none;stroke:#000000 icc-color(sRGB-IEC61966-2, 0.1, 0, 0, 0);stroke-width:0.75;stroke-linecap:round;stroke-linejoin:round;stroke-miterlimit:10;stroke-dasharray:none;stroke-opacity:1"
         transform="matrix(0.62361333,0,0,-0.62361333,129.63733,318.52933)"
         clip-path="url(#clipPath43)"
         id="path81" />
      <path
         d="m 222.54,338.4 h 21.6"
         style="fill:none;stroke:#000000 icc-color(sRGB-IEC61966-2, 0.1, 0, 0, 0);stroke-width:0.75;stroke-linecap:round;stroke-linejoin:round;stroke-miterlimit:10;stroke-dasharray:none;stroke-opacity:1"
         transform="matrix(0.62361333,0,0,-0.62361333,129.63733,318.52933)"
         clip-path="url(#clipPath44)"
         id="path82" />
      <path
         d="m 222.54,324 h 21.6"
         style="fill:none;stroke:#0000ff icc-color(sRGB-IEC61966-2, 0.1, 0, 0, 1);stroke-width:0.75;stroke-linecap:round;stroke-linejoin:round;stroke-miterlimit:10;stroke-dasharray:none;stroke-opacity:1"
         transform="matrix(0.62361333,0,0,-0.62361333,129.63733,318.52933)"
         clip-path="url(#clipPath45)"
         id="path83" />
      <path
         d="M 8.5185434,-4.6083922 H 4.8604272 v 0.977168 h 2.6558926 v 0.2255004 c 0,1.5785021 -1.1525572,2.70600367 -2.7310594,2.70600367 -0.9020012,0 -1.7037801,-0.32572267 -2.2048919,-0.90200127 C 2.00409,-2.2281111 1.6533117,-3.2553903 1.6533117,-4.3327807 c 0,-2.1547807 1.2026683,-3.5829493 3.056782,-3.5829493 1.3279462,0 2.3051143,0.7015565 2.5306146,1.829058 H 8.3932654 C 8.0675427,-7.8656189 6.7395965,-8.8928981 4.7351493,-8.8928981 c -1.0773904,0 -1.9292805,0.2756115 -2.630837,0.8518901 -1.0022236,0.8268345 -1.57850216,2.1798363 -1.57850216,3.7583385 0,2.6809481 1.65366896,4.56011738 4.00889436,4.56011738 1.1776128,0 2.1297252,-0.45100062 2.9816153,-1.40311308 l 0.2756114,1.17761277 h 0.7266122 z m 1.6474046,-1.6787245 v 6.28895309 h 1.002224 V -3.2553903 c 0.02506,-1.528391 0.651445,-2.1798363 2.029503,-2.1547807 v -1.0272792 c -0.175389,-0.025056 -0.275612,-0.025056 -0.40089,-0.025056 -0.626389,0 -1.127501,0.3758338 -1.70378,1.3279462 v -1.1525571 z m 9.458486,5.71267452 c -0.100223,0 -0.150334,0 -0.200445,0 -0.350778,0 -0.551223,-0.17538913 -0.551223,-0.47605622 v -3.7082273 c 0,-1.102446 -0.801779,-1.7037801 -2.355226,-1.7037801 -0.927056,0 -1.653668,0.2505559 -2.104669,0.7266121 -0.275612,0.3257227 -0.40089,0.6765009 -0.425945,1.3028907 h 1.002223 c 0.100223,-0.7516677 0.551223,-1.102446 1.47828,-1.102446 0.927057,0 1.403113,0.3257227 1.403113,0.9270568 v 0.2756115 c 0,0.4259451 -0.2255,0.5762786 -1.027279,0.676501 -1.428168,0.2004447 -1.628613,0.2255003 -2.029503,0.4008894 -0.726612,0.3006671 -1.102446,0.8518901 -1.102446,1.6787245 0,1.12750157 0.801779,1.85411368 2.079614,1.85411368 0.776724,0 1.428169,-0.27561149 2.129726,-0.92705683 0.07517,0.65144534 0.375833,0.92705683 1.027279,0.92705683 0.2255,0 0.350778,-0.0250556 0.676501,-0.10022236 z M 17.870542,-1.9775552 c 0,0.3257227 -0.07517,0.551223 -0.375834,0.8268345 -0.425945,0.35077821 -0.902001,0.55122293 -1.503335,0.55122293 -0.776723,0 -1.227724,-0.37583385 -1.227724,-1.00222363 0,-0.6765009 0.425945,-1.0022236 1.503336,-1.1525571 1.07739,-0.1503335 1.277835,-0.2004447 1.603557,-0.3507783 z m 7.948886,-6.7650093 h -1.002223 v 3.2572267 c -0.40089,-0.6514454 -1.077391,-0.977168 -1.929281,-0.977168 -1.628613,0 -2.706003,1.3028907 -2.706003,3.3073379 0,2.1297251 1.052334,3.43261578 2.756114,3.43261578 0.85189,0 1.453225,-0.32572267 2.004448,-1.10244596 v 0.82683447 h 0.876945 z m -2.756115,3.2071155 c 1.077391,0 1.753892,0.9521124 1.753892,2.4554478 0,1.4532242 -0.676501,2.43039225 -1.753892,2.43039225 -1.102446,0 -1.829058,-0.97716805 -1.829058,-2.45544785 0,-1.4532242 0.726612,-2.4303922 1.829058,-2.4303922 z m 5.299258,-0.7516677 h -1.002224 v 6.28895309 h 1.002224 z m 0,-2.4554478 h -1.002224 v 1.2527795 h 1.002224 z m 7.021829,5.9381748 c 0,-0.9521124 -0.07517,-1.528391 -0.250556,-2.0044472 -0.425945,-1.0272792 -1.378058,-1.6536689 -2.55567,-1.6536689 -1.753892,0 -2.881393,1.3279462 -2.881393,3.4075602 0,2.07961398 1.07739,3.33239348 2.856337,3.33239348 1.453224,0 2.430392,-0.82683447 2.680948,-2.17983628 h -1.002223 c -0.275612,0.8268344 -0.826835,1.25277945 -1.628614,1.25277945 -0.651445,0 -1.177612,-0.27561149 -1.528391,-0.80177885 -0.2255,-0.3758339 -0.325722,-0.7266121 -0.325722,-1.3530019 z m -4.610229,-0.8268345 c 0.07517,-1.1525571 0.776723,-1.9042248 1.804003,-1.9042248 1.002223,0 1.728835,0.7767233 1.728835,1.9042248 z m 5.969494,-2.6558925 v 6.28895309 h 1.002224 V -3.455835 c 0,-1.3028907 0.676501,-2.1297252 1.70378,-2.1297252 0.776724,0 1.302891,0.4760562 1.302891,1.2277239 v 4.35967269 h 0.977168 V -4.7587257 c 0,-1.0272792 -0.776723,-1.7037801 -1.979392,-1.7037801 -0.952112,0 -1.553446,0.3507782 -2.104669,1.2277239 v -1.0523348 z m 8.875943,0 h -1.052335 v -1.7288357 h -0.977168 v 1.7288357 h -0.85189 v 0.8268345 h 0.85189 v 4.73550648 c 0,0.65144534 0.425945,1.0022236 1.202669,1.0022236 0.275611,0 0.476056,-0.0250556 0.826834,-0.0751668 v -0.85189006 c -0.150333,0.0501112 -0.275611,0.0501112 -0.476056,0.0501112 -0.451001,0 -0.576279,-0.12527795 -0.576279,-0.55122292 v -4.3095615 h 1.052335 z m 9.552444,-2.4554478 h -1.002224 v 3.2572267 c -0.400889,-0.6514454 -1.07739,-0.977168 -1.92928,-0.977168 -1.628613,0 -2.706004,1.3028907 -2.706004,3.3073379 0,2.1297251 1.052335,3.43261578 2.756115,3.43261578 0.85189,0 1.453224,-0.32572267 2.004447,-1.10244596 v 0.82683447 h 0.876946 z m -2.756115,3.2071155 c 1.07739,0 1.753891,0.9521124 1.753891,2.4554478 0,1.4532242 -0.676501,2.43039225 -1.753891,2.43039225 -1.102446,0 -1.829058,-0.97716805 -1.829058,-2.45544785 0,-1.4532242 0.726612,-2.4303922 1.829058,-2.4303922 z m 9.652666,2.7310593 c 0,-0.9521124 -0.07517,-1.528391 -0.250556,-2.0044472 -0.425945,-1.0272792 -1.378057,-1.6536689 -2.55567,-1.6536689 -1.753891,0 -2.881393,1.3279462 -2.881393,3.4075602 0,2.07961398 1.077391,3.33239348 2.856337,3.33239348 1.453225,0 2.430393,-0.82683447 2.680949,-2.17983628 h -1.002224 c -0.275612,0.8268344 -0.826835,1.25277945 -1.628613,1.25277945 -0.651446,0 -1.177613,-0.27561149 -1.528391,-0.80177885 -0.225501,-0.3758339 -0.325723,-0.7266121 -0.325723,-1.3530019 z m -4.610228,-0.8268345 c 0.07517,-1.1525571 0.776723,-1.9042248 1.804002,-1.9042248 1.002224,0 1.728836,0.7767233 1.728836,1.9042248 z m 10.385542,-0.9020012 c -0.02506,-1.2277239 -0.826835,-1.9292804 -2.280059,-1.9292804 -1.47828,0 -2.405337,0.7516677 -2.405337,1.9042248 0,1.0022236 0.501112,1.4532242 1.979392,1.8290581 l 0.927057,0.2255003 c 0.701556,0.1753891 0.977168,0.425945 0.977168,0.8518901 0,0.6013341 -0.576279,1.00222355 -1.453225,1.00222355 -0.551222,0 -1.002223,-0.15033354 -1.252779,-0.42594505 -0.150334,-0.1753891 -0.2255,-0.3507782 -0.300667,-0.8017789 h -1.052335 c 0.05011,1.45322426 0.876946,2.15478078 2.505559,2.15478078 1.603558,0 2.605781,-0.77672329 2.605781,-1.97939158 0,-0.9521124 -0.526167,-1.4532242 -1.778946,-1.7538913 L 65.363413,-3.7063909 C 64.536579,-3.8817801 64.1858,-4.1573915 64.1858,-4.5833366 c 0,-0.6013341 0.526168,-0.9521124 1.327947,-0.9521124 0.801779,0 1.252779,0.3507783 1.277835,1.0022236 z m 6.401703,0.3507783 c -0.05011,-0.6013342 -0.200445,-1.0022236 -0.425945,-1.3530019 -0.425945,-0.5762786 -1.202669,-0.9270568 -2.079614,-0.9270568 -1.70378,0 -2.781171,1.3279462 -2.781171,3.4326158 0,2.0295028 1.077391,3.30733788 2.781171,3.30733788 1.503335,0 2.455448,-0.90200124 2.55567,-2.43039218 h -1.002224 c -0.150333,1.0022236 -0.676501,1.50333535 -1.528391,1.50333535 -1.102446,0 -1.753891,-0.90200125 -1.753891,-2.38028105 0,-1.5785022 0.62639,-2.505559 1.728836,-2.505559 0.85189,0 1.378057,0.4760562 1.47828,1.3530019 z m 6.495662,1.3780574 c 0,-0.9521124 -0.07517,-1.528391 -0.250556,-2.0044472 -0.425945,-1.0272792 -1.378058,-1.6536689 -2.555671,-1.6536689 -1.753891,0 -2.881392,1.3279462 -2.881392,3.4075602 0,2.07961398 1.07739,3.33239348 2.856337,3.33239348 1.453224,0 2.430392,-0.82683447 2.680948,-2.17983628 h -1.002224 c -0.275611,0.8268344 -0.826834,1.25277945 -1.628613,1.25277945 -0.651445,0 -1.177613,-0.27561149 -1.528391,-0.80177885 -0.2255,-0.3758339 -0.325723,-0.7266121 -0.325723,-1.3530019 z m -4.610229,-0.8268345 c 0.07517,-1.1525571 0.776723,-1.9042248 1.804002,-1.9042248 1.002224,0 1.728836,0.7767233 1.728836,1.9042248 z m 5.975758,-2.6558925 v 6.28895309 h 1.002224 V -3.455835 c 0,-1.3028907 0.676501,-2.1297252 1.70378,-2.1297252 0.776723,0 1.302891,0.4760562 1.302891,1.2277239 v 4.35967269 h 0.977168 V -4.7587257 c 0,-1.0272792 -0.776724,-1.7037801 -1.979392,-1.7037801 -0.952112,0 -1.553447,0.3507782 -2.10467,1.2277239 v -1.0523348 z m 8.875943,0 h -1.052335 v -1.7288357 h -0.977168 v 1.7288357 h -0.85189 v 0.8268345 h 0.85189 v 4.73550648 c 0,0.65144534 0.425945,1.0022236 1.202668,1.0022236 0.275612,0 0.476057,-0.0250556 0.826835,-0.0751668 v -0.85189006 c -0.150334,0.0501112 -0.275612,0.0501112 -0.476056,0.0501112 -0.451001,0 -0.576279,-0.12527795 -0.576279,-0.55122292 v -4.3095615 h 1.052335 z m 0,0"
         style="fill:#000000 icc-color(sRGB-IEC61966-2, 0.1, 0, 0, 0);fill-opacity:1;fill-rule:nonzero;stroke:none"
         aria-label="Gradient descent"
         transform="matrix(0.62361333,0,0,0.62361333,288.62132,110.18635)"
         clip-path="url(#clipPath46)"
         id="path84" />
      <path
         d="M 7.7418201,-8.7418642 H 6.6894853 V -1.601021 L 2.1293679,-8.7418642 H 0.90164399 V 0.00253675 H 1.9790344 V -7.0881952 l 4.5100062,7.09073195 h 1.2527795 z m 7.0844679,5.9381749 c 0,-0.9521125 -0.07517,-1.528391 -0.250556,-2.0044472 -0.425945,-1.0272792 -1.378057,-1.653669 -2.55567,-1.653669 -1.753891,0 -2.8813928,1.3279463 -2.8813928,3.4075603 0,2.07961394 1.0773908,3.33239344 2.8563368,3.33239344 1.453225,0 2.430393,-0.82683447 2.680949,-2.17983634 h -1.002224 c -0.275611,0.8268345 -0.826834,1.25277951 -1.628613,1.25277951 -0.651446,0 -1.177613,-0.27561149 -1.528391,-0.80177891 -0.225501,-0.3758338 -0.325723,-0.7266121 -0.325723,-1.3530018 z M 10.21606,-3.6305238 c 0.07517,-1.1525571 0.776723,-1.9042248 1.804002,-1.9042248 1.002224,0 1.728836,0.7767232 1.728836,1.9042248 z m 11.519307,3.63306055 1.854114,-6.28895305 h -1.127502 l -1.252779,4.88584 -1.227724,-4.88584 h -1.227724 l -1.202668,4.88584 -1.277836,-4.88584 h -1.102445 l 1.829058,6.28895305 h 1.127501 l 1.202668,-4.93595125 1.277836,4.93595125 z m 5.080021,-6.28895305 h -1.052335 v -1.7288358 h -0.977168 v 1.7288358 h -0.85189 v 0.8268344 h 0.85189 v 4.73550654 c 0,0.65144534 0.425945,1.0022236 1.202668,1.0022236 0.275612,0 0.476057,-0.0250556 0.826835,-0.0751668 v -0.85189006 c -0.150334,0.0501112 -0.275612,0.0501112 -0.476056,0.0501112 -0.451001,0 -0.576279,-0.12527795 -0.576279,-0.55122298 v -4.3095615 h 1.052335 z m 3.539102,-0.1753892 c -1.778947,0 -2.831282,1.2527795 -2.831282,3.3574491 0,2.12972514 1.052335,3.38250464 2.856338,3.38250464 1.778947,0 2.831281,-1.2527795 2.831281,-3.33239344 0,-2.1798364 -1.027279,-3.4075603 -2.856337,-3.4075603 z m 0.02506,0.9270569 c 1.127501,0 1.804002,0.9270568 1.804002,2.4805034 0,1.4782798 -0.701556,2.40533661 -1.804002,2.40533661 -1.127502,0 -1.804003,-0.92705681 -1.804003,-2.45544781 0,-1.5033354 0.676501,-2.4303922 1.804003,-2.4303922 z m 4.240658,-0.7516677 v 6.28895305 h 1.002224 V -3.4551347 c 0,-1.3028907 0.676501,-2.1297251 1.70378,-2.1297251 0.776723,0 1.302891,0.4760562 1.302891,1.2277239 v 4.35967265 h 0.977168 V -4.7580254 c 0,-1.0272791 -0.776724,-1.7037801 -1.979392,-1.7037801 -0.952112,0 -1.553447,0.3507783 -2.10467,1.2277239 v -1.0523347 z m 6.39544,-2.2299476 v 1.3530019 l 0.325722,1.6035578 h 0.476056 l 0.325723,-1.6035578 v -1.3530019 z m 6.977981,3.9838389 c -0.02506,-1.227724 -0.826834,-1.9292805 -2.280058,-1.9292805 -1.47828,0 -2.405337,0.7516677 -2.405337,1.9042249 0,1.0022236 0.501112,1.4532242 1.979392,1.829058 l 0.927057,0.2255003 c 0.701556,0.1753892 0.977168,0.4259451 0.977168,0.8518901 0,0.6013342 -0.576279,1.00222361 -1.453225,1.00222361 -0.551223,0 -1.002223,-0.15033354 -1.252779,-0.42594501 -0.150334,-0.1753892 -0.225501,-0.3507783 -0.300667,-0.8017789 h -1.052335 c 0.05011,1.45322422 0.876946,2.15478074 2.505559,2.15478074 1.603558,0 2.605781,-0.77672329 2.605781,-1.97939164 0,-0.9521124 -0.526167,-1.4532242 -1.778947,-1.7538913 l -0.952112,-0.2505559 c -0.826834,-0.1753891 -1.177613,-0.4510006 -1.177613,-0.8769456 0,-0.6013342 0.526168,-0.9521124 1.327947,-0.9521124 0.801778,0 1.252779,0.3507782 1.277835,1.0022236 z m 4.923424,-1.7538913 v 6.28895305 h 1.002223 V -3.9562465 c 0,-0.9020012 0.651446,-1.6286133 1.47828,-1.6286133 0.726612,0 1.152557,0.4510006 1.152557,1.2527795 v 4.33461705 h 1.002224 V -3.9562465 c 0,-0.9020012 0.676501,-1.6286133 1.47828,-1.6286133 0.751667,0 1.177613,0.4510006 1.177613,1.2527795 v 4.33461705 h 1.002223 V -4.7079142 c 0,-1.1275015 -0.651445,-1.7538913 -1.829058,-1.7538913 -0.826834,0 -1.327946,0.2505559 -1.92928,0.9521124 -0.375834,-0.6765009 -0.876946,-0.9521124 -1.678725,-0.9521124 -0.85189,0 -1.428169,0.3006671 -1.954336,1.0523348 v -0.8769456 z m 15.308965,3.482727 c 0,-0.9521125 -0.07517,-1.528391 -0.250556,-2.0044472 -0.425945,-1.0272792 -1.378057,-1.653669 -2.55567,-1.653669 -1.753891,0 -2.881393,1.3279463 -2.881393,3.4075603 0,2.07961394 1.077391,3.33239344 2.856338,3.33239344 1.453224,0 2.430392,-0.82683447 2.680948,-2.17983634 h -1.002224 c -0.275611,0.8268345 -0.826834,1.25277951 -1.628613,1.25277951 -0.651445,0 -1.177613,-0.27561149 -1.528391,-0.80177891 -0.2255,-0.3758338 -0.325723,-0.7266121 -0.325723,-1.3530018 z M 63.61579,-3.6305238 c 0.07517,-1.1525571 0.776723,-1.9042248 1.804002,-1.9042248 1.002224,0 1.728836,0.7767232 1.728836,1.9042248 z m 8.174386,-2.6558925 h -1.052335 v -1.7288358 h -0.977168 v 1.7288358 h -0.85189 v 0.8268344 h 0.85189 v 4.73550654 c 0,0.65144534 0.425945,1.0022236 1.202669,1.0022236 0.275611,0 0.476056,-0.0250556 0.826834,-0.0751668 v -0.85189006 c -0.150334,0.0501112 -0.275611,0.0501112 -0.476056,0.0501112 -0.451001,0 -0.576279,-0.12527795 -0.576279,-0.55122298 v -4.3095615 h 1.052335 z m 1.133765,-2.4554479 v 8.74440095 h 0.977168 V -3.4551347 c 0,-1.3028907 0.676501,-2.1297251 1.703781,-2.1297251 0.350778,0 0.651445,0.1002223 0.902001,0.2756115 0.275611,0.2004447 0.400889,0.5011118 0.400889,0.9521124 V 0.00253675 H 77.91 V -4.7580254 c 0,-1.0523347 -0.751668,-1.7037801 -1.979392,-1.7037801 -0.902001,0 -1.428168,0.2756115 -2.029503,1.0272792 v -3.3073379 z m 9.076388,2.2800587 c -1.778947,0 -2.831282,1.2527795 -2.831282,3.3574491 0,2.12972514 1.052335,3.38250464 2.856338,3.38250464 1.778946,0 2.831281,-1.2527795 2.831281,-3.33239344 0,-2.1798364 -1.027279,-3.4075603 -2.856337,-3.4075603 z m 0.02506,0.9270569 c 1.127501,0 1.804002,0.9270568 1.804002,2.4805034 0,1.4782798 -0.701557,2.40533661 -1.804002,2.40533661 -1.127502,0 -1.804003,-0.92705681 -1.804003,-2.45544781 0,-1.5033354 0.676501,-2.4303922 1.804003,-2.4303922 z m 9.326943,-3.2071156 H 90.3501 v 3.2572267 c -0.400889,-0.6514453 -1.07739,-0.977168 -1.92928,-0.977168 -1.628613,0 -2.706004,1.3028907 -2.706004,3.3073379 0,2.1297252 1.052335,3.43261584 2.756115,3.43261584 0.85189,0 1.453224,-0.32572267 2.004447,-1.10244596 v 0.82683447 h 0.876946 z m -2.756115,3.2071156 c 1.07739,0 1.753891,0.9521124 1.753891,2.4554478 0,1.4532242 -0.676501,2.43039221 -1.753891,2.43039221 -1.102446,0 -1.829058,-0.97716801 -1.829058,-2.45544781 0,-1.4532242 0.726612,-2.4303922 1.829058,-2.4303922 z m 0,0"
         style="fill:#000000 icc-color(sRGB-IEC61966-2, 0.1, 0, 0, 0);fill-opacity:1;fill-rule:nonzero;stroke:none"
         aria-label="Newton's method"
         transform="matrix(0.62361333,0,0,0.62361333,288.62132,119.16639)"
         clip-path="url(#clipPath47)"
         id="path85" />
    </g>
  </g>
</svg>
