<?xml version="1.0" encoding="UTF-8" standalone="no"?>
<!-- Created with Inkscape (http://www.inkscape.org/) -->

<svg
   width="37.810726mm"
   height="60.890858mm"
   viewBox="0 0 37.810726 60.890858"
   version="1.1"
   id="svg1"
   inkscape:version="1.3.2 (091e20ef0f, 2023-11-25)"
   sodipodi:docname="newton-approx.svg"
   inkscape:export-filename="newton-approx.png"
   inkscape:export-xdpi="300"
   inkscape:export-ydpi="300"
   xmlns:inkscape="http://www.inkscape.org/namespaces/inkscape"
   xmlns:sodipodi="http://sodipodi.sourceforge.net/DTD/sodipodi-0.dtd"
   xmlns="http://www.w3.org/2000/svg"
   xmlns:svg="http://www.w3.org/2000/svg">
  <sodipodi:namedview
     id="namedview1"
     pagecolor="#ffffff"
     bordercolor="#666666"
     borderopacity="1.0"
     inkscape:showpageshadow="2"
     inkscape:pageopacity="0.0"
     inkscape:pagecheckerboard="0"
     inkscape:deskcolor="#d1d1d1"
     inkscape:document-units="mm"
     inkscape:zoom="1.8036346"
     inkscape:cx="82.333748"
     inkscape:cy="180.46892"
     inkscape:window-width="1080"
     inkscape:window-height="1502"
     inkscape:window-x="0"
     inkscape:window-y="418"
     inkscape:window-maximized="1"
     inkscape:current-layer="layer1" />
  <defs
     id="defs1">
    <clipPath
       clipPathUnits="userSpaceOnUse"
       id="clipPath4">
      <path
         d="M 2322.39,6683.37 V 4957.33 H 3393.8 v 1726.04 z"
         id="path4" />
    </clipPath>
    <clipPath
       clipPathUnits="userSpaceOnUse"
       id="clipPath6">
      <path
         d="m 2322.39,4957.33 h 1071.4 v 1706.66 h -1071.4 z"
         id="path6" />
    </clipPath>
    <clipPath
       clipPathUnits="userSpaceOnUse"
       id="clipPath8">
      <path
         d="m 2322.39,4957.33 h 1071.4 v 1706.66 h -1071.4 z"
         id="path8" />
    </clipPath>
    <clipPath
       clipPathUnits="userSpaceOnUse"
       id="clipPath10">
      <path
         d="m 2322.39,4957.33 h 1071.4 v 1706.66 h -1071.4 z"
         id="path10" />
    </clipPath>
    <clipPath
       clipPathUnits="userSpaceOnUse"
       id="clipPath12">
      <path
         d="m 2322.39,4957.33 h 1071.4 v 1706.66 h -1071.4 z"
         id="path12" />
    </clipPath>
    <clipPath
       clipPathUnits="userSpaceOnUse"
       id="clipPath14">
      <path
         d="m 2322.39,4957.33 h 1071.4 v 1706.66 h -1071.4 z"
         id="path14" />
    </clipPath>
    <clipPath
       clipPathUnits="userSpaceOnUse"
       id="clipPath16">
      <path
         d="m 2322.39,4957.33 h 1071.4 v 1706.66 h -1071.4 z"
         id="path16" />
    </clipPath>
    <clipPath
       clipPathUnits="userSpaceOnUse"
       id="clipPath18">
      <path
         d="m 2322.39,4957.33 h 1071.4 v 1706.66 h -1071.4 z"
         id="path18" />
    </clipPath>
    <clipPath
       clipPathUnits="userSpaceOnUse"
       id="clipPath20">
      <path
         d="m 2322.39,4957.33 h 1071.4 v 1706.66 h -1071.4 z"
         id="path20" />
    </clipPath>
    <clipPath
       clipPathUnits="userSpaceOnUse"
       id="clipPath22">
      <path
         d="m 2322.39,4957.33 h 1071.4 v 1706.66 h -1071.4 z"
         id="path22" />
    </clipPath>
    <clipPath
       clipPathUnits="userSpaceOnUse"
       id="clipPath24">
      <path
         d="m 2322.39,4957.33 h 1071.4 v 1706.66 h -1071.4 z"
         id="path24" />
    </clipPath>
    <clipPath
       clipPathUnits="userSpaceOnUse"
       id="clipPath26">
      <path
         d="m 2322.39,4957.33 h 1071.4 v 1706.66 h -1071.4 z"
         id="path26" />
    </clipPath>
    <clipPath
       clipPathUnits="userSpaceOnUse"
       id="clipPath28">
      <path
         d="m 2322.39,4957.33 h 1071.4 v 1706.66 h -1071.4 z"
         id="path28" />
    </clipPath>
    <clipPath
       clipPathUnits="userSpaceOnUse"
       id="clipPath30">
      <path
         d="m 2322.39,4957.33 h 1071.4 v 1706.66 h -1071.4 z"
         id="path30" />
    </clipPath>
    <clipPath
       clipPathUnits="userSpaceOnUse"
       id="clipPath32">
      <path
         d="m 2322.39,4957.33 h 1071.4 v 1706.66 h -1071.4 z"
         id="path32" />
    </clipPath>
    <clipPath
       clipPathUnits="userSpaceOnUse"
       id="clipPath34">
      <path
         d="m 2322.39,4957.33 h 1071.4 v 1706.66 h -1071.4 z"
         id="path34" />
    </clipPath>
    <clipPath
       clipPathUnits="userSpaceOnUse"
       id="clipPath36">
      <path
         d="m 2322.39,4957.33 h 1071.4 v 1706.66 h -1071.4 z"
         id="path36" />
    </clipPath>
    <clipPath
       clipPathUnits="userSpaceOnUse"
       id="clipPath38">
      <path
         d="m 2322.39,4957.33 h 1071.4 v 1706.66 h -1071.4 z"
         id="path38" />
    </clipPath>
    <clipPath
       clipPathUnits="userSpaceOnUse"
       id="clipPath40">
      <path
         d="m 2322.39,4957.33 h 1071.4 v 1706.66 h -1071.4 z"
         id="path40" />
    </clipPath>
    <clipPath
       clipPathUnits="userSpaceOnUse"
       id="clipPath42">
      <path
         d="m 2322.39,4957.33 h 1071.4 v 1706.66 h -1071.4 z"
         id="path42" />
    </clipPath>
    <clipPath
       clipPathUnits="userSpaceOnUse"
       id="clipPath44">
      <path
         d="m 2322.39,4957.33 h 1071.4 v 1706.66 h -1071.4 z"
         id="path44" />
    </clipPath>
    <clipPath
       clipPathUnits="userSpaceOnUse"
       id="clipPath46">
      <path
         d="m 2322.39,4957.33 h 1071.4 v 1706.66 h -1071.4 z"
         id="path46" />
    </clipPath>
    <clipPath
       clipPathUnits="userSpaceOnUse"
       id="clipPath48">
      <path
         d="m 2322.39,4957.33 h 1071.4 v 1706.66 h -1071.4 z"
         id="path48" />
    </clipPath>
    <clipPath
       clipPathUnits="userSpaceOnUse"
       id="clipPath50">
      <path
         d="m 2322.39,4957.33 h 1071.4 v 1706.66 h -1071.4 z"
         id="path50" />
    </clipPath>
    <clipPath
       clipPathUnits="userSpaceOnUse"
       id="clipPath52">
      <path
         d="m 2322.39,4957.33 h 1071.4 v 1706.66 h -1071.4 z"
         id="path52" />
    </clipPath>
    <clipPath
       clipPathUnits="userSpaceOnUse"
       id="clipPath54">
      <path
         d="m 2322.39,4957.33 h 1071.4 v 1706.66 h -1071.4 z"
         id="path54" />
    </clipPath>
    <clipPath
       clipPathUnits="userSpaceOnUse"
       id="clipPath56">
      <path
         d="m 2322.39,4957.33 h 1071.4 v 1706.66 h -1071.4 z"
         id="path56" />
    </clipPath>
    <clipPath
       clipPathUnits="userSpaceOnUse"
       id="clipPath58">
      <path
         d="m 2322.39,4957.33 h 1071.4 v 1706.66 h -1071.4 z"
         id="path58" />
    </clipPath>
    <clipPath
       clipPathUnits="userSpaceOnUse"
       id="clipPath60">
      <path
         d="m 2322.39,4957.33 h 1071.4 v 1706.66 h -1071.4 z"
         id="path60" />
    </clipPath>
    <clipPath
       clipPathUnits="userSpaceOnUse"
       id="clipPath62">
      <path
         d="m 2322.39,4957.33 h 1071.4 v 1706.66 h -1071.4 z"
         id="path62" />
    </clipPath>
    <clipPath
       clipPathUnits="userSpaceOnUse"
       id="clipPath64">
      <path
         d="m 2322.39,4957.33 h 1071.4 v 1706.66 h -1071.4 z"
         id="path64" />
    </clipPath>
    <clipPath
       clipPathUnits="userSpaceOnUse"
       id="clipPath66">
      <path
         d="m 2322.39,4957.33 h 1071.4 v 1706.66 h -1071.4 z"
         id="path66" />
    </clipPath>
    <clipPath
       clipPathUnits="userSpaceOnUse"
       id="clipPath68">
      <path
         d="m 2322.39,4957.33 h 1071.4 v 1706.66 h -1071.4 z"
         id="path68" />
    </clipPath>
    <clipPath
       clipPathUnits="userSpaceOnUse"
       id="clipPath70">
      <path
         d="m 2322.39,4957.33 h 1071.4 v 1706.66 h -1071.4 z"
         id="path70" />
    </clipPath>
    <clipPath
       clipPathUnits="userSpaceOnUse"
       id="clipPath72">
      <path
         d="m 2322.39,4957.33 h 1071.4 v 1706.66 h -1071.4 z"
         id="path72" />
    </clipPath>
    <clipPath
       clipPathUnits="userSpaceOnUse"
       id="clipPath74">
      <path
         d="m 2322.39,4957.33 h 1071.4 v 1706.66 h -1071.4 z"
         id="path74" />
    </clipPath>
    <clipPath
       clipPathUnits="userSpaceOnUse"
       id="clipPath76">
      <path
         d="m 2322.39,4957.33 h 1071.4 v 1706.66 h -1071.4 z"
         id="path76" />
    </clipPath>
    <clipPath
       clipPathUnits="userSpaceOnUse"
       id="clipPath78">
      <path
         d="m 2322.39,4957.33 h 1071.4 v 1706.66 h -1071.4 z"
         id="path78" />
    </clipPath>
    <clipPath
       clipPathUnits="userSpaceOnUse"
       id="clipPath80">
      <path
         d="m 2322.39,4957.33 h 1071.4 v 1706.66 h -1071.4 z"
         id="path80" />
    </clipPath>
    <clipPath
       clipPathUnits="userSpaceOnUse"
       id="clipPath82">
      <path
         d="m 2322.39,4957.33 h 1071.4 v 1706.66 h -1071.4 z"
         id="path82" />
    </clipPath>
    <clipPath
       clipPathUnits="userSpaceOnUse"
       id="clipPath84">
      <path
         d="m 2322.39,4957.33 h 1071.4 v 1706.66 h -1071.4 z"
         id="path84" />
    </clipPath>
    <clipPath
       clipPathUnits="userSpaceOnUse"
       id="clipPath86">
      <path
         d="m 2593.38,6140.2 v -59.37 h 59.36 v 59.37 z"
         id="path86" />
    </clipPath>
    <clipPath
       clipPathUnits="userSpaceOnUse"
       id="clipPath88">
      <path
         d="m 2886.97,5597.83 v -59.37 h 59.37 v 59.37 z"
         id="path88" />
    </clipPath>
    <clipPath
       clipPathUnits="userSpaceOnUse"
       id="clipPath90">
      <path
         d="m 2845.78,5674.16 v -59.37 h 59.36 v 59.37 z"
         id="path90" />
    </clipPath>
    <clipPath
       clipPathUnits="userSpaceOnUse"
       id="clipPath92">
      <path
         d="M 2322,4957 V 6664 H 3394 V 4957 Z"
         id="path92" />
    </clipPath>
    <clipPath
       clipPathUnits="userSpaceOnUse"
       id="clipPath94">
      <path
         d="M 2322,4957 V 6664 H 3394 V 4957 Z"
         id="path94" />
    </clipPath>
    <clipPath
       clipPathUnits="userSpaceOnUse"
       id="clipPath96">
      <path
         d="M 2322,4957 V 6664 H 3394 V 4957 Z"
         id="path96" />
    </clipPath>
    <clipPath
       clipPathUnits="userSpaceOnUse"
       id="clipPath98">
      <path
         d="M 2322,4957 V 6664 H 3394 V 4957 Z"
         id="path98" />
    </clipPath>
    <clipPath
       clipPathUnits="userSpaceOnUse"
       id="clipPath100">
      <path
         d="M 2322,4957 V 6664 H 3394 V 4957 Z"
         id="path100" />
    </clipPath>
    <clipPath
       clipPathUnits="userSpaceOnUse"
       id="clipPath102">
      <path
         d="M 2322,4957 V 6664 H 3394 V 4957 Z"
         id="path102" />
    </clipPath>
    <clipPath
       clipPathUnits="userSpaceOnUse"
       id="clipPath104">
      <path
         d="M 2322,4957 V 6664 H 3394 V 4957 Z"
         id="path104" />
    </clipPath>
    <clipPath
       clipPathUnits="userSpaceOnUse"
       id="clipPath106">
      <path
         d="M 2322,4957 V 6664 H 3394 V 4957 Z"
         id="path106" />
    </clipPath>
    <clipPath
       clipPathUnits="userSpaceOnUse"
       id="clipPath108">
      <path
         d="M 2322,4957 V 6664 H 3394 V 4957 Z"
         id="path108" />
    </clipPath>
    <clipPath
       clipPathUnits="userSpaceOnUse"
       id="clipPath110">
      <path
         d="M 2322,4957 V 6664 H 3394 V 4957 Z"
         id="path110" />
    </clipPath>
    <clipPath
       clipPathUnits="userSpaceOnUse"
       id="clipPath112">
      <path
         d="M 2322,4957 V 6664 H 3394 V 4957 Z"
         id="path112" />
    </clipPath>
    <clipPath
       clipPathUnits="userSpaceOnUse"
       id="clipPath114">
      <path
         d="M 2322,4957 V 6664 H 3394 V 4957 Z"
         id="path114" />
    </clipPath>
    <clipPath
       clipPathUnits="userSpaceOnUse"
       id="clipPath116">
      <path
         d="M 2322,4957 V 6664 H 3394 V 4957 Z"
         id="path116" />
    </clipPath>
    <clipPath
       clipPathUnits="userSpaceOnUse"
       id="clipPath118">
      <path
         d="M 2322,4957 V 6664 H 3394 V 4957 Z"
         id="path118" />
    </clipPath>
  </defs>
  <g
     inkscape:label="Layer 1"
     inkscape:groupmode="layer"
     id="layer1"
     transform="translate(-50.535425,-67.204143)">
    <path
       id="path3"
       d="M 1402.84,4727.14 H 4196.65 V 6821.08 H 1402.84 Z"
       style="fill:#ffffff;fill-opacity:1;fill-rule:nonzero;stroke:none"
       transform="matrix(0.03527778,0,0,-0.03527778,-31.37958,302.9786)"
       clip-path="url(#clipPath4)" />
    <path
       id="path5"
       d="m 3212.88,5548.56 0.8,0.81 -0.4,2.42 0.81,0.81 0.8,1.21 0.81,1.21 -0.4,2.02 0.81,1.21 0.8,1.21 0.81,0.81 -0.4,2.43 0.8,0.8 0.81,1.21 0.81,1.22 -0.4,2.02 0.4,1.21 0.81,1.21 0.81,0.81 0.8,1.21 -0.4,2.02 0.4,1.21 0.81,1.21 0.81,1.21 0.81,1.21 -0.81,2.02 0.81,0.81 0.4,1.21 0.81,1.21 0.81,1.21 -0.81,2.02 0.4,1.22 0.81,1.21 0.81,1.21 0.4,0.81 0.81,1.21 -0.81,2.02 0.4,1.21 0.81,1.21 0.41,1.21 0.4,1.21 0.81,1.21 0.4,1.22 -0.81,2.02 0.41,1.21 0.81,0.8 0.4,1.22 0.4,1.21 0.41,1.21 0.81,1.21 -1.22,2.02 0.41,1.21 0.81,1.21 0.4,1.21 0.4,1.22 0.41,1.21 0.4,1.21 0.4,1.21 0.41,1.21 -1.21,1.62 0.8,1.21 0.41,1.21 0.4,1.62 v 1.21 l 0.41,1.21 0.4,1.21 0.4,1.21 0.41,1.21 0.4,1.22 -1.21,1.61 0.4,1.21 0.41,1.21 v 1.22 l 0.4,1.21 0.4,1.21 0.41,1.21 v 1.62 l 0.4,1.21 0.41,1.21 v 1.21 l 0.4,1.21 0.4,1.21 v 1.21 l -1.21,1.62 v 1.21 l 0.41,1.21 v 1.21 l 0.4,1.22 v 1.61 l 0.4,1.21 v 1.21 l 0.41,1.22 v 1.21 l 0.4,1.21 v 2.42 l 0.41,1.21 v 4.04 l 0.4,1.21 v 3.64 l 0.4,1.61 v 10.1"
       style="fill:none;stroke:#000000;stroke-width:2.42308;stroke-linecap:butt;stroke-linejoin:round;stroke-miterlimit:10;stroke-dasharray:29.0769;stroke-dashoffset:0;stroke-opacity:1"
       transform="matrix(0.03527778,0,0,-0.03527778,-31.37958,302.9786)"
       clip-path="url(#clipPath6)" />
    <path
       id="path7"
       d="m 3117.16,5395.91 1.22,2.02 1.61,2.42 1.21,2.02 1.62,2.02 1.61,0.4 1.21,2.42 1.62,2.02 1.21,2.02 1.62,0.81 1.21,2.02 1.21,2.02 1.21,2.42 1.62,0.41 1.21,2.42 1.21,2.02 1.62,0.81 1.21,2.02 1.21,2.01 1.61,0.81 0.81,2.02 1.21,2.42 1.62,0.81 0.81,2.02 1.21,2.42 1.61,0.41 0.81,2.42 1.62,0.41 0.8,2.42 0.81,2.02 1.62,0.81 0.8,2.42 1.62,0.81 0.81,2.02 0.4,2.42 1.62,0.81 0.8,2.02 1.62,0.8 0.4,2.43 1.62,0.8 0.4,2.02 1.62,0.81 0.81,2.42 1.21,0.81 0.4,2.02 1.62,0.81 0.4,2.42 1.62,0.81 0.4,2.42 1.21,0.81 0.4,2.02 1.62,0.81 0.4,2.42 1.22,0.81 0.4,2.42 1.21,0.81 1.21,0.81 0.41,2.42 1.21,0.81 0.4,2.42 1.21,0.81 0.41,2.02 1.21,1.21 1.21,0.81 v 2.02 l 1.21,1.21 0.41,2.02 1.21,1.21 1.21,0.81 v 2.42 l 1.21,0.81 1.21,0.8 v 2.43 l 1.21,0.8 v 2.43 l 0.81,0.81 1.21,1.21 v 2.02 l 1.21,1.21 0.81,0.81 v 2.42 l 1.21,0.81 0.81,1.21 v 2.02 l 1.21,1.21 0.81,0.81 1.21,1.21 -0.4,2.02 1.21,1.21 0.81,0.81 v 2.42 l 0.8,0.81 1.22,1.21 -0.41,2.02 0.81,1.21 1.21,0.81 0.81,1.21 -0.4,2.02 0.8,1.21 1.22,1.21"
       style="fill:none;stroke:#000000;stroke-width:2.42308;stroke-linecap:butt;stroke-linejoin:round;stroke-miterlimit:10;stroke-dasharray:29.0769;stroke-dashoffset:0;stroke-opacity:1"
       transform="matrix(0.03527778,0,0,-0.03527778,-31.37958,302.9786)"
       clip-path="url(#clipPath8)" />
    <path
       id="path9"
       d="m 2845.78,5192.37 4.44,1.61 4.44,2.02 4.04,2.02 4.04,0.41 4.04,2.02 4.04,2.01 4.44,2.43 4.04,2.02 4.04,2.02 3.63,0.8 4.04,2.02 4.04,2.43 4.04,2.42 3.63,2.02 3.64,0.81 3.63,2.42 4.04,2.42 3.63,2.43 4.04,2.42 3.23,0.81 3.64,2.82 3.63,2.43 3.64,2.42 3.63,2.83 3.23,0.8 3.64,2.83 3.23,2.83 3.23,0.81 3.63,2.82 3.23,2.83 3.23,2.83 3.23,1.21 3.24,2.82 2.82,1.22 3.23,2.82 3.23,2.83 3.24,1.21 2.82,3.23 2.83,1.21 3.23,2.83 2.83,3.23 2.82,1.21 2.83,3.23 2.83,1.22 2.82,3.23 2.83,1.61 2.83,2.83 2.42,1.61 2.83,1.62 2.82,3.23 2.43,1.21 2.42,3.23 2.83,1.62 2.42,1.61 2.42,3.23 2.43,1.62 2.42,1.61 2.42,3.64 2.43,1.61 2.42,1.62 2.02,1.62 2.42,3.23 2.42,2.02 2.02,1.61 2.43,1.62 2.02,3.63 2.02,1.62 2.42,2.02 2.02,1.61 2.02,2.02 2.42,1.62 2.02,2.01 1.61,3.24 2.02,2.01 2.02,2.02 2.02,1.62 2.02,2.02 2.02,2.02 1.62,1.61 2.02,2.02 2.02,2.02 1.61,2.02 2.02,2.02 1.61,2.02 1.62,2.02 2.02,1.61 1.62,2.02 1.61,2.02 1.62,2.02 1.61,2.02 1.62,2.02 2.02,0.4 1.61,2.02 1.62,2.43 1.61,2.02 1.62,2.01 1.21,2.02 1.61,2.02 2.02,0.41"
       style="fill:none;stroke:#000000;stroke-width:2.42308;stroke-linecap:butt;stroke-linejoin:round;stroke-miterlimit:10;stroke-dasharray:29.0769;stroke-dashoffset:0;stroke-opacity:1"
       transform="matrix(0.03527778,0,0,-0.03527778,-31.37958,302.9786)"
       clip-path="url(#clipPath10)" />
    <path
       id="path11"
       d="m 2579.64,5392.68 0.81,-3.64 1.62,-2.83 0.81,-4.03 0.4,-3.64 0.81,-4.04 2.02,-2.82 0.4,-3.64 0.81,-4.04 0.8,-3.63 2.02,-3.23 0.81,-3.64 0.81,-4.04 0.81,-3.63 2.02,-2.83 0.8,-4.04 1.22,-3.63 0.8,-4.04 1.21,-3.63 2.02,-2.83 1.22,-4.04 0.8,-3.63 1.22,-4.04 2.42,-2.42 1.21,-4.04 1.21,-3.64 1.21,-4.04 2.43,-2.82 1.21,-3.64 1.21,-4.04 2.83,-2.42 1.21,-4.04 1.61,-3.63 2.43,-2.83 1.61,-3.63 1.21,-4.04 2.83,-2.43 1.61,-3.63 1.62,-4.04 2.42,-2.42 1.62,-4.04 2.83,-2.42 1.61,-3.64 2.83,-2.42 2.02,-4.04 2.82,-2.42 2.83,-2.43 1.62,-3.63 3.23,-2.42 2.82,-2.43 2.02,-3.63 2.83,-2.42 2.83,-2.43 3.23,-2.42 2.82,-2.42 3.24,-2.43 2.82,-2.02 3.23,-2.42 2.83,-2.02 3.23,-2.42 3.23,-2.02 2.83,-2.42 3.23,-2.02 4.04,-0.81 3.23,-2.02 3.23,-2.42 4.04,-0.41 3.23,-2.42 4.04,-0.4 3.23,-2.02 4.04,-0.81 4.04,-0.4 3.23,-2.02 4.03,-0.41 4.04,-0.4 4.04,-0.4 4.04,-0.41 4.04,-0.4 4.04,-0.41 4.04,-0.4 h 4.03 l 4.04,-0.4 h 4.04 l 4.85,1.21 h 4.04 l 4.03,-0.41 4.45,1.62 h 4.03 l 4.85,1.21 h 3.64 l 4.84,1.62 h 4.04 l 4.44,1.61 3.64,0.41 4.84,1.61 4.44,1.62 3.64,0.4 4.44,1.62 4.44,2.01 3.64,0.41"
       style="fill:none;stroke:#000000;stroke-width:2.42308;stroke-linecap:butt;stroke-linejoin:round;stroke-miterlimit:10;stroke-dasharray:29.0769;stroke-dashoffset:0;stroke-opacity:1"
       transform="matrix(0.03527778,0,0,-0.03527778,-31.37958,302.9786)"
       clip-path="url(#clipPath12)" />
    <path
       id="path13"
       d="m 2551.38,5749.27 -0.41,-2.82 -0.4,-3.24 v -2.82 l -0.41,-3.23 -0.4,-3.23 1.62,-3.23 -0.41,-2.83 v -3.23 l -0.4,-3.23 v -2.83 l -0.41,-3.23 v -6.06 l -0.4,-3.23 v -27.86 l 0.4,-2.83 v -6.46 l 0.41,-2.83 v -3.23 l 0.4,-3.23 v -2.83 l 0.41,-3.23 -1.62,-3.23 0.4,-3.23 0.41,-2.83 v -3.23 l 0.4,-2.83 0.41,-3.23 0.4,-3.23 -1.21,-3.23 0.4,-3.23 0.41,-2.83 0.4,-3.23 0.4,-2.82 0.41,-3.23 -0.81,-3.23 0.4,-3.24 0.41,-3.23 0.8,-2.82 -1.21,-3.64 0.81,-2.82 0.4,-3.24 0.81,-2.82 -1.21,-3.64 0.81,-2.82 0.81,-3.23 -0.81,-3.64 0.4,-2.83 0.81,-3.23 -0.81,-3.23 0.81,-3.23 0.81,-3.23 -0.81,-3.23 0.81,-3.23 1.21,-2.83 -0.81,-3.63 0.81,-3.23 -0.41,-3.23 0.81,-3.23 -0.4,-3.64 0.81,-2.83 1.21,-3.23 -0.81,-3.63 1.21,-2.83 -0.4,-3.63 1.21,-3.23 -0.81,-3.64 1.21,-2.83 -0.4,-3.63 1.21,-3.23 -0.4,-3.64 1.61,-2.82 -0.4,-3.64 1.21,-3.23 -0.4,-3.63 1.61,-2.83 -0.4,-3.63 v -3.64 l 1.21,-3.23 v -3.63 l 1.61,-2.83 -0.4,-4.04 v -3.63 l 1.62,-2.83 v -3.64 l 1.61,-3.23 v -7.27 l 1.62,-3.23 0.4,-3.63 v -3.64 l 1.62,-3.23 0.4,-3.63 0.4,-3.64 1.62,-3.23 0.4,-3.63 0.41,-3.64 0.4,-4.03 1.62,-2.83 0.4,-3.64 0.4,-4.03"
       style="fill:none;stroke:#000000;stroke-width:2.42308;stroke-linecap:butt;stroke-linejoin:round;stroke-miterlimit:10;stroke-dasharray:29.0769;stroke-dashoffset:0;stroke-opacity:1"
       transform="matrix(0.03527778,0,0,-0.03527778,-31.37958,302.9786)"
       clip-path="url(#clipPath14)" />
    <path
       id="path15"
       d="m 2612.36,6088.1 -2.43,-2.83 -1.21,-3.63 -1.21,-4.04 -1.21,-3.64 -2.42,-2.82 -1.22,-4.04 -0.8,-3.64 -1.22,-4.03 -2.02,-2.43 -1.21,-4.04 -0.8,-4.03 -1.22,-3.64 -0.8,-4.04 -2.02,-2.82 -0.81,-3.64 -0.81,-4.04 -0.81,-3.63 -2.02,-2.83 -0.8,-4.04 -0.81,-3.63 -0.4,-4.04 -2.02,-2.83 -0.81,-3.63 -0.4,-4.04 -0.81,-3.63 -1.62,-2.83 -0.81,-4.04 -0.4,-3.63 -0.4,-4.04 -1.62,-2.83 -0.4,-3.63 -0.41,-4.04 -0.4,-3.64 -1.62,-2.82 -0.4,-4.04 -0.4,-3.64 -1.62,-2.82 v -4.04 l -0.4,-3.64 -1.62,-2.82 v -7.68 l -1.61,-2.82 v -3.64 l -1.62,-3.23 v -3.63 l 0.4,-3.64 -1.61,-3.23 v -3.63 l -1.21,-2.83 v -3.64 l 0.4,-4.03 -1.61,-2.83 0.4,-3.64 -1.21,-3.23 0.4,-3.63 -1.61,-2.83 0.4,-3.63 -1.21,-3.23 0.4,-3.64 -1.21,-2.83 0.81,-3.63 -1.21,-3.23 0.4,-3.23 -1.21,-3.23 0.81,-3.64 -1.21,-2.82 -0.81,-3.23 0.4,-3.64 -0.81,-2.83 0.41,-3.63 -0.81,-3.23 0.81,-3.23 -1.21,-3.23 -0.81,-2.83 0.81,-3.63 -0.81,-3.24 -0.81,-2.82 0.81,-3.64 -0.81,-2.82 -0.4,-3.23 0.81,-3.64 -0.81,-2.83 -0.81,-3.23 1.21,-3.23 -0.81,-3.23 -0.4,-2.83 -0.81,-3.23 1.21,-3.23 -0.8,-3.23 -0.41,-3.23 -0.4,-2.83 0.81,-3.63 -0.41,-2.83 -0.4,-3.23 -0.4,-2.82 -0.41,-3.24 -0.4,-3.23 1.21,-3.23 -0.4,-3.23"
       style="fill:none;stroke:#000000;stroke-width:2.42308;stroke-linecap:butt;stroke-linejoin:round;stroke-miterlimit:10;stroke-dasharray:29.0769;stroke-dashoffset:0;stroke-opacity:1"
       transform="matrix(0.03527778,0,0,-0.03527778,-31.37958,302.9786)"
       clip-path="url(#clipPath16)" />
    <path
       id="path17"
       d="m 2949.57,6137.77 -3.23,2.43 -3.64,2.82 -3.23,0.81 -3.63,2.83 -3.64,2.42 -3.63,2.83 -3.64,2.42 -3.23,0.81 -4.04,2.42 -3.63,2.42 -4.04,2.43 -3.63,2.42 -3.64,0.81 -3.63,2.42 -4.04,2.42 -4.04,2.02 -4.04,2.43 -3.63,0.4 -4.04,2.42 -4.04,2.02 -4.44,2.02 -4.04,2.02 -4.04,2.02 -4.04,0.4 -4.04,2.02 -4.44,2.02 -4.44,2.02 -3.64,0.41 -4.44,1.61 -4.44,2.02 h -3.64 l -4.44,1.62 -4.84,2.01 h -3.64 l -4.44,1.62 h -4.04 l -4.84,1.62 h -3.64 l -4.85,1.61 h -4.03 l -4.45,1.21 h -8.07 l -4.85,1.21 -4.04,-0.4 h -4.04 l -4.03,-0.4 -4.04,-0.41 -4.04,-0.4 -4.04,-0.41 -4.04,-0.4 -4.04,-0.4 -4.04,-0.41 -4.03,-0.4 -3.23,-2.02 -4.04,-0.4 -4.04,-0.81 -3.23,-2.02 -4.04,-0.4 -3.23,-2.02 -4.04,-0.81 -3.23,-2.02 -3.23,-2.02 -4.04,-0.81 -3.23,-2.42 -2.83,-2.02 -3.23,-2.42 -3.23,-2.02 -2.83,-2.43 -3.23,-2.01 -2.82,-2.43 -3.24,-2.42 -2.82,-2.42 -3.23,-2.02 -2.83,-2.43 -2.83,-2.42 -2.02,-3.63 -2.82,-2.43 -3.23,-2.42 -1.62,-4.04 -2.83,-2.42 -2.82,-2.42 -2.02,-3.64 -2.83,-2.42 -1.61,-4.04 -2.83,-2.42 -1.62,-3.64 -2.42,-2.83 -1.62,-3.63 -1.61,-4.04 -2.83,-2.42 -1.21,-3.64 -1.61,-4.03 -2.43,-2.43 -1.61,-4.04 -1.21,-3.63 -2.83,-2.83 -1.21,-4.04 -1.21,-3.63"
       style="fill:none;stroke:#000000;stroke-width:2.42308;stroke-linecap:butt;stroke-linejoin:round;stroke-miterlimit:10;stroke-dasharray:29.0769;stroke-dashoffset:0;stroke-opacity:1"
       transform="matrix(0.03527778,0,0,-0.03527778,-31.37958,302.9786)"
       clip-path="url(#clipPath18)" />
    <path
       id="path19"
       d="m 3153.11,5942.31 -1.62,0.81 -0.81,2.02 -1.61,0.81 -1.21,2.01 -0.81,2.43 -1.62,0.4 -1.21,2.42 -0.81,2.02 -1.61,0.81 -1.21,2.02 -1.21,2.42 -1.62,0.41 -1.21,2.42 -1.21,2.02 -1.62,0.81 -1.21,2.02 -1.21,2.02 -1.21,2.42 -1.62,0.4 -1.21,2.02 -1.62,2.43 -1.21,2.01 -1.61,0.41 -1.62,2.02 -1.21,2.42 -1.61,2.02 -1.22,2.02 -2.02,0.4 -1.61,2.02 -1.21,2.43 -1.62,2.01 -1.61,2.02 -1.62,2.02 -1.61,2.02 -2.02,0.41 -1.62,2.02 -1.61,2.01 -1.62,2.02 -1.61,2.02 -1.62,2.02 -2.02,2.02 -1.62,2.02 -1.61,2.02 -2.02,1.62 -1.61,2.01 -2.02,2.02 -2.02,2.02 -1.62,2.02 -2.02,1.62 -2.02,2.02 -2.02,2.02 -2.02,1.61 -2.02,2.02 -1.61,3.64 -2.02,1.61 -2.42,2.02 -2.02,1.62 -2.02,2.01 -2.42,1.62 -2.02,2.02 -2.02,3.23 -2.43,1.62 -2.02,2.01 -2.42,1.62 -2.42,3.23 -2.02,2.02 -2.42,1.62 -2.43,1.61 -2.42,3.23 -2.42,1.62 -2.43,1.61 -2.42,3.23 -2.42,1.62 -2.83,1.61 -2.42,3.23 -2.43,1.62 -2.82,3.23 -2.83,1.21 -2.42,1.62 -2.83,3.23 -2.83,1.21 -2.82,3.23 -2.83,1.62 -2.83,2.82 -2.82,1.62 -2.83,2.83 -3.23,2.82 -2.83,1.62 -2.82,2.82 -3.24,1.22 -3.23,2.82 -3.23,3.23 -2.82,1.22 -3.24,2.82 -3.23,0.81 -3.23,2.83 -3.23,2.82 -3.63,2.83 -3.23,1.21"
       style="fill:none;stroke:#000000;stroke-width:2.42308;stroke-linecap:butt;stroke-linejoin:round;stroke-miterlimit:10;stroke-dasharray:29.0769;stroke-dashoffset:0;stroke-opacity:1"
       transform="matrix(0.03527778,0,0,-0.03527778,-31.37958,302.9786)"
       clip-path="url(#clipPath20)" />
    <path
       id="path21"
       d="m 3225.8,5799.75 -0.81,1.21 -0.4,1.22 -0.81,1.21 0.81,2.02 -0.81,1.21 -0.81,1.21 -0.81,0.81 -0.4,1.21 0.4,2.02 -0.8,1.21 -0.81,1.21 -0.81,1.21 -0.4,0.81 0.4,2.42 -0.81,0.81 -0.81,1.21 -0.8,1.21 0.4,2.02 -0.81,1.22 -0.8,1.21 -0.81,0.8 0.4,2.43 -0.81,0.81 -0.8,1.21 -0.81,1.21 0.4,2.02 -0.8,1.21 -1.22,0.81 -0.8,1.21 0.4,2.02 -0.81,1.21 -1.21,1.21 -0.81,0.81 0.41,2.42 -1.22,0.81 -0.8,1.21 v 2.02 l -0.81,1.21 -1.21,0.81 0.4,2.42 -1.21,0.81 -0.81,1.21 -1.21,0.81 v 2.42 l -0.81,0.81 -1.21,1.21 v 2.02 l -0.81,1.21 -1.21,0.81 v 2.42 l -1.21,0.81 -0.81,1.21 v 2.02 l -1.21,0.81 v 2.42 l -1.21,0.81 -1.21,1.21 v 2.02 l -1.21,1.21 -1.21,0.81 -0.41,2.42 -1.21,0.81 v 2.02 l -1.21,1.21 -1.21,0.81 -0.41,2.42 -1.21,0.81 -0.4,2.02 -1.21,1.21 -0.41,2.02 -1.21,0.81 -1.21,1.21 -0.4,2.02 -1.22,0.81 -0.4,2.42 -1.62,0.81 -0.4,2.42 -1.21,0.81 -0.4,2.02 -1.62,0.8 -0.4,2.43 -1.62,0.81 -0.4,2.42 -1.21,0.81 -0.81,2.02 -1.62,0.8 -0.4,2.43 -1.62,0.8 -0.4,2.02 -1.62,0.81 -0.8,2.42 -1.62,0.81 -0.4,2.02 -0.81,2.42 -1.62,0.81 -0.8,2.02 -1.62,0.81 -0.81,2.02 -0.8,2.42"
       style="fill:none;stroke:#000000;stroke-width:2.42308;stroke-linecap:butt;stroke-linejoin:round;stroke-miterlimit:10;stroke-dasharray:29.0769;stroke-dashoffset:0;stroke-opacity:1"
       transform="matrix(0.03527778,0,0,-0.03527778,-31.37958,302.9786)"
       clip-path="url(#clipPath22)" />
    <path
       id="path23"
       d="m 3243.16,5692.33 v 10.1 l -0.4,1.21 v 3.63 l -0.4,1.62 v 3.63 l -0.41,1.21 v 2.43 l -0.4,1.21 v 1.61 l -0.41,1.22 v 1.21 l -0.4,1.21 v 1.21 l -0.4,1.21 v 1.21 l -0.41,1.21 v 1.22 l 1.21,1.61 v 1.21 l -0.4,1.21 -0.4,1.62 v 1.21 l -0.41,1.21 -0.4,1.21 v 1.22 l -0.41,1.21 -0.4,1.21 -0.4,1.21 v 1.21 l -0.41,1.21 -0.4,1.22 1.21,2.01 -0.4,1.22 -0.41,1.21 -0.4,1.21 -0.4,1.21 -0.41,1.21 v 1.21 l -0.4,1.22 -0.41,1.21 -0.8,1.21 1.21,1.61 -0.41,1.22 -0.4,1.21 -0.4,1.21 -0.41,1.21 -0.4,1.21 -0.4,1.21 -0.81,1.21 -0.41,1.22 1.22,2.02 -0.81,1.21 -0.41,1.21 -0.4,1.21 -0.4,1.21 -0.81,1.21 -0.41,1.21 0.81,2.02 -0.4,0.81 -0.81,1.21 -0.4,1.21 -0.41,1.22 -0.81,1.21 -0.4,1.21 0.81,2.02 -0.81,1.21 -0.4,1.21 -0.81,1.21 -0.81,1.21 -0.4,0.81 0.81,2.02 -0.81,1.21"
       style="fill:none;stroke:#000000;stroke-width:2.42308;stroke-linecap:butt;stroke-linejoin:round;stroke-miterlimit:10;stroke-dasharray:29.0769;stroke-dashoffset:0;stroke-opacity:1"
       transform="matrix(0.03527778,0,0,-0.03527778,-31.37958,302.9786)"
       clip-path="url(#clipPath24)" />
    <path
       id="path25"
       d="m 3131.7,5606.31 0.41,0.4 0.8,0.41 -0.8,2.02 0.4,0.4 0.81,0.41 0.4,0.8 -0.81,1.62 0.41,0.81 0.4,0.4 0.81,0.4 0.4,0.81 -0.81,1.62 0.41,0.4 0.4,0.81 0.41,0.4 0.8,0.81 -1.21,1.62 0.81,0.4 0.4,0.81 0.41,0.4 0.4,0.81 -0.81,1.61 0.41,0.41 0.4,0.81 0.41,0.4 0.4,0.81 0.4,0.4 -1.21,1.62 0.41,0.4 0.4,0.81 0.4,0.4 0.41,0.81 0.4,0.4 -1.21,1.62 0.4,0.81 0.41,0.4 0.4,0.81 0.41,0.4 0.4,0.81 0.4,0.4 -1.21,1.62 0.41,0.4 0.4,0.81 v 0.4 l 0.4,0.81 0.41,0.41 0.4,0.8 -1.21,1.21 0.4,0.81 v 0.41 l 0.41,0.8 0.4,0.41 0.4,0.81 v 0.8 l 0.41,0.41 0.4,0.8 -1.61,1.22 0.4,0.4 0.4,0.81 v 0.81 l 0.41,0.4 0.4,0.81 v 0.4 l 0.41,0.81 v 0.4 l 0.4,0.81 -1.21,1.21 v 0.81 l 0.4,0.4 v 0.81 l 0.41,0.4 v 0.81 l 0.4,0.41 v 0.8 l 0.4,0.81 v 0.41 l 0.41,0.8 v 0.41 l 0.4,0.8 -1.61,1.22 v 0.4 l 0.4,0.81 v 0.4 l 0.4,0.81 v 1.21 l 0.41,0.81 v 1.21 l 0.4,0.4 v 1.62 l 0.4,0.4 v 2.02 l 0.41,0.81 v 1.21 l -1.62,0.81 v 0.81 l 0.41,0.4 v 3.23 l 0.4,0.81 v 8.48"
       style="fill:none;stroke:#000000;stroke-width:2.42308;stroke-linecap:butt;stroke-linejoin:round;stroke-miterlimit:10;stroke-dasharray:29.0769;stroke-dashoffset:0;stroke-opacity:1"
       transform="matrix(0.03527778,0,0,-0.03527778,-31.37958,302.9786)"
       clip-path="url(#clipPath26)" />
    <path
       id="path27"
       d="m 3078.39,5497.27 0.81,1.62 0.81,2.02 1.21,0.4 0.81,1.62 0.81,2.02 1.21,0.4 0.81,1.61 0.8,2.02 1.22,0.41 0.8,2.02 0.81,1.61 0.81,0.41 0.81,2.02 0.8,2.01 h 0.81 l 0.81,2.02 1.21,0.41 0.4,2.02 0.41,2.02 h 1.21 l 0.4,2.02 1.22,0.4 0.4,2.02 0.4,2.02 1.21,0.4 0.41,1.62 0.81,0.4 0.4,2.02 1.21,0.4 0.4,2.02 0.81,0.41 0.41,2.02 0.8,0.4 0.41,1.62 1.21,0.4 v 2.02 l 0.81,0.4 0.4,2.02 0.81,0.41 0.4,2.01 0.81,0.41 v 2.02 l 1.21,0.4 v 2.02 l 0.81,0.4 0.81,0.41 0.4,2.02 0.81,0.4 v 1.62 l 0.81,0.8 v 1.62 l 0.8,0.4 0.81,0.81 v 1.62 l 0.81,0.8 v 1.62 l 0.81,0.4 0.81,0.81 -0.41,1.62 0.81,0.8 v 1.62 l 0.81,0.4 0.8,0.81 -0.4,1.62 0.81,0.8 0.81,0.41 -0.41,2.02 0.81,0.4 0.81,0.41 -0.41,2.01 0.81,0.41 0.81,0.4 -0.41,2.02 0.81,0.41 0.41,0.4 -0.41,2.02 0.81,0.4 0.81,0.81 -0.41,1.62 0.41,0.4 0.81,0.81 0.4,0.4 -0.4,2.02 0.8,0.4 0.41,0.41 -0.41,2.02 0.81,0.4 0.41,0.4 0.8,0.81 -0.8,1.62 0.8,0.81 0.41,0.4 0.8,0.4 -0.8,2.02 0.8,0.41 0.41,0.4 0.4,0.81 -0.4,1.61 0.4,0.81"
       style="fill:none;stroke:#000000;stroke-width:2.42308;stroke-linecap:butt;stroke-linejoin:round;stroke-miterlimit:10;stroke-dasharray:29.0769;stroke-dashoffset:0;stroke-opacity:1"
       transform="matrix(0.03527778,0,0,-0.03527778,-31.37958,302.9786)"
       clip-path="url(#clipPath28)" />
    <path
       id="path29"
       d="m 2876.88,5338.96 3.23,0.81 3.63,2.02 2.83,0.41 2.82,0.4 3.64,2.42 2.83,0.41 3.23,2.42 2.82,0.4 2.83,0.81 3.23,2.42 2.83,0.41 2.82,0.81 3.24,2.42 2.82,0.81 3.23,2.42 2.43,0.81 3.23,2.42 2.82,0.81 2.43,1.21 3.23,2.42 2.42,0.81 3.23,2.83 2.42,0.8 2.43,1.22 2.83,2.42 2.42,1.21 2.82,2.42 2.43,1.22 2.42,1.21 2.83,2.82 2.42,0.81 2.42,1.21 2.83,2.83 2.02,1.21 2.83,2.83 2.02,1.21 2.42,1.21 2.02,1.21 2.42,3.23 2.42,1.22 2.02,1.21 2.43,3.23 2.02,1.21 2.02,1.21 2.01,1.62 2.43,2.82 2.02,1.62 2.02,1.21 2.02,1.62 2.01,2.82 2.02,1.62 1.62,1.61 2.02,1.21 2.02,1.62 1.61,1.62 2.02,3.23 1.62,1.61 2.02,1.21 1.61,1.62 1.62,1.61 2.02,1.62 1.61,1.61 1.62,1.62 1.61,1.62 1.62,1.61 1.61,1.62 1.62,1.61 1.61,1.62 1.22,1.61 1.61,2.02 1.62,1.62 1.21,1.61 1.61,1.62 1.62,1.61 1.21,2.02 1.62,1.62 1.21,1.61 1.21,2.02 1.62,1.62 1.21,1.61 1.21,2.02 1.21,1.62 h 1.21 l 1.21,2.02 1.21,1.61 1.22,2.02 1.21,1.62 1.21,2.02 h 1.21 l 1.21,2.02 1.21,1.61 0.81,2.02 1.21,1.62 1.21,0.4 1.22,1.61 0.8,2.02 0.81,2.02 h 1.21 l 1.21,2.02"
       style="fill:none;stroke:#000000;stroke-width:2.42308;stroke-linecap:butt;stroke-linejoin:round;stroke-miterlimit:10;stroke-dasharray:29.0769;stroke-dashoffset:0;stroke-opacity:1"
       transform="matrix(0.03527778,0,0,-0.03527778,-31.37958,302.9786)"
       clip-path="url(#clipPath30)" />
    <path
       id="path31"
       d="m 2674.14,5485.56 v -3.23 l 1.22,-2.02 1.61,-2.42 -0.4,-3.23 1.61,-2.43 1.21,-2.02 v -3.23 l 1.62,-2.42 v -2.83 l 1.21,-2.42 1.62,-2.42 v -3.23 l 1.61,-2.02 1.62,-2.43 v -2.82 l 1.61,-2.43 1.62,-2.01 v -3.24 l 1.61,-2.42 0.41,-3.23 1.61,-2.02 1.62,-2.42 0.4,-2.83 1.62,-2.42 1.61,-2.02 0.41,-3.23 2.02,-2.02 1.61,-2.42 1.62,-2.02 0.8,-3.23 1.62,-2.02 1.62,-2.02 0.8,-3.23 1.62,-2.02 2.02,-2.02 2.02,-2.02 0.4,-3.23 2.02,-2.02 2.02,-2.02 1.61,-2.02 2.02,-2.02 2.02,-2.02 0.81,-3.23 2.02,-2.02 2.02,-2.02 2.02,-2.02 2.02,-2.02 2.02,-1.61 2.02,-2.02 2.02,-2.02 2.01,-1.61 2.02,-2.02 2.02,-2.02 2.02,-1.62 2.43,-2.02 2.01,-1.61 3.23,-0.81 2.02,-1.62 2.02,-1.61 2.43,-2.02 3.23,-0.4 2.02,-1.62 2.42,-1.62 3.23,-0.4 2.02,-1.61 2.02,-2.02 h 3.23 l 2.42,-1.62 3.23,-0.4 2.02,-1.62 h 3.23 l 2.43,-1.61 3.23,-0.41 h 3.23 l 2.02,-1.61 h 9.69 l 2.02,-1.62 h 9.69 l 3.23,0.41 h 9.29 l 2.83,0.4 h 3.23 l 3.23,0.4 2.83,0.41 h 3.23 l 3.63,2.02 3.23,0.4 h 2.83 l 2.83,0.4 3.23,0.41 3.63,2.02 2.83,0.4 2.83,0.4"
       style="fill:none;stroke:#000000;stroke-width:2.42308;stroke-linecap:butt;stroke-linejoin:round;stroke-miterlimit:10;stroke-dasharray:29.0769;stroke-dashoffset:0;stroke-opacity:1"
       transform="matrix(0.03527778,0,0,-0.03527778,-31.37958,302.9786)"
       clip-path="url(#clipPath32)" />
    <path
       id="path33"
       d="m 2651.53,5770.68 -0.81,-2.83 -0.4,-2.42 1.21,-2.43 -0.41,-2.42 -0.4,-2.83 -0.4,-2.42 -0.41,-2.42 -0.4,-2.43 -0.4,-2.42 1.21,-2.83 v -2.42 l -0.41,-2.42 -0.4,-2.43 -0.4,-2.42 v -2.42 l -0.41,-2.42 v -2.43 l -0.4,-2.42 v -2.83 l -0.41,-2.42 v -2.42 l 1.22,-2.43 v -7.67 l -0.41,-2.42 v -27.06 l 0.41,-2.42 v -7.27 l -1.22,-2.83 v -2.42 l 0.41,-2.43 v -2.42 l 0.4,-2.42 v -2.43 l 0.41,-2.42 v -2.83 l 0.4,-2.42 0.4,-2.42 0.41,-2.42 v -2.43 l -1.21,-2.82 0.4,-2.43 0.4,-2.42 0.41,-2.42 0.4,-2.43 0.4,-2.42 0.41,-2.42 -1.21,-2.83 0.4,-2.42 0.81,-2.43 0.4,-2.42 0.41,-2.42 0.4,-2.43 -0.81,-2.82 0.41,-2.43 0.8,-2.42 0.41,-2.83 0.4,-2.42 -0.81,-2.83 0.81,-2.42 0.41,-2.42 0.8,-2.42 -0.8,-2.83 0.4,-2.42 0.81,-2.43 0.81,-2.42 -0.81,-2.83 0.81,-2.42 0.8,-2.42 0.81,-2.43 -0.81,-2.82 0.81,-2.43 0.81,-2.42 0.81,-2.42 -0.81,-3.23 1.21,-2.43 0.81,-2.42 -0.81,-2.83 1.21,-2.42 0.81,-2.42 -0.41,-2.83 0.81,-2.42 1.21,-2.43 -0.8,-3.23 1.21,-2.42 1.21,-2.02 -0.4,-3.23 0.8,-2.42 1.22,-2.43 -0.41,-2.82 1.21,-2.43 1.21,-2.42 -0.4,-3.23 1.21,-2.02 1.21,-2.42 -0.4,-3.23 1.21,-2.43 1.62,-2.02 -0.41,-3.23 1.21,-2.42"
       style="fill:none;stroke:#000000;stroke-width:2.42308;stroke-linecap:butt;stroke-linejoin:round;stroke-miterlimit:10;stroke-dasharray:29.0769;stroke-dashoffset:0;stroke-opacity:1"
       transform="matrix(0.03527778,0,0,-0.03527778,-31.37958,302.9786)"
       clip-path="url(#clipPath34)" />
    <path
       id="path35"
       d="m 2738.36,6017.43 -2.02,-1.62 -2.02,-2.02 -2.02,-2.02 -2.02,-2.02 -2.02,-2.02 -2.02,-1.61 -0.81,-3.23 -2.02,-2.02 -2.02,-2.02 -1.61,-2.02 -2.02,-2.02 -2.02,-2.02 -0.4,-3.23 -2.02,-2.02 -2.02,-2.02 -1.62,-2.42 -0.8,-2.83 -1.62,-2.42 -1.62,-2.02 -0.8,-3.23 -1.62,-2.02 -1.61,-2.02 -2.02,-2.42 -0.41,-2.83 -1.61,-2.42 -1.62,-2.02 -0.4,-3.23 -1.62,-2.43 -1.61,-2.01 -0.41,-3.24 -1.61,-2.01 v -3.24 l -1.62,-2.42 -1.61,-2.02 v -3.23 l -1.62,-2.42 -1.61,-2.02 v -3.23 l -1.62,-2.42 -1.21,-2.02 v -3.23 l -1.62,-2.43 v -2.82 l -1.21,-2.43 -1.61,-2.42 0.4,-3.23 -1.61,-2.02 -1.22,-2.42 v -3.23 l -1.21,-2.02 0.41,-3.23 -1.62,-2.43 -1.21,-2.42 0.4,-2.83 -1.21,-2.42 -1.21,-2.42 0.4,-3.23 -1.21,-2.02 -1.21,-2.43 0.41,-3.23 -1.22,-2.42 -0.8,-2.42 0.4,-2.83 -1.21,-2.42 -1.21,-2.43 0.8,-2.82 -1.21,-2.43 -0.81,-2.42 0.41,-3.23 -0.81,-2.42 -1.21,-2.43 0.81,-2.82 -0.81,-2.43 -1.21,-2.42 0.81,-2.83 -0.81,-2.42 -0.81,-2.42 -0.81,-2.43 0.81,-3.23 -0.81,-2.02 -0.8,-2.42 -0.81,-2.42 0.81,-3.23 -0.81,-2.43 -0.81,-2.42 -0.4,-2.42 0.8,-2.83 -0.8,-2.42 -0.41,-2.43 -0.81,-2.42 0.81,-2.83 -0.4,-2.42 -0.41,-2.42 -0.8,-2.42 -0.41,-2.43 0.81,-2.82 -0.4,-2.43 -0.41,-2.42 -0.4,-2.42"
       style="fill:none;stroke:#000000;stroke-width:2.42308;stroke-linecap:butt;stroke-linejoin:round;stroke-miterlimit:10;stroke-dasharray:29.0769;stroke-dashoffset:0;stroke-opacity:1"
       transform="matrix(0.03527778,0,0,-0.03527778,-31.37958,302.9786)"
       clip-path="url(#clipPath36)" />
    <path
       id="path37"
       d="m 3006.11,5968.96 -2.02,1.22 -2.02,1.61 -2.02,1.21 -2.43,3.23 -2.01,1.22 -2.02,1.61 -2.02,1.21 -2.43,2.83 -2.02,1.21 -2.42,1.62 -2.42,2.82 -2.02,1.21 -2.42,1.22 -2.02,1.21 -2.83,2.82 -2.02,1.22 -2.83,2.82 -2.42,1.21 -2.42,1.22 -2.83,2.82 -2.42,0.81 -2.43,1.21 -2.82,2.83 -2.42,0.81 -2.83,2.82 -2.43,0.81 -2.42,1.21 -3.23,2.43 -2.42,1.21 -3.23,2.42 -2.43,0.81 -2.82,0.81 -3.23,2.42 -2.43,0.81 -3.23,2.42 -2.82,0.81 -3.24,2.42 -2.82,0.81 -2.83,0.81 -3.23,2.02 -2.83,0.8 -2.82,0.81 -3.23,2.02 -2.83,0.81 -3.64,2.02 -2.82,0.4 -2.83,0.81 -3.63,2.02 -3.23,0.4 -2.83,0.41 -2.83,0.4 -3.63,2.02 -3.23,0.4 -2.83,0.41 -2.83,0.4 -3.23,0.4 -3.63,1.62 -3.23,0.4 h -2.83 l -3.23,0.41 h -3.23 l -2.83,0.4 h -3.23 l -3.23,0.4 h -15.75 l -2.02,-1.21 h -3.23 l -3.23,-0.4 h -3.23 l -2.02,-1.21 -3.23,-0.41 h -3.23 l -2.43,-1.61 -3.23,-0.41 -2.02,-1.61 h -3.23 l -2.42,-1.62 -3.23,-0.4 -2.02,-1.62 -2.02,-1.61 -3.23,-0.4 -2.42,-1.62 -2.02,-2.02 -3.23,-0.4 -2.43,-1.62 -2.02,-2.02 -2.02,-1.61 -3.23,-0.41 -2.01,-2.02 -2.43,-1.61 -2.02,-2.02 -2.02,-2.02 -2.02,-1.62 -2.01,-2.01 -2.02,-2.02"
       style="fill:none;stroke:#000000;stroke-width:2.42308;stroke-linecap:butt;stroke-linejoin:round;stroke-miterlimit:10;stroke-dasharray:29.0769;stroke-dashoffset:0;stroke-opacity:1"
       transform="matrix(0.03527778,0,0,-0.03527778,-31.37958,302.9786)"
       clip-path="url(#clipPath38)" />
    <path
       id="path39"
       d="m 3113.53,5825.6 v 2.02 l -0.81,0.4 -0.4,2.02 -0.81,0.41 -0.81,0.4 v 2.02 l -1.21,0.4 v 1.62 l -0.81,0.81 -0.4,1.61 -0.81,0.4 -0.4,2.02 -0.81,0.41 v 2.02 l -1.21,0.4 -0.41,2.02 -0.8,0.4 -0.41,2.02 -0.81,0.41 -0.4,1.61 -1.21,0.41 -0.4,2.02 -0.81,0.4 -0.41,2.02 -1.21,0.4 -0.4,2.02 -0.4,1.62 -1.22,0.4 -0.4,2.02 -1.21,0.4 -0.41,2.02 -0.4,1.62 -1.21,0.4 -0.81,2.02 -0.81,0.41 -0.8,2.01 -0.81,1.62 -0.81,0.4 -0.81,2.02 -0.8,2.02 h -1.22 l -0.8,2.02 -0.81,2.02 h -1.21 l -0.81,2.02 -0.81,2.02 h -1.21 l -0.81,2.02 -0.81,2.02 -1.21,1.61 -1.21,0.41 -0.81,1.61 -0.8,2.02 -1.22,2.02 h -1.21 l -1.21,2.02 -0.81,1.62 -1.21,2.01 -1.21,1.62 -1.21,0.4 -1.21,1.62 -1.21,2.02 -1.22,1.61 -1.21,2.02 -1.21,1.62 h -1.21 l -1.21,2.02 -1.21,1.61 -1.21,2.02 -1.62,1.62 -1.21,1.61 -1.21,1.62 -1.62,2.02 -1.21,1.61 -1.62,1.62 -1.61,2.02 -1.21,1.61 -1.62,1.62 -1.61,1.61 -1.22,1.62 -1.61,1.61 -1.62,1.62 -1.61,1.62 -1.62,1.61 -1.61,1.62 -1.62,1.61 -1.61,1.62 -2.02,1.61 -1.62,1.62 -1.61,1.61 -2.02,1.62 -1.62,1.61 -2.02,3.23 -1.61,1.22 -2.02,1.61 -2.02,1.62 -1.62,1.21 -2.02,1.61 -2.01,3.23"
       style="fill:none;stroke:#000000;stroke-width:2.42308;stroke-linecap:butt;stroke-linejoin:round;stroke-miterlimit:10;stroke-dasharray:29.0769;stroke-dashoffset:0;stroke-opacity:1"
       transform="matrix(0.03527778,0,0,-0.03527778,-31.37958,302.9786)"
       clip-path="url(#clipPath40)" />
    <path
       id="path41"
       d="m 3140.18,5740.39 -0.4,0.4 1.21,1.21 -0.4,0.81 -0.41,0.81 -0.4,0.4 v 0.81 l -0.4,0.4 -0.41,0.81 1.21,1.21 -0.4,0.81 -0.4,0.4 -0.41,0.81 -0.4,0.41 -0.41,0.8 -0.4,0.41 1.21,1.61 -0.4,0.81 -0.41,0.4 -0.4,0.81 -0.4,0.41 -0.41,0.8 1.21,1.22 -0.4,0.8 -0.4,0.41 -0.41,0.8 -0.4,0.41 -0.41,0.81 0.81,1.61 -0.4,0.41 -0.41,0.8 -0.4,0.41 -0.81,0.8 1.21,1.62 -0.8,0.4 -0.41,0.81 -0.4,0.41 -0.41,0.4 0.81,2.02 -0.4,0.4 -0.81,0.41 -0.4,0.8 -0.41,0.41 0.81,1.61 -0.4,0.81 -0.81,0.4 -0.4,0.81 0.8,1.62 -0.8,0.4 -0.41,0.81 -0.4,0.4 0.4,1.62 -0.4,0.81 -0.41,0.4 -0.8,0.81 0.8,1.61 -0.8,0.41 -0.41,0.8 -0.8,0.41 0.8,2.02 -0.8,0.4 -0.41,0.41 -0.81,0.8 0.41,1.62 -0.41,0.4 -0.8,0.81 0.4,1.62 -0.4,0.8 -0.81,0.41 -0.41,0.4 0.41,2.02 -0.81,0.4 -0.81,0.41 0.41,2.02 -0.41,0.4 -0.81,0.81 0.41,1.61 -0.81,0.41 -0.81,0.81 0.41,1.61 -0.81,0.81 -0.81,0.4 0.41,2.02 -0.81,0.41 -0.81,0.4 0.4,2.02 -0.8,0.4 -0.81,0.41 v 2.02 l -0.81,0.4 0.41,2.02 -0.81,0.4 -0.81,0.41 v 2.02 l -0.81,0.4 v 2.02 l -0.81,0.4 -0.8,0.41 v 2.02 l -0.81,0.4"
       style="fill:none;stroke:#000000;stroke-width:2.42308;stroke-linecap:butt;stroke-linejoin:round;stroke-miterlimit:10;stroke-dasharray:29.0769;stroke-dashoffset:0;stroke-opacity:1"
       transform="matrix(0.03527778,0,0,-0.03527778,-31.37958,302.9786)"
       clip-path="url(#clipPath42)" />
    <path
       id="path43"
       d="m 3144.22,5692.33 v 8.48 l -0.4,0.4 v 3.24 l -0.41,0.8 v 0.41 l 1.62,0.8 v 1.62 l -0.41,0.4 v 2.02 l -0.4,0.81 v 1.21 l -0.4,0.81 v 1.21 l -0.41,0.41 v 1.21 l -0.4,0.8 v 0.81 l -0.4,0.41 v 0.8 l 1.61,0.81 -0.4,0.81 v 0.81 l -0.41,0.4 v 0.81 l -0.4,0.4 v 0.81 l -0.4,0.81 v 0.4 l -0.41,0.81 v 0.4 l -0.4,0.81 v 0.4 l 1.21,1.22 -0.4,0.8 v 0.81 l -0.41,0.41 v 0.8 l -0.4,0.41 -0.41,0.8 v 0.41 l -0.4,0.81 -0.4,0.4 1.61,1.62 -0.4,0.4 -0.41,0.81 v 0.4 l -0.4,0.81 -0.4,0.4 -0.41,0.81 v 0.81"
       style="fill:none;stroke:#000000;stroke-width:2.42308;stroke-linecap:butt;stroke-linejoin:round;stroke-miterlimit:10;stroke-dasharray:29.0769;stroke-dashoffset:0;stroke-opacity:1"
       transform="matrix(0.03527778,0,0,-0.03527778,-31.37958,302.9786)"
       clip-path="url(#clipPath44)" />
    <path
       id="path45"
       d="m 3269.01,5506.16 -0.4,2.42 1.21,1.62 1.21,1.21 1.21,1.61 -0.4,2.43 1.21,1.21 1.21,1.61 1.21,1.62 -0.4,2.42 1.21,1.21 0.81,1.62 1.21,1.61 0.81,1.21 -0.41,2.83 1.21,1.21 0.81,1.62 1.21,1.61 0.81,1.22 -0.4,2.42 1.21,1.61 0.81,1.62 0.8,1.61 1.22,1.62 -0.81,2.02 1.21,1.61 0.81,1.62 0.8,1.62 0.81,1.61 0.81,1.62 -0.4,2.42 0.8,1.21 0.81,1.62 0.81,1.61 0.81,1.62 0.8,1.61 0.81,1.62 -0.81,2.42 0.81,1.62 0.81,1.61 0.81,1.62 0.81,1.61 0.4,1.62 0.81,1.61 -0.81,2.02 0.81,1.62 0.4,1.61 0.81,1.62 0.81,1.61 0.4,1.62 0.81,1.61 0.4,1.62 0.81,1.62 -0.81,2.42 0.4,1.61 0.81,1.62 0.41,1.61 0.4,1.62 0.81,1.62 0.4,1.61 0.41,1.62 0.8,2.02 0.41,1.61 0.4,1.62 -1.21,2.02 0.81,1.61 0.4,1.62 0.41,2.02 0.4,1.61 0.4,1.62 0.41,1.61 0.4,1.62 0.4,1.61 0.41,2.02 0.4,1.62 0.41,1.61 0.4,1.62 0.4,1.61 0.41,2.02 0.4,1.62 -1.61,2.02 0.4,1.61 0.4,1.62 v 1.61 l 0.41,1.62 0.4,2.02 v 1.61 l 0.4,1.62 0.41,1.61 v 2.02 l 0.4,1.62 v 1.61 l 0.41,1.62 v 3.63 l 0.4,1.62 v 1.61 l 0.4,2.02 v 4.85 l 0.41,2.02 v 13.73"
       style="fill:none;stroke:#000000;stroke-width:2.42308;stroke-linecap:butt;stroke-linejoin:round;stroke-miterlimit:10;stroke-dasharray:29.0769;stroke-dashoffset:0;stroke-opacity:1"
       transform="matrix(0.03527778,0,0,-0.03527778,-31.37958,302.9786)"
       clip-path="url(#clipPath46)" />
    <path
       id="path47"
       d="m 3140.18,5324.02 2.02,2.43 1.62,2.42 2.02,2.02 1.61,2.42 2.02,2.02 2.02,0.81 2.02,2.42 1.61,2.42 1.62,2.02 1.62,2.43 1.61,2.42 2.42,0.81 1.22,2.02 1.61,2.42 1.62,2.42 1.61,2.43 2.02,0.8 1.62,2.43 1.21,2.42 2.42,0.81 1.21,2.42 1.21,2.42 1.62,2.43 2.02,0.8 1.21,2.43 1.21,2.42 2.02,0.81 1.21,2.42 1.21,2.42 2.02,0.81 1.22,2.42 1.21,2.83 2.02,0.81 1.21,2.42 1.61,0.81 1.21,2.83 1.22,2.42 1.61,0.81 1.21,2.42 1.62,1.21 1.21,2.43 1.61,1.21 0.81,2.42 2.02,0.81 0.81,2.82 0.81,2.43 2.02,0.81 0.8,2.82 1.62,0.81 0.81,2.83 1.61,0.8 0.81,2.83 1.62,0.81 1.61,1.21 0.81,2.42 1.61,1.22 0.81,2.42 1.62,1.21 0.4,2.83 1.62,1.21 0.8,2.42 1.62,1.21 1.21,1.21 0.81,2.43 1.61,1.21 0.41,2.42 1.61,1.21 0.41,2.83 1.21,1.21 1.61,1.21 0.41,2.43 1.61,1.21 1.22,1.21 0.4,2.83 1.61,1.21 v 2.42 l 1.62,1.21 1.21,1.21 0.4,2.83 1.22,1.21 1.61,1.21 v 2.83 l 1.21,1.21 1.62,1.21 1.21,1.22 v 2.82 l 1.21,1.21 1.62,1.22 v 2.82 l 1.21,1.21 1.21,1.62 v 2.42 l 1.21,1.21 1.21,1.62 1.22,1.21 v 2.42 l 1.21,1.62 1.21,1.21 1.21,1.62"
       style="fill:none;stroke:#000000;stroke-width:2.42308;stroke-linecap:butt;stroke-linejoin:round;stroke-miterlimit:10;stroke-dasharray:29.0769;stroke-dashoffset:0;stroke-opacity:1"
       transform="matrix(0.03527778,0,0,-0.03527778,-31.37958,302.9786)"
       clip-path="url(#clipPath48)" />
    <path
       id="path49"
       d="m 2810.24,5078.48 5.25,1.62 4.85,2.02 5.65,3.23 4.85,1.61 4.84,2.02 4.85,2.02 4.85,1.62 5.24,3.63 4.85,2.02 4.85,2.02 4.44,2.02 5.25,4.04 4.44,2.02 4.85,2.02 4.44,2.42 4.85,4.04 4.44,2.02 4.44,2.42 4.44,2.42 4.45,2.43 4.44,4.04 4.44,2.42 4.04,2.42 4.44,2.43 4.04,2.82 4.04,2.43 4.44,2.42 4.04,4.44 4.04,2.83 4.04,2.42 4.03,2.83 3.64,2.82 4.04,2.83 3.63,2.83 4.04,2.83 3.64,1.21 3.63,2.82 3.63,2.83 3.64,3.23 3.63,2.83 3.23,2.83 3.64,3.23 3.23,1.21 3.63,3.23 3.24,2.83 3.63,3.23 3.23,1.61 3.23,3.23 3.23,2.83 3.23,3.23 2.83,1.62 3.23,3.23 3.23,1.61 2.83,3.23 3.23,3.23 2.83,1.62 3.23,3.63 2.82,1.62 2.83,3.23 2.83,1.61 2.82,3.64 2.83,1.61 2.83,3.64 2.42,1.61 2.83,2.02 2.83,3.23 2.42,2.02 2.82,1.62 2.43,3.63 2.83,2.02 2.42,2.02 2.42,3.23 2.42,2.02 2.43,2.02 2.42,2.02 2.42,3.64 2.43,2.01 2.42,2.02 2.42,2.02 2.43,2.02 2.01,3.64 2.43,2.02 2.02,2.02 2.42,2.01 2.02,2.02 2.42,2.02 2.02,2.43 2.02,2.02 2.42,2.01 2.02,2.02 2.02,2.43 2.02,2.02 2.02,2.42 2.02,2.02 2.02,2.02 2.02,2.42 2.02,2.02 2.02,2.42 1.61,2.02"
       style="fill:none;stroke:#000000;stroke-width:2.42308;stroke-linecap:butt;stroke-linejoin:round;stroke-miterlimit:10;stroke-dasharray:29.0769;stroke-dashoffset:0;stroke-opacity:1"
       transform="matrix(0.03527778,0,0,-0.03527778,-31.37958,302.9786)"
       clip-path="url(#clipPath50)" />
    <path
       id="path51"
       d="m 2505.34,5334.93 1.21,-4.45 0.81,-4.03 0.8,-4.45 1.22,-4.44 0.8,-4.04 1.21,-4.44 0.81,-4.44 1.21,-4.04 1.21,-4.44 1.22,-4.45 1.21,-4.44 1.21,-4.04 v -5.25 l 1.21,-4.44 1.21,-4.44 1.62,-4.44 1.21,-4.04 1.61,-4.44 1.22,-4.45 1.61,-4.44 0.41,-5.25 1.61,-4.44 1.62,-4.04 1.61,-4.44 1.62,-4.44 1.61,-4.45 2.02,-4.03 0.41,-5.66 2.02,-4.04 1.61,-4.44 2.02,-4.44 2.02,-4.04 2.02,-4.44 2.02,-4.44 2.02,-4.04 2.02,-4.45 2.01,-4.44 2.02,-4.04 2.43,-4.44 2.02,-4.04 2.42,-4.44 2.42,-4.04 2.02,-4.44 2.43,-4.04 3.63,-3.23 2.42,-4.04 2.43,-4.04 2.42,-4.44 3.63,-2.83 2.43,-4.03 2.82,-4.04 3.64,-2.83 2.42,-4.44 3.64,-2.42 3.63,-2.83 2.83,-4.04 3.63,-2.83 4.04,-2.82 3.63,-2.43 3.64,-2.82 2.83,-4.04 4.84,-1.21 4.04,-2.43 3.64,-2.42 4.03,-2.83 4.04,-2.42 4.44,-0.81 4.04,-2.82 4.85,-0.81 4.04,-2.43 4.84,-0.8 4.45,-0.81 4.84,-0.81 4.04,-2.42 4.85,-0.81 4.84,-0.81 5.66,0.81 4.84,-0.81 4.45,-0.4 4.84,-0.81 5.66,1.21 4.84,-0.8 5.25,1.21 4.85,-0.41 5.25,0.81 4.84,-0.4 5.25,1.21 5.66,1.21 5.25,1.21 5.25,1.62 5.25,1.21 4.44,-0.41 5.25,1.62 5.25,1.62 6.06,2.82 4.84,1.62 5.25,1.61 5.25,1.62 4.85,1.61"
       style="fill:none;stroke:#000000;stroke-width:2.42308;stroke-linecap:butt;stroke-linejoin:round;stroke-miterlimit:10;stroke-dasharray:29.0769;stroke-dashoffset:0;stroke-opacity:1"
       transform="matrix(0.03527778,0,0,-0.03527778,-31.37958,302.9786)"
       clip-path="url(#clipPath52)" />
    <path
       id="path53"
       d="m 2478.28,5758.16 -0.4,-3.64 1.21,-3.63 -0.41,-3.64 -0.4,-3.63 v -3.64 l -0.4,-3.23 -0.41,-3.63 v -3.64 l 1.21,-3.63 v -3.64 l -0.4,-3.23 v -3.63 l -0.4,-3.64 v -39.17 l 0.4,-3.23 v -3.63 l 0.4,-3.64 v -3.63 l -1.21,-3.64 v -3.23 l 0.41,-3.63 0.4,-3.64 v -3.63 l 0.4,-3.64 0.41,-3.23 -1.21,-4.04 0.4,-3.23 0.4,-3.63 0.41,-3.64 0.4,-3.63 -1.21,-3.64 0.81,-3.63 0.4,-3.23 0.4,-3.64 -0.8,-4.03 0.4,-3.23 0.81,-3.64 -1.21,-4.04 0.8,-3.23 0.81,-3.63 -1.21,-4.04 0.81,-3.23 0.81,-3.64 -0.81,-4.04 0.81,-3.63 0.8,-3.23 -0.8,-4.04 0.8,-3.63 -0.4,-3.64 0.81,-3.63 -0.81,-4.04 1.21,-3.64 0.81,-3.23 -0.41,-4.04 0.81,-3.63 -0.4,-4.04 1.21,-3.23 -0.81,-4.04 -0.4,-4.04 1.21,-3.63 -0.4,-4.04 1.21,-3.63 -0.41,-4.04 1.22,-3.23 v -4.04 l -0.41,-4.44 1.21,-3.23 v -4.04 l -0.4,-4.04 1.62,-3.64 v -4.03 l -0.41,-4.45 1.62,-3.23 v -8.48 l 1.61,-3.23 v -12.52 l 0.41,-4.04 1.61,-3.63 v -4.04 l 0.4,-4.44 0.41,-4.04 v -4.44 l 2.02,-3.23 0.4,-4.45 0.41,-4.03 0.4,-4.45 0.4,-4.04 0.41,-4.44 0.4,-4.04 0.81,-4.44 0.4,-4.04 0.81,-4.44 0.4,-4.04 0.81,-4.44 0.81,-4.44 0.4,-4.04 0.81,-4.44 0.81,-4.04 0.81,-4.44"
       style="fill:none;stroke:#000000;stroke-width:2.42308;stroke-linecap:butt;stroke-linejoin:round;stroke-miterlimit:10;stroke-dasharray:29.0769;stroke-dashoffset:0;stroke-opacity:1"
       transform="matrix(0.03527778,0,0,-0.03527778,-31.37958,302.9786)"
       clip-path="url(#clipPath54)" />
    <path
       id="path55"
       d="m 2538.45,6168.46 -2.02,-4.44 -1.61,-4.44 -1.62,-4.04 -1.61,-4.44 -1.62,-4.44 -1.61,-4.45 -0.41,-5.25 -1.61,-4.44 -1.22,-4.44 -1.61,-4.04 -1.21,-4.44 -1.62,-4.44 -1.21,-4.04 -1.21,-4.44 v -5.25 l -1.21,-4.45 -1.21,-4.44 -1.22,-4.44 -1.21,-4.04 -1.21,-4.44 -0.81,-4.44 -1.21,-4.04 -0.8,-4.44 -1.22,-4.45 -0.8,-4.04 -0.81,-4.44 -1.21,-4.44 -0.81,-4.04 -0.81,-4.44 -0.81,-4.04 -0.4,-4.44 -0.81,-4.44 -0.81,-4.04 -0.4,-4.44 -0.81,-4.04 -0.4,-4.45 -0.81,-4.44 -0.4,-4.04 -0.41,-4.44 -0.4,-4.04 -0.4,-4.44 -0.41,-4.04 -0.4,-4.04 -2.02,-3.63 v -4.04 l -0.41,-4.44 -0.4,-4.04 v -4.44 l -1.61,-3.23 -0.41,-4.04 v -12.52 l -1.61,-3.64 v -8.48 l -1.62,-3.23 0.41,-4.04 v -4.44 l -1.62,-3.23 0.4,-4.04 v -4.04 l -1.21,-3.63 0.41,-4.04 v -4.04 l -1.22,-3.63 0.41,-4.04 -1.21,-3.63 0.4,-4.04 -1.21,-3.23 0.4,-4.04 0.81,-4.04 -1.21,-3.64 0.4,-4.03 -0.81,-3.23 0.41,-4.04 -0.81,-3.64 -1.21,-3.63 0.81,-4.04 -0.81,-3.23 0.4,-4.04 -0.8,-3.63 0.8,-3.64 -0.8,-3.63 -0.81,-3.64 0.81,-3.63 -0.81,-3.64 -0.81,-3.63 1.21,-4.04 -0.81,-3.23 -0.8,-3.64 1.21,-4.03 -0.81,-3.24 -0.4,-3.63 0.8,-3.63 -0.4,-3.64 -0.4,-3.63 -0.81,-3.64 1.21,-3.63 -0.4,-3.64 -0.41,-3.63 -0.4,-3.23"
       style="fill:none;stroke:#000000;stroke-width:2.42308;stroke-linecap:butt;stroke-linejoin:round;stroke-miterlimit:10;stroke-dasharray:29.0769;stroke-dashoffset:0;stroke-opacity:1"
       transform="matrix(0.03527778,0,0,-0.03527778,-31.37958,302.9786)"
       clip-path="url(#clipPath56)" />
    <path
       id="path57"
       d="m 2936.24,6239.14 -4.44,2.42 -4.04,2.83 -4.04,2.42 -4.44,2.42 -4.04,2.83 -4.44,2.42 -4.44,4.04 -4.45,2.43 -4.44,2.01 -4.44,2.43 -4.44,2.42 -4.85,3.64 -4.44,2.42 -4.85,2.02 -4.44,2.42 -5.25,3.64 -4.44,2.01 -4.85,2.02 -4.85,2.02 -5.24,3.64 -4.85,2.02 -4.85,1.61 -4.84,2.02 -4.85,2.02 -5.65,3.23 -4.85,1.62 -5.25,1.61 -4.85,1.62 -5.25,2.02 -5.25,1.21 -4.84,1.61 -6.06,3.23 -5.25,1.22 -5.25,1.61 h -4.44 l -5.25,1.21 -5.25,1.21 -5.25,1.22 -5.66,1.21 -5.25,1.21 -4.84,-0.4 -5.25,1.21 -4.85,-0.41 -5.25,0.81 -4.84,-0.4 -5.66,0.8 -4.84,-0.4 -4.45,-0.81 -4.84,-0.8 -5.66,0.8 -4.84,-0.8 -4.85,-0.81 -4.04,-2.02 -4.84,-0.81 -4.45,-0.81 -4.84,-1.21 -4.04,-2.42 -4.85,-0.81 -4.04,-2.42 -4.44,-1.21 -4.04,-2.43 -4.03,-2.42 -3.64,-2.42 -4.04,-2.83 -4.84,-1.21 -2.83,-4.04 -3.64,-2.42 -3.63,-2.83 -4.04,-2.83 -3.63,-2.42 -2.83,-4.04 -3.63,-2.83 -3.64,-2.82 -2.42,-4.04 -3.64,-2.83 -2.82,-4.44 -2.43,-4.04 -3.63,-2.83 -2.42,-4.03 -2.43,-4.45 -2.42,-4.03 -3.63,-2.83 -2.43,-4.44 -2.02,-4.04 -2.42,-4.44 -2.42,-4.04 -2.02,-4.45 -2.43,-4.03 -2.02,-4.45 -2.01,-4.44 -2.02,-4.04 -2.02,-4.44 -2.02,-4.44 -2.02,-4.04 -2.02,-4.44 -2.02,-4.04 -1.61,-4.44 -2.02,-4.45 -0.41,-5.25"
       style="fill:none;stroke:#000000;stroke-width:2.42308;stroke-linecap:butt;stroke-linejoin:round;stroke-miterlimit:10;stroke-dasharray:29.0769;stroke-dashoffset:0;stroke-opacity:1"
       transform="matrix(0.03527778,0,0,-0.03527778,-31.37958,302.9786)"
       clip-path="url(#clipPath58)" />
    <path
       id="path59"
       d="m 3186.22,6006.12 -2.02,1.21 -1.21,2.42 -1.21,2.43 -2.02,0.8 -1.62,2.43 -1.21,2.42 -1.21,2.42 -2.42,0.81 -1.21,2.42 -1.62,2.02 -2.02,0.81 -1.61,2.42 -1.62,2.43 -1.61,2.42 -1.22,2.42 -2.42,0.81 -1.61,2.02 -1.62,2.42 -1.62,2.43 -1.61,2.42 -2.02,2.02 -2.02,0.81 -2.02,2.42 -1.61,2.02 -2.02,2.42 -1.62,2.02 -2.02,2.42 -1.61,2.02 -2.02,2.43 -2.02,2.02 -2.02,2.42 -2.02,2.02 -2.02,2.42 -2.02,2.02 -2.02,2.42 -2.02,2.02 -2.02,2.02 -2.42,2.02 -2.02,2.42 -2.02,2.02 -2.42,2.02 -2.02,2.02 -2.42,2.02 -2.02,2.42 -2.43,2.02 -2.01,3.64 -2.43,2.02 -2.42,2.02 -2.42,2.02 -2.43,2.01 -2.42,3.64 -2.42,1.61 -2.43,2.02 -2.42,2.02 -2.42,3.64 -2.42,2.02 -2.83,1.61 -2.43,3.64 -2.82,2.02 -2.42,1.61 -2.83,3.64 -2.83,1.61 -2.42,2.02 -2.83,3.23 -2.83,1.62 -2.82,3.63 -2.83,1.62 -2.83,3.63 -2.82,1.62 -3.23,3.23 -2.83,1.61 -3.23,3.23 -2.83,3.23 -3.23,1.62 -3.23,3.23 -2.83,1.62 -3.23,3.23 -3.23,3.23 -3.23,3.23 -3.23,1.21 -3.63,3.23 -3.24,3.23 -3.63,2.83 -3.23,1.61 -3.64,2.83 -3.23,2.83 -3.63,3.23 -3.64,2.83 -3.63,2.82 -3.63,3.23 -3.64,0.81 -4.04,3.23 -3.63,2.42 -4.04,2.83 -3.64,2.83 -4.03,2.83 -4.04,2.82 -4.04,2.43 -4.04,4.44"
       style="fill:none;stroke:#000000;stroke-width:2.42308;stroke-linecap:butt;stroke-linejoin:round;stroke-miterlimit:10;stroke-dasharray:29.0769;stroke-dashoffset:0;stroke-opacity:1"
       transform="matrix(0.03527778,0,0,-0.03527778,-31.37958,302.9786)"
       clip-path="url(#clipPath60)" />
    <path
       id="path61"
       d="m 3288.39,5832.06 -0.8,1.62 -0.81,1.61 -1.21,1.62 0.81,2.42 -1.22,1.62 -0.8,1.21 -0.81,1.61 -1.21,1.62 0.4,2.42 -0.81,1.62 -1.21,1.21 -0.81,1.61 -1.21,1.62 0.41,2.42 -0.81,1.62 -1.21,1.21 -0.81,1.61 -1.21,1.62 0.4,2.42 -1.21,1.21 -1.21,1.62 -1.21,1.61 0.4,2.43 -1.21,1.21 -1.21,1.61 -1.21,1.22 0.4,2.82 -1.21,1.21 -1.21,1.62 -1.21,1.21 v 2.42 l -1.22,1.62 -1.21,1.21 -1.21,1.62 v 2.42 l -1.21,1.21 -1.21,1.62 v 2.42 l -1.62,1.21 -1.21,1.62 v 2.42 l -1.21,1.21 -1.62,1.62 -1.21,1.21 v 2.42 l -1.61,1.21 -1.22,1.62 -0.4,2.42 -1.21,1.21 -1.62,1.21 v 2.83 l -1.61,1.21 -0.4,2.43 -1.22,1.21 -1.61,1.21 -0.41,2.83 -1.61,1.21 -1.21,1.21 -0.41,2.42 -1.61,1.21 -0.41,2.43 -1.61,1.21 -0.81,2.83 -1.21,1.21 -1.62,1.21 -0.8,2.42 -1.62,1.21 -0.4,2.43 -1.62,1.21 -0.81,2.42 -1.61,1.21 -0.81,2.43 -1.61,1.21 -1.62,1.21 -0.81,2.42 -1.61,1.21 -0.81,2.43 -1.62,1.21 -0.8,2.42 -2.02,1.21 -0.81,2.43 -0.81,2.42 -2.02,1.21 -0.81,2.42 -1.61,0.81 -1.21,2.83 -1.62,0.81 -1.21,2.42 -1.61,1.21 -1.22,2.42 -1.21,2.43 -1.61,0.8 -1.21,2.43 -2.02,1.21 -1.21,2.42 -1.22,2.42 -2.02,0.81 -1.21,2.43 -1.21,2.42"
       style="fill:none;stroke:#000000;stroke-width:2.42308;stroke-linecap:butt;stroke-linejoin:round;stroke-miterlimit:10;stroke-dasharray:29.0769;stroke-dashoffset:0;stroke-opacity:1"
       transform="matrix(0.03527778,0,0,-0.03527778,-31.37958,302.9786)"
       clip-path="url(#clipPath62)" />
    <path
       id="path63"
       d="m 3315.05,5692.33 v 13.73 l -0.41,1.62 v 5.25 l -0.4,1.61 v 1.62 l -0.4,2.02 v 3.23 l -0.41,1.61 v 2.02 l -0.4,1.62 v 1.61 l -0.41,1.62 -0.4,1.61 v 2.02 l -0.4,1.62 -0.41,1.61 v 1.62 l -0.4,1.61 -0.4,2.02 1.61,2.02 -0.4,1.62 -0.41,1.61 -0.4,1.62 -0.4,1.61 -0.41,2.02 -0.4,1.62 -0.41,1.61 -0.4,1.62 -0.4,1.61 -0.41,2.02 -0.4,1.62 -0.4,1.61 -0.41,1.62 -0.4,1.62 -0.81,1.61 1.21,2.42 -0.4,1.62 -0.41,1.61 -0.8,1.62 -0.41,1.62 -0.4,1.61 -0.81,1.62 -0.4,1.61 -0.41,1.62 -0.81,1.61 -0.4,1.62 0.81,2.42 -0.81,1.62 -0.4,1.61 -0.81,1.62 -0.4,1.61 -0.81,1.62 -0.81,1.61 -0.4,1.62 -0.81,1.61 0.81,2.43 -0.81,1.61 -0.4,1.62 -0.81,1.61 -0.81,1.62 -0.81,1.61 -0.81,1.62 0.81,2.02 -0.81,1.61 -0.8,1.62 -0.81,1.61 -0.81,1.62 -0.81,1.62 -0.8,1.61 0.4,2.42 -0.81,1.62 -0.81,1.21"
       style="fill:none;stroke:#000000;stroke-width:2.42308;stroke-linecap:butt;stroke-linejoin:round;stroke-miterlimit:10;stroke-dasharray:29.0769;stroke-dashoffset:0;stroke-opacity:1"
       transform="matrix(0.03527778,0,0,-0.03527778,-31.37958,302.9786)"
       clip-path="url(#clipPath64)" />
    <path
       id="path65"
       d="m 3315.86,5479.1 v 2.83 l 1.21,1.61 1.61,1.62 1.21,1.61 1.22,2.02 v 2.83 l 1.21,1.61 1.21,1.62 1.21,2.02 1.21,1.61 v 2.83 l 1.21,1.62 0.81,2.02 1.21,1.61 1.21,2.02 1.22,1.62 -0.41,2.82 1.21,2.02 1.21,1.62 1.22,2.02 0.8,1.61 1.22,2.02 -0.41,2.42 1.21,2.02 0.81,2.02 1.21,1.62 0.81,2.02 1.21,2.02 0.81,1.61 1.21,2.02 -0.81,2.83 1.21,1.61 0.81,2.02 0.81,2.02 0.81,2.02 1.21,1.62 0.81,2.02 0.81,2.01 0.8,2.02 -0.8,2.43 0.8,2.02 1.21,2.02 0.81,2.01 0.41,1.62 0.8,2.02 0.81,2.02 0.81,2.02 0.81,2.02 0.8,2.02 0.81,2.02 0.41,2.01 -0.81,2.43 0.81,2.02 0.8,2.02 0.41,2.02 0.81,2.01 0.4,2.02 0.81,2.02 0.4,2.02 0.81,2.02 0.4,2.02 0.81,2.02 0.4,2.02 0.41,2.02 0.8,2.02 0.41,2.02 0.4,2.02 0.81,2.02 0.4,2.01 0.41,2.02 0.4,2.02 -1.21,2.43 0.4,2.02 0.41,2.01 0.4,2.02 0.41,2.02 0.4,2.02 0.4,2.43 0.41,2.01 0.4,2.02 v 2.02 l 0.41,2.02 0.4,2.02 v 2.02 l 0.4,2.02 0.41,2.42 v 2.02 l 0.4,2.02 v 2.02 l 0.4,2.02 v 2.02 l 0.41,2.02 v 2.42 l 0.4,2.02 v 4.04 l 0.41,2.02 v 8.48 l 0.4,2.02 v 6.46"
       style="fill:none;stroke:#000000;stroke-width:2.42308;stroke-linecap:butt;stroke-linejoin:round;stroke-miterlimit:10;stroke-dasharray:29.0769;stroke-dashoffset:0;stroke-opacity:1"
       transform="matrix(0.03527778,0,0,-0.03527778,-31.37958,302.9786)"
       clip-path="url(#clipPath66)" />
    <path
       id="path67"
       d="m 3164.82,5275.56 2.02,2.42 2.02,2.02 2.02,2.43 2.42,2.42 2.02,2.42 2.02,2.43 2.42,1.21 2.02,2.42 1.61,2.42 2.02,2.43 2.02,2.42 2.02,2.42 1.62,2.43 2.42,1.21 2.02,2.42 1.61,2.42 1.62,2.83 2.42,0.81 1.62,2.42 2.02,2.83 1.61,2.42 2.02,1.21 1.62,2.43 1.61,2.42 1.62,2.83 2.42,0.8 1.62,2.83 1.21,2.42 2.42,1.21 1.21,2.83 1.62,2.42 2.02,1.22 1.61,2.82 2.02,1.21 1.21,2.43 1.62,2.82 2.02,1.22 1.21,2.42 2.02,1.21 1.21,2.83 1.21,2.82 2.02,1.22 1.21,2.42 2.02,1.21 1.21,2.83 2.02,1.21 1.21,2.83 1.62,1.21 1.21,2.82 2.02,1.22 0.81,2.82 2.02,1.21 0.81,2.83 2.01,1.62 0.81,2.42 2.02,1.62 0.81,2.82 2.02,1.21 1.61,1.62 0.81,2.42 2.02,1.62 0.81,2.82 1.61,1.22 0.81,2.82 1.62,1.62 1.61,1.21 0.81,2.83 1.62,1.61 0.8,2.83 1.62,1.21 1.61,1.62 0.81,2.82 1.62,1.62 1.61,1.61 0.41,2.43 1.61,1.61 1.62,1.62 0.4,2.82 1.62,1.62 1.61,1.62 0.41,2.82 1.61,1.62 1.62,1.61 1.21,1.62 0.4,2.83 1.62,1.61 1.61,1.62 v 2.42 l 1.62,2.02 1.21,1.61 1.62,1.62 v 2.83 l 1.61,1.61 1.21,1.62 1.62,1.61 v 2.83 l 1.21,1.61 1.61,1.62 1.22,2.02"
       style="fill:none;stroke:#000000;stroke-width:2.42308;stroke-linecap:butt;stroke-linejoin:round;stroke-miterlimit:10;stroke-dasharray:29.0769;stroke-dashoffset:0;stroke-opacity:1"
       transform="matrix(0.03527778,0,0,-0.03527778,-31.37958,302.9786)"
       clip-path="url(#clipPath68)" />
    <path
       id="path69"
       d="m 2797.32,4990.45 6.06,3.23 6.05,3.63 5.25,1.62 6.06,3.23 5.65,3.63 5.25,1.62 5.66,3.63 5.65,3.64 5.25,2.02 5.66,3.63 5.65,3.63 4.85,2.02 5.65,3.64 4.85,2.42 5.65,3.64 5.25,4.03 4.85,2.43 5.25,3.63 4.44,2.43 5.25,4.03 4.84,2.43 4.85,4.44 4.85,2.42 4.84,4.04 4.45,2.83 4.44,2.42 4.84,4.44 4.45,2.43 4.44,2.82 4.44,4.45 4.04,2.82 4.44,2.83 4.44,4.44 4.04,2.83 4.04,2.83 4.44,2.82 4.04,2.83 4.04,3.23 3.63,2.83 4.04,3.23 4.04,2.82 3.64,3.24 4.03,2.82 3.64,3.23 3.63,3.23 3.64,3.23 3.63,3.24 3.64,3.23 3.63,3.23 3.64,3.23 3.23,3.23 3.63,1.61 3.23,3.23 3.64,3.64 3.23,3.23 3.23,1.62 3.23,3.63 3.23,3.23 3.23,2.02 3.23,3.23 2.83,2.02 3.23,3.23 2.83,3.64 3.23,2.01 2.82,3.64 3.23,1.61 2.83,3.64 2.83,2.02 3.23,2.02 2.42,3.63 3.23,2.02 2.43,3.64 2.82,2.02 2.83,2.01 2.42,3.64 2.83,2.42 2.83,2.02 2.42,3.64 2.83,2.02 2.42,2.42 2.83,2.02 2.42,2.02 2.42,4.04 2.43,2.01 2.42,2.43 2.42,2.02 2.43,2.42 2.82,2.02 2.02,4.04 2.02,2.42 2.42,2.02 2.43,2.42 2.42,2.43 2.02,2.02 2.42,2.42 2.43,2.42 2.02,2.42 2.01,2.43 2.43,2.42"
       style="fill:none;stroke:#000000;stroke-width:2.42308;stroke-linecap:butt;stroke-linejoin:round;stroke-miterlimit:10;stroke-dasharray:29.0769;stroke-dashoffset:0;stroke-opacity:1"
       transform="matrix(0.03527778,0,0,-0.03527778,-31.37958,302.9786)"
       clip-path="url(#clipPath70)" />
    <path
       id="path71"
       d="m 2447.59,5274.35 1.21,-4.85 1.21,-4.44 v -5.65 l 1.61,-4.85 v -5.65 l 1.62,-4.85 1.21,-4.85 0.41,-5.65 1.61,-4.85 0.41,-5.65 1.61,-4.44 1.62,-4.85 0.4,-6.06 1.61,-4.44 0.81,-6.06 1.62,-4.44 0.81,-6.06 2.02,-4.44 0.8,-6.06 2.02,-4.84 0.81,-5.66 2.02,-4.84 2.02,-4.44 0.81,-6.06 2.42,-4.85 1.21,-5.65 2.02,-4.85 1.21,-5.65 2.42,-4.85 1.22,-6.06 2.42,-4.44 1.61,-6.06 2.43,-4.84 2.42,-4.44 1.62,-6.06 2.82,-4.44 2.43,-4.85 1.61,-5.65 2.83,-4.85 2.83,-4.44 2.01,-6.06 2.83,-4.44 2.83,-4.85 2.83,-4.44 3.23,-4.44 2.82,-4.85 3.23,-4.44 3.23,-4.44 3.23,-4.45 2.83,-4.84 4.44,-2.83 3.23,-4.44 3.24,-4.44 4.44,-3.23 3.23,-4.45 4.44,-3.23 3.23,-4.04 4.44,-3.23 4.45,-2.82 4.44,-2.83 4.44,-3.23 4.44,-2.83 4.45,-2.83 4.84,-2.82 5.25,-1.21 4.44,-2.83 5.66,-1.21 4.44,-2.83 5.25,-1.21 5.65,-1.21 5.25,-0.81 5.66,-1.21 5.25,-1.21 5.25,-0.81 5.65,-1.21 6.06,0.81 5.25,-1.22 6.06,0.81 6.46,0.81 5.25,-0.81 6.06,0.81 6.05,0.81 6.06,0.8 6.06,0.81 5.65,1.21 6.06,0.81 6.46,2.83 6.06,0.81 6.06,1.21 5.65,1.21 6.46,2.83 5.66,1.21 6.46,3.23 5.65,1.21 6.46,2.83 5.66,1.61 6.06,3.23 6.05,2.83 5.66,1.62"
       style="fill:none;stroke:#000000;stroke-width:2.42308;stroke-linecap:butt;stroke-linejoin:round;stroke-miterlimit:10;stroke-dasharray:29.0769;stroke-dashoffset:0;stroke-opacity:1"
       transform="matrix(0.03527778,0,0,-0.03527778,-31.37958,302.9786)"
       clip-path="url(#clipPath72)" />
    <path
       id="path73"
       d="m 2418.91,5733.52 -0.4,-4.04 v -4.03 l 1.21,-4.04 v -3.64 l -0.4,-4.04 v -15.75 l -0.41,-3.63 v -4.04 l 0.41,-4.04 v -15.75 l 0.4,-3.63 v -4.04 l -1.21,-4.04 v -4.04 l 0.4,-3.63 v -4.04 l 0.41,-4.04 0.4,-3.63 0.4,-4.04 -1.21,-4.04 0.41,-4.04 0.4,-3.63 0.4,-4.04 0.41,-4.04 -1.21,-4.04 0.4,-4.04 0.81,-3.63 0.4,-4.04 -1.21,-4.04 0.81,-4.04 0.4,-4.04 -0.81,-4.03 0.81,-4.04 0.81,-3.64 -1.21,-4.44 0.81,-3.63 -0.81,-4.45 0.81,-4.04 0.8,-3.63 -0.8,-4.44 1.21,-3.64 -0.81,-4.44 0.81,-4.04 -0.41,-4.04 0.81,-4.03 -0.4,-4.45 0.81,-3.63 -0.41,-4.44 1.21,-4.04 -0.8,-4.04 -0.41,-4.44 1.21,-4.04 -0.4,-4.44 1.21,-3.64 v -4.44 l -0.4,-4.44 1.21,-4.04 -0.4,-4.44 v -4.45 l 1.21,-3.63 v -8.89 l -0.41,-4.44 1.62,-4.04 v -13.32 l 1.61,-4.04 v -4.44 l 0.41,-4.45 v -4.44 l 0.4,-4.84 v -4.45 l 0.4,-4.44 0.41,-4.44 v -4.85 l 2.02,-3.63 0.4,-4.44 0.41,-4.85 0.4,-4.44 0.4,-4.45 0.81,-4.84 0.41,-4.44 -0.81,-5.66 0.4,-4.44 0.81,-4.44 0.81,-4.85 0.8,-4.44 0.81,-4.85 0.81,-4.44 0.81,-4.85 0.8,-4.44 -0.8,-5.65 1.21,-4.85 0.81,-4.44 1.21,-4.85 0.81,-4.44 v -5.65 l 0.8,-4.85 1.22,-4.44 v -5.65 l 1.21,-4.85"
       style="fill:none;stroke:#000000;stroke-width:2.42308;stroke-linecap:butt;stroke-linejoin:round;stroke-miterlimit:10;stroke-dasharray:29.0769;stroke-dashoffset:0;stroke-opacity:1"
       transform="matrix(0.03527778,0,0,-0.03527778,-31.37958,302.9786)"
       clip-path="url(#clipPath74)" />
    <path
       id="path75"
       d="m 2462.93,6187.04 -0.81,-5.65 -1.61,-4.85 -0.4,-5.65 -1.62,-4.85 -1.61,-4.84 -0.41,-5.66 -1.61,-4.84 -0.41,-5.66 -1.21,-4.84 -1.62,-4.45 v -6.05 l -1.61,-4.45 v -5.65 l -1.21,-4.85 -1.21,-4.84 -1.21,-4.45 v -5.65 l -1.22,-4.85 -0.8,-4.44 v -5.65 l -0.81,-4.85 -1.21,-4.44 -0.81,-4.85 -1.21,-4.44 0.8,-5.65 -0.8,-4.85 -0.81,-4.44 -0.81,-4.85 -0.81,-4.44 -0.8,-4.85 -0.81,-4.44 -0.81,-4.84 -0.4,-4.45 0.81,-5.25 -0.41,-4.84 -0.81,-4.44 -0.4,-4.85 -0.4,-4.44 -0.41,-4.45 -0.4,-4.84 -2.02,-3.64 v -4.44 l -0.41,-4.84 -0.4,-4.45 v -4.44 l -0.4,-4.44 v -4.44 l -0.41,-4.85 v -4.44 l -1.61,-3.64 v -13.73 l -1.62,-3.63 0.41,-4.44 v -8.89 l -1.21,-4.04 v -4.44 l 0.4,-4.44 -1.21,-3.64 0.4,-4.44 v -4.44 l -1.21,-4.04 0.4,-4.44 -1.21,-3.64 0.41,-4.44 0.8,-4.44 -1.21,-4.04 0.41,-4.04 -0.81,-4.04 0.4,-4.44 -0.81,-3.63 0.41,-4.45 -0.81,-4.03 0.81,-4.04 -1.21,-4.04 0.8,-4.04 -0.8,-4.04 -0.81,-4.04 0.81,-4.04 -0.81,-4.03 1.21,-4.04 -0.81,-4.04 -0.81,-4.04 0.81,-4.04 -0.4,-4.04 -0.81,-3.63 1.21,-4.44 -0.4,-3.64 -0.81,-4.04 -0.4,-4.03 1.21,-4.04 -0.41,-3.64 -0.4,-4.04 -0.4,-4.03 -0.41,-4.04 1.21,-4.04 -0.4,-3.64 -0.4,-4.03 -0.41,-4.04 v -3.64"
       style="fill:none;stroke:#000000;stroke-width:2.42308;stroke-linecap:butt;stroke-linejoin:round;stroke-miterlimit:10;stroke-dasharray:29.0769;stroke-dashoffset:0;stroke-opacity:1"
       transform="matrix(0.03527778,0,0,-0.03527778,-31.37958,302.9786)"
       clip-path="url(#clipPath76)" />
    <path
       id="path77"
       d="m 2880.51,6348.58 -5.65,4.04 -4.85,2.02 -5.65,3.63 -4.85,2.43 -5.65,3.63 -5.66,3.63 -5.25,2.02 -5.65,3.23 -5.66,3.64 -5.25,2.02 -5.65,3.23 -6.06,3.63 -5.25,1.62 -6.05,3.23 -6.06,3.23 -5.66,1.62 -6.05,3.23 -6.06,2.82 -5.66,1.62 -6.46,2.83 -5.65,1.61 -6.46,2.83 -5.66,1.21 -6.46,2.83 -5.65,1.21 -6.06,1.21 -6.06,1.21 -6.46,2.42 -6.06,1.22 -5.65,0.8 -6.06,0.81 -6.06,1.21 -6.05,0.81 -6.06,0.4 -5.25,-0.4 -6.46,0.4 -6.06,0.81 -5.25,-0.81 -6.06,0.41 -5.65,-0.81 -5.25,-1.21 -5.25,-1.21 -5.66,-0.81 -5.25,-1.21 -5.65,-1.21 -5.25,-1.21 -4.44,-2.83 -5.66,-1.21 -4.44,-2.83 -5.25,-1.21 -4.84,-2.83 -4.45,-2.83 -4.44,-2.82 -4.44,-2.83 -4.44,-2.83 -4.45,-3.23 -4.44,-2.82 -3.23,-4.45 -4.44,-3.23 -3.23,-4.44 -4.44,-2.83 -3.24,-4.44 -3.23,-4.44 -4.44,-3.23 -2.83,-4.44 -3.23,-4.45 -3.23,-4.84 -3.23,-4.44 -2.82,-4.45 -3.23,-4.84 -2.83,-4.45 -2.83,-4.44 -2.83,-4.84 -2.01,-5.66 -2.83,-4.84 -2.83,-4.45 -1.61,-6.05 -2.43,-4.45 -2.82,-4.84 -1.62,-6.06 -2.42,-4.44 -2.43,-4.85 -1.61,-5.65 -2.42,-4.85 -1.22,-6.06 -2.42,-4.44 -1.21,-6.06 -2.02,-4.44 -1.21,-6.06 -2.42,-4.84 -0.81,-5.66 -2.02,-4.84 -2.02,-4.85 -0.81,-5.65 -2.02,-4.85 -0.8,-5.65 -2.02,-4.85 -0.81,-5.65 -1.62,-4.85"
       style="fill:none;stroke:#000000;stroke-width:2.42308;stroke-linecap:butt;stroke-linejoin:round;stroke-miterlimit:10;stroke-dasharray:29.0769;stroke-dashoffset:0;stroke-opacity:1"
       transform="matrix(0.03527778,0,0,-0.03527778,-31.37958,302.9786)"
       clip-path="url(#clipPath78)" />
    <path
       id="path79"
       d="m 3195.51,6075.18 -2.02,2.82 -2.42,0.81 -1.62,2.42 -2.02,2.43 -2.02,2.42 -2.02,2.83 -1.61,2.42 -2.02,2.42 -2.42,0.81 -2.02,2.42 -2.02,2.43 -2.42,2.42 -2.02,2.42 -2.02,2.43 -2.02,2.42 -2.43,2.42 -2.01,2.43 -2.02,2.01 -2.43,2.43 -2.42,2.42 -2.02,2.42 -2.42,2.02 -2.43,2.43 -2.42,2.42 -2.02,2.02 -2.02,4.04 -2.82,2.42 -2.43,2.02 -2.42,2.42 -2.42,2.02 -2.43,2.42 -2.42,3.64 -2.42,2.02 -2.83,2.42 -2.42,2.02 -2.83,2.02 -2.42,4.04 -2.83,2.02 -2.83,2.02 -2.42,3.63 -2.83,2.02 -2.82,2.02 -2.43,3.63 -3.23,2.02 -2.42,3.64 -3.23,2.02 -2.83,2.02 -2.83,3.63 -3.23,2.02 -2.82,3.23 -3.23,2.02 -2.83,3.64 -3.23,3.63 -2.83,1.62 -3.23,3.63 -3.23,1.62 -3.23,3.63 -3.23,3.23 -3.23,1.62 -3.23,3.63 -3.64,3.23 -3.23,3.23 -3.63,1.62 -3.23,3.23 -3.64,3.63 -3.63,3.23 -3.64,3.23 -3.63,3.24 -3.64,2.82 -3.63,3.23 -3.64,3.23 -4.03,3.23 -3.64,2.83 -4.04,3.23 -4.04,2.83 -3.63,3.23 -4.04,2.83 -4.04,2.82 -4.44,2.83 -4.04,3.23 -4.04,2.83 -4.44,4.44 -4.44,2.83 -4.04,2.82 -4.44,4.04 -4.44,2.83 -4.45,2.83 -4.84,4.04 -4.44,2.82 -4.45,2.43 -4.84,4.44 -4.85,2.42 -4.85,4.04 -4.84,2.42 -5.25,4.04 -4.44,2.42 -5.25,4.04 -4.85,2.02 -5.25,4.04"
       style="fill:none;stroke:#000000;stroke-width:2.42308;stroke-linecap:butt;stroke-linejoin:round;stroke-miterlimit:10;stroke-dasharray:29.0769;stroke-dashoffset:0;stroke-opacity:1"
       transform="matrix(0.03527778,0,0,-0.03527778,-31.37958,302.9786)"
       clip-path="url(#clipPath80)" />
    <path
       id="path81"
       d="m 3330.39,5876.08 -1.21,1.62 -1.21,2.01 -0.81,1.62 -1.21,1.62 v 2.82 l -1.21,2.02 -1.21,1.62 -1.21,1.61 -1.21,2.02 v 2.83 l -1.22,1.61 -1.21,1.62 -1.61,2.02 -1.21,1.61 v 2.83 l -1.22,1.62 -1.61,1.61 -1.21,1.62 v 2.82 l -1.62,1.62 -1.21,2.02 -1.61,1.61 v 2.83 l -1.62,1.62 -1.21,1.61 -1.62,1.62 v 2.82 l -1.61,1.62 -1.62,1.61 -0.4,2.83 -1.21,1.62 -1.62,1.61 -1.61,1.62 -0.41,2.42 -1.61,1.62 -1.62,1.61 -0.4,2.83 -1.62,1.61 -1.61,1.62 -0.41,2.83 -1.61,1.61 -1.62,1.21 -0.81,2.83 -1.61,1.62 -1.62,1.61 -0.8,2.42 -1.62,1.62 -0.81,2.83 -1.61,1.61 -1.62,1.21 -0.81,2.83 -1.61,1.62 -0.81,2.82 -2.02,1.21 -0.81,2.83 -1.61,1.21 -2.02,1.62 -0.81,2.82 -2.02,1.22 -0.81,2.82 -2.01,1.21 -0.81,2.83 -2.02,1.21 -0.81,2.83 -2.02,1.21 -1.21,2.83 -1.62,1.21 -1.21,2.83 -2.02,1.21 -1.21,2.83 -2.02,1.21 -1.21,2.82 -2.02,1.22 -1.21,2.42 -1.21,2.83 -2.02,1.21 -1.21,2.82 -2.02,1.22 -1.62,2.42 -1.21,2.83 -2.02,1.21 -1.61,2.42 -2.02,1.21 -1.62,2.83 -1.21,2.42 -2.42,1.21 -1.21,2.43 -1.62,2.82 -2.42,1.21 -1.62,2.43 -1.61,2.42 -1.62,2.83 -2.02,0.81 -1.61,2.82 -2.02,2.43 -1.62,2.42 -2.42,1.21 -1.62,2.42 -1.61,2.43"
       style="fill:none;stroke:#000000;stroke-width:2.42308;stroke-linecap:butt;stroke-linejoin:round;stroke-miterlimit:10;stroke-dasharray:29.0769;stroke-dashoffset:0;stroke-opacity:1"
       transform="matrix(0.03527778,0,0,-0.03527778,-31.37958,302.9786)"
       clip-path="url(#clipPath82)" />
    <path
       id="path83"
       d="m 3374.01,5692.33 v 6.06 l -0.4,2.02 v 8.48 l -0.41,2.02 v 4.44 l -0.4,2.02 v 2.02 l -0.41,2.02 v 2.02 l -0.4,2.02 v 2.42 l -0.4,2.02 v 2.02 l -0.41,2.02 -0.4,2.02 v 2.01 l -0.4,2.02 -0.41,2.02 v 2.43 l -0.4,2.02 -0.41,2.01 -0.4,2.02 -0.4,2.02 -0.41,2.02 -0.4,2.02 -0.41,2.02 -0.4,2.02 1.21,2.42 -0.4,2.02 -0.41,2.02 -0.4,2.42 -0.81,2.02 -0.4,2.02 -0.41,2.02 -0.8,2.02 -0.41,2.02 -0.4,2.02 -0.81,2.02 -0.4,2.02 -0.81,2.02 -0.4,2.02 -0.81,2.02 -0.4,2.02 -0.81,2.01 -0.41,2.02 -0.8,2.02 -0.81,1.62 0.81,2.83 -0.41,2.01 -0.81,2.02 -0.8,1.62 -0.81,2.02 -0.81,2.02 -0.81,2.02 -0.8,2.02 -0.41,2.02 -0.81,2.01 -1.21,1.62 -0.8,2.02 0.8,2.83 -0.8,2.02 -0.81,1.61 -0.81,2.02 -1.21,2.02 -0.81,2.02 -0.81,1.61 -0.81,2.02 -1.21,2.02 0.81,2.43 -1.21,2.01 -0.81,2.02 -1.21,1.62 -0.81,2.02 -1.21,2.02 -0.81,1.61 -1.21,2.02 0.41,2.83 -1.22,1.61 -0.8,2.02 -1.22,1.62 -1.21,2.02 -1.21,1.61 0.41,2.83 -1.22,2.02"
       style="fill:none;stroke:#000000;stroke-width:2.42308;stroke-linecap:butt;stroke-linejoin:round;stroke-miterlimit:10;stroke-dasharray:29.0769;stroke-dashoffset:0;stroke-opacity:1"
       transform="matrix(0.03527778,0,0,-0.03527778,-31.37958,302.9786)"
       clip-path="url(#clipPath84)" />
    <path
       id="path85"
       d="m 2637.39,6110.71 c 0,-8.02 -6.51,-14.53 -14.53,-14.53 -8.03,0 -14.54,6.51 -14.54,14.53 0,8.03 6.51,14.54 14.54,14.54 8.02,0 14.53,-6.51 14.53,-14.54"
       style="fill:none;stroke:#000000;stroke-width:2.42308;stroke-linecap:butt;stroke-linejoin:round;stroke-miterlimit:10;stroke-dasharray:none;stroke-opacity:1"
       transform="matrix(0.03527778,0,0,-0.03527778,-31.37958,302.9786)"
       clip-path="url(#clipPath86)" />
    <path
       id="path87"
       d="m 2930.99,5568.35 c 0,-8.03 -6.51,-14.54 -14.54,-14.54 -8.02,0 -14.54,6.51 -14.54,14.54 0,8.03 6.52,14.54 14.54,14.54 8.03,0 14.54,-6.51 14.54,-14.54"
       style="fill:none;stroke:#000000;stroke-width:2.42308;stroke-linecap:butt;stroke-linejoin:round;stroke-miterlimit:10;stroke-dasharray:none;stroke-opacity:1"
       transform="matrix(0.03527778,0,0,-0.03527778,-31.37958,302.9786)"
       clip-path="url(#clipPath88)" />
    <path
       id="path89"
       d="m 2889.8,5644.68 c 0,-8.03 -6.51,-14.54 -14.54,-14.54 -8.03,0 -14.54,6.51 -14.54,14.54 0,8.02 6.51,14.53 14.54,14.53 8.03,0 14.54,-6.51 14.54,-14.53"
       style="fill:none;stroke:#000000;stroke-width:2.42308;stroke-linecap:butt;stroke-linejoin:round;stroke-miterlimit:10;stroke-dasharray:none;stroke-opacity:1"
       transform="matrix(0.03527778,0,0,-0.03527778,-31.37958,302.9786)"
       clip-path="url(#clipPath90)" />
    <path
       id="path91"
       d="M 2622.86,6110.71 2984.7,5913.23"
       style="fill:none;stroke:#000000;stroke-width:2.42308;stroke-linecap:butt;stroke-linejoin:round;stroke-miterlimit:10;stroke-dasharray:none;stroke-opacity:1"
       transform="matrix(0.03527778,0,0,-0.03527778,-31.37958,302.9786)"
       clip-path="url(#clipPath92)" />
    <path
       id="path93"
       d="m 2945.53,5954.83 39.17,-41.6 -56.54,10.1 17.37,31.5"
       style="fill:#000000;fill-opacity:1;fill-rule:evenodd;stroke:#000000;stroke-width:2.42308;stroke-linecap:butt;stroke-linejoin:round;stroke-miterlimit:10;stroke-dasharray:none;stroke-opacity:1;paint-order:stroke fill markers"
       transform="matrix(0.03527778,0,0,-0.03527778,-31.37958,302.9786)"
       clip-path="url(#clipPath94)" />
    <path
       id="path95"
       d="m 2945.53,5954.83 39.17,-41.6 -56.54,10.1 17.37,31.5 v 0"
       style="fill:none;stroke:#000000;stroke-width:2.42308;stroke-linecap:butt;stroke-linejoin:round;stroke-miterlimit:10;stroke-dasharray:none;stroke-opacity:1"
       transform="matrix(0.03527778,0,0,-0.03527778,-31.37958,302.9786)"
       clip-path="url(#clipPath96)" />
    <path
       id="path97"
       d="m 2682.62,6559.39 -2.01,2.02 -1.62,2.02 -2.02,2.02 -2.02,2.01 -1.61,2.02 -2.02,1.62 -1.62,2.02 -2.02,2.02 -2.02,2.02 -1.61,1.61 -2.02,2.02 -2.02,1.62 -1.62,2.02 -2.01,1.61 -2.02,2.02 -1.62,1.62 -2.02,1.61 -2.02,2.02 -1.61,1.62 -2.02,1.61 -2.02,1.62 -1.62,1.61 -2.02,1.62 -2.02,1.61 -1.61,1.62 -2.02,1.61 -2.02,1.62 -1.62,1.21 -2.01,1.62 -2.02,1.61 -1.62,1.21 -2.02,1.62 -2.02,1.61 -1.61,1.22 -2.02,1.21 -2.02,1.61 -1.62,1.21 -2.02,1.22 -2.02,1.61 -1.61,1.21 -2.02,1.21 -2.02,1.22 -1.61,1.21 -2.02,1.21 -2.02,1.21 -1.62,1.21 -2.02,1.21 -2.02,0.81 -1.61,1.21 -2.02,1.21 -2.02,0.81 -1.62,1.21 -2.01,0.81 -2.02,1.21 -1.62,0.81 -2.02,1.21 -1.61,0.81 -2.02,0.81 -2.02,0.8 -1.62,1.22 -2.02,0.8 -2.02,0.81 -1.61,0.81 -2.02,0.81 -1.62,0.4 -2.02,0.81 -1.61,0.81 -2.02,0.8 -2.02,0.41 -1.61,0.81 -2.02,0.8 -1.62,0.41 -2.02,0.8 -1.61,0.41 -2.02,0.4 -1.62,0.81 -2.02,0.4 -1.61,0.41 -2.02,0.4 -1.62,0.41 -2.02,0.4 -1.61,0.4 -2.02,0.41 -1.62,0.4 -1.61,0.4 -2.02,0.41 h -1.62 l -2.02,0.4 -1.61,0.41 h -1.62 l -2.02,0.4 h -3.23 l -2.02,0.4 h -8.48"
       style="fill:none;stroke:#000000;stroke-width:2.42308;stroke-linecap:butt;stroke-linejoin:round;stroke-miterlimit:10;stroke-dasharray:none;stroke-opacity:1"
       transform="matrix(0.03527778,0,0,-0.03527778,-31.37958,302.9786)"
       clip-path="url(#clipPath98)" />
    <path
       id="path99"
       d="m 2843.36,6285.98 -1.62,3.23 -1.21,3.64 -1.21,3.23 -1.21,3.23 -1.62,3.23 -1.21,3.23 -1.21,3.23 -1.62,3.23 -1.21,3.23 -1.21,3.24 -1.62,3.23 -1.21,3.23 -1.61,3.23 -1.21,3.23 -1.62,3.23 -1.21,3.23 -1.62,3.23 -1.21,2.83 -1.61,3.23 -1.22,3.23 -1.61,3.23 -1.62,2.83 -1.21,3.23 -1.61,3.23 -1.62,3.23 -1.21,2.83 -1.62,3.23 -1.61,2.82 -1.21,3.23 -1.62,2.83 -1.61,3.23 -1.62,2.83 -1.61,3.23 -1.22,2.83 -1.61,3.23 -1.62,2.82 -1.61,2.83 -1.62,3.23 -1.61,2.83 -1.62,2.83 -1.61,2.82 -1.62,3.23 -1.61,2.83 -1.62,2.83 -1.62,2.82 -1.61,2.83 -1.62,2.83 -1.61,2.83 -1.62,2.82 -1.61,2.83 -1.62,2.83 -1.61,2.82 -1.62,2.83 -1.61,2.83 -2.02,2.42 -1.62,2.83 -1.61,2.82 -1.62,2.83 -1.61,2.42 -1.62,2.83 -2.02,2.42 -1.61,2.83 -1.62,2.42 -1.62,2.83 -2.01,2.42 -1.62,2.83 -1.61,2.42 -2.02,2.43 -1.62,2.82 -1.62,2.43 -2.01,2.42 -1.62,2.42 -1.61,2.43 -2.02,2.82 -1.62,2.43 -2.02,2.42 -1.61,2.42 -1.62,2.43 -2.02,2.01 -1.61,2.43 -2.02,2.42 -1.62,2.42 -2.02,2.43 -1.61,2.02 -2.02,2.42 -1.62,2.42 -2.02,2.02 -1.61,2.42 -2.02,2.02 -1.62,2.43 -2.02,2.02 -1.61,2.42 -2.02,2.02 -1.62,2.02 -2.02,2.02 -1.61,2.42 -2.02,2.02 -2.02,2.02 -1.62,2.02"
       style="fill:none;stroke:#000000;stroke-width:2.42308;stroke-linecap:butt;stroke-linejoin:round;stroke-miterlimit:10;stroke-dasharray:none;stroke-opacity:1"
       transform="matrix(0.03527778,0,0,-0.03527778,-31.37958,302.9786)"
       clip-path="url(#clipPath100)" />
    <path
       id="path101"
       d="m 2912.01,6028.33 -0.4,3.63 -0.41,3.24 -0.81,3.63 -0.4,3.23 -0.81,3.64 -0.4,3.23 -0.4,3.63 -0.81,3.23 -0.41,3.64 -0.8,3.63 -0.81,3.23 -0.41,3.64 -0.8,3.23 -0.41,3.63 -0.81,3.64 -0.8,3.23 -0.81,3.63 -0.4,3.23 -0.81,3.64 -0.81,3.63 -0.81,3.23 -0.8,3.64 -0.81,3.63 -0.81,3.23 -0.81,3.64 -0.81,3.23 -0.8,3.63 -0.81,3.64 -0.81,3.23 -0.81,3.63 -0.8,3.64 -0.81,3.23 -0.81,3.63 -0.81,3.23 -1.21,3.64 -0.81,3.63 -0.8,3.23 -0.81,3.64 -1.21,3.23 -0.81,3.63 -0.81,3.23 -1.21,3.64 -0.81,3.63 -1.21,3.23 -0.81,3.64 -1.21,3.23 -0.81,3.63 -1.21,3.23 -0.81,3.64 -1.21,3.23 -1.21,3.63 -0.81,3.24 -1.21,3.63 -1.21,3.23 -0.81,3.64 -1.21,3.23 -1.21,3.63 -1.21,3.23 -0.81,3.23 -1.21,3.64 -1.21,3.23 -1.21,3.63 -1.22,3.23 -1.21,3.23 -1.21,3.64 -1.21,3.23 -1.21,3.23 -1.21,3.63 -1.22,3.24 -1.21,3.23 -1.21,3.23 -1.21,3.63 -1.21,3.23 -1.21,3.23 -1.21,3.23"
       style="fill:none;stroke:#000000;stroke-width:2.42308;stroke-linecap:butt;stroke-linejoin:round;stroke-miterlimit:10;stroke-dasharray:none;stroke-opacity:1"
       transform="matrix(0.03527778,0,0,-0.03527778,-31.37958,302.9786)"
       clip-path="url(#clipPath102)" />
    <path
       id="path103"
       d="m 2895.05,5688.7 0.81,2.42 0.8,2.02 0.81,2.42 0.41,2.42 0.8,2.43 0.81,2.02 0.81,2.42 0.81,2.42 0.8,2.43 0.41,2.42 0.8,2.42 0.81,2.42 0.41,2.43 0.8,2.42 0.81,2.83 0.41,2.42 0.8,2.42 0.41,2.43 0.81,2.82 0.4,2.43 0.81,2.42 0.4,2.83 0.4,2.42 0.81,2.83 0.41,2.42 0.4,2.83 0.81,2.42 0.4,2.83 0.4,2.82 0.41,2.43 0.4,2.82 0.41,2.83 0.8,2.83 0.41,2.82 0.4,2.43 0.41,2.82 0.4,2.83 0.4,2.83 0.41,2.83 v 2.82 l 0.4,2.83 0.41,2.83 0.4,2.82 0.4,3.23 v 2.83 l 0.41,2.83 0.4,2.82 0.4,3.24 v 2.82 l 0.41,2.83 v 3.23 l 0.4,2.83 v 2.82 l 0.41,3.23 v 2.83 l 0.4,3.23 v 6.06 l 0.4,2.83 v 6.46 l 0.41,2.83 v 15.75 l 0.4,3.23 v 12.52 l -0.4,3.23 v 16.15 l -0.41,3.23 v 6.46 l -0.4,3.23 v 6.46 l -0.4,3.24 v 3.63 l -0.41,3.23 v 3.23 l -0.4,3.23 v 3.23 l -0.41,3.64 -0.4,3.23 v 3.23 l -0.4,3.63 -0.41,3.23 v 3.24 l -0.4,3.23 -0.4,3.63 -0.41,3.23 -0.4,3.64 -0.41,3.23 v 3.23 l -0.4,3.63 -0.4,3.23 -0.41,3.64 -0.4,3.23 -0.81,3.63 -0.4,3.23 -0.41,3.23 -0.4,3.64 -0.41,3.23 -0.4,3.63 -0.81,3.24 -0.4,3.63"
       style="fill:none;stroke:#000000;stroke-width:2.42308;stroke-linecap:butt;stroke-linejoin:round;stroke-miterlimit:10;stroke-dasharray:none;stroke-opacity:1"
       transform="matrix(0.03527778,0,0,-0.03527778,-31.37958,302.9786)"
       clip-path="url(#clipPath104)" />
    <path
       id="path105"
       d="m 2769.45,5558.66 1.62,0.4 1.61,0.4 1.62,0.41 1.61,0.4 h 1.62 l 1.61,0.41 1.62,0.8 1.62,0.41 1.61,0.4 1.62,0.41 1.61,0.4 1.62,0.81 1.21,0.4 1.61,0.4 1.62,0.81 1.61,0.41 1.62,0.8 1.61,0.81 1.62,0.41 1.21,0.8 1.62,0.81 1.61,0.81 1.62,0.81 1.21,0.8 1.61,0.81 1.62,0.81 1.21,0.81 1.62,0.8 1.21,0.81 1.61,1.21 1.62,0.81 1.21,0.81 1.62,1.21 1.21,0.81 1.61,1.21 1.22,0.81 1.61,1.21 1.21,1.21 1.62,0.81 1.21,1.21 1.21,1.21 1.62,1.21 1.21,1.21 1.21,1.22 1.61,1.21 1.22,1.21 1.21,1.21 1.21,1.21 1.61,1.62 1.22,1.21 1.21,1.21 1.21,1.62 1.21,1.21 1.21,1.61 1.62,1.21 1.21,1.62 1.21,1.62 1.21,1.21 1.21,1.61 1.22,1.62 1.21,1.61 1.21,1.62 0.81,1.61 1.21,1.62 1.21,1.61 1.21,1.62 1.21,1.62 1.21,1.61 0.81,1.62 1.21,1.61 1.21,2.02 1.22,1.62 0.8,2.02 1.21,1.61 0.81,2.02 1.21,1.62 1.22,2.01 0.8,1.62 1.22,2.02 0.8,2.02 1.21,2.02 0.81,1.61 1.21,2.02 0.81,2.02 0.81,2.02 1.21,2.02 0.81,2.02 0.81,2.02 0.8,2.02 1.22,2.42 0.8,2.02 0.81,2.02 0.81,2.02 0.81,2.42 1.21,2.02 0.8,2.42 0.81,2.02 0.81,2.43 0.81,2.02"
       style="fill:none;stroke:#000000;stroke-width:2.42308;stroke-linecap:butt;stroke-linejoin:round;stroke-miterlimit:10;stroke-dasharray:none;stroke-opacity:1"
       transform="matrix(0.03527778,0,0,-0.03527778,-31.37958,302.9786)"
       clip-path="url(#clipPath106)" />
    <path
       id="path107"
       d="m 2588.93,5635.79 1.62,-1.61 2.02,-2.02 1.61,-1.62 2.02,-1.61 2.02,-1.62 1.62,-2.02 2.02,-1.61 2.02,-1.62 1.61,-1.61 2.02,-1.62 2.02,-1.62 1.61,-1.61 2.02,-1.62 2.02,-1.21 2.02,-1.61 1.62,-1.62 2.02,-1.21 2.02,-1.62 1.61,-1.61 2.02,-1.21 2.02,-1.62 1.61,-1.21 2.02,-1.21 2.02,-1.62 1.62,-1.21 2.02,-1.21 2.02,-1.21 1.61,-1.21 2.02,-1.21 2.02,-1.22 1.62,-1.21 2.02,-1.21 2.01,-1.21 1.62,-1.21 2.02,-1.21 2.02,-0.81 1.61,-1.21 2.02,-0.81 2.02,-1.21 1.62,-1.21 2.02,-0.81 1.61,-0.81 2.02,-1.21 2.02,-0.81 1.62,-0.81 2.02,-0.8 2.02,-0.81 1.61,-0.81 2.02,-1.21 1.61,-0.4 2.02,-0.81 2.02,-0.81 1.62,-0.81 2.02,-0.8 1.61,-0.41 2.02,-0.81 1.62,-0.8 2.02,-0.41 1.61,-0.81 2.02,-0.4 1.62,-0.81 2.02,-0.4 1.61,-0.4 2.02,-0.41 1.62,-0.4 2.02,-0.81 1.61,-0.4 2.02,-0.41 1.62,-0.4 h 2.02 l 1.61,-0.41 2.02,-0.4 1.61,-0.4 h 1.62 l 2.02,-0.41 1.62,-0.4 h 1.61 l 2.02,-0.4 h 3.63 l 1.62,-0.41 h 16.96 l 2.02,0.41 h 3.23 l 1.62,0.4 h 1.61 l 1.62,0.4 1.61,0.41 h 2.02"
       style="fill:none;stroke:#000000;stroke-width:2.42308;stroke-linecap:butt;stroke-linejoin:round;stroke-miterlimit:10;stroke-dasharray:none;stroke-opacity:1"
       transform="matrix(0.03527778,0,0,-0.03527778,-31.37958,302.9786)"
       clip-path="url(#clipPath108)" />
    <path
       id="path109"
       d="m 2420.93,5891.02 1.62,-3.23 1.21,-3.23 1.62,-2.83 1.21,-3.23 1.61,-3.23 1.21,-3.23 1.62,-3.23 1.61,-2.83 1.22,-3.23 1.61,-3.23 1.62,-3.23 1.21,-2.83 1.61,-3.23 1.62,-2.82 1.21,-3.23 1.62,-3.23 1.61,-2.83 1.62,-3.23 1.61,-2.83 1.21,-2.83 1.62,-3.23 1.61,-2.82 1.62,-3.23 1.62,-2.83 1.61,-2.83 1.62,-2.83 1.61,-3.23 1.62,-2.82 1.61,-2.83 1.62,-2.83 1.61,-2.82 1.62,-2.83 1.61,-3.23 1.62,-2.83 1.61,-2.83 1.62,-2.82 1.62,-2.43 1.61,-2.82 1.62,-2.83 1.61,-2.83 1.62,-2.82 2.02,-2.83 1.61,-2.42 1.62,-2.83 1.61,-2.83 1.62,-2.42 2.02,-2.83 1.61,-2.42 1.62,-2.83 1.61,-2.42 2.02,-2.83 1.62,-2.42 1.61,-2.83 1.62,-2.42 2.02,-2.42 1.61,-2.83 1.62,-2.42 2.02,-2.43 1.61,-2.42 2.02,-2.42 1.62,-2.43 1.61,-2.42 2.02,-2.42 1.62,-2.42 2.02,-2.43 1.61,-2.42 1.62,-2.42 2.02,-2.43 1.61,-2.42 2.02,-2.02 1.62,-2.42 2.02,-2.43 1.61,-2.01 2.02,-2.43 1.62,-2.02 2.01,-2.42 1.62,-2.02 2.02,-2.42 1.62,-2.02 2.01,-2.02 2.02,-2.42 1.62,-2.02 2.02,-2.02 1.61,-2.02 2.02,-2.02 1.62,-2.02 2.02,-2.02 2.02,-2.02 1.61,-2.02 2.02,-2.02 1.62,-2.02 2.02,-2.02 2.01,-1.61 1.62,-2.02 2.02,-2.02 2.02,-1.61 1.61,-2.02 2.02,-1.62 2.02,-2.02"
       style="fill:none;stroke:#000000;stroke-width:2.42308;stroke-linecap:butt;stroke-linejoin:round;stroke-miterlimit:10;stroke-dasharray:none;stroke-opacity:1"
       transform="matrix(0.03527778,0,0,-0.03527778,-31.37958,302.9786)"
       clip-path="url(#clipPath110)" />
    <path
       id="path111"
       d="m 2329.26,6228.64 0.4,-3.23 0.41,-3.64 0.4,-3.23 0.41,-3.63 0.4,-3.23 0.4,-3.64 0.41,-3.23 0.8,-3.63 0.41,-3.23 0.4,-3.64 0.41,-3.23 0.8,-3.63 0.41,-3.24 0.4,-3.63 0.81,-3.23 0.4,-3.64 0.81,-3.23 0.4,-3.63 0.81,-3.64 0.41,-3.23 0.8,-3.63 0.41,-3.23 0.81,-3.64 0.8,-3.63 0.41,-3.23 0.8,-3.64 0.81,-3.23 0.41,-3.63 0.8,-3.64 0.81,-3.23 0.81,-3.63 0.81,-3.23 0.8,-3.64 0.81,-3.63 0.41,-3.23 0.8,-3.64 0.81,-3.63 0.81,-3.23 0.81,-3.64 1.21,-3.23 0.81,-3.63 0.8,-3.64 0.81,-3.23 0.81,-3.63 0.81,-3.23 1.21,-3.64 0.81,-3.63 0.8,-3.23 0.81,-3.64 1.21,-3.23 0.81,-3.63 1.21,-3.64 0.81,-3.23 0.81,-3.63 1.21,-3.23 0.81,-3.64 1.21,-3.23 0.81,-3.63 1.21,-3.23 0.81,-3.64 1.21,-3.23 1.21,-3.63 0.81,-3.24 1.21,-3.63 1.21,-3.23 1.21,-3.64 0.81,-3.23 1.21,-3.63 1.21,-3.23 1.21,-3.64 1.21,-3.23 0.81,-3.23 1.21,-3.63 1.21,-3.23 1.22,-3.23 1.21,-3.64 1.21,-3.23 1.21,-3.23 1.21,-3.63 1.21,-3.24 1.22,-3.23 1.21,-3.23 1.61,-3.63 1.21,-3.23 1.22,-3.23 1.21,-3.23 1.21,-3.23 1.21,-3.64 1.62,-3.23 1.21,-3.23 1.21,-3.23 1.61,-3.23 1.22,-3.23 1.21,-3.23 1.61,-3.23 1.21,-3.24 1.22,-3.23 1.61,-3.23 1.21,-3.23"
       style="fill:none;stroke:#000000;stroke-width:2.42308;stroke-linecap:butt;stroke-linejoin:round;stroke-miterlimit:10;stroke-dasharray:none;stroke-opacity:1"
       transform="matrix(0.03527778,0,0,-0.03527778,-31.37958,302.9786)"
       clip-path="url(#clipPath112)" />
    <path
       id="path113"
       d="m 2361.16,6556.96 -0.8,-2.01 -1.22,-2.02 -0.8,-2.02 -0.81,-2.02 -0.81,-2.43 -0.81,-2.01 -1.21,-2.02 -0.81,-2.43 -0.8,-2.02 -0.81,-2.42 -0.81,-2.02 -0.81,-2.42 -0.8,-2.42 -0.81,-2.02 -0.81,-2.43 -0.81,-2.42 -0.4,-2.02 -0.81,-2.42 -0.81,-2.43 -0.8,-2.42 -0.81,-2.42 -0.41,-2.42 -0.8,-2.43 -0.81,-2.42 -0.4,-2.42 -0.81,-2.43 -0.41,-2.42 -0.8,-2.83 -0.81,-2.42 -0.41,-2.42 -0.8,-2.83 -0.41,-2.42 -0.4,-2.43 -0.81,-2.82 -0.4,-2.43 -0.41,-2.82 -0.8,-2.43 -0.41,-2.82 -0.4,-2.83 -0.81,-2.42 -0.4,-2.83 -0.41,-2.83 -0.4,-2.42 -0.4,-2.83 -0.41,-2.82 -0.4,-2.83 -0.41,-2.83 -0.4,-2.82 -0.4,-2.83 -0.41,-2.83 -0.4,-2.83 -0.41,-2.82 -0.4,-2.83 -0.4,-2.83 v -2.82 l -0.41,-2.83 -0.4,-2.83 -0.41,-2.82 v -3.23 l -0.4,-2.83 -0.4,-2.83 v -3.23 l -0.41,-2.83 v -2.82 l -0.4,-3.23 v -2.83 l -0.4,-3.23 v -6.06 l -0.41,-2.83 v -6.46 l -0.4,-2.82 v -15.75 l -0.41,-3.24 v -15.75 l 0.41,-3.23 v -16.15 l 0.4,-3.23 v -6.46 l 0.41,-3.23 v -6.46 l 0.4,-3.24 v -3.63 l 0.4,-3.23 v -3.23 l 0.41,-3.23 0.4,-3.23 v -3.64 l 0.4,-3.23 v -3.23 l 0.41,-3.63 0.4,-3.23 0.41,-3.24 v -3.63 l 0.4,-3.23 0.4,-3.23 0.41,-3.64 0.4,-3.23 0.41,-3.23 0.4,-3.63"
       style="fill:none;stroke:#000000;stroke-width:2.42308;stroke-linecap:butt;stroke-linejoin:round;stroke-miterlimit:10;stroke-dasharray:none;stroke-opacity:1"
       transform="matrix(0.03527778,0,0,-0.03527778,-31.37958,302.9786)"
       clip-path="url(#clipPath114)" />
    <path
       id="path115"
       d="m 2496.05,6663.98 h -6.87 l -1.61,-0.4 h -3.23 l -1.62,-0.4 -1.61,-0.41 h -2.02 l -1.62,-0.4 h -1.61 l -1.62,-0.41 -1.62,-0.4 -1.61,-0.4 -1.62,-0.41 -1.61,-0.4 -1.62,-0.4 -1.61,-0.41 -1.62,-0.4 -1.61,-0.41 -1.62,-0.8 -1.61,-0.41 -1.62,-0.4 -1.21,-0.81 -1.62,-0.4 -1.61,-0.81 -1.62,-0.4 -1.61,-0.81 -1.62,-0.41 -1.21,-0.8 -1.61,-0.81 -1.62,-0.81 -1.62,-0.81 -1.21,-0.8 -1.61,-0.81 -1.62,-0.81 -1.21,-0.81 -1.61,-0.81 -1.62,-0.8 -1.21,-0.81 -1.62,-1.21 -1.61,-0.81 -1.21,-0.81 -1.62,-1.21 -1.21,-0.81 -1.62,-1.21 -1.21,-1.21 -1.61,-0.81 -1.21,-1.21 -1.22,-1.21 -1.61,-1.21 -1.21,-0.81 -1.62,-1.21 -1.21,-1.21 -1.21,-1.21 -1.21,-1.22 -1.62,-1.61 -1.21,-1.21 -1.21,-1.21 -1.21,-1.22 -1.62,-1.61 -1.21,-1.21 -1.21,-1.21 -1.21,-1.62 -1.21,-1.21 -1.22,-1.62 -1.21,-1.61 -1.21,-1.21 -1.21,-1.62 -1.21,-1.61 -1.21,-1.62 -1.22,-1.21 -1.21,-1.62 -1.21,-1.61 -1.21,-1.62 -1.21,-1.61 -0.81,-2.02 -1.21,-1.62 -1.21,-1.61 -1.21,-1.62 -1.22,-1.61 -0.8,-2.02 -1.21,-1.62 -1.22,-2.02 -0.8,-1.61 -1.21,-2.02 -0.81,-1.62 -1.21,-2.02 -0.81,-2.02 -1.21,-1.61 -0.81,-2.02 -1.21,-2.02 -0.81,-2.02 -1.21,-2.02 -0.81,-2.02 -1.21,-2.02 -0.81,-2.02 -0.81,-2.02"
       style="fill:none;stroke:#000000;stroke-width:2.42308;stroke-linecap:butt;stroke-linejoin:round;stroke-miterlimit:10;stroke-dasharray:none;stroke-opacity:1"
       transform="matrix(0.03527778,0,0,-0.03527778,-31.37958,302.9786)"
       clip-path="url(#clipPath116)" />
    <path
       id="path117"
       d="m 2499.68,6663.98 h -3.63"
       style="fill:none;stroke:#000000;stroke-width:2.42308;stroke-linecap:butt;stroke-linejoin:round;stroke-miterlimit:10;stroke-dasharray:none;stroke-opacity:1"
       transform="matrix(0.03527778,0,0,-0.03527778,-31.37958,302.9786)"
       clip-path="url(#clipPath118)" />
    <path
       id="path119"
       d="m 63.131445,86.046108 c 0.02066,-0.09095 0.103352,-0.413411 0.347266,-0.413411 0.01654,0 0.103352,0 0.177766,0.04547 -0.09922,0.01654 -0.169498,0.107487 -0.169498,0.190169 0,0.05788 0.03721,0.124023 0.132292,0.124023 0.07855,0 0.190169,-0.06615 0.190169,-0.206705 0,-0.181901 -0.206705,-0.231511 -0.326596,-0.231511 -0.20257,0 -0.326594,0.186037 -0.367935,0.268719 -0.09095,-0.231511 -0.276987,-0.268719 -0.380338,-0.268719 -0.367938,0 -0.566376,0.454753 -0.566376,0.54157 0,0.03721 0.03721,0.03721 0.04134,0.03721 0.02894,0 0.04134,-0.0083 0.04548,-0.04134 0.119888,-0.37207 0.351399,-0.458885 0.471289,-0.458885 0.06615,0 0.19017,0.03307 0.19017,0.235643 0,0.107487 -0.05788,0.343133 -0.19017,0.835091 -0.05374,0.219109 -0.177768,0.367937 -0.334864,0.367937 -0.02066,0 -0.09922,0 -0.173633,-0.04548 0.08682,-0.02066 0.165364,-0.09508 0.165364,-0.190169 0,-0.09508 -0.07855,-0.124024 -0.132291,-0.124024 -0.103352,0 -0.190169,0.09095 -0.190169,0.202573 0,0.161229 0.173632,0.231511 0.330729,0.231511 0.23151,0 0.355534,-0.243915 0.367937,-0.264584 0.04134,0.128156 0.169498,0.264584 0.380339,0.264584 0.359666,0 0.562239,-0.45062 0.562239,-0.541571 0,-0.03307 -0.03307,-0.03307 -0.04548,-0.03307 -0.02894,0 -0.03721,0.01241 -0.04547,0.03721 -0.115755,0.376203 -0.351401,0.46302 -0.467156,0.46302 -0.136425,0 -0.19017,-0.115755 -0.19017,-0.23151 0,-0.07855 0.02066,-0.157096 0.05788,-0.31006 z m 10.463443,18.580782 c 0.02066,-0.091 0.103354,-0.41342 0.347266,-0.41342 0.01654,0 0.103354,0 0.177768,0.0455 -0.09922,0.0165 -0.1695,0.10749 -0.1695,0.19017 0,0.0579 0.03721,0.12402 0.132292,0.12402 0.07855,0 0.190169,-0.0661 0.190169,-0.2067 0,-0.1819 -0.206706,-0.23151 -0.326594,-0.23151 -0.202573,0 -0.326596,0.18603 -0.367937,0.26871 -0.09095,-0.23151 -0.276985,-0.26871 -0.380339,-0.26871 -0.367935,0 -0.566372,0.45475 -0.566372,0.54156 0,0.0372 0.03721,0.0372 0.04134,0.0372 0.02894,0 0.04134,-0.008 0.04547,-0.0413 0.11989,-0.37207 0.351401,-0.45889 0.471289,-0.45889 0.06615,0 0.190169,0.0331 0.190169,0.23565 0,0.10749 -0.05788,0.34313 -0.190169,0.83509 -0.05374,0.21911 -0.177766,0.36794 -0.334862,0.36794 -0.02066,0 -0.09922,0 -0.173633,-0.0455 0.08682,-0.0207 0.165365,-0.0951 0.165365,-0.19017 0,-0.0951 -0.07855,-0.12402 -0.132292,-0.12402 -0.103354,0 -0.190169,0.091 -0.190169,0.20257 0,0.16123 0.173633,0.23151 0.330729,0.23151 0.23151,0 0.355534,-0.24391 0.367935,-0.26458 0.04134,0.12816 0.1695,0.26458 0.380338,0.26458 0.35967,0 0.56224,-0.45062 0.56224,-0.54157 0,-0.0331 -0.03307,-0.0331 -0.04547,-0.0331 -0.02894,0 -0.03721,0.0124 -0.04548,0.0372 -0.115755,0.37621 -0.351398,0.46303 -0.467153,0.46303 -0.136427,0 -0.19017,-0.11576 -0.19017,-0.23151 0,-0.0786 0.02066,-0.1571 0.05788,-0.31006 z m 0,0"
       style="fill:#000000;fill-opacity:1;fill-rule:nonzero;stroke:none;stroke-width:0.352777" />
    <path
       id="path120"
       d="m 76.65,104.87907 h 0.979784 c 0.04961,0 0.115755,0 0.115755,-0.0703 0,-0.0703 -0.06615,-0.0703 -0.115755,-0.0703 H 76.65 v -0.98392 c 0,-0.0455 0,-0.11576 -0.07028,-0.11576 -0.07028,0 -0.07028,0.0703 -0.07028,0.11576 v 0.98392 h -0.983919 c -0.04961,0 -0.115755,0 -0.115755,0.0703 0,0.0703 0.06614,0.0703 0.115755,0.0703 h 0.983919 v 0.98805 c 0,0.0455 0,0.11575 0.07028,0.11575 0.07028,0 0.07028,-0.0703 0.07028,-0.11575 z m 3.630784,-1.64125 c -0.02479,-0.0455 -0.03307,-0.0661 -0.09095,-0.0661 -0.06201,0 -0.07028,0.0207 -0.09095,0.0661 l -1.190625,2.38125 c -0.01654,0.0331 -0.01654,0.0372 -0.01654,0.0413 0,0.0289 0.02066,0.0289 0.07855,0.0289 h 2.439127 c 0.05374,0 0.07441,0 0.07441,-0.0289 0,-0.004 0,-0.008 -0.01654,-0.0413 z m -0.206705,0.28526 0.946713,1.89756 h -1.893424 z m 0,0"
       style="fill:#000000;fill-opacity:1;fill-rule:nonzero;stroke:none;stroke-width:0.352777" />
    <path
       id="path121"
       d="m 82.827399,104.62689 c 0.02066,-0.091 0.103354,-0.41342 0.347266,-0.41342 0.01654,0 0.103354,0 0.177768,0.0455 -0.09922,0.0165 -0.1695,0.10749 -0.1695,0.19017 0,0.0579 0.03721,0.12402 0.132292,0.12402 0.07855,0 0.190169,-0.0661 0.190169,-0.2067 0,-0.1819 -0.206706,-0.23151 -0.326594,-0.23151 -0.202573,0 -0.326596,0.18603 -0.367937,0.26871 -0.09095,-0.23151 -0.276985,-0.26871 -0.380339,-0.26871 -0.367935,0 -0.566372,0.45475 -0.566372,0.54156 0,0.0372 0.03721,0.0372 0.04134,0.0372 0.02894,0 0.04134,-0.008 0.04547,-0.0413 0.11989,-0.37207 0.351401,-0.45889 0.471289,-0.45889 0.06615,0 0.190169,0.0331 0.190169,0.23565 0,0.10749 -0.05788,0.34313 -0.190169,0.83509 -0.05374,0.21911 -0.177766,0.36794 -0.334862,0.36794 -0.02066,0 -0.09922,0 -0.173633,-0.0455 0.08682,-0.0207 0.165365,-0.0951 0.165365,-0.19017 0,-0.0951 -0.07855,-0.12402 -0.132292,-0.12402 -0.103354,0 -0.190169,0.091 -0.190169,0.20257 0,0.16123 0.173632,0.23151 0.330729,0.23151 0.23151,0 0.355534,-0.24391 0.367935,-0.26458 0.04134,0.12816 0.1695,0.26458 0.380338,0.26458 0.35967,0 0.56224,-0.45062 0.56224,-0.54157 0,-0.0331 -0.03307,-0.0331 -0.04547,-0.0331 -0.02894,0 -0.03721,0.0124 -0.04548,0.0372 -0.115755,0.37621 -0.351398,0.46303 -0.467153,0.46303 -0.136427,0 -0.19017,-0.11576 -0.19017,-0.23151 0,-0.0786 0.02066,-0.1571 0.05788,-0.31006 z m 0,0"
       style="fill:#000000;fill-opacity:1;fill-rule:nonzero;stroke:none;stroke-width:0.352777" />
    <path
       id="path122"
       d="m 84.928564,105.47231 c 0,-0.21497 -0.103354,-0.339 -0.367938,-0.339 -0.20257,0 -0.330729,0.10749 -0.401008,0.23565 v -0.23565 l -0.363802,0.0248 v 0.091 c 0.165365,0 0.186034,0.0165 0.186034,0.13642 v 0.63665 c 0,0.10749 -0.02479,0.10749 -0.186034,0.10749 v 0.0868 c 0.0041,0 0.177766,-0.008 0.28112,-0.008 0.09095,0 0.260448,0.004 0.28112,0.008 v -0.0868 c -0.157096,0 -0.181901,0 -0.181901,-0.10748 v -0.44236 c 0,-0.26044 0.20257,-0.38033 0.363802,-0.38033 0.173633,0 0.194302,0.13642 0.194302,0.26045 v 0.56224 c 0,0.10748 -0.02479,0.10748 -0.181901,0.10748 v 0.0868 c 0.0041,0 0.177768,-0.008 0.28112,-0.008 0.09095,0 0.26045,0.004 0.28112,0.008 v -0.0868 c -0.16123,0 -0.186034,0 -0.186034,-0.10748 z m 0.706932,-0.22737 h 0.380339 v -0.0868 h -0.380339 v -0.45475 h -0.08682 c 0,0.22324 -0.103354,0.46715 -0.338998,0.47128 v 0.0703 h 0.231511 v 0.66559 c 0,0.27285 0.206706,0.33073 0.34313,0.33073 0.165365,0 0.276987,-0.14056 0.276987,-0.33487 V 105.77 h -0.08268 v 0.13229 c 0,0.1695 -0.07855,0.26045 -0.173633,0.26045 -0.1695,0 -0.1695,-0.20671 -0.1695,-0.25218 z m 0,0"
       style="fill:#000000;fill-opacity:1;fill-rule:nonzero;stroke:none;stroke-width:0.352777" />
    <path
       id="path123"
       d="m 72.042527,101.93454 c 0.02066,-0.0909 0.103355,-0.41341 0.347266,-0.41341 0.01654,0 0.103354,0 0.177768,0.0455 -0.09922,0.0165 -0.169497,0.10748 -0.169497,0.19017 0,0.0579 0.03721,0.12402 0.132292,0.12402 0.07855,0 0.190166,-0.0661 0.190166,-0.20671 0,-0.1819 -0.206703,-0.23151 -0.326594,-0.23151 -0.202572,0 -0.326593,0.18604 -0.367937,0.26872 -0.09095,-0.23151 -0.276984,-0.26872 -0.380339,-0.26872 -0.367934,0 -0.566372,0.45476 -0.566372,0.54157 0,0.0372 0.03721,0.0372 0.04134,0.0372 0.02894,0 0.04134,-0.008 0.04547,-0.0413 0.119891,-0.37207 0.351401,-0.45889 0.471292,-0.45889 0.06615,0 0.190166,0.0331 0.190166,0.23565 0,0.10748 -0.05787,0.34313 -0.190166,0.83509 -0.05375,0.21911 -0.177768,0.36793 -0.334865,0.36793 -0.02066,0 -0.09922,0 -0.173633,-0.0455 0.08682,-0.0207 0.165365,-0.0951 0.165365,-0.19017 0,-0.0951 -0.07855,-0.12403 -0.132292,-0.12403 -0.103351,0 -0.190169,0.091 -0.190169,0.20258 0,0.16123 0.173633,0.23151 0.330729,0.23151 0.231511,0 0.355534,-0.24392 0.367938,-0.26459 0.04134,0.12816 0.169497,0.26459 0.380338,0.26459 0.359667,0 0.562237,-0.45062 0.562237,-0.54157 0,-0.0331 -0.03307,-0.0331 -0.04547,-0.0331 -0.02894,0 -0.03721,0.0124 -0.04548,0.0372 -0.115756,0.37621 -0.351399,0.46302 -0.467154,0.46302 -0.136424,0 -0.190169,-0.11575 -0.190169,-0.23151 0,-0.0786 0.02066,-0.15709 0.05788,-0.31006 z m 0,0"
       style="fill:#000000;fill-opacity:1;fill-rule:nonzero;stroke:none;stroke-width:0.352777" />
    <path
       id="path124"
       d="m 75.097639,102.18672 h 0.979784 c 0.04961,0 0.115755,0 0.115755,-0.0703 0,-0.0703 -0.06615,-0.0703 -0.115755,-0.0703 h -0.979784 v -0.98392 c 0,-0.0455 0,-0.11575 -0.07028,-0.11575 -0.07028,0 -0.07028,0.0703 -0.07028,0.11575 v 0.98392 H 73.97316 c -0.04961,0 -0.115755,0 -0.115755,0.0703 0,0.0703 0.06615,0.0703 0.115755,0.0703 h 0.983919 v 0.98806 c 0,0.0455 0,0.11575 0.07028,0.11575 0.07028,0 0.07028,-0.0703 0.07028,-0.11575 z m 3.630787,-1.64124 c -0.02479,-0.0455 -0.03307,-0.0661 -0.09095,-0.0661 -0.06201,0 -0.07028,0.0207 -0.09095,0.0661 l -1.190625,2.38125 c -0.01654,0.0331 -0.01654,0.0372 -0.01654,0.0413 0,0.0289 0.02066,0.0289 0.07855,0.0289 h 2.439128 c 0.05374,0 0.07441,0 0.07441,-0.0289 0,-0.004 0,-0.008 -0.01654,-0.0413 z m -0.206705,0.28525 0.946711,1.89756 h -1.893425 z m 0,0"
       style="fill:#000000;fill-opacity:1;fill-rule:nonzero;stroke:none;stroke-width:0.352777" />
    <path
       id="path125"
       d="m 81.275041,101.93454 c 0.02066,-0.0909 0.103352,-0.41341 0.347266,-0.41341 0.01654,0 0.103351,0 0.177765,0.0455 -0.09922,0.0165 -0.1695,0.10748 -0.1695,0.19017 0,0.0579 0.03721,0.12402 0.132292,0.12402 0.07855,0 0.190172,-0.0661 0.190172,-0.20671 0,-0.1819 -0.206709,-0.23151 -0.326597,-0.23151 -0.20257,0 -0.326596,0.18604 -0.367934,0.26872 -0.09095,-0.23151 -0.276987,-0.26872 -0.380339,-0.26872 -0.367938,0 -0.566375,0.45476 -0.566375,0.54157 0,0.0372 0.03721,0.0372 0.04134,0.0372 0.02894,0 0.04134,-0.008 0.04548,-0.0413 0.119888,-0.37207 0.351398,-0.45889 0.471286,-0.45889 0.06615,0 0.190172,0.0331 0.190172,0.23565 0,0.10748 -0.05788,0.34313 -0.190172,0.83509 -0.05374,0.21911 -0.177765,0.36793 -0.334862,0.36793 -0.02066,0 -0.09922,0 -0.173633,-0.0455 0.08682,-0.0207 0.165365,-0.0951 0.165365,-0.19017 0,-0.0951 -0.07855,-0.12403 -0.132292,-0.12403 -0.103354,0 -0.190169,0.091 -0.190169,0.20258 0,0.16123 0.173633,0.23151 0.330729,0.23151 0.231511,0 0.355534,-0.24392 0.367935,-0.26459 0.04134,0.12816 0.1695,0.26459 0.380339,0.26459 0.359669,0 0.562239,-0.45062 0.562239,-0.54157 0,-0.0331 -0.03307,-0.0331 -0.04547,-0.0331 -0.02894,0 -0.03721,0.0124 -0.04547,0.0372 -0.115755,0.37621 -0.351401,0.46302 -0.467156,0.46302 -0.136427,0 -0.190169,-0.11575 -0.190169,-0.23151 0,-0.0786 0.02066,-0.15709 0.05788,-0.31006 z m 0,0"
       style="fill:#000000;fill-opacity:1;fill-rule:nonzero;stroke:none;stroke-width:0.352777" />
    <path
       id="path126"
       d="m 83.376203,102.77997 c 0,-0.21497 -0.103352,-0.339 -0.367935,-0.339 -0.202573,0 -0.330729,0.10749 -0.40101,0.23565 v -0.23565 l -0.363802,0.0248 v 0.091 c 0.165364,0 0.186036,0.0165 0.186036,0.13642 v 0.63666 c 0,0.10748 -0.02479,0.10748 -0.186036,0.10748 v 0.0868 c 0.0041,0 0.177768,-0.008 0.281119,-0.008 0.09095,0 0.260451,0.004 0.28112,0.008 v -0.0868 c -0.157096,0 -0.181901,0 -0.181901,-0.10748 v -0.44235 c 0,-0.26045 0.202573,-0.38034 0.363802,-0.38034 0.173633,0 0.194305,0.13642 0.194305,0.26045 v 0.56224 c 0,0.10748 -0.02479,0.10748 -0.181901,0.10748 v 0.0868 c 0.0041,0 0.177766,-0.008 0.28112,-0.008 0.09095,0 0.260448,0.004 0.28112,0.008 v -0.0868 c -0.161232,0 -0.186037,0 -0.186037,-0.10748 z m 1.221632,-0.28939 c 0,-0.0413 0,-0.062 -0.03721,-0.062 -0.01241,0 -0.01654,0 -0.04961,0.0289 -0.0041,0 -0.02894,0.0248 -0.04134,0.0372 -0.07441,-0.0538 -0.169498,-0.0662 -0.260448,-0.0662 -0.351401,0 -0.434084,0.1819 -0.434084,0.30593 0,0.0785 0.03307,0.14469 0.09095,0.19016 0.09509,0.0827 0.190169,0.0992 0.338997,0.12403 0.124024,0.0248 0.322461,0.0579 0.322461,0.22324 0,0.0951 -0.06615,0.20671 -0.301789,0.20671 -0.235646,0 -0.322461,-0.15297 -0.363802,-0.32247 -0.0083,-0.0289 -0.01241,-0.0413 -0.04548,-0.0413 -0.04134,0 -0.04134,0.0165 -0.04134,0.0662 v 0.30179 c 0,0.0455 0,0.0661 0.03307,0.0661 0.02066,0 0.07028,-0.0537 0.119891,-0.10748 0.107487,0.10335 0.239779,0.10748 0.297656,0.10748 0.322461,0 0.438216,-0.17363 0.438216,-0.34726 0,-0.0951 -0.04134,-0.16537 -0.103354,-0.22738 -0.09508,-0.0868 -0.206706,-0.10335 -0.293521,-0.11989 -0.198437,-0.0331 -0.355533,-0.062 -0.355533,-0.1943 0,-0.0785 0.06614,-0.17363 0.297656,-0.17363 0.285252,0 0.297656,0.19844 0.301789,0.26871 0.0041,0.0289 0.03307,0.0289 0.04134,0.0289 0.04548,0 0.04548,-0.0165 0.04548,-0.0661 z m 1.056266,-0.64492 v 0.0868 c 0.165365,0 0.181902,0.0165 0.181902,0.13642 v 0.51263 c -0.09095,-0.091 -0.206706,-0.14056 -0.343133,-0.14056 -0.326594,0 -0.603581,0.24392 -0.603581,0.55397 0,0.30593 0.26045,0.55397 0.574643,0.55397 0.20257,0 0.322461,-0.10748 0.363802,-0.15296 v 0.15296 l 0.380339,-0.0248 v -0.0868 c -0.165365,0 -0.186037,-0.0207 -0.186037,-0.14056 v -1.48002 z m 0.173633,1.42213 c -0.06201,0.11163 -0.190169,0.21085 -0.347265,0.21085 -0.14056,0 -0.239779,-0.0785 -0.285256,-0.15297 -0.04961,-0.0703 -0.07855,-0.1695 -0.07855,-0.32659 0,-0.0579 0,-0.24392 0.09922,-0.35967 0.09922,-0.10749 0.219107,-0.13229 0.289388,-0.13229 0.119888,0 0.223243,0.0537 0.293521,0.14469 0.02894,0.0372 0.02894,0.0413 0.02894,0.0868 z m 0,0"
       style="fill:#000000;fill-opacity:1;fill-rule:nonzero;stroke:none;stroke-width:0.352777" />
  </g>
</svg>
